<?xml version="1.0" encoding="utf-8"?>
<!-- Generator: Adobe Illustrator 28.0.0, SVG Export Plug-In . SVG Version: 6.00 Build 0)  -->
<svg version="1.1"
	 id="Layer_1" xmlns:rdf="http://www.w3.org/1999/02/22-rdf-syntax-ns#" xmlns:cc="http://creativecommons.org/ns#" xmlns:dc="http://purl.org/dc/elements/1.1/"
	 xmlns="http://www.w3.org/2000/svg" xmlns:xlink="http://www.w3.org/1999/xlink" x="0px" y="0px" viewBox="0 0 292.9 125"
	 style="enable-background:new 0 0 292.9 125;" xml:space="preserve">
<style type="text/css">
	.st0{fill:#231F20;}
	.st1{fill:#58A5DB;}
</style>
<g transform="matrix(1.25,0,0,-1.25,-174.50625,448.65394)">
	<g transform="matrix(2.3432635,0,0,2.3432635,-187.5263,-347.47003)">
		<g transform="translate(171,297.882)">
			<path class="st0" d="M-3.9-6.9h7.3v-1.6h-5.2v-1.6h4.6v-1.6h-4.6v-1.7h5.3V-15h-7.4V-6.9"/>
		</g>
		<g transform="translate(176.582,301.457)">
			<path class="st0" d="M-5.7-8.1l1.8-0.6l-1.5-1.2h-1.7L-5.7-8.1"/>
		</g>
		<g transform="translate(235.72,291.9)">
			<path class="st0" d="M-24.6-5L-24.6-5c0,1.4-1.2,2.6-2.9,2.6c-1.7,0-2.9-1.1-2.9-2.5v0c0-1.4,1.2-2.5,2.9-2.5
				C-25.8-7.5-24.6-6.4-24.6-5 M-32.6-5L-32.6-5c0,2.3,2.2,4.2,5.1,4.2c3,0,5.1-1.9,5.1-4.1v0c0-2.3-2.2-4.2-5.1-4.2
				S-32.6-7.3-32.6-5"/>
		</g>
		<g transform="translate(247.198,292.102)">
			<path class="st0" d="M-28.2-5.1c1,0,1.6,0.5,1.6,1.1v0c0,0.8-0.6,1.2-1.7,1.2h-2.1v-2.3H-28.2 M-32.5-1.2h4.4
				c1.2,0,2.2-0.3,2.8-0.8c0.5-0.4,0.8-1.1,0.8-1.8v0c0-1.3-0.8-2.1-2.1-2.5l2.4-2.9h-2.5l-2.1,2.6h-1.7v-2.6h-2.1V-1.2"/>
		</g>
		<g transform="translate(149.006,288.533)">
			<path class="st0" d="M3.1-4L1.5-2.8l1.3,1.3l1.6-1.2c0.2,0.3,0.3,0.7,0.3,1.1v0c0,1.4-1.2,2.5-2.9,2.5c-1.7,0-2.9-1.1-2.9-2.5v0
				c0-1.4,1.2-2.5,2.9-2.5C2.3-4.2,2.7-4.1,3.1-4 M4.6-5.1C3.8-5.6,2.9-5.8,1.8-5.8c-3,0-5.1,1.9-5.1,4.1v0c0,2.3,2.2,4.2,5.1,4.2
				c3,0,5.1-1.9,5.1-4.1v0c0-0.8-0.3-1.6-0.9-2.3l1-0.7L5.7-5.9L4.6-5.1"/>
		</g>
		<g transform="translate(156.384,291.088)">
			<path class="st0" d="M0.7-4.8v4.6h2.1v-4.6c0-1.3,0.8-2,2.1-2C6.2-6.7,7-6.1,7-4.8v4.6h2.1v-4.5c0-2.4-1.6-3.6-4.2-3.6
				C2.3-8.4,0.7-7.1,0.7-4.8"/>
		</g>
		<g transform="translate(190.927,288.296)">
			<path class="st0" d="M-10.3-3.9c0.9,0,1.5,0.3,1.5,0.9v0c0,0.5-0.5,0.9-1.6,0.9h-2.5v-1.8H-10.3 M-10.9-0.6
				c0.9,0,1.5,0.3,1.5,0.9v0c0,0.5-0.5,0.8-1.4,0.8h-2.1v-1.7C-12.8-0.6-10.9-0.6-10.9-0.6z M-14.9,2.6h4.5c1.1,0,2-0.3,2.5-0.7
				c0.4-0.4,0.7-0.8,0.7-1.4v0c0-0.9-0.6-1.4-1.3-1.7c1.1-0.4,1.8-0.9,1.8-2v0c0-1.5-1.4-2.2-3.6-2.2h-4.6V2.6"/>
		</g>
		<g transform="translate(198.125,297.852)">
			<path class="st0" d="M-12.6-6.9h7.3v-1.6h-5.2v-1.6h4.5v-1.6h-4.5v-1.7h5.2V-15h-7.3V-6.9"/>
		</g>
		<g transform="translate(210.229,291.9)">
			<path class="st0" d="M-16.5-5L-16.5-5c0,2.3,2.1,4.2,5,4.2c1.8,0,2.9-0.5,3.8-1.2L-9-3.4c-0.7,0.6-1.5,0.9-2.5,0.9
				c-1.6,0-2.8-1.1-2.8-2.5v0c0-1.4,1.1-2.5,2.8-2.5c1.1,0,1.8,0.4,2.5,0.9l1.3-1.1c-1-0.9-2.1-1.4-4-1.4C-14.3-9.2-16.5-7.3-16.5-5
				"/>
		</g>
		<g transform="translate(184.593,258.676)">
			<path class="st1" d="M-8.3,5.6c0,0,17.7,27.6,57.9,17.7C49.7,23.2,14.3,29.6-8.3,5.6"/>
		</g>
	</g>
</g>
</svg>
