<?xml version="1.0" encoding="UTF-8"?>
<svg id="control-energy" xmlns="http://www.w3.org/2000/svg" viewBox="0 0 100 100">
  <defs>
    <style>
      .cls-1 {
        stroke: #fff;
        stroke-width: 2.15px;
      }

      .cls-1, .cls-2, .cls-3, .cls-4, .cls-5 {
        fill: #fff;
      }

      .cls-1, .cls-6, .cls-3, .cls-4, .cls-7, .cls-5, .cls-8, .cls-9, .cls-10, .cls-11, .cls-12, .cls-13, .cls-14, .cls-15, .cls-16 {
        stroke-miterlimit: 10;
      }

      .cls-6, .cls-3, .cls-4, .cls-7, .cls-5, .cls-8, .cls-9, .cls-10, .cls-11, .cls-12, .cls-13, .cls-14, .cls-15, .cls-16, .cls-17 {
        stroke: #231f20;
      }

      .cls-6, .cls-18, .cls-8, .cls-14 {
        fill: #a6bc39;
      }

      .cls-6, .cls-13 {
        stroke-width: .27px;
      }

      .cls-19 {
        stroke: #2fbaed;
      }

      .cls-19, .cls-20 {
        stroke-width: .13px;
      }

      .cls-19, .cls-20, .cls-7, .cls-10, .cls-11, .cls-21, .cls-15, .cls-16, .cls-17 {
        fill: none;
      }

      .cls-19, .cls-20, .cls-17 {
        stroke-linecap: round;
        stroke-linejoin: round;
      }

      .cls-3 {
        stroke-width: .67px;
      }

      .cls-20 {
        stroke: #a6bc39;
        stroke-dasharray: 0 0 1.04 .52;
      }

      .cls-4 {
        stroke-width: .51px;
      }

      .cls-7, .cls-17 {
        stroke-width: .26px;
      }

      .cls-22, .cls-9, .cls-12, .cls-13 {
        fill: #2fbaed;
      }

      .cls-5, .cls-15 {
        stroke-width: 1.07px;
      }

      .cls-8, .cls-9 {
        stroke-width: .34px;
      }

      .cls-10 {
        stroke-width: .81px;
      }

      .cls-11 {
        stroke-width: .27px;
      }

      .cls-12, .cls-14 {
        stroke-width: .19px;
      }

      .cls-16 {
        stroke-width: .54px;
      }

      .cls-23 {
        fill: #231f20;
      }
    </style>
  </defs>
  <path class="cls-23" d="m88.66,68.43c.2,3.99.55,8.27.55,12.27-.08.6.04,1.5-.37,1.99-.52.64-1.34.52-1.99.51,0,0-1.75-.03-1.75-.03l-3.5-.06-7.01-.14v-.12l7.01-.14,3.5-.06,1.75-.03c.5.03,1.24-.05,1.23-.62-.24-1.82-.01-4.7.08-6.55.09-2.34.23-4.67.37-7.01h.12Z"/>
  <path class="cls-23" d="m55.55,18.5c10.22-.18,20.43-.32,30.65-.43.69.04,1.43-.17,2.13.2.39.2.79.63.79,1.21v.96s.07,3.83.07,3.83c.08,7.67-.07,15.33-.54,22.99,0,0-.12,0-.12,0-.55-8.91-.66-17.89-.48-26.82,0,0,.01-.96.01-.96-.04-.35-.54-.45-.91-.42-10.45-.24-21.39-.03-31.61-.56h0Z"/>
  <path class="cls-23" d="m46.77,82.96c-2.22.04-7.8.13-9.94.16,0,0-1.66.03-1.66.03-.32-.03-.94.04-1.27.01-.54-.04-1.01-.49-1.08-1.03-.04-.6-.02-1.91-.04-2.52,0-12.01-.76-24.66.36-36.43.85,12.61.34,25.45.24,38.09,0,.26-.01.59,0,.79.08.48.45.62.96.59.53.03,1.94.02,2.48.04,2.12.04,7.75.12,9.94.16,0,0,0,.11,0,.11h0Z"/>
  <path class="cls-21" d="m55.99,37.92l-2.31,2.92c-.14.18-.33.28-.53.28H6.34c-.21,0-.4-.1-.55-.28l-2.31-2.92c-.46-.59-.12-1.57.55-1.57h2.48V13.71c0-1.19.97-2.17,2.18-2.17h42.47c1.21,0,2.18.98,2.18,2.17v22.63h2.12c.67,0,1,.99.53,1.57Z"/>
  <g>
    <g>
      <path class="cls-5" d="m6.87,36.23V13.85c0-1.19.96-2.15,2.15-2.15h41.8c1.19,0,2.15.96,2.15,2.15v18.58"/>
      <g>
        <path class="cls-2" d="m9.37,34.66v-18.47c0-1.01.82-1.83,1.83-1.83h37.43c1.01,0,1.83.82,1.83,1.83v17.69"/>
        <path class="cls-23" d="m9.33,34.66c.01-5.19-.15-13.49-.13-18.61.12-1.62,1.6-2.03,2.97-1.9,0,0,2.48-.02,2.48-.02l4.96-.03c7.16-.03,17.67-.16,24.79-.15,0,0,2.48,0,2.48,0,.37.01,1.49-.02,1.88,0,.76.04,1.46.51,1.81,1.17.25.42.28,1.02.25,1.38,0,0-.03,2.48-.03,2.48-.15,4.75.01,10.31-.38,14.88-.14-4.77-.25-10.08-.3-14.88,0,0-.03-2.48-.03-2.48.09-.93-.48-1.71-1.38-1.76-1.08,0-3.21,0-4.32,0-9.09,0-20.66-.14-29.75-.18,0,0-2.48-.02-2.48-.02-.79,0-1.61-.13-2.17.51-.59.48-.42,1.57-.46,2.23,0,0-.02,2.48-.02,2.48-.03,3.17-.08,11.61-.11,14.88,0,0-.08,0-.08,0h0Z"/>
      </g>
      <path class="cls-5" d="m46.77,40.96H6.71c-.2,0-.39-.1-.53-.28l-2.27-2.89c-.46-.58-.12-1.55.53-1.55h43.95"/>
    </g>
    <path class="cls-4" d="m17.36,16.61h24.08c.76,0,1.38.62,1.38,1.38v13.98c0,.65-.53,1.18-1.18,1.18h-24.48c-.65,0-1.18-.53-1.18-1.18v-13.98c0-.76.62-1.38,1.38-1.38Z"/>
    <g>
      <path class="cls-23" d="m40.22,20.79l-4.32,3.41-.08.06-.09-.05-4.86-2.62.3-.02c-1.47,1.05-3.03,2.3-4.58,3.06,1.41-1.28,2.88-2.48,4.4-3.6,0,0,.15.09.15.09l4.75,2.81h-.17s4.48-3.18,4.48-3.18l.03.04h0Z"/>
      <circle class="cls-9" cx="26.61" cy="24.58" r=".56"/>
      <circle class="cls-9" cx="39.64" cy="21.18" r=".56"/>
      <circle class="cls-8" cx="31.09" cy="21.18" r=".56"/>
      <circle class="cls-8" cx="35.83" cy="24.06" r=".56"/>
    </g>
    <line class="cls-15" x1="17.94" y1="21.18" x2="23.89" y2="21.18"/>
    <line class="cls-15" x1="25.51" y1="21.18" x2="24.59" y2="21.18"/>
    <line class="cls-15" x1="17.94" y1="23.2" x2="25.51" y2="23.2"/>
    <rect class="cls-12" x="19.85" y="30.38" width="2.77" height="4.27"/>
    <rect class="cls-6" x="25.23" y="26.11" width="2.77" height="8.54"/>
    <rect class="cls-14" x="30.62" y="30.38" width="2.77" height="4.27"/>
    <rect class="cls-13" x="36" y="26.11" width="2.77" height="8.54"/>
    <line class="cls-16" x1="15.98" y1="34.66" x2="42.82" y2="34.66"/>
    <line class="cls-11" x1="15.98" y1="18.98" x2="42.82" y2="18.98"/>
    <line class="cls-16" x1="17.94" y1="18" x2="18.62" y2="18"/>
    <line class="cls-16" x1="19.43" y1="18" x2="20.1" y2="18"/>
    <line class="cls-16" x1="20.91" y1="18" x2="21.59" y2="18"/>
    <line class="cls-16" x1="24.71" y1="18" x2="40.4" y2="18"/>
  </g>
  <g>
    <g>
      <path class="cls-21" d="m46.77,88.46v-51.35l8.67-7.59,19.15,7.21v51.73h-27.82Zm24.59-.2v-49.38l-15.24-5.74-6.13,5.36v49.76h21.37Z"/>
      <polygon class="cls-5" points="71.36 87.85 50 87.85 50 38.51 55.99 33.07 71.36 38.65 71.36 87.85"/>
    </g>
    <g>
      <rect class="cls-22" x="63.8" y="76.38" width="5.01" height="5.01" rx=".4" ry=".4"/>
      <rect class="cls-18" x="54.57" y="76.38" width="5.01" height="5.01" rx=".4" ry=".4"/>
      <rect class="cls-10" x="62.95" y="75.4" width="5.01" height="5.01" rx=".4" ry=".4"/>
      <rect class="cls-10" x="53.7" y="75.4" width="5.01" height="5.01" rx=".4" ry=".4"/>
      <rect class="cls-18" x="63.8" y="68.78" width="5.01" height="5.01" rx=".4" ry=".4"/>
      <rect class="cls-22" x="54.57" y="68.78" width="5.01" height="5.01" rx=".4" ry=".4"/>
      <rect class="cls-10" x="62.95" y="67.88" width="5.01" height="5.01" rx=".4" ry=".4"/>
      <rect class="cls-10" x="53.7" y="67.88" width="5.01" height="5.01" rx=".4" ry=".4"/>
      <rect class="cls-22" x="63.8" y="61.24" width="5.01" height="5.01" rx=".4" ry=".4"/>
      <rect class="cls-10" x="62.95" y="60.36" width="5.01" height="5.01" rx=".4" ry=".4"/>
      <rect class="cls-18" x="54.57" y="61.24" width="5.01" height="5.01" rx=".4" ry=".4"/>
      <rect class="cls-10" x="53.7" y="60.36" width="5.01" height="5.01" rx=".4" ry=".4"/>
      <rect class="cls-18" x="63.8" y="53.79" width="5.01" height="5.01" rx=".4" ry=".4"/>
      <rect class="cls-10" x="62.95" y="52.85" width="5.01" height="5.01" rx=".4" ry=".4"/>
      <rect class="cls-22" x="54.57" y="53.79" width="5.01" height="5.01" rx=".4" ry=".4"/>
      <rect class="cls-10" x="53.7" y="52.85" width="5.01" height="5.01" rx=".4" ry=".4"/>
      <rect class="cls-22" x="63.8" y="46.19" width="5.01" height="5.01" rx=".4" ry=".4"/>
      <rect class="cls-10" x="62.95" y="45.33" width="5.01" height="5.01" rx=".4" ry=".4"/>
      <rect class="cls-18" x="54.57" y="46.19" width="5.01" height="5.01" rx=".4" ry=".4"/>
      <rect class="cls-10" x="53.7" y="45.33" width="5.01" height="5.01" rx=".4" ry=".4"/>
    </g>
  </g>
  <g>
    <polygon class="cls-1" points="94.36 48.62 82.84 48.62 80.47 49.54 80.47 66.2 82.84 67.3 94.36 67.3 96.73 66.2 96.73 49.54 94.36 48.62"/>
    <polygon class="cls-3" points="94.36 48.51 82.84 48.51 80.47 49.43 80.47 66.09 82.84 67.19 94.36 67.19 96.73 66.09 96.73 49.43 94.36 48.51"/>
    <path class="cls-23" d="m82.54,49.22c-.01,5.13.45,12.5-.04,17.48-.34-5.02-.1-12.46.04-17.48h0Z"/>
    <path class="cls-23" d="m94.58,49.22c-.01,5.13.45,12.5-.04,17.48-.34-5.02-.1-12.46.04-17.48h0Z"/>
    <rect class="cls-7" x="84.08" y="51.23" width="8.79" height="9.33"/>
    <g>
      <g>
        <polyline class="cls-19" points="84.72 51.55 85.04 52.07 85.36 51.55 85.68 52.07 86 51.55 86.32 52.07 86.64 51.55 86.96 52.07 87.28 51.55 87.6 52.07 87.93 51.55 88.25 52.07 88.57 51.55 88.89 52.07 89.22 51.55 89.54 52.07 89.86 51.55 90.18 52.07 90.51 51.55 90.83 52.07 91.15 51.55 91.48 52.07 91.8 51.55 92.13 52.07"/>
        <line class="cls-7" x1="84.72" y1="52.48" x2="88.03" y2="52.48"/>
        <line class="cls-7" x1="84.72" y1="53.09" x2="88.03" y2="53.09"/>
        <line class="cls-7" x1="84.72" y1="53.69" x2="88.03" y2="53.69"/>
        <line class="cls-7" x1="84.72" y1="54.3" x2="88.03" y2="54.3"/>
        <line class="cls-7" x1="84.72" y1="54.9" x2="88.03" y2="54.9"/>
      </g>
      <rect class="cls-22" x="89.13" y="52.88" width="3.24" height="2.46" rx=".2" ry=".2"/>
      <rect class="cls-17" x="88.72" y="52.48" width="3.24" height="2.42"/>
    </g>
    <g>
      <g>
        <line class="cls-7" x1="84.72" y1="56.65" x2="88.03" y2="56.65"/>
        <line class="cls-7" x1="84.72" y1="57.25" x2="88.03" y2="57.25"/>
        <line class="cls-7" x1="84.72" y1="57.85" x2="88.03" y2="57.85"/>
        <line class="cls-7" x1="84.72" y1="58.46" x2="88.03" y2="58.46"/>
        <line class="cls-7" x1="84.72" y1="59.16" x2="88.03" y2="59.16"/>
        <line class="cls-20" x1="84.72" y1="56.23" x2="92.13" y2="56.23"/>
      </g>
      <rect class="cls-18" x="89.13" y="57.08" width="3.24" height="2.52" rx=".2" ry=".2"/>
      <rect class="cls-17" x="88.72" y="56.64" width="3.24" height="2.52"/>
    </g>
  </g>
</svg>