<?xml version="1.0" encoding="UTF-8"?>
<svg id="Cx" xmlns="http://www.w3.org/2000/svg" viewBox="0 0 100 100">
  <defs>
    <style>
      .cls-1 {
        stroke-width: .48px;
      }

      .cls-1, .cls-2, .cls-3, .cls-4, .cls-5, .cls-6, .cls-7, .cls-8, .cls-9, .cls-10, .cls-11 {
        stroke-miterlimit: 10;
      }

      .cls-1, .cls-2, .cls-4, .cls-5, .cls-12, .cls-9, .cls-10, .cls-11 {
        stroke: #231f20;
      }

      .cls-1, .cls-13, .cls-14, .cls-3, .cls-5, .cls-6, .cls-7, .cls-8, .cls-10 {
        fill: #fff;
      }

      .cls-2 {
        stroke-width: .24px;
      }

      .cls-2, .cls-4, .cls-12, .cls-9, .cls-11 {
        fill: none;
      }

      .cls-14, .cls-6 {
        stroke-width: .82px;
      }

      .cls-14, .cls-7, .cls-8 {
        stroke: #a6bc39;
      }

      .cls-14, .cls-12 {
        stroke-linecap: round;
        stroke-linejoin: round;
      }

      .cls-3 {
        stroke: #2fbaed;
      }

      .cls-3, .cls-8 {
        stroke-width: .55px;
      }

      .cls-4 {
        stroke-width: .23px;
      }

      .cls-15 {
        fill: #2fbaed;
      }

      .cls-5 {
        stroke-width: .46px;
      }

      .cls-6 {
        stroke: #010101;
      }

      .cls-7 {
        stroke-width: .32px;
      }

      .cls-12 {
        stroke-width: 1.02px;
      }

      .cls-9 {
        stroke-width: .93px;
      }

      .cls-10 {
        stroke-width: .44px;
      }

      .cls-16 {
        fill: #231f20;
      }

      .cls-11 {
        stroke-width: .27px;
      }
    </style>
  </defs>
  <g>
    <rect class="cls-16" x="6.7" y="14.29" width="72.58" height="63.58" rx="1.46" ry="1.46"/>
    <rect class="cls-13" x="11.86" y="20.35" width="61.86" height="51.78" rx="2.46" ry="2.46"/>
    <polygon class="cls-16" points="47.8 47.25 47.8 42.45 68.34 42.45 68.34 41.52 47.8 41.52 47.8 36.71 56.04 36.71 66.38 26.95 65.75 26.27 55.67 35.78 47.8 35.78 47.8 32.14 31.33 21.69 21.14 21.69 21.14 39.58 23.5 41.38 36.27 41.38 36.27 40.45 23.81 40.45 22.07 39.12 22.07 22.62 31.06 22.62 46.87 32.65 46.87 45.29 42.19 45.29 32.61 57.41 22.7 57.41 22.7 58.34 33.06 58.34 42.64 46.22 46.87 46.22 46.87 65.48 47.8 65.48 47.8 48.18 55.59 48.18 63.54 55.32 64.17 54.64 55.95 47.25 47.8 47.25"/>
    <polygon class="cls-15" points="21.83 69.81 18.53 60.76 21.83 52.29 25.12 60.76 21.83 69.81"/>
    <rect class="cls-15" x="15.16" y="28.98" width="13.32" height="8.2" rx=".3" ry=".3" transform="translate(54.9 11.25) rotate(90)"/>
    <rect class="cls-9" x="14.18" y="27.91" width="13.32" height="8.2" rx=".3" ry=".3" transform="translate(52.85 11.16) rotate(90)"/>
    <polygon class="cls-12" points="20.66 69.21 17.37 60.16 20.66 51.68 23.96 60.16 20.66 69.21"/>
    <path class="cls-7" d="m69.66,27.07l-.46-.61c-.12-.15-.14-.36-.08-.54.04-.1.07-.21.09-.32s.03-.22.04-.33c0-.19.1-.37.27-.47l.65-.4c.09-.03.13-.12.1-.21l-.12-.36c-.03-.09-.12-.13-.21-.1l-.76.09c-.19.02-.37-.05-.5-.2-.15-.17-.32-.32-.51-.44-.17-.11-.27-.28-.28-.48l-.02-.75c.02-.09-.04-.18-.13-.19l-.37-.07c-.09-.02-.18.04-.19.13l-.29.69c-.08.18-.24.31-.43.34-.22.04-.44.12-.64.22-.17.09-.37.09-.53,0l-.67-.37c-.07-.06-.17-.05-.23.02l-.25.29c-.06.07-.05.17.02.23l.46.61c.12.15.14.36.08.54-.04.1-.07.21-.09.32s-.03.22-.04.33c0,.19-.1.37-.27.47l-.65.4c-.09.03-.13.12-.1.21l.12.36c.03.09.12.13.21.1l.76-.09c.19-.02.37.05.5.2.15.17.32.32.51.44.17.11.27.28.28.48l.02.75c-.02.09.04.18.13.19l.37.07c.09.02.18-.04.19-.13l.29-.69c.08-.18.24-.31.43-.34.22-.04.44-.12.64-.22.17-.09.37-.09.53,0l.67.37c.07.06.17.05.23-.02l.25-.29c.06-.07.05-.17-.02-.23Zm-2.96-.79c-.62-.12-1.02-.71-.9-1.33s.71-1.02,1.33-.9,1.02.71.9,1.33-.71,1.02-1.33.9Z"/>
    <path class="cls-8" d="m68.67,58.9l-.55-.73c-.14-.19-.17-.43-.09-.65.04-.13.08-.26.1-.39s.04-.27.05-.4c0-.23.13-.45.32-.57l.78-.48c.1-.04.16-.15.12-.25l-.15-.43c-.04-.1-.15-.16-.25-.12l-.91.11c-.23.03-.45-.06-.6-.24-.18-.21-.39-.39-.62-.53-.2-.13-.33-.34-.33-.58l-.02-.91c.02-.11-.05-.21-.16-.23l-.45-.09c-.11-.02-.21.05-.23.16l-.35.84c-.09.22-.29.37-.52.42-.27.05-.53.14-.77.27-.2.11-.44.11-.64,0l-.81-.44c-.08-.07-.21-.06-.28.02l-.3.35c-.07.08-.06.21.02.28l.55.73c.14.19.17.43.09.65-.04.13-.08.26-.1.39s-.04.27-.05.4c0,.23-.13.45-.32.57l-.78.48c-.1.04-.16.15-.12.25l.15.43c.04.1.15.16.25.12l.91-.11c.23-.03.45.06.6.24.18.21.39.39.62.53.2.13.33.34.33.58l.02.91c-.02.11.05.21.16.23l.45.09c.11.02.21-.05.23-.16l.35-.84c.09-.22.29-.37.52-.42.27-.05.53-.14.77-.27.2-.11.44-.11.64,0l.81.44c.08.07.21.06.28-.02l.3-.35c.07-.08.06-.21-.02-.28Zm-3.58-.95c-.74-.14-1.23-.86-1.09-1.6s.86-1.23,1.6-1.09,1.23.86,1.09,1.6-.86,1.23-1.6,1.09Z"/>
    <g>
      <path class="cls-10" d="m50.67,32.41l-1.05-.4c-.13-.05-.23-.16-.24-.3-.02-.14-.05-.27-.09-.41-.04-.13,0-.27.1-.36l.8-.8s.03-.08.01-.11l-.23-.34s-.07-.05-.11-.03l-1.03.46c-.12.05-.27.04-.37-.04-.11-.08-.22-.16-.35-.23-.12-.06-.19-.2-.19-.33v-1.12s-.03-.08-.07-.09l-.4-.07s-.08.02-.1.05l-.4,1.05c-.05.13-.16.23-.3.24-.14.02-.27.05-.41.09-.13.04-.27,0-.36-.1l-.8-.8s-.08-.03-.11-.01l-.34.23s-.05.07-.03.11l.46,1.03c.05.12.04.27-.04.37-.08.11-.16.22-.23.35-.06.12-.2.19-.33.19h-1.12s-.08.03-.09.07l-.07.4s.02.08.05.1l1.05.4c.13.05.23.16.24.3.02.14.05.27.09.41.04.13,0,.27-.1.36l-.8.8s-.03.08-.01.11l.23.34s.07.05.11.03l1.03-.46c.12-.05.27-.04.37.04.11.08.22.16.35.23.12.06.19.2.19.33v1.12s.03.08.07.09l.4.07s.08-.02.1-.05l.4-1.05c.05-.13.16-.23.3-.24.14-.02.27-.05.41-.09.13-.04.27,0,.36.1l.8.8s.08.03.11.01l.34-.23s.05-.07.03-.11l-.46-1.03c-.05-.12-.04-.27.04-.37.08-.11.16-.22.23-.35.06-.12.2-.19.33-.19h1.12s.08-.03.09-.07l.07-.4s-.02-.08-.05-.1Z"/>
      <g>
        <path class="cls-13" d="m48.49,31.99c0,.11,0,.21-.03.32-.16.83-.96,1.38-1.79,1.23s-1.38-.96-1.23-1.79.96-1.38,1.79-1.23c.61.11,1.06.57,1.21,1.13"/>
        <g>
          <path class="cls-11" d="m48.47,32.3s0,0,0,0c-.16.83-.96,1.38-1.79,1.23-.83-.16-1.38-.96-1.23-1.79.16-.83.96-1.38,1.79-1.23.61.11,1.06.57,1.21,1.13"/>
          <polygon class="cls-16" points="47.96 32.81 48.46 32.38 48.88 32.88 48.91 32.49 48.49 31.99 47.99 32.41 47.96 32.81"/>
        </g>
      </g>
    </g>
    <g>
      <path class="cls-5" d="m71.84,40.32l-1.15.24c-.14.03-.29-.01-.38-.12-.09-.11-.2-.22-.31-.31-.11-.09-.15-.24-.12-.38l.25-1.16s-.01-.09-.05-.1l-.4-.17s-.09,0-.11.03l-.65.99c-.08.12-.21.19-.35.18-.14-.01-.29-.02-.43,0-.14.01-.28-.07-.36-.19l-.64-.99s-.07-.05-.11-.04l-.4.16s-.06.06-.05.1l.24,1.15c.03.14-.01.29-.12.38-.11.09-.22.2-.31.31-.09.11-.24.15-.38.12l-1.16-.25s-.09.01-.1.05l-.17.4s0,.09.03.11l.99.65c.12.08.19.21.18.35-.01.14-.02.29,0,.43.01.14-.07.28-.19.36l-.99.64s-.05.07-.04.11l.16.4s.06.06.1.05l1.15-.24c.14-.03.29.01.38.12.09.11.2.22.31.31.11.09.15.24.12.38l-.25,1.16s.01.09.05.1l.4.17s.09,0,.11-.03l.65-.99c.08-.12.21-.19.35-.18.14.01.29.02.43,0,.14-.01.28.07.36.19l.64.99s.07.05.11.04l.4-.16s.06-.06.05-.1l-.24-1.15c-.03-.14.01-.29.12-.38.11-.09.22-.2.31-.31.09-.11.24-.15.38-.12l1.16.25s.09-.01.1-.05l.17-.4s0-.09-.03-.11l-.99-.65c-.12-.08-.19-.21-.18-.35.01-.14.02-.29,0-.43-.01-.14.07-.28.19-.36l.99-.64s.05-.07.04-.11l-.16-.4s-.06-.06-.1-.05Z"/>
      <g>
        <path class="cls-13" d="m69.68,41.2c.06.09.12.19.16.3.34.82-.06,1.76-.88,2.1s-1.76-.06-2.1-.88.06-1.76.88-2.1c.6-.25,1.27-.1,1.71.32"/>
        <g>
          <path class="cls-4" d="m69.81,41.43s.02.05.03.07c.34.82-.06,1.76-.88,2.1-.82.34-1.76-.06-2.1-.88-.34-.82.06-1.76.88-2.1.6-.25,1.27-.1,1.71.32"/>
          <polygon class="cls-16" points="69.67 42.02 69.83 41.49 70.37 41.65 70.21 41.36 69.68 41.2 69.52 41.73 69.67 42.02"/>
        </g>
      </g>
    </g>
    <g>
      <path class="cls-1" d="m36.18,57.76l-1.2-.22c-.15-.03-.27-.13-.32-.27-.05-.15-.1-.28-.17-.42-.07-.13-.05-.29.03-.41l.7-1.02s.02-.09-.01-.12l-.32-.32s-.08-.04-.12-.01l-1.01.7c-.12.08-.28.1-.41.03-.13-.07-.27-.13-.42-.17-.14-.05-.24-.17-.27-.32l-.23-1.2s-.05-.08-.09-.08h-.45s-.08.03-.09.08l-.22,1.2c-.03.15-.13.27-.27.32-.15.05-.28.1-.42.17-.13.07-.29.05-.41-.03l-1.02-.7s-.09-.02-.12.01l-.32.32s-.04.08-.01.12l.7,1.01c.08.12.1.28.03.41-.07.13-.13.27-.17.42-.05.14-.17.24-.32.27l-1.2.23s-.08.05-.08.09v.45s.03.08.08.09l1.2.22c.15.03.27.13.32.27.05.15.1.28.17.42.07.13.05.29-.03.41l-.7,1.02s-.02.09.01.12l.32.32s.08.04.12.01l1.01-.7c.12-.08.28-.1.41-.03.13.07.27.13.42.17.14.05.24.17.27.32l.23,1.2s.05.08.09.08h.45s.08-.03.09-.08l.22-1.2c.03-.15.13-.27.27-.32.15-.05.28-.1.42-.17.13-.07.29-.05.41.03l1.02.7s.09.02.12-.01l.32-.32s.04-.08.01-.12l-.7-1.01c-.08-.12-.1-.28-.03-.41.07-.13.13-.27.17-.42.05-.14.17-.24.32-.27l1.2-.23s.08-.05.08-.09v-.45s-.03-.08-.08-.09Z"/>
      <g>
        <path class="cls-13" d="m33.76,57.75c.02.11.04.23.04.35,0,.92-.75,1.67-1.67,1.67s-1.67-.75-1.67-1.67.75-1.67,1.67-1.67c.67,0,1.26.4,1.52.97"/>
        <g>
          <path class="cls-2" d="m33.79,58.03s0,.05,0,.08c0,.92-.75,1.67-1.67,1.67s-1.67-.75-1.67-1.67.75-1.67,1.67-1.67c.67,0,1.26.4,1.52.97"/>
          <polygon class="cls-16" points="33.43 58.55 33.8 58.1 34.24 58.46 34.21 58.12 33.76 57.75 33.4 58.2 33.43 58.55"/>
        </g>
      </g>
    </g>
    <path class="cls-3" d="m41.67,42.48l-.58-.53c-.15-.13-.21-.33-.18-.53.02-.11.03-.23.03-.34s0-.23-.03-.34c-.03-.2.03-.4.18-.53l.58-.53c.08-.05.11-.15.06-.23l-.19-.34c-.05-.08-.15-.11-.23-.06l-.75.24c-.19.06-.39.02-.54-.1-.18-.14-.38-.26-.6-.35-.19-.07-.33-.23-.37-.43l-.16-.76c0-.09-.08-.17-.17-.17h-.39c-.09,0-.17.08-.17.17l-.16.76c-.04.2-.18.36-.37.43-.22.09-.42.21-.6.35-.15.12-.35.16-.54.1l-.75-.24c-.08-.05-.18-.02-.23.06l-.19.34c-.05.08-.02.18.06.23l.58.53c.15.13.21.33.18.53-.02.11-.03.23-.03.34s0,.23.03.34c.03.2-.03.4-.18.53l-.58.53c-.08.05-.11.15-.06.23l.19.34c.05.08.15.11.23.06l.75-.24c.19-.06.39-.02.54.1.18.14.38.26.6.35.19.07.33.23.37.43l.16.76c0,.09.08.17.17.17h.39c.09,0,.17-.08.17-.17l.16-.76c.04-.2.18-.36.37-.43.22-.09.42-.21.6-.35.15-.12.35-.16.54-.1l.75.24c.08.05.18.02.23-.06l.19-.34c.05-.08.02-.18-.06-.23Zm-3.15-.23c-.65,0-1.17-.52-1.17-1.17s.52-1.17,1.17-1.17,1.17.52,1.17,1.17-.52,1.17-1.17,1.17Z"/>
    <path class="cls-3" d="m49.02,69.58l-.21-.64c-.05-.16-.02-.34.09-.47.06-.08.11-.16.16-.24s.09-.18.13-.27c.06-.16.19-.28.36-.32l.65-.14c.08,0,.14-.07.14-.15v-.33c0-.08-.07-.14-.15-.14l-.66-.14c-.16-.03-.29-.15-.36-.3-.07-.18-.17-.36-.3-.51-.11-.13-.14-.31-.09-.48l.2-.63c.04-.07.02-.16-.05-.2l-.29-.16c-.07-.04-.16-.02-.2.05l-.44.49c-.11.13-.29.19-.46.16-.2-.03-.4-.03-.6,0-.16.03-.33-.03-.44-.15l-.45-.5c-.04-.07-.13-.09-.2-.05l-.29.17c-.07.04-.09.13-.05.2l.21.64c.05.16.02.34-.09.47-.06.08-.11.16-.16.24s-.09.18-.13.27c-.06.16-.19.28-.36.32l-.65.14c-.08,0-.14.07-.14.15v.33c0,.08.07.14.15.14l.66.14c.16.03.29.15.36.3.07.18.17.36.3.51.11.13.14.31.09.48l-.2.63c-.04.07-.02.16.05.2l.29.16c.07.04.16.02.2-.05l.44-.49c.11-.13.29-.19.46-.16.2.03.4.03.6,0,.16-.03.33.03.44.15l.45.5c.04.07.13.09.2.05l.29-.17c.07-.04.09-.13.05-.2Zm-2.24-1.5c-.48-.27-.65-.88-.37-1.36s.88-.65,1.36-.37.65.88.37,1.36-.88.65-1.36.37Z"/>
  </g>
  <g>
    <path class="cls-6" d="m85.94,51.41v4.32c0,4.69-3.83,8.52-8.52,8.52h0c-4.69,0-8.52-3.83-8.52-8.52v-4.21"/>
    <path class="cls-6" d="m69.47,68.55c2.08,0,4.62-1.52,4.33-5.12,3.13,1.34,4.39,1.27,7.23,0-.16,3.62,1.62,5.12,4.33,5.12"/>
    <path class="cls-6" d="m93.3,84.1v-8.13c0-2.69-1.67-5.09-4.19-6.03l-3.74-1.39h-15.89l-4.08,1.44c-2.57.91-4.3,3.34-4.3,6.07v8.04c0,.89.72,1.61,1.61,1.61h4.2v-4.23h0v4.23h21.2l.11-4.8h0v4.8h3.46c.89,0,1.61-.72,1.61-1.61Z"/>
    <g>
      <path class="cls-14" d="m79.68,38.5h1.95c3.99,0,6.2,8.58,6.2,8.58l1.76,1.78c.64,1.08-.03,2.55-1.18,2.55h-22.01c-1.19,0-1.84-1.59-1.08-2.64l1.43-1.69s1.53-8.22,5.41-8.58h2.47"/>
      <polyline class="cls-14" points="75.16 43.17 75.16 37.21 79.68 37.21 79.68 43.17"/>
    </g>
  </g>
</svg>