<?xml version="1.0" encoding="UTF-8"?>
<svg id="energy-audits" xmlns="http://www.w3.org/2000/svg" viewBox="0 0 100 100">
  <defs>
    <style>
      .cls-1, .cls-2, .cls-3 {
        fill: #fff;
      }

      .cls-2, .cls-4, .cls-5, .cls-3, .cls-6, .cls-7, .cls-8 {
        stroke: #231f20;
      }

      .cls-2, .cls-5, .cls-3, .cls-9, .cls-6, .cls-10, .cls-8 {
        stroke-miterlimit: 10;
      }

      .cls-2, .cls-10, .cls-8 {
        stroke-width: .5px;
      }

      .cls-4, .cls-5, .cls-11, .cls-9 {
        stroke-width: .25px;
      }

      .cls-4, .cls-5, .cls-6, .cls-7, .cls-8 {
        fill: none;
      }

      .cls-4, .cls-11, .cls-7 {
        stroke-linejoin: round;
      }

      .cls-11 {
        stroke-linecap: round;
      }

      .cls-11, .cls-12, .cls-9 {
        fill: #a6bc39;
      }

      .cls-11, .cls-9 {
        stroke: #a6bc39;
      }

      .cls-13 {
        fill: #2fbaed;
      }

      .cls-6 {
        stroke-width: 1.25px;
      }

      .cls-7 {
        stroke-width: .35px;
      }

      .cls-10 {
        stroke: #2fbaed;
      }

      .cls-10, .cls-14 {
        fill: #231f20;
      }
    </style>
  </defs>
  <g>
    <polygon class="cls-12" points="39.65 19.65 39.99 13.69 36.93 22.33 38.99 21.4 38.6 27.34 41.67 18.7 39.65 19.65"/>
    <path class="cls-14" d="m39.21,19.25l.31-5.97.09.02-3.03,8.65-.12-.11,2.05-.95c.07-.03.15.02.14.1l-.36,5.94-.24-.05c.72-1.8,2.56-7.61,3.21-8.55,0,0-2.05.91-2.05.91h0Zm.01-.02l1.99-1s.06,0,.08.03c-.95,2.91-1.98,5.82-3,8.71-.02.06-.09.1-.16.08-.05-.02-.09-.07-.08-.13l.41-5.94.14.1-2.06.93c-.07.03-.15-.04-.12-.11,0,0,3.11-8.62,3.11-8.62.02-.05.1-.04.09.02,0,0-.39,5.94-.39,5.94h0Z"/>
  </g>
  <g>
    <path class="cls-13" d="m64.85,36.8c-.28-.32-.61-.56-.99-.72-.38-.16-.87-.32-1.48-.49,0,0-.02,0-.03,0v-2.62c.36.04.66.17.9.37.32.27.5.62.53,1.06h1.41c-.04-.83-.35-1.47-.93-1.95-.5-.41-1.14-.65-1.91-.7v-.75c0-.2-.16-.36-.36-.36s-.36.16-.36.36v.75c-.47.04-.89.13-1.27.3-.47.21-.84.49-1.09.86-.26.36-.39.75-.39,1.19,0,.54.14.99.42,1.32.28.34.62.59,1.02.76.35.15.78.3,1.3.44v2.63c-.35-.05-.63-.17-.87-.35-.35-.27-.55-.61-.59-1.04h-1.45c.03.51.19.97.49,1.37.3.4.71.71,1.22.93.37.16.77.26,1.21.3v.77c0,.2.16.36.36.36s.36-.16.36-.36v-.75c.54-.01,1.02-.12,1.44-.31.47-.21.84-.5,1.09-.87.26-.37.39-.79.39-1.26,0-.51-.15-.93-.42-1.25Zm-3.61-1.57c-.28-.11-.5-.25-.68-.44-.18-.18-.28-.41-.28-.68,0-.35.16-.63.45-.85.23-.17.53-.27.9-.3v2.42c-.15-.05-.28-.1-.39-.14Zm2.19,3.72c-.28.2-.63.32-1.08.35v-2.48c.45.13.8.26,1.05.4.32.18.49.46.49.83s-.16.66-.47.9Z"/>
    <g>
      <path class="cls-14" d="m64.36,36.54c-.5-.72-1.78-.93-2.51-1.23,0,0,0-2.62,0-2.62.33-.06.78.19,1.04.42.28.26.44.63.46,1.01l-.04-.04h1.41s-.05.04-.05.04c-.03-.7-.32-1.4-.86-1.85-.53-.46-1.23-.69-1.93-.73-.04,0-.07-.03-.07-.07v-.66c.08-.49-.65-.49-.57,0-.02.22.06.76-.07.74-2.79.05-3.85,3.48-.92,4.37,0,0,.95.31.95.31.05.01.08.06.08.11v2.63c.01.07-.04.12-.11.12-.78-.08-1.53-.69-1.59-1.5,0,0,.12.11.12.11h-1.45s.12-.13.12-.13c.02.69.38,1.32.9,1.76.53.43,1.21.68,1.9.75.05,0,.09.05.09.1v.66c-.04.22.07.37.25.38.44,0,.26-.63.3-1.02,0-.04.03-.07.07-.07.9,0,1.86-.33,2.44-1.05.57-.71.64-1.83.05-2.56h0Zm.02-.02c1.36,1.8-.55,3.84-2.5,3.77,0,0,.07-.07.07-.07-.03.43.19,1.17-.44,1.19-.29.02-.49-.33-.44-.55v-.66s.08.1.08.1c-1.45-.08-3-1.12-3.03-2.69,0-.07.05-.13.12-.13,0,0,1.46,0,1.46,0,.06,0,.12.05.12.11.05.69.68,1.2,1.36,1.28l-.14.12v-2.63s.09.11.09.11c-.57-.22-1.41-.39-1.89-.78-1.23-.82-1.21-2.78,0-3.61.56-.42,1.24-.63,1.92-.67l-.07.08v-.66c-.07-.69.95-.7.87,0,0,0,0,.66,0,.66l-.07-.07c1.44,0,3.08,1.28,2.84,2.77,0,0-1.41,0-1.41,0-.14-.78-.57-1.35-1.43-1.45.08-.17,0,2.63.02,2.59-.04-.03-.01-.01.01-.01.76.28,1.97.52,2.47,1.22h0Z"/>
      <path class="cls-14" d="m60.75,34.97c-.98-.29-1.43-1.47-.48-2.1.26-.18.57-.27.87-.3.06,0,.11.04.12.1.04.82.02,1.63-.08,2.44.01.09-.33-.11-.43-.13h0Zm0-.02l.4.12-.04.03c-.09-.8-.11-1.61-.08-2.42,0,0,.12.11.12.11-1.45.02-1.81,1.65-.4,2.16h0Z"/>
      <path class="cls-14" d="m62.96,38.69c-.3.21-.78.42-1.13.34-.04-.83-.04-1.65-.07-2.48,0-.06.04-.1.1-.11.01,0,.03,0,.04,0,.46.21,1.17.27,1.47.75.32.55.03,1.2-.41,1.49h0Zm-.02-.02c.41-.3.52-.94.23-1.34-.23-.35-.96-.49-1.33-.68,0,0,.14-.1.14-.1-.07.75.05,1.86-.11,2.44.38,0,.76-.1,1.07-.32h0Z"/>
    </g>
  </g>
  <g>
    <g>
      <path class="cls-13" d="m15.97,36.77h6.71c.4,0,.73.33.73.73v1.99h-8.17v-1.99c0-.4.33-.73.73-.73Z"/>
      <polygon class="cls-13" points="15.24 40.18 23.41 40.18 22.4 42.56 16.25 42.56 15.24 40.18"/>
      <rect class="cls-13" x="17.69" y="42.56" width="3.27" height="1.17"/>
    </g>
    <g>
      <g>
        <path class="cls-14" d="m22.61,39.08l-8.18.07s-.08-.04-.08-.08v-1.62c0-.25-.06-.58.13-.84.16-.26.51-.39.79-.36l3.24-.02c1.08,0,2.16.02,3.24.03.28-.02.61.1.77.36.19.26.13.57.13.84l-.05,1.62h0Zm-.02-.02l-.05-1.62c-.01-.27.03-.54-.13-.73-.15-.2-.38-.29-.65-.27-1.08.02-2.16.04-3.24.03l-3.24-.02c-.6-.06-.81.45-.75.99,0,0-.01,1.62-.01,1.62l-.08-.08,8.16.07h0Z"/>
        <path class="cls-14" d="m14.42,39.75l8.18-.08c.06,0,.11.07.08.12,0,0-.99,2.38-.99,2.38-.02.04-.06.07-.1.07-1.83-.03-4.46.12-6.22-.08,0,0-.95-2.42-.95-2.42h0Zm.02.01l1.08,2.34c1.33-.2,4.4-.04,6.07-.08,0,0-.1.07-.1.07l1.03-2.37.08.12-8.16-.08h0Z"/>
        <path class="cls-14" d="m20.16,43.31l-3.28.07s-.08-.04-.08-.08l-.02-1.17c0-.06.04-.1.1-.1,1.09-.05,2.19-.03,3.28.01.05,0,.08.04.08.09-.02.41-.05.81-.08,1.18h0Zm-.02-.02l-.08-1.16.09.09c-1.09.04-2.18.06-3.27,0l.1-.1-.02,1.17-.08-.08,3.27.07h0Z"/>
      </g>
      <line class="cls-7" x1="16.88" y1="36.35" x2="16.88" y2="33.99"/>
      <line class="cls-7" x1="20.15" y1="36.35" x2="20.15" y2="33.99"/>
    </g>
  </g>
  <path class="cls-6" d="m18.51,43.3v10.85h-6.69c-.28,0-.5.22-.5.5v2.99c0,.28.22.5.5.5h39.13c.28,0,.5.22.5.5v2.75c0,.28-.22.5-.5.5H11.82c-.28,0-.5.22-.5.5v2.91c0,.28.22.5.5.5h39.13c.28,0,.5.22.5.5v2.93c0,.28-.22.5-.5.5H11.82c-.28,0-.5.22-.5.5v3.24c0,.28.22.5.5.5h59.74c.28,0,.5.22.5.5v2.92c0,.28-.22.5-.5.5H9.23v-44.59l5.65-4.97,17.93,4.97v21.36h-5.65V15.68l12.19-5.91,12.19,5.91v39h-5.72v-28.66l15.16-4.97.08,4.97,10.99-4.97v25.92"/>
  <g>
    <polygon class="cls-3" points="59.8 55.16 68.89 48.43 77.98 41.71 87.07 48.43 96.16 55.16 96.16 55.33 96.16 71.36 59.8 71.36 59.8 55.33 59.8 55.16"/>
    <g>
      <rect class="cls-2" x="65.22" y="44.42" width="25.81" height="21.69"/>
      <g>
        <path class="cls-9" d="m69.5,58.77c.07.67-.39,1.22-1.06,1.22s-1.11-.55-1.06-1.22,1.06-1.86,1.06-1.86c0,0,.99,1.18,1.06,1.86Z"/>
        <path class="cls-5" d="m69.16,58.66c.07.67-.39,1.22-1.06,1.22s-1.11-.55-1.06-1.22,1.06-1.86,1.06-1.86c0,0,.99,1.18,1.06,1.86Z"/>
      </g>
      <g>
        <rect class="cls-10" x="70.73" y="58.99" width="11.6" height="2.38"/>
        <line class="cls-8" x1="70.73" y1="62.78" x2="82.33" y2="62.78"/>
        <line class="cls-8" x1="70.73" y1="63.92" x2="80.1" y2="63.92"/>
        <line class="cls-8" x1="70.73" y1="65.06" x2="77.41" y2="65.06"/>
      </g>
      <g>
        <g>
          <polygon class="cls-11" points="69.05 48.82 69.21 46.15 67.84 50.02 68.76 49.6 68.59 52.26 69.96 48.39 69.05 48.82"/>
          <polygon class="cls-4" points="68.77 48.62 68.92 45.95 67.55 49.82 68.47 49.4 68.3 52.06 69.67 48.19 68.77 48.62"/>
        </g>
        <g>
          <rect class="cls-10" x="70.73" y="49.23" width="11.6" height="2.38"/>
          <line class="cls-8" x1="70.73" y1="53.01" x2="82.33" y2="53.01"/>
          <line class="cls-8" x1="70.73" y1="54.15" x2="80.1" y2="54.15"/>
          <line class="cls-8" x1="70.73" y1="55.3" x2="77.41" y2="55.3"/>
        </g>
        <path class="cls-14" d="m87.98,50.76c-.11-.13-.23-.22-.38-.28-.15-.06-.34-.13-.57-.19,0,0,0,0-.01,0v-1.01c.14.02.26.07.35.14.13.1.19.24.2.41h.54c-.02-.32-.14-.57-.36-.75-.19-.16-.44-.25-.74-.27v-.29c0-.08-.06-.14-.14-.14s-.14.06-.14.14v.29c-.18.01-.34.05-.49.12-.18.08-.32.19-.42.33-.1.14-.15.29-.15.46,0,.21.05.38.16.51.11.13.24.23.39.29.13.06.3.11.5.17v1.01c-.13-.02-.24-.07-.34-.14-.14-.1-.21-.24-.23-.4h-.56c.01.2.07.38.19.53.11.16.27.27.47.36.14.06.3.1.47.12v.3c0,.08.06.14.14.14s.14-.06.14-.14v-.29c.21,0,.39-.05.55-.12.18-.08.32-.19.42-.34.1-.14.15-.3.15-.48,0-.2-.06-.36-.16-.48Zm-1.39-.61c-.11-.04-.19-.1-.26-.17-.07-.07-.11-.16-.11-.26,0-.14.06-.24.17-.33.09-.07.2-.11.35-.12v.93c-.06-.02-.11-.04-.15-.05Zm.85,1.44c-.11.08-.24.13-.42.13v-.95c.17.05.31.1.41.16.13.07.19.18.19.32s-.06.26-.18.35Z"/>
      </g>
      <path class="cls-14" d="m87.98,60.62c-.11-.13-.23-.22-.38-.28-.15-.06-.34-.13-.57-.19,0,0,0,0-.01,0v-1.01c.14.02.26.07.35.14.13.1.19.24.2.41h.54c-.02-.32-.14-.57-.36-.75-.19-.16-.44-.25-.74-.27v-.29c0-.08-.06-.14-.14-.14s-.14.06-.14.14v.29c-.18.01-.34.05-.49.12-.18.08-.32.19-.42.33-.1.14-.15.29-.15.46,0,.21.05.38.16.51.11.13.24.23.39.29.13.06.3.11.5.17v1.01c-.13-.02-.24-.07-.34-.14-.14-.1-.21-.24-.23-.4h-.56c.01.2.07.38.19.53.11.16.27.27.47.36.14.06.3.1.47.12v.3c0,.08.06.14.14.14s.14-.06.14-.14v-.29c.21,0,.39-.05.55-.12.18-.08.32-.19.42-.34.1-.14.15-.3.15-.48,0-.2-.06-.36-.16-.48Zm-1.39-.61c-.11-.04-.19-.1-.26-.17-.07-.07-.11-.16-.11-.26,0-.14.06-.24.17-.33.09-.07.2-.11.35-.12v.93c-.06-.02-.11-.04-.15-.05Zm.85,1.44c-.11.08-.24.13-.42.13v-.95c.17.05.31.1.41.16.13.07.19.18.19.32s-.06.26-.18.35Z"/>
    </g>
    <polygon class="cls-1" points="95.68 71.05 60.34 71.05 60.34 55.26 78.01 62.3 95.68 55.78 95.68 71.05"/>
    <path class="cls-14" d="m60.59,55.24s14.37,5.59,14.1,5.51c0,0,6.76-.06,6.76-.06,1.94-.76,4.78-1.76,7.04-2.55,2.37-.77,4.86-1.76,7.2-2.34-2.34.96-4.68,1.87-7.05,2.76-2.38.9-4.78,1.78-7.19,2.6,0,0-6.76-.06-6.76-.06-.06-.02-14.17-5.76-14.1-5.85h0Z"/>
    <g>
      <polyline class="cls-1" points="95.68 70.81 78.13 58.61 60.34 70.81"/>
      <path class="cls-14" d="m95.66,70.83l-17.65-12.05h.23c-2.94,2.07-5.9,4.11-8.87,6.14-2.99,1.94-6.03,4.15-9.05,5.87,2.89-2.15,5.83-4.21,8.77-6.28,3-2.07,6.01-4.11,9.04-6.14l.11.08s17.58,12.32,17.42,12.38h0Z"/>
    </g>
  </g>
</svg>