<?xml version="1.0" encoding="UTF-8"?>
<svg id="energy-simulations" xmlns="http://www.w3.org/2000/svg" viewBox="0 0 100 100">
  <defs>
    <style>
      .cls-1, .cls-2, .cls-3, .cls-4, .cls-5, .cls-6, .cls-7 {
        stroke-miterlimit: 10;
      }

      .cls-1, .cls-3, .cls-4, .cls-6, .cls-7, .cls-8 {
        stroke: #231f20;
      }

      .cls-1, .cls-4, .cls-5, .cls-6, .cls-7, .cls-8 {
        fill: none;
      }

      .cls-9, .cls-3 {
        fill: #fff;
      }

      .cls-2 {
        fill: #2fbaed;
        stroke: #2fbaed;
      }

      .cls-2, .cls-6, .cls-8 {
        stroke-width: .81px;
      }

      .cls-3, .cls-4 {
        stroke-width: 1.63px;
      }

      .cls-10 {
        fill: #a6bc39;
      }

      .cls-5 {
        stroke: #a6bc39;
        stroke-width: .69px;
      }

      .cls-7 {
        stroke-width: .5px;
      }

      .cls-8 {
        stroke-linecap: round;
        stroke-linejoin: round;
      }

      .cls-11 {
        fill: #231f20;
      }
    </style>
  </defs>
  <g>
    <rect class="cls-3" x="7.48" y="14.88" width="85.04" height="52.1" rx="2.52" ry="2.52"/>
    <path class="cls-11" d="m7.48,58.32c27.57-.18,57.59-1.56,85.04,0,0,0,0,.16,0,.16-7.09.47-14.17.58-21.26.73-7.09.11-14.17-.07-21.26-.16-10.59-.1-31.93-.39-42.52-.57,0,0,0-.16,0-.16h0Z"/>
    <polygon class="cls-3" points="66.97 85.12 33.03 85.12 41 66.98 59 66.98 66.97 85.12"/>
    <line class="cls-4" x1="25.45" y1="85.12" x2="74.55" y2="85.12"/>
    <rect class="cls-2" x="12.1" y="19.96" width="31.08" height="8.95"/>
    <rect class="cls-6" x="13.73" y="18.33" width="31.08" height="8.95"/>
    <line class="cls-8" x1="13.73" y1="30.48" x2="44.81" y2="30.48"/>
    <line class="cls-8" x1="13.73" y1="32.34" x2="38.84" y2="32.34"/>
    <line class="cls-8" x1="13.73" y1="34.21" x2="31.63" y2="34.21"/>
    <g>
      <g>
        <line class="cls-5" x1="30.27" y1="46.13" x2="33.45" y2="41.97"/>
        <line class="cls-5" x1="31.44" y1="37.14" x2="33.45" y2="41.97"/>
        <polygon class="cls-5" points="38.64 42.65 36.63 37.81 31.44 37.14 28.26 41.3 30.27 46.13 35.46 46.81 38.64 42.65"/>
        <line class="cls-5" x1="33.45" y1="41.97" x2="38.64" y2="42.65"/>
      </g>
      <g>
        <line class="cls-5" x1="21.91" y1="49.65" x2="25.09" y2="45.49"/>
        <line class="cls-5" x1="23.07" y1="40.65" x2="25.09" y2="45.49"/>
        <polygon class="cls-5" points="30.28 46.16 28.26 41.33 23.07 40.65 19.89 44.81 21.91 49.65 27.1 50.32 30.28 46.16"/>
        <line class="cls-5" x1="25.09" y1="45.49" x2="30.28" y2="46.16"/>
      </g>
      <g>
        <line class="cls-5" x1="29.1" y1="55.12" x2="32.28" y2="50.96"/>
        <line class="cls-5" x1="30.27" y1="46.12" x2="32.28" y2="50.96"/>
        <polygon class="cls-5" points="37.47 51.63 35.46 46.8 30.27 46.12 27.09 50.28 29.1 55.12 34.29 55.79 37.47 51.63"/>
        <line class="cls-5" x1="32.28" y1="50.96" x2="37.47" y2="51.63"/>
      </g>
    </g>
  </g>
  <g>
    <polygon class="cls-10" points="77.35 54.28 76.23 54.28 76.23 29.24 71.19 26.35 71.19 54.28 70.08 54.28 70.08 24.43 77.35 28.59 77.35 54.28"/>
    <polygon class="cls-11" points="63.36 54.28 63.36 28.33 69.33 24.81 69.33 54.28 63.36 54.28"/>
    <polygon class="cls-9" points="66.83 54.28 66.83 36.04 61.46 32.97 61.46 54.28 66.83 54.28"/>
    <polygon class="cls-10" points="67.78 54.28 66.66 54.28 66.66 36.06 61.62 33.18 61.62 54.28 60.5 54.28 60.5 31.26 67.78 35.41 67.78 54.28"/>
    <polygon class="cls-11" points="53.79 54.28 53.79 35.15 59.76 31.63 59.76 54.28 53.79 54.28"/>
    <polygon class="cls-9" points="84.53 54.28 84.53 39.78 78.85 36.54 78.85 54.28 84.53 54.28"/>
    <polygon class="cls-10" points="85.33 54.28 84.21 54.28 84.21 39.65 79.17 36.77 79.17 54.28 78.05 54.28 78.05 34.85 85.33 39 85.33 54.28"/>
    <polygon class="cls-11" points="71.19 54.28 71.09 38.62 77.29 34.87 77.29 54.28 71.19 54.28"/>
  </g>
  <path class="cls-7" d="m49.13,18.33h38.61c.86,0,1.56.7,1.56,1.56v34.51h-41.73V19.89c0-.86.7-1.56,1.56-1.56Z"/>
  <line class="cls-7" x1="47.57" y1="22.14" x2="89.3" y2="22.14"/>
  <line class="cls-1" x1="50.93" y1="20.38" x2="51.85" y2="20.38"/>
  <line class="cls-1" x1="53.64" y1="20.38" x2="54.69" y2="20.38"/>
  <line class="cls-1" x1="56.44" y1="20.38" x2="57.43" y2="20.38"/>
  <line class="cls-1" x1="61.46" y1="20.38" x2="85.33" y2="20.38"/>
</svg>