<?xml version="1.0" encoding="UTF-8"?>
<svg id="ESCO" xmlns="http://www.w3.org/2000/svg" viewBox="0 0 100 100">
  <defs>
    <style>
      .cls-1 {
        stroke-width: 1.14px;
      }

      .cls-1, .cls-2, .cls-3, .cls-4 {
        stroke: #231f20;
      }

      .cls-1, .cls-3, .cls-5 {
        fill: none;
      }

      .cls-1, .cls-5 {
        stroke-linecap: round;
        stroke-linejoin: round;
      }

      .cls-6 {
        fill: #a6bc39;
      }

      .cls-2 {
        fill: #fff;
        stroke-width: .75px;
      }

      .cls-2, .cls-3, .cls-4 {
        stroke-miterlimit: 10;
      }

      .cls-7, .cls-4 {
        fill: #2fbaed;
      }

      .cls-3 {
        stroke-width: 1.31px;
      }

      .cls-8 {
        fill: #2a3d1a;
      }

      .cls-4 {
        stroke-width: 1.28px;
      }

      .cls-5 {
        stroke: #a6bc39;
        stroke-width: 1.03px;
      }

      .cls-9 {
        fill: #032936;
      }

      .cls-10 {
        fill: #231f20;
      }
    </style>
  </defs>
  <rect class="cls-2" x="28.3" y="14.24" width="45.99" height="64.06" rx="2.61" ry="2.61"/>
  <rect class="cls-2" x="25.28" y="16.59" width="45.99" height="64.06" rx="2.61" ry="2.61"/>
  <g>
    <rect class="cls-2" x="22.41" y="18.82" width="45.99" height="64.06" rx="2.61" ry="2.61"/>
    <g>
      <path class="cls-10" d="m59.4,25.18c-2.52,4.85-5,9.73-7.57,14.55,0,0-.44-.26-.44-.26l-13.56-7.95,1.13-.3c-1.89,3.5-3.95,6.92-6.11,10.26-.71,1.12-1.46,2.22-2.23,3.32l-.14-.08c2.2-5.15,4.71-10.17,7.49-15.03,0,0,.7.45.7.45l13.21,8.52s-.66.17-.66.17c2.64-4.6,5.36-9.16,8.03-13.74,0,0,.14.08.14.08h0Z"/>
      <circle class="cls-4" cx="30.43" cy="44.27" r="2.14"/>
      <circle class="cls-4" cx="59.33" cy="25.15" r="2.14"/>
      <circle class="cls-4" cx="38.27" cy="30.93" r="2.14"/>
      <circle class="cls-4" cx="51.64" cy="39.08" r="2.14"/>
    </g>
    <g>
      <g>
        <polyline class="cls-5" points="26.42 49.13 28.03 51.74 29.64 49.13 31.24 51.74 32.85 49.13 34.45 51.74 36.05 49.13 37.66 51.74 39.27 49.13 40.89 51.74 42.5 49.13 44.11 51.74 45.73 49.13 47.35 51.74 48.97 49.13 50.58 51.74 52.21 49.13 53.82 51.74 55.44 49.13 57.06 51.74 58.68 49.13 60.31 51.74 61.94 49.13 63.58 51.74"/>
        <line class="cls-3" x1="26.42" y1="55.11" x2="43.04" y2="55.11"/>
        <line class="cls-3" x1="26.42" y1="58.15" x2="43.04" y2="58.15"/>
        <line class="cls-3" x1="26.42" y1="61.18" x2="43.04" y2="61.18"/>
        <line class="cls-3" x1="26.42" y1="64.22" x2="43.04" y2="64.22"/>
        <line class="cls-3" x1="26.42" y1="67.25" x2="43.04" y2="67.25"/>
        <line class="cls-3" x1="26.42" y1="71.53" x2="63.58" y2="71.53"/>
        <line class="cls-3" x1="26.42" y1="74.54" x2="63.58" y2="74.54"/>
      </g>
      <rect class="cls-7" x="48.27" y="56.73" width="14.18" height="10.77" rx=".2" ry=".2"/>
      <rect class="cls-1" x="46.5" y="55.11" width="14.18" height="10.59"/>
    </g>
  </g>
  <g>
    <g>
      <path class="cls-6" d="m69.83,83.5c13.56.94,16.86-6.69,17.21-9.45s-1.08-6.93-2.21-7.9c-2.23,11.71-15.02,10.47-15.02,10.47l.02-4.31-7.78,7.71,7.78,7.73v-4.25h0Z"/>
      <path class="cls-10" d="m69.83,83.5c9.44.68,20.53-4.69,15.61-15.6-.25-.53-.56-1.08-.9-1.41l.74-.26c-1.36,7.69-8.12,11.32-15.51,10.84,0,0-.42-.03-.42-.03v-.43s.04-4.31.04-4.31l.74.31c-2.59,2.57-5.24,5.09-7.86,7.63v-.45c2.57,2.6,5.11,5.23,7.64,7.87,0,0-.2.08-.2.08l.11-4.25h0Zm0,0l.11,4.25s0,.27,0,.27c-2.72-2.58-5.44-5.16-8.13-7.78,0,0-.23-.22-.23-.22l.23-.23c2.81-2.85,5.59-5.73,8.44-8.53,0,.66,0,4.61,0,5.36,0,0-.41-.46-.41-.46,3.2.17,6.62-.51,9.36-2.23,1.34-.84,2.58-2.01,3.4-3.37,1.08-1.55,1.51-3.47,1.97-5.29,2.18,1.99,2.79,5.05,2.92,7.87-.07,2.69-1.53,5.06-3.4,6.78-3.84,3.51-9.34,4-14.27,3.57h0Z"/>
    </g>
    <g>
      <path class="cls-8" d="m74.64,61.32c5.41,0,9.23,3.72,10.16,4.83-.13,1.63-1.55,4.74-2.67,5.94-1.04-.74-3.78-3.23-7.49-3.23v-7.54Z"/>
      <path class="cls-10" d="m74.64,61.32c4.02-.25,7.95,1.71,10.63,4.67-.32,2.56-1.37,4.83-3.08,6.76-1.23-.92-2.38-1.86-3.74-2.52-1.3-.65-2.73-1.01-4.18-1.04.05-2.37.23-5.49.36-7.87h0Zm0,0c.13,2.19.29,5.39.35,7.54,0,0-.35-.35-.35-.35,2.92-.13,5.58,1.44,7.78,3.18,0,0-.65.06-.65.06,1.24-1.52,2.25-3.7,2.58-5.64,0,0,.11.33.11.33-2.47-2.85-6.02-4.84-9.82-5.12h0Z"/>
    </g>
  </g>
  <g>
    <g>
      <path class="cls-7" d="m27.15,17.61c-13.56-.94-16.86,6.69-17.21,9.45s1.08,6.93,2.21,7.9c2.23-11.71,15.02-10.47,15.02-10.47l-.02,4.31,7.78-7.71-7.78-7.73v4.25h0Z"/>
      <path class="cls-10" d="m27.15,17.61c-9.44-.68-20.53,4.69-15.61,15.6.25.53.56,1.08.9,1.41l-.74.26c1.36-7.69,8.12-11.32,15.51-10.84,0,0,.42.03.42.03v.43s-.04,4.31-.04,4.31l-.74-.31c2.59-2.57,5.24-5.09,7.86-7.63v.45c-2.57-2.6-5.11-5.23-7.64-7.87l.2-.08-.11,4.25h0Zm0,0l-.11-4.25v-.27c2.72,2.58,5.43,5.16,8.12,7.78,0,0,.23.22.23.22,0,0-.23.23-.23.23-2.81,2.85-5.59,5.73-8.44,8.53,0-.66,0-4.61,0-5.36,0,0,.41.46.41.46-3.2-.17-6.62.51-9.36,2.23-1.34.84-2.58,2.01-3.4,3.37-1.08,1.55-1.51,3.47-1.97,5.29-2.18-1.99-2.79-5.05-2.92-7.87.07-2.69,1.53-5.06,3.4-6.78,3.84-3.51,9.34-4,14.27-3.57h0Z"/>
    </g>
    <g>
      <path class="cls-9" d="m22.34,39.79c-5.41,0-9.23-3.72-10.16-4.83.13-1.63,1.55-4.74,2.67-5.94,1.04.74,3.78,3.23,7.49,3.23v7.54Z"/>
      <path class="cls-10" d="m22.34,39.79c-4.02.25-7.95-1.71-10.63-4.67.32-2.56,1.37-4.83,3.08-6.76,1.23.92,2.38,1.86,3.74,2.52,1.3.65,2.73,1.01,4.18,1.04-.05,2.37-.23,5.49-.36,7.87h0Zm0,0c-.13-2.19-.29-5.39-.35-7.54,0,0,.35.35.35.35-2.92.13-5.58-1.44-7.78-3.18,0,0,.65-.06.65-.06-1.24,1.52-2.25,3.7-2.58,5.64,0,0-.11-.33-.11-.33,2.47,2.85,6.02,4.84,9.82,5.12h0Z"/>
    </g>
  </g>
</svg>