<?xml version="1.0" encoding="UTF-8"?>
<svg id="GHG" xmlns="http://www.w3.org/2000/svg" viewBox="0 0 100 100">
  <defs>
    <style>
      .cls-1 {
        fill: #2fbaed;
        stroke: #2fbaed;
        stroke-width: .55px;
      }

      .cls-1, .cls-2, .cls-3 {
        stroke-miterlimit: 10;
      }

      .cls-4, .cls-2 {
        fill: #fff;
      }

      .cls-4, .cls-5 {
        stroke-width: 0px;
      }

      .cls-2 {
        stroke: #a6bc39;
      }

      .cls-2, .cls-3 {
        stroke-width: 1.1px;
      }

      .cls-3 {
        fill: none;
        stroke: #231f20;
      }

      .cls-5 {
        fill: #231f20;
      }
    </style>
  </defs>
  <path class="cls-1" d="m89.68,45.1c0,9.25-10.44,16.75-23.34,16.75H28.65c-12.12,0-21.95-6.34-21.95-14.16,0-5.13,4.21-9.61,10.53-12.1,0-10.57,9.2-19.13,20.56-19.13,5.04,0,9.65,1.68,13.22,4.5,2.17-1.1,4.66-1.72,7.32-1.72,6.81,0,12.57,4.12,14.58,9.83,9.7,2.02,16.77,8.45,16.77,16.04Z"/>
  <path class="cls-3" d="m66.92,58.23h3.03c12.9,0,23.34-7.5,23.34-16.75,0-7.59-7.06-14.02-16.77-16.04-2.01-5.71-7.77-9.83-14.58-9.83-2.66,0-5.15.61-7.32,1.72-3.58-2.82-8.18-4.5-13.22-4.5-11.36,0-20.56,8.56-20.56,19.13-6.32,2.49-10.53,6.97-10.53,12.1,0,7.82,9.83,14.16,21.95,14.16h2.87"/>
  <g>
    <path class="cls-5" d="m71.8,69.15c.6,0,.95.69.57,1.16-.81,1.01-2.05,2.7-3.52,5.16-1.36,2.24-2.23,4.16-2.76,5.49-.25.62-1.11.6-1.35-.01-.5-1.29-1.33-3.13-2.67-5.33-1.52-2.51-2.82-4.26-3.65-5.3-.38-.47-.03-1.16.57-1.16h3.42c.4,0,.72-.32.72-.72v-10.64c0-.4.32-.72.72-.72h3.05c.4,0,.72.32.72.72v10.64c0,.4.32.72.72.72h3.44Z"/>
    <path class="cls-5" d="m43.27,69.15c.6,0,.95.69.57,1.16-.81,1.01-2.05,2.7-3.52,5.16-1.36,2.24-2.23,4.16-2.76,5.49-.25.62-1.11.6-1.35-.01-.5-1.29-1.33-3.13-2.67-5.33-1.52-2.51-2.82-4.26-3.65-5.3-.38-.47-.03-1.16.57-1.16h3.42c.4,0,.72-.32.72-.72v-10.64c0-.4.32-.72.72-.72h3.05c.4,0,.72.32.72.72v10.64c0,.4.32.72.72.72h3.44Z"/>
    <path class="cls-2" d="m57.47,75.92c.6,0,.95.69.57,1.16-.81,1.01-2.05,2.7-3.52,5.16-1.36,2.24-2.23,4.16-2.76,5.49-.25.62-1.11.6-1.35-.01-.5-1.29-1.33-3.13-2.67-5.33-1.52-2.51-2.82-4.26-3.65-5.3-.38-.47-.03-1.16.57-1.16h3.42c.4,0,.72-.32.72-.72v-10.64c0-.4.32-.72.72-.72h3.05c.4,0,.72.32.72.72v10.64c0,.4.32.72.72.72h3.44Z"/>
  </g>
  <g>
    <path class="cls-4" d="m39.22,37.13c-.29-.53-.69-.94-1.2-1.22-.51-.28-1.11-.42-1.79-.42-.75,0-1.42.17-2.01.51-.58.34-1.04.83-1.37,1.46-.33.63-.49,1.36-.49,2.19s.17,1.59.5,2.23c.34.63.8,1.12,1.4,1.46.6.34,1.29.51,2.08.51.97,0,1.77-.26,2.39-.77s1.03-1.24,1.22-2.16h-4.38v-1.95h6.9v2.23c-.17.89-.53,1.71-1.09,2.46s-1.28,1.36-2.16,1.82-1.87.68-2.96.68c-1.23,0-2.34-.28-3.33-.83-.99-.55-1.77-1.32-2.33-2.31-.56-.98-.85-2.1-.85-3.36s.28-2.37.85-3.37c.57-.99,1.34-1.76,2.33-2.32.99-.55,2.09-.83,3.31-.83,1.43,0,2.68.35,3.74,1.05,1.06.7,1.79,1.68,2.19,2.95h-2.94Z"/>
    <path class="cls-4" d="m54.08,33.3v12.73h-2.55v-5.42h-5.45v5.42h-2.55v-12.73h2.55v5.24h5.45v-5.24h2.55Z"/>
    <path class="cls-4" d="m64.62,37.13c-.29-.53-.69-.94-1.2-1.22-.51-.28-1.11-.42-1.79-.42-.75,0-1.42.17-2.01.51-.58.34-1.04.83-1.37,1.46-.33.63-.49,1.36-.49,2.19s.17,1.59.5,2.23c.34.63.8,1.12,1.4,1.46.6.34,1.29.51,2.08.51.97,0,1.77-.26,2.39-.77s1.03-1.24,1.22-2.16h-4.38v-1.95h6.9v2.23c-.17.89-.53,1.71-1.09,2.46s-1.28,1.36-2.16,1.82-1.87.68-2.96.68c-1.23,0-2.34-.28-3.33-.83-.99-.55-1.77-1.32-2.33-2.31-.56-.98-.85-2.1-.85-3.36s.28-2.37.85-3.37c.57-.99,1.34-1.76,2.33-2.32.99-.55,2.09-.83,3.31-.83,1.43,0,2.68.35,3.74,1.05,1.06.7,1.79,1.68,2.19,2.95h-2.94Z"/>
  </g>
</svg>