<?xml version="1.0" encoding="UTF-8"?>
<svg id="HVAC" xmlns="http://www.w3.org/2000/svg" viewBox="0 0 100 100">
  <defs>
    <style>
      .cls-1 {
        stroke-width: .92px;
      }

      .cls-1, .cls-2, .cls-3, .cls-4, .cls-5, .cls-6, .cls-7, .cls-8, .cls-9, .cls-10 {
        stroke-miterlimit: 10;
      }

      .cls-1, .cls-11, .cls-12, .cls-13, .cls-4, .cls-8, .cls-9, .cls-14, .cls-15 {
        fill: none;
      }

      .cls-1, .cls-11, .cls-4, .cls-5, .cls-6, .cls-9 {
        stroke: #231f20;
      }

      .cls-16, .cls-3, .cls-5, .cls-6, .cls-7, .cls-10 {
        fill: #fff;
      }

      .cls-2 {
        stroke-width: .07px;
      }

      .cls-2, .cls-17 {
        fill: #2fbaed;
      }

      .cls-2, .cls-15 {
        stroke: #2fbaed;
      }

      .cls-18 {
        fill: #fac539;
      }

      .cls-3, .cls-13, .cls-8 {
        stroke: #a6bc39;
      }

      .cls-3, .cls-8, .cls-9 {
        stroke-width: .13px;
      }

      .cls-11, .cls-12, .cls-13, .cls-15 {
        stroke-linecap: round;
        stroke-linejoin: round;
      }

      .cls-11, .cls-4 {
        stroke-width: .3px;
      }

      .cls-19 {
        fill: #a6bc39;
      }

      .cls-12 {
        stroke-width: .4px;
      }

      .cls-12, .cls-10 {
        stroke: #010101;
      }

      .cls-13 {
        stroke-dasharray: 0 0 1.19 .6;
      }

      .cls-13, .cls-15 {
        stroke-width: .15px;
      }

      .cls-5 {
        stroke-width: 1.23px;
      }

      .cls-6 {
        stroke-width: .77px;
      }

      .cls-7 {
        stroke: #fff;
        stroke-width: 2.46px;
      }

      .cls-10 {
        stroke-width: .57px;
      }

      .cls-20 {
        fill: #231f20;
      }

      .cls-21 {
        fill: #010101;
      }
    </style>
  </defs>
  <path class="cls-20" d="m85.53,72.45c.23,4.56.63,9.47.63,14.05-.09.68.04,1.73-.42,2.28-.59.74-1.53.6-2.27.58,0,0-2.01-.03-2.01-.03l-4.01-.07s-8.03-.16-8.03-.16v-.14c2.68-.05,9.45-.19,12.04-.23,0,0,2.01-.03,2.01-.03.33-.02.71.03.92-.1.29-.14.54-.34.49-.62,0,0-.04-.48-.04-.48-.2-1.87.05-5.12.13-7.02.1-2.68.26-5.35.43-8.03h.14Z"/>
  <path class="cls-20" d="m67.63,15.28c5.19-.19,10.49-.36,15.69-.48.58,0,1.27-.1,1.81.2.5.21.99.86.95,1.45,0,0,0,.39,0,.39.11,6.08.16,12.77-.03,18.82-.09,4.18-.26,8.37-.52,12.55h-.14c-.64-10.37-.75-20.97-.54-31.37,0-.07.02-.5-.01-.54-.21-.49-1.09-.37-1.53-.41,0,0-3.14-.08-3.14-.08-4.18-.09-8.37-.25-12.55-.4v-.14h0Z"/>
  <path class="cls-20" d="m21.85,25.77l-.12-5.73-.06-2.87c-.07-1.18.56-2.26,1.89-2.13,11.04.01,23.69-.98,34.4.37-11.02,1-23.3.35-34.4.25-1.05-.16-1.39.61-1.4,1.52,0,0-.06,2.87-.06,2.87l-.12,5.73h-.12Z"/>
  <path class="cls-20" d="m37.56,89.08c-4.72.19-9.44.32-14.16.44-.28.02-.7-.02-1.03-.18-.52-.19-1.04-.83-1-1.44,0,0,0-.42,0-.42l-.04-3.33c-.14-11.05,0-22.3.52-33.32,0,0,.12,0,.12,0,.22,4.44.35,8.89.44,13.33.14,6.41.17,13.54.08,19.99,0,0-.04,3.33-.04,3.33-.19,1.04.53,1.02,1.78,1.04,4.44.11,8.89.25,13.33.42v.12h0Z"/>
  <g>
    <g>
      <path class="cls-14" d="m37.56,95.39v-58.81l9.92-8.69,21.93,8.26v59.24h-31.86Zm28.16-.23v-56.55l-17.45-6.57-7.02,6.14v56.98h24.47Z"/>
      <polygon class="cls-5" points="65.73 94.69 41.26 94.69 41.26 38.18 48.12 31.96 65.73 38.34 65.73 94.69"/>
    </g>
    <g>
      <rect class="cls-17" x="57.06" y="81.55" width="5.73" height="5.73" rx=".4" ry=".4"/>
      <rect class="cls-19" x="46.49" y="81.55" width="5.73" height="5.73" rx=".4" ry=".4"/>
      <rect class="cls-1" x="56.09" y="80.43" width="5.73" height="5.73" rx=".4" ry=".4"/>
      <rect class="cls-1" x="45.5" y="80.43" width="5.73" height="5.73" rx=".4" ry=".4"/>
      <rect class="cls-19" x="57.06" y="72.85" width="5.73" height="5.73" rx=".4" ry=".4"/>
      <rect class="cls-17" x="46.49" y="72.85" width="5.73" height="5.73" rx=".4" ry=".4"/>
      <rect class="cls-1" x="56.09" y="71.82" width="5.73" height="5.73" rx=".4" ry=".4"/>
      <rect class="cls-1" x="45.5" y="71.82" width="5.73" height="5.73" rx=".4" ry=".4"/>
      <rect class="cls-17" x="57.06" y="64.21" width="5.73" height="5.73" rx=".4" ry=".4"/>
      <rect class="cls-1" x="56.09" y="63.21" width="5.73" height="5.73" rx=".4" ry=".4"/>
      <rect class="cls-19" x="46.49" y="64.21" width="5.73" height="5.73" rx=".4" ry=".4"/>
      <rect class="cls-1" x="45.5" y="63.21" width="5.73" height="5.73" rx=".4" ry=".4"/>
      <rect class="cls-19" x="57.06" y="55.68" width="5.73" height="5.73" rx=".4" ry=".4"/>
      <rect class="cls-1" x="56.09" y="54.6" width="5.73" height="5.73" rx=".4" ry=".4"/>
      <rect class="cls-17" x="46.49" y="55.68" width="5.73" height="5.73" rx=".4" ry=".4"/>
      <rect class="cls-1" x="45.5" y="54.6" width="5.73" height="5.73" rx=".4" ry=".4"/>
      <rect class="cls-17" x="57.06" y="46.98" width="5.73" height="5.73" rx=".4" ry=".4"/>
      <rect class="cls-1" x="56.09" y="45.99" width="5.73" height="5.73" rx=".4" ry=".4"/>
      <rect class="cls-19" x="46.49" y="46.98" width="5.73" height="5.73" rx=".4" ry=".4"/>
      <rect class="cls-1" x="45.5" y="45.99" width="5.73" height="5.73" rx=".4" ry=".4"/>
    </g>
  </g>
  <g>
    <polygon class="cls-7" points="92.06 49.76 78.87 49.76 76.16 50.82 76.16 69.89 78.87 71.16 92.06 71.16 94.77 69.89 94.77 50.82 92.06 49.76"/>
    <polygon class="cls-6" points="92.06 49.64 78.87 49.64 76.16 50.7 76.16 69.76 78.87 71.03 92.06 71.03 94.77 69.76 94.77 50.7 92.06 49.64"/>
    <path class="cls-20" d="m78.53,50.45c-.01,5.88.52,14.32-.04,20.02-.39-5.75-.11-14.27.04-20.02h0Z"/>
    <path class="cls-20" d="m92.32,50.45c-.01,5.88.52,14.32-.04,20.02-.39-5.75-.12-14.27.04-20.02h0Z"/>
    <rect class="cls-4" x="80.29" y="52.75" width="10.07" height="10.68"/>
    <g>
      <g>
        <polyline class="cls-15" points="81.02 53.12 81.39 53.72 81.76 53.12 82.12 53.72 82.49 53.12 82.86 53.72 83.22 53.12 83.59 53.72 83.96 53.12 84.33 53.72 84.69 53.12 85.06 53.72 85.43 53.12 85.8 53.72 86.17 53.12 86.54 53.72 86.91 53.12 87.28 53.72 87.65 53.12 88.02 53.72 88.39 53.12 88.76 53.72 89.13 53.12 89.51 53.72"/>
        <line class="cls-4" x1="81.02" y1="54.19" x2="84.82" y2="54.19"/>
        <line class="cls-4" x1="81.02" y1="54.88" x2="84.82" y2="54.88"/>
        <line class="cls-4" x1="81.02" y1="55.57" x2="84.82" y2="55.57"/>
        <line class="cls-4" x1="81.02" y1="56.27" x2="84.82" y2="56.27"/>
        <line class="cls-4" x1="81.02" y1="56.96" x2="84.82" y2="56.96"/>
      </g>
      <rect class="cls-17" x="86.07" y="54.64" width="3.71" height="2.82" rx=".2" ry=".2"/>
      <rect class="cls-11" x="85.61" y="54.19" width="3.71" height="2.77"/>
    </g>
    <g>
      <g>
        <line class="cls-4" x1="81.02" y1="58.96" x2="84.82" y2="58.96"/>
        <line class="cls-4" x1="81.02" y1="59.64" x2="84.82" y2="59.64"/>
        <line class="cls-4" x1="81.02" y1="60.34" x2="84.82" y2="60.34"/>
        <line class="cls-4" x1="81.02" y1="61.03" x2="84.82" y2="61.03"/>
        <line class="cls-4" x1="81.02" y1="61.84" x2="84.82" y2="61.84"/>
        <line class="cls-13" x1="81.02" y1="58.47" x2="89.51" y2="58.47"/>
      </g>
      <rect class="cls-19" x="86.07" y="59.45" width="3.71" height="2.89" rx=".2" ry=".2"/>
      <rect class="cls-11" x="85.61" y="58.95" width="3.71" height="2.89"/>
    </g>
  </g>
  <g>
    <path class="cls-20" d="m22.01,46.6h-.86c-.44,0-.8-.34-.83-.77l-.35-1.63c-.06-.28-.26-.51-.54-.62-.52-.21-1.01-.49-1.44-.83-.22-.17-.5-.23-.76-.15l-1.61.52c-.18.09-.38.11-.58.06-.22-.06-.4-.2-.51-.39l-.43-.74c-.22-.38-.1-.87.26-1.11l1.25-1.13c.2-.18.29-.47.25-.76-.04-.27-.06-.55-.06-.82s.02-.55.06-.82c.04-.29-.05-.58-.25-.76l-1.25-1.13c-.36-.24-.47-.73-.26-1.11l.43-.74c.11-.19.29-.33.51-.39.2-.05.4-.03.58.06l1.61.52c.26.08.54.03.76-.15.44-.35.92-.63,1.44-.83.28-.11.48-.34.54-.62l.35-1.63c.03-.43.39-.78.83-.78h.86c.44,0,.8.34.83.78l.35,1.63c.06.28.26.51.54.62.52.21,1.01.49,1.44.83.22.17.5.23.76.15l1.61-.52c.18-.09.38-.11.58-.06.21.06.39.19.51.39l.43.74c.11.19.14.42.08.63-.05.2-.17.36-.34.47l-1.25,1.13c-.2.18-.29.47-.25.76.04.27.06.55.06.82s-.02.55-.06.82c-.04.29.05.58.25.76l1.25,1.13c.17.11.29.28.34.47.06.22.03.44-.08.63l-.43.74c-.11.19-.29.33-.51.39-.19.05-.4.03-.58-.06l-1.61-.52c-.26-.08-.54-.03-.76.15-.44.35-.92.63-1.44.83-.28.11-.48.34-.54.62l-.35,1.63c-.03.43-.39.77-.83.77Zm-.78-.92h.7s.36-1.68.36-1.68c.12-.58.53-1.06,1.1-1.28.44-.18.84-.41,1.21-.7.46-.37,1.06-.48,1.61-.3l1.65.53.35-.6-1.29-1.16c-.43-.39-.63-.98-.55-1.57.03-.23.05-.46.05-.69s-.02-.46-.05-.69c-.09-.6.12-1.19.55-1.57l1.29-1.16-.35-.6-1.65.53c-.55.18-1.15.06-1.61-.3-.37-.29-.78-.53-1.21-.7-.56-.22-.97-.7-1.09-1.28l-.36-1.68h-.7s-.36,1.68-.36,1.68c-.12.58-.53,1.05-1.09,1.28-.44.17-.85.41-1.21.7-.46.37-1.07.48-1.61.3l-1.65-.53-.35.6h0s1.28,1.16,1.28,1.16c.43.39.63.98.54,1.57-.03.23-.05.46-.05.69s.02.46.05.69c.09.6-.11,1.19-.54,1.57l-1.29,1.16.35.6h0s1.65-.53,1.65-.53c.55-.18,1.15-.06,1.61.3.37.29.77.53,1.21.7.56.22.97.7,1.09,1.28l.36,1.68Zm-5.9-3.36h0,0Z"/>
    <path class="cls-17" d="m26.4,40.65l-1.32-2.43-2.33,1.49.25.39,1.47-.94c-.4,1.23-1.56,2.1-2.89,2.1-1.68,0-3.04-1.36-3.04-3.04s1.36-3.04,3.04-3.04c1.44,0,2.69,1.02,2.98,2.43l.9-.18c-.37-1.83-2.01-3.16-3.88-3.16-2.18,0-3.96,1.78-3.96,3.96s1.78,3.96,3.96,3.96c1.68,0,3.15-1.08,3.71-2.6l.7,1.29.4-.22Z"/>
    <g>
      <path class="cls-19" d="m22.19,55.55c-.53,0-.98-.44-1-.98,0-.57.45-1.02,1-1.02s1,.44,1,.98c0,.27-.09.52-.28.71s-.44.3-.71.3h-.02Zm-3.59-.37c-.07,0-.13-.02-.19-.03-.28-.06-.51-.22-.65-.44-.14-.22-.19-.49-.13-.75.1-.45.51-.78.98-.78.07,0,.15,0,.22.02.54.12.88.66.76,1.2-.1.45-.51.78-.98.78Zm7.19-.1c-.46,0-.87-.32-.96-.76-.07-.25-.03-.52.11-.75.14-.23.36-.39.61-.44.07-.02.16-.03.24-.03.45,0,.85.31.97.75.12.55-.2,1.08-.73,1.22-.09.02-.17.02-.24.02Zm-10.61-1.1c-.13,0-.29-.04-.43-.1-.5-.25-.7-.85-.47-1.34.17-.35.51-.56.9-.56.15,0,.3.03.44.1.24.11.42.31.5.56.09.25.07.53-.04.77-.15.34-.5.56-.9.56Zm14.01-.14c-.37,0-.72-.21-.89-.54-.12-.25-.14-.53-.05-.78.09-.25.27-.45.5-.56.13-.07.29-.11.45-.11.37,0,.71.21.89.55.12.25.14.53.05.78-.09.25-.27.45-.5.56-.11.07-.26.1-.44.1Zm-17.06-1.81c-.25,0-.46-.08-.63-.23-.2-.15-.33-.39-.36-.65s.05-.54.21-.74c.19-.24.48-.37.77-.37.23,0,.45.08.64.23.42.34.49.95.14,1.4-.2.24-.47.37-.78.37Zm20.1-.16c-.3,0-.59-.13-.78-.36-.17-.22-.24-.48-.21-.74.03-.26.16-.5.37-.67.17-.15.4-.23.63-.23.3,0,.58.14.77.38.16.2.24.46.21.72-.03.27-.15.51-.36.67-.18.15-.4.22-.64.22Zm-22.62-2.43c-.32,0-.61-.15-.79-.4-.33-.44-.26-1.05.19-1.39.18-.14.39-.21.61-.21.31,0,.6.15.8.41.16.2.23.45.2.72-.03.27-.17.51-.38.68-.17.13-.38.2-.62.2Zm25.17-.14c-.22,0-.44-.08-.62-.22-.21-.16-.34-.39-.37-.65-.04-.27.04-.54.21-.75.19-.25.47-.39.78-.39.23,0,.44.08.62.23.21.16.35.4.38.66s-.05.53-.22.74c-.2.24-.48.38-.78.38Zm-27.02-2.96c-.38,0-.74-.23-.91-.57-.22-.52,0-1.1.49-1.34.13-.06.27-.09.41-.09.4,0,.76.23.91.59.11.24.13.51.03.76s-.29.45-.54.56c-.08.04-.23.1-.4.1Zm28.94-.11c-.13,0-.26-.03-.41-.1-.25-.12-.44-.33-.53-.59-.05-.15-.06-.31-.04-.46h-.04l.12-.29c.17-.35.51-.56.9-.56.15,0,.3.03.44.1.24.12.42.32.51.57.09.25.07.53-.04.77-.16.34-.51.56-.9.56Zm-30.07-3.34c-.47,0-.88-.33-.98-.78-.1-.54.25-1.08.78-1.2.07-.01.13-.02.2-.02.49,0,.9.34.99.8.06.26,0,.53-.14.76-.15.22-.38.37-.64.42-.05.02-.12.02-.2.02Zm31.3-.06c-.09,0-.17-.02-.24-.04-.53-.12-.86-.66-.74-1.2.12-.46.52-.77.97-.77.08,0,.16.01.24.03.25.06.48.21.62.44.14.22.18.49.12.75-.12.46-.52.78-.98.78Zm-31.65-3.53c-.56-.02-.98-.46-.98-1.01.02-.55.45-.98.99-.98.57,0,1.01.46,1.01,1.01s-.45.98-1,.98h-.02Zm32.1-.06c-.57-.02-1-.47-.98-1.02,0-.54.44-.98.99-.98s1.01.46,1.01,1.01c-.02.55-.46.98-1,.98h-.02Zm-31.64-3.53c-.05,0-.14,0-.22-.02-.54-.14-.87-.69-.74-1.22.1-.45.5-.76.97-.76.07,0,.15,0,.22.02.55.14.88.69.74,1.22-.12.45-.51.76-.98.76Zm31.32-.08c-.48,0-.88-.33-.98-.8-.06-.26,0-.52.14-.75.15-.22.37-.37.63-.43.07-.01.13-.02.2-.02.48,0,.88.33.99.79.1.56-.25,1.08-.78,1.18-.05.02-.14.02-.2.02Zm-30.09-3.32c-.13,0-.28-.03-.43-.1-.25-.12-.43-.32-.52-.58-.08-.25-.07-.52.05-.76.2-.4.54-.61.92-.61.15,0,.3.03.44.1.49.24.7.84.46,1.34l-.05.1c-.15.29-.49.51-.86.51Zm28.97-.11c-.39,0-.74-.23-.92-.59-.22-.5,0-1.08.49-1.32.13-.06.27-.09.41-.09.4,0,.76.23.91.59.11.24.13.51.03.76-.09.25-.28.45-.52.55-.15.07-.29.1-.42.1Zm-27.02-3c-.24,0-.46-.08-.63-.22-.43-.33-.5-.95-.15-1.39.19-.24.47-.38.77-.38.22,0,.45.08.63.22.44.34.51.95.16,1.4-.19.25-.47.38-.78.38Zm25.17-.11c-.32,0-.61-.14-.8-.38-.34-.44-.26-1.06.18-1.4.18-.14.39-.21.61-.21.31,0,.6.14.79.39.34.44.26,1.06-.18,1.4-.17.13-.38.2-.6.2Zm-22.62-2.46c-.31,0-.58-.13-.78-.36-.17-.22-.25-.5-.21-.77.03-.26.17-.49.37-.65.17-.14.38-.22.61-.22.3,0,.58.13.78.36.35.45.28,1.07-.15,1.42-.18.14-.4.22-.62.22Zm20.1-.13c-.22,0-.44-.08-.64-.24-.42-.34-.49-.96-.15-1.4.21-.24.49-.37.79-.37.23,0,.45.08.63.23.42.34.48.98.14,1.4-.19.23-.49.38-.78.38Zm-17.05-1.84c-.4,0-.75-.22-.9-.57-.11-.21-.14-.46-.06-.71.08-.26.26-.49.5-.62.15-.07.29-.1.45-.1.39,0,.73.21.9.56.12.21.14.47.07.71-.08.26-.26.49-.5.62-.16.07-.31.1-.45.1Zm14-.11c-.13,0-.29-.03-.43-.1-.51-.26-.71-.85-.47-1.34.17-.35.51-.56.9-.56.15,0,.3.03.44.1.24.11.42.31.5.56.09.25.08.53-.04.77-.18.34-.53.56-.9.56Zm-10.61-1.13c-.46,0-.87-.32-.96-.77-.07-.25-.03-.52.11-.75.14-.23.36-.39.61-.45.08-.02.16-.03.24-.03.45,0,.85.31.97.75.12.55-.2,1.08-.73,1.22-.09.02-.17.02-.24.02Zm6.96-.09c-.54-.14-.87-.67-.75-1.2.1-.45.51-.78.98-.78.07,0,.15,0,.22.02.26.06.48.21.62.44.14.23.19.5.13.76-.1.44-.5.77-.95.78v.03l-.25-.05Zm-3.37-.36c-.55,0-1-.44-1-.98s.44-1.01.98-1.01,1.02.45,1.02.98-.44,1.01-.98,1.02h0s-.02,0-.02,0Z"/>
      <path class="cls-16" d="m22.48,21.16c.43,0,.8.35.8.78s-.35.82-.8.82-.8-.35-.8-.78.35-.81.78-.81h.02m3.59.38c.06,0,.12,0,.18.02.43.1.7.53.61.96-.08.37-.42.62-.78.62-.05,0-.11-.02-.18-.03v.02c-.43-.11-.7-.53-.61-.96.08-.37.42-.63.78-.63m-7.18.07c.36,0,.68.25.78.6.1.43-.16.86-.59.98-.06.02-.13.02-.19.02-.35,0-.69-.24-.77-.61-.11-.43.16-.86.58-.96.07-.02.13-.03.2-.03m10.6,1.13c.12,0,.24.03.35.08.4.19.56.67.37,1.07-.14.27-.43.45-.72.45-.11,0-.24-.03-.35-.08-.4-.21-.56-.67-.37-1.07.14-.29.42-.45.72-.45m-7,.02h-.02.02m-7.01.09c.3,0,.58.16.72.45.21.38.03.86-.35,1.07-.11.05-.24.08-.35.08-.3,0-.59-.16-.72-.45-.21-.38-.03-.86.35-1.07.11-.05.23-.08.35-.08m17.07,1.83c.18,0,.35.06.5.18.34.27.38.78.11,1.12-.16.19-.4.3-.62.3-.18,0-.35-.06-.51-.19-.34-.27-.38-.77-.11-1.12.16-.19.4-.29.63-.29m-20.11.13c.23,0,.46.1.63.29.27.35.22.85-.13,1.13-.14.11-.32.18-.49.18-.24,0-.46-.1-.62-.29-.27-.35-.22-.86.13-1.13.14-.12.32-.18.49-.18m22.62,2.47c.24,0,.47.11.63.31.27.35.21.85-.14,1.12-.14.11-.32.16-.48.16-.24,0-.48-.1-.64-.3-.27-.35-.21-.85.14-1.12.15-.11.32-.17.49-.17m-25.17.11c.18,0,.35.06.5.17.35.27.4.77.13,1.12-.16.21-.38.3-.62.3-.18,0-.35-.05-.5-.17-.35-.27-.4-.77-.13-1.12.15-.2.38-.3.61-.3m27.02,3c.31,0,.6.17.73.47.19.4.02.88-.38,1.05-.11.05-.22.08-.34.08-.3,0-.59-.17-.73-.48-.17-.4,0-.86.4-1.05.1-.05.22-.07.32-.07m-28.94.07c.12,0,.24.03.35.08.4.19.56.67.37,1.07,0,.02,0,.03-.02.05-.14.27-.42.45-.72.45-.11,0-.24-.03-.35-.08-.4-.19-.56-.67-.37-1.07.02-.02.02-.03.02-.05.15-.29.43-.45.72-.45m30.06,3.37c.37,0,.71.26.79.64.08.43-.19.86-.62.94-.05.02-.11.02-.16.02-.38,0-.7-.26-.78-.64-.1-.43.19-.85.62-.94.05,0,.1-.01.15-.01m-31.3.07c.06,0,.12,0,.18.02.43.11.7.54.59.98-.1.37-.42.61-.78.61-.05,0-.11,0-.18-.02-.43-.11-.7-.54-.59-.98.08-.37.41-.61.78-.61m31.63,3.53s.02,0,.03,0c.43,0,.78.37.78.81-.02.43-.37.78-.8.78h-.02c-.45-.02-.8-.37-.78-.81,0-.44.35-.78.79-.78m-32.1.06s.02,0,.03,0c.43,0,.78.37.78.81s-.37.78-.8.78h-.02c-.45-.02-.78-.37-.78-.81.02-.44.35-.78.79-.78m31.65,3.52c.06,0,.13,0,.19.02.43.1.69.53.59.96-.1.37-.42.62-.78.62-.06,0-.13-.02-.19-.03-.43-.1-.69-.53-.59-.96.09-.37.42-.62.78-.62m-31.31.07c.38,0,.72.26.79.64.1.43-.18.86-.62.94-.05.02-.1.02-.16.02-.37,0-.7-.26-.78-.62-.08-.43.19-.86.62-.96.05,0,.1-.01.15-.01m30.08,3.34c.12,0,.24.03.35.08.4.19.56.67.37,1.07-.13.27-.42.45-.72.45-.11,0-.22-.03-.34-.08-.4-.19-.58-.67-.37-1.07h-.02c.14-.29.42-.45.72-.45m-28.95.11c.31,0,.6.17.73.47.19.4.02.88-.4,1.05-.1.05-.21.08-.32.08-.3,0-.59-.18-.73-.46-.17-.42,0-.88.4-1.07.1-.05.22-.07.32-.07m27.03,2.96c.17,0,.35.06.5.18.35.27.42.77.13,1.12-.16.19-.38.3-.62.3-.18,0-.35-.06-.49-.17-.35-.27-.4-.77-.13-1.12.16-.2.39-.31.62-.31m-25.16.14c.24,0,.48.11.64.33.27.34.21.85-.14,1.12-.15.11-.32.16-.5.16-.24,0-.48-.11-.62-.32-.27-.35-.21-.85.14-1.12.14-.11.31-.17.48-.17m22.63,2.44c.23,0,.46.1.61.3.27.34.22.85-.11,1.12-.16.13-.34.18-.51.18-.22,0-.46-.1-.62-.29-.27-.35-.22-.85.13-1.12.15-.13.33-.19.51-.19m-20.12.16c.18,0,.36.06.51.19.34.27.38.77.11,1.12-.16.19-.38.29-.62.29-.18,0-.35-.05-.49-.17-.35-.27-.4-.78-.13-1.12.16-.2.39-.3.62-.3m17.07,1.81c.29,0,.57.16.71.44.19.4.03.88-.37,1.07-.11.06-.24.08-.35.08-.29,0-.57-.16-.72-.43-.19-.4-.03-.88.37-1.07.11-.06.24-.09.36-.09m-14.02.14c.12,0,.24.03.35.08.4.19.56.67.37,1.07-.13.29-.42.45-.72.45-.11,0-.24-.03-.35-.08-.38-.19-.56-.67-.37-1.07.14-.29.42-.45.72-.45m10.62,1.11c.36,0,.68.25.78.6.1.43-.16.86-.59.98-.06.02-.13.02-.19.02-.35,0-.69-.24-.77-.61-.11-.42.14-.86.57-.96.07-.02.13-.03.2-.03m-7.2.09c.06,0,.12,0,.18.02.43.1.7.53.61.96-.08.37-.42.62-.78.62-.05,0-.11-.02-.17-.03-.43-.1-.7-.51-.61-.94.08-.37.42-.63.78-.63m3.59.37c.43,0,.8.35.8.78.02.45-.34.81-.78.81h-.02c-.43,0-.78-.35-.8-.78,0-.45.35-.81.8-.81m.29-32.99h-.02c-.65,0-1.18.54-1.18,1.21s.54,1.18,1.2,1.18,1.2-.55,1.2-1.22-.54-1.18-1.2-1.18h0Zm3.59.38c-.56,0-1.05.4-1.17.94-.14.63.25,1.26.9,1.43l.5.13v-.12c.46-.09.85-.45.95-.92.07-.31.01-.63-.16-.91-.17-.27-.44-.46-.75-.53-.08-.02-.17-.03-.26-.03h0Zm-7.18.07h0c-.1,0-.2.01-.3.04-.29.07-.56.26-.73.53-.17.28-.22.6-.13.91.11.52.6.91,1.15.91.07,0,.17,0,.28-.03.64-.17,1.03-.8.89-1.45-.14-.54-.62-.91-1.17-.91h0Zm10.6,1.13h0c-.46,0-.88.26-1.08.67-.28.59-.04,1.29.54,1.6.19.08.37.12.54.12.44,0,.86-.26,1.07-.66.15-.31.17-.64.06-.94-.11-.3-.32-.54-.61-.68-.17-.08-.34-.12-.53-.12h0Zm-14.01.11h0c-.18,0-.36.04-.53.12-.31.16-.52.43-.62.75-.09.3-.06.61.09.88.17.39.59.66,1.07.66.16,0,.34-.04.51-.11.32-.17.54-.44.63-.75.09-.3.06-.61-.09-.88-.19-.4-.6-.66-1.07-.66h0Zm17.07,1.83h0c-.36,0-.7.16-.93.43-.42.54-.34,1.28.16,1.69.23.18.49.28.76.28.35,0,.7-.17.93-.45.2-.25.29-.56.26-.88-.03-.32-.18-.61-.43-.81-.22-.18-.48-.27-.76-.27h0Zm-20.11.13h0c-.28,0-.54.1-.75.28-.51.39-.6,1.15-.18,1.68.24.29.57.44.94.44.26,0,.53-.09.74-.26.52-.42.61-1.17.2-1.69-.25-.29-.59-.45-.94-.45h0Zm22.62,2.47c-.27,0-.52.09-.73.25-.25.2-.42.48-.46.79-.04.32.05.63.24.88.22.29.57.46.96.46.27,0,.52-.09.73-.24.53-.41.62-1.15.21-1.68-.23-.3-.57-.47-.95-.47h0Zm-25.17.11h0c-.37,0-.71.17-.93.46-.41.53-.32,1.27.2,1.68.19.16.45.26.74.26.38,0,.71-.16.94-.46.41-.53.32-1.27-.2-1.68-.22-.17-.48-.26-.75-.26h0Zm27.02,3h0c-.17,0-.33.03-.48.1-.61.29-.87.98-.61,1.58.21.45.63.72,1.1.72.16,0,.32-.04.49-.11.3-.13.52-.37.63-.67.11-.3.1-.63-.04-.93-.18-.42-.61-.69-1.09-.69h0Zm-28.94.07h0c-.45,0-.86.25-1.08.66l-.04.09v.03c-.25.59,0,1.27.58,1.55.19.08.37.12.52.12.42,0,.82-.23,1.04-.6l.08-.08v-.11c.24-.58,0-1.26-.58-1.53-.17-.08-.34-.12-.52-.12h0Zm30.06,3.37h0c-.07,0-.15,0-.22.02-.33.07-.59.25-.77.52-.18.27-.24.59-.17.91.12.56.6.95,1.17.95.06,0,.16,0,.26-.03.63-.13,1.04-.76.92-1.4-.13-.57-.61-.96-1.19-.96h0Zm-31.3.07h0c-.57,0-1.05.38-1.17.92-.16.63.23,1.28.88,1.45.12.03.22.03.28.03.56,0,1.03-.36,1.17-.9.16-.64-.23-1.29-.88-1.46-.1-.02-.19-.03-.28-.03h0Zm31.63,3.53c-.65,0-1.19.53-1.19,1.18-.02.65.49,1.19,1.17,1.21h0c.68,0,1.2-.51,1.23-1.17,0-.68-.53-1.23-1.18-1.23h-.03Zm-32.1.06c-.64,0-1.16.51-1.19,1.17,0,.68.5,1.2,1.17,1.23h0c.69,0,1.23-.53,1.23-1.18s-.53-1.21-1.18-1.21h-.03Zm31.65,3.52h0c-.55,0-1.03.38-1.17.92-.15.66.25,1.31.89,1.45.07.02.17.04.28.04.55,0,1.03-.38,1.17-.92.07-.32.02-.64-.14-.91-.17-.28-.43-.47-.75-.54-.08-.02-.18-.03-.28-.03h0Zm-31.31.07c-.07,0-.15,0-.22.02-.66.15-1.06.77-.94,1.42.12.56.62.95,1.18.95.07,0,.16,0,.25-.03.31-.06.57-.24.75-.5.18-.27.24-.6.17-.92-.1-.55-.6-.95-1.18-.95h0Zm30.08,3.34c-.46,0-.88.26-1.08.67l-.28.57h.16c0,.11.02.22.06.33.1.31.33.56.62.7.19.08.35.12.51.12.46,0,.89-.27,1.08-.68.14-.29.16-.61.05-.91-.1-.31-.32-.55-.61-.69-.17-.08-.34-.12-.53-.12h0Zm-28.95.11h0c-.17,0-.33.03-.49.1-.6.29-.86.98-.61,1.59.22.44.65.71,1.1.71.16,0,.34-.04.5-.12.28-.12.51-.36.62-.66.11-.3.1-.63-.04-.93-.18-.42-.61-.69-1.09-.69h0Zm27.03,2.96h0c-.37,0-.71.17-.94.46-.2.26-.29.58-.25.9.04.31.2.59.45.78.22.17.48.26.74.26.36,0,.69-.16.93-.45.21-.25.3-.57.27-.89-.04-.32-.2-.6-.46-.8-.21-.17-.47-.26-.74-.26h0Zm-25.16.14h0c-.26,0-.52.09-.73.25-.53.41-.62,1.15-.22,1.68.2.29.56.47.94.47.28,0,.54-.08.74-.24.25-.2.42-.49.46-.81.04-.32-.05-.63-.25-.87-.22-.3-.57-.47-.95-.47h0Zm22.63,2.44h0c-.28,0-.55.1-.77.28-.24.19-.4.47-.44.79-.03.31.06.62.25.88.23.28.58.44.94.44.29,0,.54-.09.76-.26.5-.41.58-1.18.17-1.68-.22-.28-.55-.45-.92-.45h0Zm-20.12.16h0c-.36,0-.7.16-.93.45-.2.25-.29.57-.26.89.04.32.2.6.45.8.18.16.44.26.74.26.37,0,.7-.15.93-.43.42-.54.34-1.27-.17-1.68-.22-.18-.49-.28-.77-.28h0Zm17.08,1.81h0c-.19,0-.38.05-.55.14-.58.28-.82,1-.54,1.59.21.4.63.66,1.08.66.21,0,.39-.04.55-.13.27-.13.48-.37.59-.68.1-.3.08-.63-.06-.91-.22-.42-.62-.67-1.07-.67h0Zm-14.02.14c-.46,0-.88.26-1.08.67-.28.59-.04,1.31.55,1.6.19.08.37.12.53.12.47,0,.9-.27,1.08-.68.28-.59.03-1.31-.56-1.59-.17-.08-.34-.12-.53-.12h0Zm10.62,1.11c-.1,0-.2.01-.3.04-.3.07-.56.26-.73.53-.17.28-.22.61-.13.92.11.51.6.9,1.15.9.08,0,.18,0,.29-.03.64-.17,1.03-.8.89-1.45-.15-.55-.63-.91-1.17-.91h0Zm-7.2.09h0c-.56,0-1.05.39-1.17.94-.07.31-.01.63.16.9.17.27.44.45.75.52.09.02.17.04.26.04.56,0,1.06-.39,1.17-.94.14-.65-.27-1.29-.91-1.43-.09-.02-.17-.03-.26-.03h0Zm3.59.37c-.66,0-1.2.54-1.2,1.21.02.67.55,1.18,1.2,1.18.34,0,.64-.13.87-.36.23-.23.34-.54.33-.87,0-.64-.54-1.17-1.2-1.17h0Z"/>
    </g>
    <g>
      <path class="cls-16" d="m10.61,32.85c.39-.59.19-1.64-.02-2.29-.43.29-.62.16-.69.11-.38-.27-.36-.75-.34-1.22.01-.31.03-.63-.05-.91-.07.23-.21.47-.44.7-.85.83-1.52,2.45-1.15,3.37.2.49.69.74,1.47.74,0,0,.01,0,.02,0,0,0,0,0,0,0,.58,0,.97-.17,1.18-.5Z"/>
      <path class="cls-16" d="m10.5,27.66c-.61-.43-.57-1.25-.53-2.12.04-.9.09-1.89-.51-2.69-.02.59-.21,1.37-.91,2.05-1.72,1.67-3.08,4.89-2.28,6.83.22.55.61.97,1.16,1.24-.02-.05-.05-.09-.07-.14-.49-1.19.27-3.05,1.29-4.04.47-.45.31-1.05.31-1.05l-.24-.85.71.51c.82.59.78,1.44.75,2.07-.01.23-.02.47.02.61.09-.06.22-.16.32-.26l.32-.31.17.41c.03.08.75,1.81.25,2.99.28-.17.51-.39.69-.66.97-1.47.22-4.05-.13-5.05-.59.5-1.03.65-1.31.45Z"/>
      <g>
        <path class="cls-20" d="m9.42,34.16c-2.52,0-3.51-1.15-3.91-2.12-.93-2.28.52-5.83,2.47-7.72.9-.88.65-2,.61-2.12l-.38-1.38,1.16.83c1.54,1.11,1.46,2.74,1.41,3.93-.03.54-.05,1.05.09,1.3.16-.1.45-.31.72-.57l.53-.52.29.68c.07.16,1.67,4.02.22,6.22-.63.96-1.71,1.45-3.21,1.46h0Zm-.05-4.95c-.05.06-.1.12-.16.17-.79.77-1.44,2.31-1.1,3.15.17.41.6.62,1.28.62.53,0,.87-.14,1.05-.41.33-.49.16-1.39.03-1.88-.12.06-.24.08-.35.08-.18,0-.29-.08-.34-.11-.48-.33-.45-.92-.42-1.4,0-.08,0-.16,0-.23Zm.21-5.74c-.11.5-.37,1.07-.89,1.58-1.67,1.63-3,4.74-2.24,6.61.14.33.34.61.6.83-.23-1.25.5-2.92,1.45-3.84.38-.36.26-.84.25-.86l-.39-1.39,1.18.85c.91.65.86,1.61.83,2.24,0,.07,0,.14,0,.21,0,0,.54-.53.54-.53l.29.68c.07.16.57,1.4.42,2.52.06-.07.12-.15.17-.23.84-1.28.3-3.48-.06-4.6-.36.27-.67.4-.94.4-.15,0-.28-.04-.39-.12-.7-.49-.66-1.4-.62-2.28.03-.68.07-1.42-.19-2.07Z"/>
        <path class="cls-16" d="m8.56,21.31l.7.51c1.45,1.05,1.38,2.61,1.32,3.76-.03.69-.06,1.3.23,1.55.16-.04.58-.34.91-.67l.32-.31.18.41c.07.16,1.63,3.92.23,6.04-.59.9-1.62,1.36-3.04,1.37,0,0,0,0,0,0h-.04c-2.37,0-3.31-1.08-3.68-1.99-.9-2.2.53-5.66,2.42-7.5,1.02-.99.68-2.26.67-2.32l-.23-.84m-1.13,11.66s-.05-.09-.07-.14c-.49-1.19.27-3.05,1.29-4.04.47-.45.31-1.05.31-1.05l-.24-.85.71.51c.82.59.78,1.44.75,2.07-.01.23-.02.47.02.61.09-.06.22-.16.32-.26l.32-.31.17.41c.03.08.75,1.81.25,2.99.28-.17.51-.39.69-.66.97-1.47.22-4.05-.13-5.05-.42.36-.77.53-1.03.53-.11,0-.2-.03-.28-.08-.61-.43-.57-1.25-.53-2.12.04-.9.09-1.89-.51-2.69-.02.59-.21,1.37-.91,2.05-1.72,1.67-3.08,4.89-2.28,6.83.22.55.61.97,1.16,1.24m1.97.37s0,0,0,0c0,0,.01,0,.02,0,0,0,0,0,0,0,0,0,0,0,0,0,.58,0,.97-.17,1.18-.5.39-.59.19-1.64-.02-2.29-.21.14-.36.18-.47.18-.12,0-.18-.05-.22-.07-.38-.27-.36-.75-.34-1.22.01-.31.03-.63-.05-.91-.07.23-.21.47-.44.7-.85.83-1.52,2.45-1.15,3.37.2.49.69.74,1.47.74m-1.52-13.02l.3,1.09.23.84s.28,1.11-.56,1.93c-1.98,1.93-3.51,5.52-2.51,7.94.42,1.02,1.46,2.24,4.05,2.24h.04s0,0,0,0c1.57,0,2.7-.53,3.37-1.55,1.49-2.25-.02-5.99-.2-6.41l-.18-.41-.23-.54-.42.41-.32.31c-.16.16-.33.3-.47.4-.04-.26-.02-.66,0-.98.06-1.17.14-2.93-1.49-4.1l-.7-.51-.92-.66h0Zm.26,5.66c.22-.29.46-.56.7-.8.34-.33.57-.68.73-1.03.06.44.04.9.02,1.36-.03.54-.05,1.09.08,1.56l-.71-.51-.82-.59h0Zm-1.32,5.93c-.07-.1-.12-.21-.17-.33-.6-1.46.2-3.84,1.43-5.51l.26.93.24.85s.09.38-.2.66c-.84.82-1.53,2.19-1.56,3.41h0Zm3.98-3.77c.25,0,.52-.09.82-.28.28.95.66,2.61.22,3.76-.06-.91-.39-1.72-.45-1.85l-.17-.41-.23-.54-.39.38c0-.34-.01-.74-.16-1.14.11.05.23.08.36.08h0Zm-1.39,5.2v-.4c-.9,0-1.05-.37-1.1-.49-.26-.63.16-1.9.85-2.72,0,.44.07.94.52,1.26.06.04.21.15.45.15.07,0,.14,0,.21-.02.13.57.16,1.18-.05,1.51-.05.08-.21.31-.85.32l-.03.4h0Z"/>
      </g>
    </g>
    <g>
      <path class="cls-16" d="m34.26,27.95c.24.33.6.59,1.05.72.66.19,1.37.09,1.85-.27.3-.29.47-.75.42-1.26-.05-.64-.41-1.24-.98-1.68-.79.27-1.75,1.16-2.34,1.97,0,.07.02.15.02.22,0,.1-.01.19-.03.29Z"/>
      <path class="cls-16" d="m33.65,24.75c.19-.66.09-1.37-.27-1.85-.29-.3-.74-.47-1.26-.42-.64.05-1.24.41-1.68.98.28.82,1.23,1.83,2.07,2.41.09,0,.18.01.27.03.4-.24.72-.63.86-1.14Z"/>
      <path class="cls-16" d="m31.39,30.32c-.19.66-.09,1.37.27,1.85.3.31.75.47,1.26.42.64-.05,1.24-.41,1.68-.98-.25-.72-1.02-1.6-1.78-2.19-.11.02-.22.03-.33.03-.18,0-.35-.03-.51-.08-.27.24-.47.55-.59.94Z"/>
      <path class="cls-16" d="m29.74,26.41c-.22-.06-.45-.1-.67-.1-.44,0-.86.12-1.18.36-.3.29-.47.75-.42,1.26.05.64.41,1.24.98,1.68.75-.26,1.66-1.08,2.25-1.86,0-.03,0-.06,0-.09,0-.19.04-.37.09-.54-.24-.33-.59-.58-1.04-.71Z"/>
      <circle class="cls-16" cx="32.52" cy="27.69" r="1.19"/>
      <g>
        <path class="cls-16" d="m32.01,29.41c.16.05.33.08.51.08.11,0,.22-.01.33-.03.76.59,1.53,1.47,1.78,2.19-.44.57-1.04.93-1.68.98-.05,0-.1,0-.16,0-.44,0-.84-.16-1.1-.43-.36-.48-.46-1.19-.27-1.85.11-.39.32-.7.59-.94m-.1-.45l-.17.15c-.33.29-.57.68-.71,1.13-.23.78-.1,1.62.33,2.2l.02.02.02.02c.34.35.85.55,1.39.55.06,0,.13,0,.19,0,.74-.06,1.46-.47,1.96-1.14l.13-.17-.07-.2c-.31-.89-1.22-1.84-1.91-2.37l-.14-.11-.18.03c-.08.02-.17.03-.26.03-.12,0-.24-.02-.39-.07l-.21-.06h0Z"/>
        <path class="cls-16" d="m32.32,22.5c.45,0,.83.16,1.1.43.36.48.46,1.19.27,1.85-.15.5-.46.9-.86,1.14-.09-.01-.17-.03-.27-.03-.84-.57-1.79-1.59-2.07-2.41.44-.57,1.04-.93,1.68-.98.05,0,.11,0,.16,0m0-.4c-.06,0-.13,0-.19,0-.74.06-1.46.47-1.96,1.14l-.13.17.07.2c.32.93,1.36,2.02,2.23,2.61l.1.07h.12c.07,0,.14.01.21.02l.14.02.13-.07c.5-.29.87-.78,1.04-1.37.23-.78.1-1.62-.33-2.2l-.02-.02-.02-.02c-.35-.36-.84-.55-1.39-.55h0Z"/>
        <path class="cls-16" d="m29.1,26.34c.22,0,.45.03.67.1.44.13.8.38,1.04.71-.06.17-.09.35-.09.54,0,.03,0,.06,0,.09-.59.78-1.51,1.6-2.25,1.86-.57-.44-.93-1.04-.98-1.68-.04-.51.12-.96.42-1.26.32-.24.74-.36,1.18-.36m0-.4c-.53,0-1.04.16-1.42.44l-.02.02-.02.02c-.4.38-.6.96-.54,1.58.06.74.47,1.46,1.13,1.96l.17.13.2-.07c.87-.3,1.86-1.22,2.44-1.99l.09-.12v-.15s0-.02,0-.02v-.06c0-.13.02-.26.07-.42l.06-.19-.12-.16c-.3-.41-.73-.7-1.25-.85-.25-.07-.52-.11-.78-.11h0Z"/>
        <path class="cls-16" d="m32.52,26.5c.13,0,.26.03.37.07.36.12.64.41.76.77.04.11.06.23.06.35,0,.13-.03.26-.07.38-.11.32-.35.59-.66.72-.14.06-.3.09-.46.09-.22,0-.41-.06-.59-.16-.28-.16-.5-.44-.57-.77-.02-.08-.03-.17-.03-.26,0-.21.06-.41.16-.58.18-.32.51-.55.9-.59.04,0,.09-.01.13-.01m0-.4s-.1,0-.15.01c-.53.06-.98.36-1.23.8-.14.25-.21.51-.21.78,0,.11.01.23.04.35.1.43.37.8.76,1.03.25.14.51.22.79.22.21,0,.42-.04.61-.12.42-.17.74-.52.89-.96.06-.18.09-.34.09-.51,0-.15-.03-.31-.08-.47-.15-.48-.53-.87-1.01-1.03-.17-.06-.34-.09-.5-.09h0Z"/>
        <path class="cls-16" d="m36.64,25.49c.57.44.93,1.04.98,1.68.04.51-.12.96-.42,1.26-.32.24-.74.36-1.18.36-.22,0-.45-.03-.67-.1-.45-.13-.81-.38-1.05-.72.02-.09.03-.19.03-.29,0-.08-.01-.15-.02-.22.58-.81,1.55-1.7,2.34-1.97m.07-.45l-.2.07c-.93.32-1.96,1.32-2.53,2.12l-.09.13.02.16v.06s.02.08.02.12c0,.08-.01.15-.02.22l-.03.16.1.13c.3.41.73.71,1.26.87.25.07.52.11.78.11.53,0,1.04-.16,1.42-.44l.02-.02.02-.02c.4-.38.6-.96.55-1.58-.06-.74-.47-1.46-1.13-1.96l-.17-.13h0Z"/>
        <g>
          <path d="m32.79,33.45c-.67,0-1.27-.25-1.71-.71-.55-.73-.7-1.7-.43-2.62.11-.36.28-.69.51-.98-.1-.09-.18-.19-.26-.3-.77.84-1.63,1.44-2.35,1.62l-.22.06-.19-.13c-.84-.58-1.37-1.44-1.45-2.37-.06-.75.19-1.44.7-1.93.49-.37,1.1-.56,1.73-.56.3,0,.6.04.89.13.42.12.79.33,1.11.62.09-.1.2-.18.31-.25-.74-.65-1.53-1.58-1.76-2.48l-.06-.22.13-.19c.58-.84,1.44-1.37,2.37-1.45.08,0,.15,0,.23,0,.67,0,1.26.25,1.71.71.55.73.7,1.7.44,2.62-.13.43-.35.82-.66,1.15.1.08.19.18.28.28.65-.74,1.59-1.54,2.49-1.77l.22-.06.19.13c.84.58,1.37,1.44,1.45,2.37.06.76-.19,1.44-.7,1.94-.49.37-1.1.56-1.73.56-.3,0-.59-.04-.88-.13-.38-.11-.73-.3-1.02-.55-.08.1-.17.2-.27.28.84.77,1.45,1.64,1.64,2.37l.06.22-.13.19c-.58.84-1.44,1.37-2.37,1.45-.08,0-.15,0-.22,0Zm-.72-3.82c-.21.21-.36.47-.45.78-.18.6-.09,1.24.24,1.68.21.22.56.35.94.35.05,0,.09,0,.14,0,.54-.04,1.07-.34,1.47-.82-.24-.59-.87-1.35-1.61-1.94-.09.01-.18.02-.28.02-.14,0-.29-.02-.45-.06Zm-2.97-3.09c-.41,0-.78.11-1.06.32-.25.24-.38.64-.34,1.08.04.54.34,1.07.81,1.47.62-.25,1.42-.93,2.01-1.69v-.03c0-.16.02-.33.07-.5-.22-.26-.52-.45-.88-.56-.2-.06-.41-.09-.61-.09Zm3.35.17c-.35.04-.63.22-.79.5-.09.16-.13.32-.13.49,0,.07,0,.14.03.22.06.27.23.5.48.64.16.09.32.13.49.13.13,0,.26-.03.38-.08.26-.11.46-.33.55-.6.04-.11.06-.21.06-.31,0-.09-.02-.18-.05-.29-.09-.3-.33-.54-.63-.64-.11-.04-.21-.05-.31-.05v-.2l-.07.21Zm2.05,1.22c.22.27.53.47.89.58.2.06.41.09.61.09.4,0,.78-.12,1.06-.32.25-.24.38-.64.34-1.08-.04-.54-.34-1.07-.82-1.47-.72.29-1.58,1.1-2.09,1.8,0,.07.01.12.01.17,0,.08,0,.16-.02.23Zm-1.72-2.22c.34-.22.59-.57.71-.98.18-.6.09-1.24-.24-1.68-.21-.22-.55-.35-.94-.35-.05,0-.09,0-.14,0-.54.04-1.07.34-1.47.82.31.76,1.19,1.67,1.91,2.17.05,0,.11,0,.16.02Z"/>
          <path class="cls-16" d="m32.32,21.88c.61,0,1.16.23,1.56.65.5.66.64,1.58.39,2.42-.15.5-.42.91-.78,1.22.23.15.43.35.57.59.7-.85,1.69-1.69,2.56-1.91l.14-.03.12.08c.79.55,1.29,1.35,1.36,2.22.06.69-.17,1.32-.64,1.77-.45.34-1.01.51-1.59.51-.28,0-.56-.04-.83-.12-.44-.13-.81-.36-1.11-.66-.14.23-.33.43-.55.57.8.69,1.55,1.62,1.76,2.43l.03.14-.08.12c-.55.79-1.35,1.29-2.22,1.36-.07,0-.14,0-.21,0-.61,0-1.16-.23-1.57-.65-.5-.66-.63-1.58-.39-2.42.12-.41.33-.77.6-1.06-.21-.16-.39-.37-.51-.61-.69.8-1.62,1.55-2.43,1.76l-.14.03-.12-.08c-.79-.55-1.29-1.35-1.36-2.22-.06-.69.17-1.32.64-1.77.45-.34,1.01-.51,1.59-.51.28,0,.56.04.83.12.47.14.86.4,1.17.72.17-.22.39-.39.64-.51-.86-.7-1.69-1.69-1.91-2.56l-.03-.14.08-.12c.55-.79,1.36-1.29,2.22-1.36.07,0,.14,0,.21,0m.5,4.03c.4-.24.72-.63.86-1.14.19-.66.09-1.37-.27-1.85-.26-.27-.65-.43-1.1-.43-.05,0-.1,0-.16,0-.64.05-1.24.41-1.68.98.28.82,1.23,1.83,2.07,2.41.09,0,.18.01.27.03m3.19,2.88c.44,0,.86-.13,1.18-.36.3-.29.47-.75.42-1.26-.05-.64-.41-1.24-.98-1.68-.79.27-1.75,1.16-2.34,1.97,0,.07.02.15.02.22,0,.1-.01.19-.03.29.24.33.6.59,1.05.72.22.06.45.1.67.1m-7.54.85c.75-.26,1.66-1.08,2.25-1.86,0-.03,0-.06,0-.09,0-.19.04-.37.09-.54-.24-.33-.59-.58-1.04-.71-.22-.06-.45-.1-.67-.1-.44,0-.86.12-1.18.36-.3.29-.47.75-.42,1.26.05.64.41,1.24.98,1.68m4.05-.76c.16,0,.32-.03.46-.09.31-.13.55-.39.66-.72.04-.12.07-.25.07-.38,0-.12-.02-.24-.06-.35-.11-.36-.4-.65-.76-.77-.12-.04-.24-.07-.37-.07-.04,0-.09,0-.13.01-.39.04-.72.27-.9.59-.1.17-.16.37-.16.58,0,.09.01.18.03.26.07.33.29.6.57.77.17.1.37.16.59.16m.27,3.76c.05,0,.1,0,.16,0,.64-.05,1.24-.41,1.68-.98-.25-.72-1.02-1.6-1.78-2.19-.11.02-.22.03-.33.03-.18,0-.35-.03-.51-.08-.27.24-.47.55-.59.94-.19.66-.09,1.37.27,1.85.26.27.66.43,1.1.43m-.47-11.15h0c-.08,0-.16,0-.24.01-.98.08-1.9.64-2.52,1.53l-.08.12-.1.15.05.18.03.14c.22.86.93,1.75,1.63,2.41-.31-.25-.66-.43-1.04-.54-.31-.09-.62-.14-.94-.14-.67,0-1.32.21-1.83.59-.6.57-.87,1.31-.8,2.13.08.99.64,1.9,1.53,2.52l.11.08.15.1.18-.05.14-.03c.71-.18,1.54-.74,2.29-1.51,0,0,0,0,0,0-.19.27-.34.58-.44.91-.29.97-.12,2.01.45,2.77.51.54,1.17.81,1.89.81.08,0,.16,0,.24,0,.98-.08,1.9-.64,2.51-1.53l.08-.11.1-.15-.05-.18-.03-.14c-.19-.72-.75-1.56-1.54-2.32,0,0,0,0,0,0,.28.21.6.36.94.46.31.09.62.14.94.14.67,0,1.32-.21,1.83-.59.6-.57.87-1.31.8-2.13-.08-.99-.64-1.9-1.53-2.52l-.11-.08-.15-.1-.18.05-.14.03c-.86.22-1.74.92-2.4,1.62.24-.3.43-.65.54-1.03.29-.97.12-2.01-.45-2.77-.51-.54-1.17-.81-1.88-.81h0Zm-1.38,2.07c.35-.38.8-.62,1.25-.65.04,0,.08,0,.12,0,.32,0,.6.1.79.29.27.38.35.95.19,1.48-.1.35-.3.64-.57.83-.01,0-.02,0-.04,0-.75-.53-1.45-1.32-1.75-1.94h0Zm3.77,4.02c.53-.71,1.27-1.34,1.85-1.62.38.35.62.8.65,1.25.03.37-.07.7-.29.92-.25.17-.57.27-.92.27-.19,0-.37-.03-.56-.08-.3-.09-.55-.24-.74-.45,0-.06,0-.11,0-.17,0-.04,0-.08,0-.11h0Zm-6.54-.57c.24-.17.57-.27.92-.27.19,0,.37.03.56.08.28.08.53.23.71.42-.03.14-.05.28-.05.42-.53.67-1.22,1.26-1.77,1.52-.38-.35-.62-.8-.65-1.25-.03-.37.07-.7.29-.92h0Zm4.34,1.47c-.13,0-.26-.04-.39-.11-.19-.11-.33-.3-.38-.51-.01-.06-.02-.12-.02-.17,0-.13.04-.26.11-.39.12-.22.35-.37.6-.39h.09c.07-.01.16,0,.25.03.24.08.43.27.5.51.03.09.04.16.04.23,0,.08-.02.16-.05.25-.07.22-.23.39-.44.48-.1.04-.2.06-.3.06h0Zm-.52,3.46c-.27-.38-.34-.95-.19-1.48.07-.24.18-.44.33-.61.13.03.26.04.38.04.07,0,.14,0,.22-.01.63.52,1.18,1.18,1.43,1.7-.35.38-.79.61-1.25.65-.04,0-.08,0-.12,0-.32,0-.6-.11-.8-.29h0Z"/>
        </g>
      </g>
    </g>
    <g>
      <path class="cls-16" d="m34.37,44.65c-.75,1.19-2.96,4.82-2.96,6.43,0,1.97,1.29,3.41,3.07,3.41s3.04-1.4,3.04-3.41c0-1.61-2.35-5.25-3.15-6.43Z"/>
      <path class="cls-20" d="m35.29,52.83c-.05,0-.11-.01-.16-.04-.15-.09-.19-.28-.11-.42.47-.79.34-1.73-.36-2.63-.1-.13-.08-.33.05-.43.13-.1.33-.08.43.05.86,1.1,1.01,2.32.41,3.33-.06.1-.16.15-.26.15Z"/>
      <g>
        <path class="cls-20" d="m34.31,55.25c-2.25,0-3.88-1.77-3.88-4.22,0-2.19,3.2-7.06,3.34-7.26l.41-.62.43.61c.15.21,3.56,5.08,3.56,7.27,0,2.44-1.62,4.22-3.85,4.22Zm-.11-10.28c-.82,1.32-2.76,4.6-2.76,6.06,0,1.86,1.21,3.21,2.87,3.21s2.84-1.32,2.84-3.21c0-1.46-2.07-4.74-2.95-6.06Z"/>
        <path class="cls-16" d="m34.18,43.5l.26.37c.14.2,3.52,5.04,3.52,7.16,0,2.33-1.54,4.02-3.65,4.02s-3.68-1.69-3.68-4.02c0-2.12,3.17-6.95,3.31-7.15l.25-.38m.13,10.93c1.79,0,3.04-1.4,3.04-3.41,0-1.61-2.35-5.25-3.15-6.43-.75,1.19-2.96,4.82-2.96,6.43,0,1.97,1.29,3.41,3.07,3.41m-.14-11.64l-.32.49-.25.38c-.14.21-3.37,5.11-3.37,7.37,0,2.56,1.72,4.42,4.08,4.42s4.05-1.86,4.05-4.42c0-2.22-3.23-6.87-3.59-7.39l-.26-.37-.34-.48h0Zm.14,11.25c-1.55,0-2.67-1.26-2.67-3.01,0-1.11,1.27-3.58,2.57-5.69,1.38,2.11,2.74,4.58,2.74,5.69,0,1.77-1.08,3.01-2.64,3.01h0Z"/>
      </g>
    </g>
    <g>
      <path class="cls-20" d="m10.41,55.47c-.28,0-.51-.23-.51-.51v-1.52l-.51.6c-.09.11-.23.18-.38.18-.12,0-.24-.04-.33-.12-.1-.09-.17-.21-.18-.35-.01-.14.03-.27.12-.37l1.28-1.49v-1.97l-1.82,1.06-.63,1.86c-.07.21-.26.34-.48.34h-.03l-.13-.03c-.27-.09-.41-.38-.32-.64l.25-.75-.87.51c-.08.05-.17.07-.26.07-.18,0-.34-.1-.44-.25-.14-.24-.06-.55.18-.7l1.02-.59-.82-.15c-.27-.05-.46-.32-.4-.59.04-.24.25-.41.5-.41l2.05.38,1.7-1-1.76-1.05-2.02.4h-.03c-.32,0-.52-.17-.57-.4-.05-.27.12-.54.4-.6l.92-.18-.88-.53c-.12-.07-.2-.18-.23-.31-.03-.13-.01-.27.06-.38.09-.15.26-.25.43-.25.09,0,.18.03.26.07l.81.49-.22-.64c-.04-.13-.04-.26.02-.39s.16-.21.29-.26c.05-.02.11-.03.17-.03.21,0,.41.14.48.34l.63,1.79,1.73,1.04v-2.07l-1.31-1.5c-.09-.1-.13-.23-.12-.37,0-.13.07-.26.17-.35.09-.08.21-.13.33-.13.15,0,.29.06.38.17l.55.63v-.92c0-.28.23-.51.51-.51s.51.23.51.51v1.02l.51-.6c.09-.11.23-.18.38-.18.12,0,.24.04.33.12.1.09.17.21.18.35,0,.13-.03.27-.12.37l-1.28,1.49v1.97l1.82-1.06.63-1.86c.07-.21.26-.34.48-.34h.03l.13.02c.27.09.41.38.32.64l-.25.75.87-.51c.08-.04.17-.07.26-.07.18,0,.35.1.44.25.07.12.09.25.05.38s-.12.24-.23.31l-1.02.6.82.15c.13.03.25.1.33.21s.1.25.08.38c-.04.24-.25.41-.5.41l-2.05-.38-1.7,1,1.76,1.05,2.02-.4h.03c.32,0,.52.17.57.4.03.13,0,.27-.08.38s-.19.19-.32.21l-.92.18.89.53c.12.07.2.18.23.31.03.13.01.27-.06.38-.09.15-.26.25-.44.25-.09,0-.18-.03-.26-.07l-.81-.49.22.64c.04.13.04.27-.02.39-.06.12-.16.21-.29.26-.05.02-.11.03-.17.03-.21,0-.41-.14-.48-.34l-.63-1.79-1.73-1.04v2.07l1.31,1.5c.09.1.13.23.12.37s-.07.26-.17.35c-.09.08-.21.13-.33.13-.15,0-.28-.06-.38-.17l-.55-.63v1.42c0,.28-.23.51-.51.51Z"/>
      <path class="cls-16" d="m10.41,43.31c.17,0,.31.14.31.31v1.56l.87-1.01c.06-.07.15-.11.23-.11.07,0,.14.02.2.07.13.11.14.3.03.43l-1.33,1.55v2.39l2.18-1.28.66-1.93c.04-.13.16-.21.29-.21.03,0,.07,0,.1.02.16.06.25.23.19.39l-.43,1.26,1.33-.78s.1-.04.16-.04c.11,0,.21.05.27.15.09.15.04.33-.11.42l-1.48.86,1.34.25c.17.03.28.19.24.36-.03.15-.16.25-.3.25-.02,0-.04,0-.06,0l-2.03-.38-2.06,1.21,2.11,1.27,2.1-.42s.04,0,.06,0c.14,0,.27.1.3.25.03.17-.07.33-.24.36l-1.43.28,1.33.8c.15.09.19.28.11.42-.06.1-.16.15-.26.15-.05,0-.11-.01-.16-.04l-1.29-.77.41,1.16c.06.16-.03.34-.19.39-.03.01-.07.02-.1.02-.13,0-.25-.08-.29-.21l-.65-1.86-2.1-1.26v2.5l1.36,1.55c.11.13.1.32-.03.43-.06.05-.13.08-.2.08-.09,0-.17-.04-.23-.1l-.9-1.03v1.95c0,.17-.14.31-.31.31s-.31-.14-.31-.31v-2.06l-.87,1.01c-.06.07-.15.11-.23.11-.07,0-.14-.02-.2-.07-.13-.11-.14-.3-.03-.43l1.33-1.55v-2.39l-2.18,1.28-.66,1.93c-.04.13-.16.21-.29.21-.03,0-.07,0-.1-.02-.16-.06-.25-.23-.19-.39l.43-1.25-1.33.78s-.1.04-.16.04c-.1,0-.21-.05-.26-.15-.09-.15-.04-.33.11-.42l1.48-.86-1.34-.25c-.17-.03-.28-.19-.24-.36.03-.15.16-.25.3-.25.02,0,.04,0,.06,0l2.03.38,2.06-1.21-2.11-1.27-2.1.42s-.04,0-.06,0c-.14,0-.27-.1-.3-.25-.03-.17.07-.33.24-.36l1.43-.28-1.33-.8c-.15-.09-.19-.28-.11-.42.06-.1.16-.15.26-.15.05,0,.11.01.16.04l1.29.77-.41-1.16c-.06-.16.03-.34.19-.39.03-.01.07-.02.1-.02.13,0,.24.08.29.21l.65,1.86,2.1,1.26v-2.5l-1.36-1.55c-.11-.13-.1-.32.03-.43.06-.05.13-.08.2-.08.09,0,.17.04.23.1l.9,1.03v-1.45c0-.17.14-.31.31-.31m0-.4c-.39,0-.71.32-.71.71v.39l-.2-.23c-.13-.15-.33-.24-.53-.24-.17,0-.34.06-.47.18-.14.12-.23.3-.24.48-.01.19.05.37.17.51l1.26,1.44v1.64l-1.37-.82-.6-1.72c-.1-.28-.37-.47-.67-.47-.08,0-.16.01-.24.04-.18.06-.32.19-.4.36-.08.17-.09.36-.03.54l.04.12-.34-.2c-.11-.07-.23-.1-.36-.1-.25,0-.48.13-.61.34-.1.16-.13.35-.08.53.05.18.16.34.32.43l.44.26-.42.08c-.19.04-.34.14-.45.3-.11.16-.14.35-.11.53.06.33.36.57.69.57.05,0,.1,0,.14-.01l1.94-.38,1.4.84-1.35.79-1.89-.36s-.09-.01-.13-.01c-.34,0-.63.24-.69.58-.04.18,0,.37.11.53.11.16.27.26.45.3l.29.06-.56.33c-.16.1-.28.25-.33.43-.05.18-.02.37.07.54.13.22.36.35.61.35.12,0,.25-.03.35-.09l.41-.24-.08.24c-.12.37.07.77.44.9.08.03.15.04.23.04.3,0,.57-.19.67-.48l.61-1.79,1.45-.85v1.54l-1.23,1.43c-.12.14-.18.32-.17.51.01.19.1.36.24.48.13.11.29.17.46.17.21,0,.4-.09.54-.25l.16-.19v.98c0,.39.32.71.71.71s.71-.32.71-.71v-.89l.2.23c.13.15.33.24.53.24.17,0,.34-.06.47-.18.14-.12.23-.3.24-.48.01-.19-.05-.37-.17-.51l-1.26-1.44v-1.64l1.37.82.6,1.72c.1.28.37.47.67.47.08,0,.16-.01.24-.04.18-.06.32-.19.4-.36.08-.17.09-.36.03-.54l-.04-.12.34.2c.11.07.23.1.36.1.25,0,.48-.13.61-.34.1-.16.13-.35.08-.53-.05-.18-.16-.34-.32-.43l-.44-.26.42-.08c.19-.04.34-.14.45-.3.11-.16.14-.35.11-.53-.07-.33-.36-.57-.69-.57-.05,0-.09,0-.14.01l-1.95.38-1.4-.84,1.35-.79,1.89.36s.09.01.13.01c.34,0,.63-.24.69-.58.04-.18,0-.37-.11-.53-.11-.16-.27-.26-.45-.3l-.29-.06.56-.33c.34-.2.45-.63.25-.97-.13-.22-.36-.35-.61-.35-.12,0-.25.03-.35.09l-.41.24.08-.24c.13-.37-.07-.77-.44-.9-.08-.03-.15-.04-.23-.04-.3,0-.57.19-.67.48l-.61,1.79-1.45.85v-1.54l1.23-1.43c.12-.14.18-.32.17-.51-.01-.19-.1-.36-.24-.48-.13-.11-.29-.17-.46-.17-.21,0-.4.09-.54.25l-.16.19v-.48c0-.39-.32-.71-.71-.71h0Z"/>
    </g>
  </g>
  <g>
    <g>
      <path class="cls-10" d="m57.02,5.64v-.45c0-.32.26-.58.58-.58h10.11c.32,0,.58.26.58.58v19.76c0,.32-.26.58-.58.58h-10.11c-.32,0-.58-.26-.58-.58v-13.04s0-6.27,0-6.27Z"/>
      <path class="cls-21" d="m58.53,6.54c2.67,0,6.52-.31,9.1.03-2.61.24-6.5.07-9.1-.03h0Z"/>
      <path class="cls-21" d="m57.49,22.82c2.97,0,7.26-.31,10.13.03-2.91.24-7.23.07-10.13-.03h0Z"/>
      <g>
        <path class="cls-18" d="m63.52,9.04s-3.29,1.82-2.85,3.61c.48,1.83,3.2,3.36,3.44,4.69.26,1.24-.1,1.74-1.66,3.13,0,0,4.64-1.04,4.61-3.51,0,0,.22-.97-2.07-2.61-1.56-1.33-3.46-2.68-1.47-5.3Z"/>
        <path class="cls-18" d="m59.82,12.1c-.81.53-.9,1.68-.75,2.55.46,2.52,3.03,2.42,3.11,4.82,0,0,1.86-1.18-.6-3.59-1.19-1.11-2.47-2.33-1.76-3.78Z"/>
        <path class="cls-18" d="m58.92,15.79c-1.49,1.66-.08,2.7.38,2.99.56.37,1.59.75,2.36,1.59.01-.66-.02-1.21-1.6-2.28-1.38-1-1.12-1.7-1.13-2.3Z"/>
      </g>
      <line class="cls-12" x1="63.54" y1="5.54" x2="61.79" y2="5.54"/>
      <circle class="cls-21" cx="62.66" cy="24.35" r=".54"/>
    </g>
    <g>
      <g>
        <path class="cls-2" d="m65.69,10.9c-.28-.4-.74-.66-1.26-.66-.74,0-1.35.52-1.5,1.21-.52.11-.81.53-.81.93,0,.48.48.79,1.19.79.14,0,2.13.04,2.28.04.64,0,1.16-.52,1.16-1.16,0-.6-.46-1.1-1.05-1.15Z"/>
        <path class="cls-9" d="m65.6,10.66c-.28-.4-.74-.66-1.26-.66-.74,0-1.35.52-1.5,1.21-.52.11-.81.53-.81.93,0,.48.48.79,1.19.79.14,0,2.13.04,2.28.04.64,0,1.16-.52,1.16-1.16,0-.6-.46-1.1-1.05-1.15Z"/>
      </g>
      <g>
        <path class="cls-3" d="m61.79,12.3v.98c0,.1.42.15.65.15.51,0,.83-.07.83-.17v-.98c0-.1-.42-.15-.65-.15-.51,0-.83.07-.83.17Z"/>
        <path class="cls-8" d="m61.79,12.3c0,.1.42.15.65.15.51,0,.83-.07.83-.17"/>
        <path class="cls-8" d="m61.79,12.6c0,.1.42.15.65.15.51,0,.83-.07.83-.17"/>
        <path class="cls-8" d="m61.79,12.93c0,.1.42.15.65.15.51,0,.83-.07.83-.17"/>
      </g>
    </g>
  </g>
</svg>