<?xml version="1.0" encoding="UTF-8"?>
<svg id="m_v" data-name="m&amp;amp;v" xmlns="http://www.w3.org/2000/svg" viewBox="0 0 100 100">
  <defs>
    <style>
      .cls-1, .cls-2 {
        fill: #fff;
      }

      .cls-3, .cls-4, .cls-5, .cls-6, .cls-7, .cls-8, .cls-9, .cls-10, .cls-11 {
        stroke-linecap: round;
      }

      .cls-3, .cls-4, .cls-7, .cls-8, .cls-9, .cls-10 {
        stroke: #a6bc39;
      }

      .cls-3, .cls-5, .cls-7, .cls-8, .cls-9, .cls-10, .cls-12, .cls-13, .cls-11 {
        fill: none;
      }

      .cls-3, .cls-8 {
        stroke-linejoin: bevel;
        stroke-width: .54px;
      }

      .cls-4, .cls-5, .cls-6, .cls-7, .cls-9, .cls-10, .cls-12, .cls-13, .cls-11 {
        stroke-width: .5px;
      }

      .cls-4, .cls-5, .cls-6, .cls-7, .cls-9, .cls-10, .cls-12, .cls-11 {
        stroke-linejoin: round;
      }

      .cls-4, .cls-14 {
        fill: #a6bc39;
      }

      .cls-5, .cls-2, .cls-12, .cls-13 {
        stroke: #231f20;
      }

      .cls-2, .cls-13 {
        stroke-miterlimit: 10;
      }

      .cls-6, .cls-15 {
        fill: #2fbaed;
      }

      .cls-6, .cls-11 {
        stroke: #2fbaed;
      }

      .cls-7 {
        stroke-dasharray: 0 0 2 1;
      }

      .cls-8 {
        stroke-dasharray: 0 0 2.13 1.07;
      }

      .cls-10 {
        stroke-dasharray: 0 0 2 1;
      }

      .cls-12 {
        stroke-linecap: square;
      }

      .cls-16 {
        fill: #231f20;
      }
    </style>
  </defs>
  <g>
    <path class="cls-2" d="m10.54,23.47h79.57c1.1,0,2,.9,2,2v42.48H8.54V25.47c0-1.1.9-2,2-2Z"/>
    <g>
      <path class="cls-1" d="m13.07,65.1V31.62c0-1.83,1.49-3.32,3.32-3.32h67.87c1.83,0,3.32,1.49,3.32,3.32v33.48"/>
      <path class="cls-16" d="m13.03,65.1c-.02-6.07-.08-21.38-.1-27.24,0,0-.02-4.54-.02-4.54-.04-1.49-.14-3.29,1.18-4.34,1.07-1.1,3.07-.86,4.46-.88,0,0,4.54-.02,4.54-.02,13.03-.04,32.32-.1,45.4-.16,2.93,0,10.77,0,13.62,0,1.41.02,3.45-.23,4.57.93,1.37,1.13,1.28,2.88,1.23,4.47,0,0-.03,4.54-.03,4.54,0,0-.06,9.08-.06,9.08-.03,6.05-.1,12.11-.19,18.16-.34-8.54-.21-18.5-.33-27.24,0,0-.03-4.54-.03-4.54,0,0,0-1.13,0-1.13.21-1.76-1.07-3.5-2.89-3.51-4.04-.01-11.75,0-15.88,0-13.1-.05-32.35-.12-45.4-.16,0,0-4.54-.02-4.54-.02,0,0-2.26,0-2.26,0-1.45.01-2.77,1.16-3,2.6-.13,1.46-.03,5.24-.07,6.78-.1,5.75.07,21.45-.18,27.24h0Z"/>
    </g>
    <path class="cls-2" d="m91.75,76.53H8.25c-.36,0-.71-.18-.97-.5l-4.12-5.25c-.83-1.05-.22-2.82.97-2.82h91.75c1.19,0,1.79,1.76.97,2.82l-4.12,5.25c-.25.32-.6.5-.97.5Z"/>
  </g>
  <g>
    <path class="cls-16" d="m27.7,62.13h-3.63v-13.45c0-.32.41-.46.61-.2l2.95,3.89c.04.06.07.13.07.2v9.56Z"/>
    <path class="cls-15" d="m44.94,62.13h-3.33v-25.89c0-.3.38-.43.56-.19l2.71,3.57c.04.05.06.12.06.19v22.32Z"/>
    <path class="cls-16" d="m36.43,62.16h3.57s0-16.38,0-16.38c0-.32-.41-.46-.6-.2l-2.91,3.83c-.04.06-.07.13-.07.2v12.55Z"/>
    <path class="cls-16" d="m30.68,62.13h3.86s0-17.61,0-17.61c0-.35-.44-.49-.65-.22l-3.14,4.14c-.05.06-.07.14-.07.22v13.47Z"/>
    <g>
      <line class="cls-3" x1="24.08" y1="47.61" x2="24.08" y2="46.52"/>
      <path class="cls-8" d="m24.08,45.45v-2.82c0-.32.41-.46.61-.2l2.95,3.89c.04.06.07.13.07.2v3.5"/>
      <line class="cls-3" x1="27.7" y1="50.55" x2="27.7" y2="51.64"/>
    </g>
    <line class="cls-12" x1="19.11" y1="62.16" x2="49.42" y2="62.16"/>
    <line class="cls-12" x1="20.15" y1="32.66" x2="20.15" y2="63.08"/>
    <g>
      <path class="cls-9" d="m22.53,42.44c.26-.24.5-.46.75-.67"/>
      <path class="cls-10" d="m24.07,41.16c5.76-4.15,8.09,2.03,11.42,2.27,3.53.26,4.23-5.55,4.41-8.75"/>
      <path class="cls-9" d="m39.92,34.19c.02-.4.03-.74.04-1"/>
      <polygon class="cls-14" points="41.92 34.97 41.54 35.29 39.97 33.39 38.19 35.1 37.84 34.74 40.01 32.66 41.92 34.97"/>
    </g>
  </g>
  <g>
    <polyline class="cls-11" points="51.29 32.94 52.7 33.94 54.1 32.94 55.51 33.94 56.91 32.94 58.32 33.94 59.73 32.94 61.14 33.94 62.54 32.94 63.95 33.94 65.36 32.94 66.77 33.94 68.18 32.94 69.59 33.94 71 32.94 72.4 33.94 73.81 32.94 75.22 33.94 76.63 32.94 78.04 33.94 79.45 32.94 80.87 33.94 82.28 32.94 83.7 33.94"/>
    <line class="cls-13" x1="51.29" y1="35.13" x2="69.79" y2="35.13"/>
    <line class="cls-13" x1="51.29" y1="37.39" x2="69.79" y2="37.39"/>
    <line class="cls-13" x1="51.29" y1="39.64" x2="69.79" y2="39.64"/>
    <line class="cls-13" x1="51.29" y1="41.9" x2="69.79" y2="41.9"/>
    <line class="cls-13" x1="51.29" y1="44.16" x2="69.79" y2="44.16"/>
  </g>
  <g>
    <line class="cls-13" x1="51.3" y1="50.67" x2="69.79" y2="50.67"/>
    <line class="cls-13" x1="51.29" y1="52.91" x2="69.79" y2="52.91"/>
    <line class="cls-13" x1="51.29" y1="55.17" x2="69.79" y2="55.17"/>
    <line class="cls-13" x1="51.29" y1="57.43" x2="69.79" y2="57.43"/>
    <line class="cls-13" x1="51.29" y1="60.06" x2="69.79" y2="60.06"/>
    <line class="cls-7" x1="51.29" y1="49.09" x2="83.7" y2="49.09"/>
  </g>
  <rect class="cls-4" x="72.6" y="51.65" width="12.1" height="9.41"/>
  <rect class="cls-6" x="72.6" y="36.03" width="12.1" height="9.41"/>
  <rect class="cls-5" x="71.6" y="35.13" width="12.1" height="9.03"/>
  <rect class="cls-5" x="71.6" y="50.65" width="12.1" height="9.41"/>
</svg>