<?xml version="1.0" encoding="UTF-8"?>
<svg id="rCx" xmlns="http://www.w3.org/2000/svg" viewBox="0 0 100 100">
  <defs>
    <style>
      .cls-1 {
        stroke-width: .28px;
      }

      .cls-1, .cls-2, .cls-3, .cls-4, .cls-5, .cls-6, .cls-7, .cls-8, .cls-9, .cls-10, .cls-11, .cls-12, .cls-13, .cls-14, .cls-15, .cls-16 {
        stroke-miterlimit: 10;
      }

      .cls-1, .cls-2, .cls-17, .cls-4, .cls-5, .cls-10, .cls-12, .cls-13, .cls-16 {
        stroke: #231f20;
      }

      .cls-1, .cls-2, .cls-17, .cls-4, .cls-5, .cls-11 {
        fill: none;
      }

      .cls-18, .cls-3, .cls-6, .cls-7, .cls-19, .cls-8, .cls-9, .cls-10, .cls-12, .cls-13, .cls-14, .cls-15, .cls-16 {
        fill: #fff;
      }

      .cls-2 {
        stroke-width: .24px;
      }

      .cls-3, .cls-19, .cls-11, .cls-12, .cls-14, .cls-15 {
        stroke-width: .83px;
      }

      .cls-3, .cls-11, .cls-14 {
        stroke: #010101;
      }

      .cls-17 {
        stroke-width: 1.03px;
      }

      .cls-17, .cls-19 {
        stroke-linejoin: round;
      }

      .cls-17, .cls-19, .cls-11, .cls-14, .cls-15 {
        stroke-linecap: round;
      }

      .cls-4 {
        stroke-width: .94px;
      }

      .cls-5 {
        stroke-width: .24px;
      }

      .cls-20 {
        fill: #a6bc39;
      }

      .cls-21 {
        fill: #2fbaed;
      }

      .cls-6 {
        stroke-width: .4px;
      }

      .cls-6, .cls-19, .cls-8, .cls-15 {
        stroke: #a6bc39;
      }

      .cls-7 {
        stroke-width: .55px;
      }

      .cls-7, .cls-9 {
        stroke: #2fbaed;
      }

      .cls-8 {
        stroke-width: .33px;
      }

      .cls-9 {
        stroke-width: .64px;
      }

      .cls-10 {
        stroke-width: .47px;
      }

      .cls-13 {
        stroke-width: .45px;
      }

      .cls-22 {
        fill: #231f20;
      }

      .cls-16 {
        stroke-width: .49px;
      }
    </style>
  </defs>
  <g>
    <rect class="cls-22" x="12.77" y="17" width="73.74" height="64.59" rx="1.46" ry="1.46"/>
    <rect class="cls-18" x="18.01" y="23.16" width="62.84" height="52.61" rx="2.46" ry="2.46"/>
    <polygon class="cls-22" points="54.52 50.49 54.52 45.61 75.39 45.61 75.39 44.66 54.52 44.66 54.52 39.78 62.89 39.78 73.4 29.86 72.76 29.17 62.52 38.84 54.52 38.84 54.52 35.14 37.79 24.52 27.44 24.52 27.44 42.69 29.83 44.52 42.81 44.52 42.81 43.58 30.15 43.58 28.38 42.22 28.38 25.46 37.52 25.46 53.58 35.65 53.58 48.49 48.83 48.49 39.09 60.81 29.02 60.81 29.02 61.75 39.55 61.75 49.28 49.43 53.58 49.43 53.58 69.01 54.52 69.01 54.52 51.43 62.44 51.43 70.51 58.69 71.15 57.99 62.81 50.49 54.52 50.49"/>
    <polygon class="cls-21" points="28.14 73.41 24.79 64.21 28.14 55.6 31.48 64.21 28.14 73.41"/>
    <rect class="cls-21" x="21.37" y="31.92" width="13.54" height="8.33" rx=".3" ry=".3" transform="translate(64.22 7.95) rotate(90)"/>
    <rect class="cls-4" x="20.37" y="30.84" width="13.54" height="8.33" rx=".3" ry=".3" transform="translate(62.14 7.86) rotate(90)"/>
    <polygon class="cls-17" points="26.96 72.79 23.61 63.6 26.96 54.99 30.3 63.6 26.96 72.79"/>
    <path class="cls-8" d="m76.73,29.98l-.47-.62c-.12-.16-.14-.36-.08-.55.04-.11.07-.22.09-.33s.03-.23.04-.34c0-.2.11-.38.27-.48l.66-.4c.09-.03.13-.13.1-.21l-.13-.36c-.03-.09-.13-.13-.21-.1l-.77.1c-.19.02-.38-.05-.5-.2-.15-.17-.32-.32-.52-.45-.17-.11-.27-.29-.28-.49l-.02-.76c.02-.09-.04-.18-.13-.2l-.38-.07c-.09-.02-.18.04-.2.13l-.3.7c-.08.18-.24.31-.44.35-.23.04-.45.12-.65.23-.17.09-.37.09-.54,0l-.68-.37c-.07-.06-.18-.05-.24.02l-.25.29c-.06.07-.05.18.02.24l.47.62c.12.16.14.36.08.55-.04.11-.07.22-.09.33s-.03.23-.04.34c0,.2-.11.38-.27.48l-.66.4c-.09.03-.13.13-.1.21l.13.36c.03.09.13.13.21.1l.77-.1c.19-.02.38.05.5.2.15.17.32.32.52.45.17.11.27.29.28.49l.02.76c-.02.09.04.18.13.2l.38.07c.09.02.18-.04.2-.13l.3-.7c.08-.18.24-.31.44-.35.23-.04.45-.12.65-.23.17-.09.37-.09.54,0l.68.37c.07.06.18.05.24-.02l.25-.29c.06-.07.05-.18-.02-.24Zm-3.01-.8c-.63-.12-1.04-.72-.92-1.35s.72-1.04,1.35-.92,1.04.72.92,1.35-.72,1.04-1.35.92Z"/>
    <path class="cls-6" d="m75.73,62.32l-.56-.74c-.14-.19-.17-.44-.09-.66.04-.13.08-.26.11-.4s.04-.27.05-.41c0-.24.13-.46.33-.58l.8-.49c.11-.04.16-.15.12-.26l-.15-.44c-.04-.11-.15-.16-.26-.12l-.93.12c-.23.03-.46-.06-.61-.24-.18-.21-.39-.39-.63-.54-.2-.13-.33-.35-.34-.59l-.02-.92c.02-.11-.05-.21-.16-.24l-.45-.09c-.11-.02-.21.05-.24.16l-.36.85c-.09.22-.29.38-.53.42-.28.05-.54.15-.78.27-.21.11-.45.11-.65,0l-.82-.45c-.08-.07-.21-.06-.28.02l-.3.35c-.07.08-.06.21.02.28l.56.74c.14.19.17.44.09.66-.04.13-.08.26-.11.4s-.04.27-.05.41c0,.24-.13.46-.33.58l-.8.49c-.11.04-.16.15-.12.26l.15.44c.04.11.15.16.26.12l.93-.12c.23-.03.46.06.61.24.18.21.39.39.63.54.2.13.33.35.34.59l.02.92c-.02.11.05.21.16.24l.45.09c.11.02.21-.05.24-.16l.36-.85c.09-.22.29-.38.53-.42.28-.05.54-.15.78-.27.21-.11.45-.11.65,0l.82.45c.08.07.21.06.28-.02l.3-.35c.07-.08.06-.21-.02-.28Zm-3.64-.97c-.76-.14-1.25-.87-1.11-1.63s.87-1.25,1.63-1.11,1.25.87,1.11,1.63-.87,1.25-1.63,1.11Z"/>
    <g>
      <path class="cls-13" d="m57.44,35.4l-1.06-.41c-.13-.05-.23-.16-.25-.3-.02-.14-.05-.28-.09-.41-.04-.13,0-.27.1-.37l.81-.81s.03-.08.01-.11l-.23-.34s-.07-.05-.11-.03l-1.04.47c-.12.06-.27.05-.38-.04-.11-.09-.23-.16-.35-.23-.12-.07-.19-.2-.19-.34v-1.14s-.03-.08-.07-.09l-.41-.08s-.08.02-.1.06l-.41,1.06c-.05.13-.16.23-.3.25-.14.02-.28.05-.41.09-.13.04-.27,0-.37-.1l-.81-.81s-.08-.03-.11-.01l-.34.23s-.05.07-.03.11l.47,1.04c.06.12.05.27-.04.38-.09.11-.16.23-.23.35-.07.12-.2.19-.34.19h-1.14s-.08.03-.09.07l-.08.41s.02.08.06.1l1.06.41c.13.05.23.16.25.3.02.14.05.28.09.41.04.13,0,.27-.1.37l-.81.81s-.03.08-.01.11l.23.34s.07.05.11.03l1.04-.47c.12-.06.27-.05.38.04.11.09.23.16.35.23.12.07.19.2.19.34v1.14s.03.08.07.09l.41.08s.08-.02.1-.06l.41-1.06c.05-.13.16-.23.3-.25.14-.02.28-.05.41-.09.13-.04.27,0,.37.1l.81.81s.08.03.11.01l.34-.23s.05-.07.03-.11l-.47-1.04c-.06-.12-.05-.27.04-.38.09-.11.16-.23.23-.35.07-.12.2-.19.34-.19h1.14s.08-.03.09-.07l.08-.41s-.02-.08-.06-.1Z"/>
      <g>
        <path class="cls-18" d="m55.22,34.98c0,.11,0,.22-.03.33-.16.84-.97,1.4-1.82,1.24s-1.4-.97-1.24-1.82.97-1.4,1.82-1.24c.62.12,1.08.58,1.22,1.15"/>
        <g>
          <path class="cls-1" d="m55.2,35.3s0,0,0,0c-.16.84-.97,1.4-1.82,1.24s-1.4-.97-1.24-1.82c.16-.84.97-1.4,1.82-1.24.62.12,1.08.58,1.22,1.15"/>
          <polygon class="cls-22" points="54.68 35.81 55.19 35.38 55.62 35.89 55.65 35.49 55.22 34.98 54.71 35.41 54.68 35.81"/>
        </g>
      </g>
    </g>
    <g>
      <path class="cls-10" d="m78.95,43.45l-1.17.24c-.14.03-.3-.01-.39-.13-.1-.11-.2-.22-.31-.32-.11-.09-.15-.24-.12-.38l.26-1.18s-.01-.09-.05-.1l-.4-.17s-.09,0-.11.03l-.66,1.01c-.08.12-.22.2-.36.18-.15-.01-.29-.02-.44,0-.15.01-.28-.07-.36-.19l-.65-1.01s-.07-.05-.11-.04l-.4.16s-.06.06-.06.1l.24,1.17c.03.14-.01.3-.13.39-.11.1-.22.2-.32.31-.09.11-.24.15-.38.12l-1.18-.26s-.09.01-.1.05l-.17.4s0,.09.03.11l1.01.66c.12.08.2.22.18.36-.01.15-.02.29,0,.44.01.15-.07.28-.19.36l-1.01.65s-.05.07-.04.11l.16.4s.06.06.1.06l1.17-.24c.14-.03.3.01.39.13.1.11.2.22.31.32.11.09.15.24.12.38l-.26,1.18s.01.09.05.1l.4.17s.09,0,.11-.03l.66-1.01c.08-.12.22-.2.36-.18.15.01.29.02.44,0,.15-.01.28.07.36.19l.65,1.01s.07.05.11.04l.4-.16s.06-.06.06-.1l-.24-1.17c-.03-.14.01-.3.13-.39.11-.1.22-.2.32-.31.09-.11.24-.15.38-.12l1.18.26s.09-.01.1-.05l.17-.4s0-.09-.03-.11l-1.01-.66c-.12-.08-.2-.22-.18-.36.01-.15.02-.29,0-.44-.01-.15.07-.28.19-.36l1.01-.65s.05-.07.04-.11l-.16-.4s-.06-.06-.1-.06Z"/>
      <g>
        <path class="cls-18" d="m76.75,44.34c.06.09.12.19.16.3.34.84-.06,1.79-.9,2.13s-1.79-.06-2.13-.9.06-1.79.9-2.13c.61-.25,1.29-.1,1.74.32"/>
        <g>
          <path class="cls-5" d="m76.88,44.57s.02.05.03.07c.34.84-.06,1.79-.9,2.13-.84.34-1.79-.06-2.13-.9-.34-.84.06-1.79.9-2.13.61-.25,1.29-.1,1.74.32"/>
          <polygon class="cls-22" points="76.74 45.17 76.91 44.63 77.45 44.8 77.29 44.5 76.75 44.34 76.58 44.88 76.74 45.17"/>
        </g>
      </g>
    </g>
    <g>
      <path class="cls-16" d="m42.72,61.16l-1.22-.22c-.15-.03-.28-.13-.32-.27-.05-.15-.11-.29-.18-.42-.07-.13-.05-.29.03-.41l.71-1.03s.02-.09-.01-.12l-.32-.32s-.08-.04-.12-.01l-1.03.71c-.12.08-.28.1-.42.03-.13-.07-.28-.13-.42-.18-.14-.05-.25-.18-.27-.33l-.23-1.22s-.05-.08-.09-.08h-.45s-.09.03-.09.08l-.22,1.22c-.03.15-.13.28-.27.32-.15.05-.29.11-.42.18-.13.07-.29.05-.41-.03l-1.03-.71s-.09-.02-.12.01l-.32.32s-.04.08-.01.12l.71,1.03c.08.12.1.28.03.42-.07.13-.13.28-.18.42-.05.14-.18.25-.33.27l-1.22.23s-.08.05-.08.09v.45s.03.09.08.09l1.22.22c.15.03.28.13.32.27.05.15.11.29.18.42.07.13.05.29-.03.41l-.71,1.03s-.02.09.01.12l.32.32s.08.04.12.01l1.03-.71c.12-.08.28-.1.42-.03.13.07.28.13.42.18.14.05.25.18.27.33l.23,1.22s.05.08.09.08h.45s.09-.03.09-.08l.22-1.22c.03-.15.13-.28.27-.32.15-.05.29-.11.42-.18.13-.07.29-.05.41.03l1.03.71s.09.02.12-.01l.32-.32s.04-.08.01-.12l-.71-1.03c-.08-.12-.1-.28-.03-.42.07-.13.13-.28.18-.42.05-.14.18-.25.33-.27l1.22-.23s.08-.05.08-.09v-.45s-.03-.09-.08-.09Z"/>
      <g>
        <path class="cls-18" d="m40.26,61.16c.02.11.04.23.04.35,0,.94-.76,1.7-1.7,1.7s-1.7-.76-1.7-1.7.76-1.7,1.7-1.7c.69,0,1.28.41,1.54.99"/>
        <g>
          <path class="cls-2" d="m40.29,61.43s0,.05,0,.08c0,.94-.76,1.7-1.7,1.7s-1.7-.76-1.7-1.7.76-1.7,1.7-1.7c.69,0,1.28.41,1.54.99"/>
          <polygon class="cls-22" points="39.93 61.96 40.3 61.51 40.75 61.88 40.71 61.53 40.26 61.16 39.89 61.61 39.93 61.96"/>
        </g>
      </g>
    </g>
    <path class="cls-9" d="m48.3,45.64l-.59-.53c-.15-.14-.21-.34-.18-.54.02-.11.03-.23.03-.35s0-.23-.03-.35c-.03-.2.03-.4.18-.54l.59-.53c.08-.05.11-.15.06-.23l-.2-.34c-.05-.08-.15-.11-.23-.06l-.76.24c-.19.06-.39.02-.55-.1-.18-.15-.39-.27-.61-.35-.19-.08-.33-.24-.38-.44l-.17-.77c0-.09-.08-.17-.17-.17h-.39c-.09,0-.17.08-.17.17l-.17.77c-.04.2-.19.36-.38.44-.22.09-.43.21-.61.35-.16.12-.36.16-.55.1l-.76-.24c-.08-.05-.19-.02-.23.06l-.2.34c-.05.08-.02.19.06.23l.59.53c.15.14.21.34.18.54-.02.11-.03.23-.03.35s0,.23.03.35c.03.2-.03.4-.18.54l-.59.53c-.08.05-.11.15-.06.23l.2.34c.05.08.15.11.23.06l.76-.24c.19-.06.39-.02.55.1.18.15.39.27.61.35.19.08.33.24.38.44l.17.77c0,.09.08.17.17.17h.39c.09,0,.17-.08.17-.17l.17-.77c.04-.2.19-.36.38-.44.22-.09.43-.21.61-.35.16-.12.36-.16.55-.1l.76.24c.08.05.19.02.23-.06l.2-.34c.05-.08.02-.19-.06-.23Zm-3.2-.23c-.66,0-1.19-.53-1.19-1.19s.53-1.19,1.19-1.19,1.19.53,1.19,1.19-.53,1.19-1.19,1.19Z"/>
    <path class="cls-7" d="m55.76,73.17l-.21-.65c-.05-.16-.02-.34.09-.48.06-.08.12-.16.17-.25s.09-.18.13-.27c.06-.16.2-.28.36-.32l.66-.15c.08,0,.15-.07.15-.15v-.34c0-.08-.07-.15-.15-.15l-.67-.14c-.17-.03-.3-.15-.36-.31-.08-.19-.18-.36-.3-.52-.11-.14-.15-.32-.09-.48l.2-.64c.04-.07.02-.16-.05-.2l-.29-.17c-.07-.04-.16-.02-.2.05l-.45.5c-.12.13-.29.19-.46.17-.2-.03-.41-.03-.6,0-.17.03-.34-.03-.45-.16l-.46-.5c-.04-.07-.13-.09-.2-.05l-.29.17c-.07.04-.09.13-.05.2l.21.65c.05.16.02.34-.09.48-.06.08-.12.16-.17.25s-.09.18-.13.27c-.06.16-.2.28-.36.32l-.66.15c-.08,0-.15.07-.15.15v.34c0,.08.07.15.15.15l.67.14c.17.03.3.15.36.31.08.19.18.36.3.52.11.14.15.32.09.48l-.2.64c-.04.07-.02.16.05.2l.29.17c.07.04.16.02.2-.05l.45-.5c.12-.13.29-.19.46-.17.2.03.41.03.6,0,.17-.03.34.03.45.16l.46.5c.04.07.13.09.2.05l.29-.17c.07-.04.09-.13.05-.2Zm-2.28-1.53c-.49-.28-.66-.9-.38-1.39s.9-.66,1.39-.38.66.9.38,1.39-.9.66-1.39.38Z"/>
  </g>
  <g>
    <path class="cls-3" d="m30.63,57.14v3.77c0,4.09-3.35,7.44-7.44,7.44h0c-4.09,0-7.44-3.35-7.44-7.44v-3.68"/>
    <path class="cls-3" d="m15.04,72.66c2.11,0,4.7-1.54,4.4-5.2,3.18,1.36,4.46,1.29,7.34,0-.16,3.68,1.65,5.2,4.4,5.2"/>
    <path class="cls-3" d="m39.24,88.46v-8.26c0-2.73-1.7-5.18-4.26-6.13l-3.8-1.41H15.04l-4.14,1.46c-2.62.92-4.37,3.39-4.37,6.17v8.17c0,.9.73,1.64,1.64,1.64h4.27v-4.3h0v4.3h21.54l.11-4.87h0v4.87h3.52c.9,0,1.64-.73,1.64-1.64Z"/>
    <g>
      <path class="cls-19" d="m25.17,45.88h1.7c3.48,0,5.41,7.49,5.41,7.49l1.54,1.56c.56.94-.03,2.22-1.03,2.22H13.59c-1.04,0-1.61-1.39-.94-2.3l1.24-1.47s1.34-7.18,4.72-7.49h2.16"/>
      <polyline class="cls-19" points="21.22 49.95 21.22 44.75 25.17 44.75 25.17 49.95"/>
    </g>
  </g>
  <g id="eng-pad">
    <g>
      <path class="cls-14" d="m82.67,64.33c0,1.42-1.77,2.57-3.95,2.57,0,0,5.12,1.91,12.7,1.91-1.49,0-2.7-2.03-2.7-3.95"/>
      <path class="cls-3" d="m79.66,51.78v1.48s0,4.98,0,4.98c0,3.61,2.95,6.56,6.56,6.56h0c3.61,0,6.56-2.95,6.56-6.56v-4.9s0-1.56,0-1.56"/>
      <g>
        <path class="cls-15" d="m77.27,49.45h-1.4c-.74,0-1.35.61-1.35,1.35h0c0,.74.61,1.35,1.35,1.35h19.42c1.21,0,1.25-2.71.09-2.71,0-5-4.06-9.06-9.06-9.06s-9.06,4.06-9.06,9.06Z"/>
        <path class="cls-20" d="m95.38,48.59c-.85-7.78-14.46-7.42-15.68,0,0,.05-.08.05-.08,0-.12-.93.11-1.91.57-2.75,3.15-5.98,15.39-4.23,15.2,2.75h0Z"/>
      </g>
    </g>
    <path class="cls-18" d="m71.48,91.04c-6.93-2.12-5.44-21.43,2.18-26.22,1.15-.72,8.5,5.3,21.74,3.43,2.43-.34,4.59,1.56,4.61,4.02.05,6.49-.93,10.92-1.4,14.43-8.72,10.01-20.36,4.53-20.35-6.2-.56-7.21,5.15-7.41,6.39-2.12,1.5,6.39,2.05,9.22,7.59,5.35"/>
    <path class="cls-14" d="m94.09,90.45s-.83,1.17.13,2.63c.85,1.3-.78,2.94-2.33,2.78l-16.98-1.49c-1.63-.17-3.26-1.43-3.14-3.06.5-6.74.89-8.71,1.04-14.97.02-.76-.58-1.36-1.34-1.35"/>
    <path class="cls-12" d="m78.55,82.27c-.3-.01-.98-.22-1.13-.58l-4.5-11.08c-.33-.82.1-1.84.76-1.81l8.45.31c.3.01.57.24.72.61l4.5,11.08c.46,1.34-.74,1.74-1.4,1.71"/>
    <path class="cls-11" d="m71.77,91.3c-6.84-5.96-6.91-18.64,1.89-26.49,1.01-.9,8.5,5.3,21.74,3.43,2.43-.34,4.59,1.56,4.61,4.02.05,6.49-.93,10.92-1.4,14.43-8.72,10.01-20.36,4.53-20.35-6.2-.56-7.21,5.15-7.41,6.39-2.12,1.5,6.39,2.05,9.22,7.59,5.35"/>
  </g>
</svg>