<?xml version="1.0" encoding="UTF-8"?>
<svg id="bill-management" xmlns="http://www.w3.org/2000/svg" viewBox="0 0 100 100">
  <defs>
    <style>
      .cls-1 {
        fill: #2fbaed;
      }

      .cls-1, .cls-2 {
        stroke: #2fbaed;
      }

      .cls-1, .cls-2, .cls-3, .cls-4, .cls-5, .cls-6, .cls-7, .cls-8, .cls-9, .cls-10 {
        stroke-miterlimit: 10;
      }

      .cls-1, .cls-7, .cls-11, .cls-12, .cls-10 {
        stroke-width: .31px;
      }

      .cls-13, .cls-5, .cls-6, .cls-9 {
        fill: #fff;
      }

      .cls-2, .cls-4, .cls-6, .cls-8 {
        stroke-width: .62px;
      }

      .cls-2, .cls-14 {
        fill: #231f20;
      }

      .cls-3, .cls-4, .cls-15, .cls-12, .cls-8, .cls-10 {
        fill: none;
      }

      .cls-3, .cls-15, .cls-5 {
        stroke: #010101;
      }

      .cls-3, .cls-5, .cls-9 {
        stroke-width: .94px;
      }

      .cls-4, .cls-6, .cls-12, .cls-9, .cls-10 {
        stroke: #231f20;
      }

      .cls-15 {
        stroke-width: 1.56px;
      }

      .cls-15, .cls-11 {
        stroke-linecap: round;
      }

      .cls-15, .cls-11, .cls-12 {
        stroke-linejoin: round;
      }

      .cls-7, .cls-11 {
        fill: #a6bc39;
      }

      .cls-7, .cls-11, .cls-8 {
        stroke: #a6bc39;
      }

      .cls-16 {
        fill: #010101;
      }
    </style>
  </defs>
  <g>
    <rect class="cls-5" x="15.29" y="5.83" width="44.25" height="82.1" rx="1.83" ry="1.83"/>
    <line class="cls-3" x1="15.29" y1="13.45" x2="59.53" y2="13.45"/>
    <line class="cls-3" x1="15.29" y1="77.32" x2="59.53" y2="77.32"/>
    <line class="cls-15" x1="40.84" y1="9.5" x2="33.98" y2="9.5"/>
    <circle class="cls-16" cx="37.41" cy="83.27" r="2.14"/>
  </g>
  <g>
    <rect class="cls-1" x="17.78" y="16.74" width="19.08" height="3.37"/>
    <rect class="cls-10" x="18.33" y="16.11" width="19.08" height="3.37"/>
    <rect class="cls-1" x="17.78" y="22.4" width="38.63" height="3.37"/>
    <rect class="cls-10" x="18.33" y="21.77" width="38.63" height="3.37"/>
    <g>
      <line class="cls-8" x1="39.19" y1="16.18" x2="56.96" y2="16.18"/>
      <line class="cls-8" x1="39.19" y1="17.83" x2="53.55" y2="17.83"/>
      <line class="cls-8" x1="39.19" y1="19.47" x2="49.43" y2="19.47"/>
    </g>
  </g>
  <g>
    <rect class="cls-2" x="23.23" y="32.52" width="19.76" height="3.44"/>
    <line class="cls-4" x1="23.23" y1="37.97" x2="42.98" y2="37.97"/>
    <line class="cls-4" x1="23.23" y1="39.62" x2="39.19" y2="39.62"/>
    <line class="cls-4" x1="23.23" y1="41.27" x2="34.61" y2="41.27"/>
  </g>
  <g>
    <rect class="cls-2" x="23.23" y="46.86" width="19.76" height="3.44"/>
    <line class="cls-4" x1="23.23" y1="52.32" x2="42.98" y2="52.32"/>
    <line class="cls-4" x1="23.23" y1="53.97" x2="39.19" y2="53.97"/>
    <line class="cls-4" x1="23.23" y1="55.61" x2="34.61" y2="55.61"/>
  </g>
  <g>
    <rect class="cls-2" x="18.2" y="61.21" width="24.79" height="3.44"/>
    <line class="cls-4" x1="18.2" y1="66.67" x2="42.98" y2="66.67"/>
    <line class="cls-4" x1="18.2" y1="68.31" x2="38.22" y2="68.31"/>
    <line class="cls-4" x1="18.2" y1="69.96" x2="32.47" y2="69.96"/>
  </g>
  <path class="cls-14" d="m51.3,35.6c-.15-.18-.34-.31-.55-.4-.21-.09-.49-.18-.82-.27,0,0-.01,0-.02,0v-1.46c.2.02.37.09.5.2.18.15.28.35.29.59h.79c-.02-.46-.2-.82-.52-1.08-.28-.23-.64-.36-1.06-.39v-.42c0-.11-.09-.2-.2-.2s-.2.09-.2.2v.42c-.26.02-.49.07-.71.17-.26.12-.47.27-.61.48-.15.2-.22.42-.22.66,0,.3.08.55.24.73.16.19.35.33.57.42.19.08.44.16.73.24v1.46c-.19-.03-.35-.09-.49-.2-.2-.15-.31-.34-.33-.58h-.81c.02.29.11.54.27.76.16.22.39.4.68.52.2.09.43.15.67.17v.43c0,.11.09.2.2.2s.2-.09.2-.2v-.42c.3,0,.57-.07.8-.17.26-.12.47-.28.61-.49.15-.21.22-.44.22-.7,0-.29-.08-.52-.24-.69Zm-2.01-.88c-.15-.06-.28-.14-.38-.24-.1-.1-.15-.23-.15-.38,0-.2.09-.35.25-.47.13-.09.29-.15.5-.17v1.35c-.08-.03-.16-.05-.22-.08Zm1.22,2.07c-.15.11-.35.18-.6.19v-1.38c.25.07.45.15.58.22.18.1.27.26.27.46s-.09.37-.26.5Z"/>
  <path class="cls-14" d="m51.3,49.59c-.15-.18-.34-.31-.55-.4-.21-.09-.49-.18-.82-.27,0,0-.01,0-.02,0v-1.46c.2.02.37.09.5.2.18.15.28.35.29.59h.79c-.02-.46-.2-.82-.52-1.08-.28-.23-.64-.36-1.06-.39v-.42c0-.11-.09-.2-.2-.2s-.2.09-.2.2v.42c-.26.02-.49.07-.71.17-.26.12-.47.27-.61.48-.15.2-.22.42-.22.66,0,.3.08.55.24.73.16.19.35.33.57.42.19.08.44.16.73.24v1.46c-.19-.03-.35-.09-.49-.2-.2-.15-.31-.34-.33-.58h-.81c.02.29.11.54.27.76.16.22.39.4.68.52.2.09.43.15.67.17v.43c0,.11.09.2.2.2s.2-.09.2-.2v-.42c.3,0,.57-.07.8-.17.26-.12.47-.28.61-.49.15-.21.22-.44.22-.7,0-.29-.08-.52-.24-.69Zm-2.01-.88c-.15-.06-.28-.14-.38-.24-.1-.1-.15-.23-.15-.38,0-.2.09-.35.25-.47.13-.09.29-.15.5-.17v1.35c-.08-.03-.16-.05-.22-.08Zm1.22,2.07c-.15.11-.35.18-.6.19v-1.38c.25.07.45.15.58.22.18.1.27.26.27.46s-.09.37-.26.5Z"/>
  <path class="cls-14" d="m51.3,63.18c-.15-.18-.34-.31-.55-.4-.21-.09-.49-.18-.82-.27,0,0-.01,0-.02,0v-1.46c.2.02.37.09.5.2.18.15.28.35.29.59h.79c-.02-.46-.2-.82-.52-1.08-.28-.23-.64-.36-1.06-.39v-.42c0-.11-.09-.2-.2-.2s-.2.09-.2.2v.42c-.26.02-.49.07-.71.17-.26.12-.47.27-.61.48-.15.2-.22.42-.22.66,0,.3.08.55.24.73.16.19.35.33.57.42.19.08.44.16.73.24v1.46c-.19-.03-.35-.09-.49-.2-.2-.15-.31-.34-.33-.58h-.81c.02.29.11.54.27.76.16.22.39.4.68.52.2.09.43.15.67.17v.43c0,.11.09.2.2.2s.2-.09.2-.2v-.42c.3,0,.57-.07.8-.17.26-.12.47-.28.61-.49.15-.21.22-.44.22-.7,0-.29-.08-.52-.24-.69Zm-2.01-.88c-.15-.06-.28-.14-.38-.24-.1-.1-.15-.23-.15-.38,0-.2.09-.35.25-.47.13-.09.29-.15.5-.17v1.35c-.08-.03-.16-.05-.22-.08Zm1.22,2.07c-.15.11-.35.18-.6.19v-1.38c.25.07.45.15.58.22.18.1.27.26.27.46s-.09.37-.26.5Z"/>
  <g>
    <polygon class="cls-9" points="43.39 73.87 54.75 65.47 66.1 57.07 77.45 65.47 88.81 73.87 88.81 74.09 88.81 94.11 43.39 94.11 43.39 74.09 43.39 73.87"/>
    <g>
      <rect class="cls-6" x="50.16" y="60.46" width="32.25" height="27.09"/>
      <g>
        <path class="cls-7" d="m55.5,78.38c.09.84-.49,1.52-1.33,1.52s-1.39-.68-1.32-1.52,1.32-2.33,1.32-2.33c0,0,1.23,1.48,1.33,2.33Z"/>
        <path class="cls-10" d="m55.08,78.24c.09.84-.49,1.52-1.33,1.52s-1.39-.68-1.32-1.52,1.32-2.33,1.32-2.33c0,0,1.23,1.48,1.33,2.33Z"/>
      </g>
      <g>
        <rect class="cls-2" x="57.04" y="78.66" width="14.5" height="2.98"/>
        <line class="cls-4" x1="57.04" y1="83.39" x2="71.54" y2="83.39"/>
        <line class="cls-4" x1="57.04" y1="84.82" x2="68.75" y2="84.82"/>
        <line class="cls-4" x1="57.04" y1="86.24" x2="65.39" y2="86.24"/>
      </g>
      <g>
        <g>
          <polygon class="cls-11" points="54.95 65.95 55.14 62.62 53.43 67.45 54.58 66.93 54.36 70.26 56.08 65.42 54.95 65.95"/>
          <polygon class="cls-12" points="54.59 65.7 54.79 62.36 53.07 67.2 54.22 66.68 54.01 70 55.72 65.17 54.59 65.7"/>
        </g>
        <g>
          <rect class="cls-2" x="57.04" y="66.47" width="14.5" height="2.98"/>
          <line class="cls-4" x1="57.04" y1="71.19" x2="71.54" y2="71.19"/>
          <line class="cls-4" x1="57.04" y1="72.62" x2="68.75" y2="72.62"/>
          <line class="cls-4" x1="57.04" y1="74.04" x2="65.39" y2="74.04"/>
        </g>
        <path class="cls-14" d="m78.59,68.38c-.13-.16-.29-.27-.48-.35-.18-.08-.42-.16-.71-.24,0,0-.01,0-.01,0v-1.26c.17.02.32.08.44.18.16.13.24.3.25.51h.68c-.02-.4-.17-.71-.45-.94-.24-.2-.55-.31-.92-.34v-.36c0-.1-.08-.17-.17-.17s-.17.08-.17.17v.36c-.22.02-.43.06-.61.15-.23.1-.4.24-.53.41-.13.17-.19.36-.19.57,0,.26.07.48.2.64.14.16.3.29.49.37.17.07.38.14.63.21v1.27c-.17-.02-.31-.08-.42-.17-.17-.13-.27-.3-.29-.5h-.7c.01.25.09.47.24.66.14.19.34.34.59.45.18.07.37.13.58.15v.37c0,.1.08.17.17.17s.17-.08.17-.17v-.36c.26,0,.49-.06.69-.15.23-.1.4-.24.53-.42.13-.18.19-.38.19-.6,0-.25-.07-.45-.2-.6Zm-1.74-.76c-.13-.05-.24-.12-.33-.21-.09-.08-.13-.2-.13-.33,0-.17.07-.31.22-.41.11-.08.25-.13.43-.15v1.17c-.07-.02-.14-.05-.19-.07Zm1.06,1.79c-.13.1-.31.16-.52.17v-1.19c.22.06.39.13.51.19.16.09.24.22.24.4s-.07.32-.22.43Z"/>
      </g>
      <path class="cls-14" d="m78.59,80.69c-.13-.16-.29-.27-.48-.35-.18-.08-.42-.16-.71-.24,0,0-.01,0-.01,0v-1.26c.17.02.32.08.44.18.16.13.24.3.25.51h.68c-.02-.4-.17-.71-.45-.94-.24-.2-.55-.31-.92-.34v-.36c0-.1-.08-.17-.17-.17s-.17.08-.17.17v.36c-.22.02-.43.06-.61.15-.23.1-.4.24-.53.41-.13.17-.19.36-.19.57,0,.26.07.48.2.64.14.16.3.29.49.37.17.07.38.14.63.21v1.27c-.17-.02-.31-.08-.42-.17-.17-.13-.27-.3-.29-.5h-.7c.01.25.09.47.24.66.14.19.34.34.59.45.18.07.37.13.58.15v.37c0,.1.08.17.17.17s.17-.08.17-.17v-.36c.26,0,.49-.06.69-.15.23-.1.4-.24.53-.42.13-.18.19-.38.19-.6,0-.25-.07-.45-.2-.6Zm-1.74-.76c-.13-.05-.24-.12-.33-.21-.09-.08-.13-.2-.13-.33,0-.17.07-.31.22-.41.11-.08.25-.13.43-.15v1.17c-.07-.02-.14-.05-.19-.07Zm1.06,1.79c-.13.1-.31.16-.52.17v-1.19c.22.06.39.13.51.19.16.09.24.22.24.4s-.07.32-.22.43Z"/>
    </g>
    <polygon class="cls-13" points="88.21 93.73 44.06 93.73 44.06 74 66.13 82.79 88.21 74.65 88.21 93.73"/>
    <path class="cls-14" d="m44.38,73.97s17.95,6.98,17.61,6.88c0,0,8.45-.08,8.45-.08,2.04-.8,6.38-2.35,8.79-3.18,2.96-.96,6.08-2.2,8.99-2.92-2.92,1.2-5.85,2.34-8.8,3.45-2.56,1-6.31,2.3-8.93,3.24-.04,0-8.45-.08-8.5-.08-.07-.02-17.7-7.2-17.61-7.31h0Z"/>
    <g>
      <polyline class="cls-13" points="88.21 93.43 66.29 78.19 44.06 93.43"/>
      <path class="cls-14" d="m88.19,93.46l-22.05-15.06h.29c-5.31,3.74-11.24,7.82-16.69,11.4-1.88,1.16-3.83,2.64-5.7,3.61,3.1-2.33,7.74-5.58,10.96-7.85,3.75-2.58,7.51-5.14,11.3-7.67,0,0,.14.1.14.1-.04.06,21.97,15.39,21.76,15.47h0Z"/>
    </g>
  </g>
  <g>
    <polygon class="cls-11" points="20.08 32.16 20.27 28.82 18.55 33.66 19.71 33.14 19.49 36.46 21.21 31.62 20.08 32.16"/>
    <polygon class="cls-12" points="19.72 31.91 19.91 28.57 18.2 33.41 19.35 32.88 19.13 36.21 20.85 31.37 19.72 31.91"/>
  </g>
  <g>
    <path class="cls-7" d="m21.41,47.33c.09.84-.49,1.52-1.33,1.52s-1.39-.68-1.32-1.52,1.32-2.33,1.32-2.33c0,0,1.23,1.48,1.33,2.33Z"/>
    <path class="cls-10" d="m21,47.19c.09.84-.49,1.52-1.33,1.52s-1.39-.68-1.32-1.52,1.32-2.33,1.32-2.33c0,0,1.23,1.48,1.33,2.33Z"/>
  </g>
</svg>