<?xml version="1.0" encoding="UTF-8"?>
<svg id="Layer_2" xmlns="http://www.w3.org/2000/svg" viewBox="0 0 200 200">
  <defs>
    <style>
      .cls-1 {
        fill: #040505;
      }

      .cls-2 {
        fill: #f9c43a;
      }
    </style>
  </defs>
  <path id="Path_85" class="cls-2" d="M167.4166,61.9276c-14.9581-14.967-35.6068-22.8165-56.7301-21.5658l4.1338,14.5242c32.8853-.082,59.6105,26.5102,59.6926,59.3955.082,32.8852-26.5102,59.6105-59.3955,59.6925-32.8853.082-59.6105-26.5102-59.6926-59.3955-.0002-.099-.0003-.198,0-.2971l-14.5048-4.1532c-2.3607,40.9024,28.8835,75.974,69.7858,78.3347,40.9024,2.3607,75.974-28.8835,78.3347-69.7858,1.2199-21.1355-6.6486-41.7852-21.6241-56.7496"/>
  <path id="Path_87" class="cls-1" d="M9.7395,91.9258L92.489,9.1763l33.0513,115.796L9.7395,91.9258ZM85.7915,35.0067l-50.2167,50.2167,70.2753,20.0586-20.0586-70.2753Z"/>
</svg>