<?xml version="1.0" encoding="UTF-8"?>
<svg id="Layer_1" xmlns="http://www.w3.org/2000/svg" viewBox="0 0 200 200">
  <defs>
    <style>
      .cls-1 {
        fill: #040505;
      }

      .cls-2 {
        fill: #00408f;
      }
    </style>
  </defs>
  <path id="Path_85" class="cls-2" d="M166.5328,61.6115c-14.9581-14.967-35.6068-22.8165-56.7301-21.5658l4.1338,14.5242c32.8853-.082,59.6105,26.5102,59.6926,59.3955.082,32.8852-26.5102,59.6105-59.3955,59.6925-32.8853.082-59.6105-26.5102-59.6926-59.3955-.0002-.099-.0003-.198,0-.2971l-14.5048-4.1532c-2.3607,40.9024,28.8835,75.974,69.7858,78.3347,40.9024,2.3607,75.974-28.8835,78.3347-69.7858,1.2199-21.1355-6.6486-41.7852-21.6241-56.7496"/>
  <path id="Path_87" class="cls-1" d="M8.8556,91.6097L91.6051,8.8602l33.0513,115.796L8.8556,91.6097ZM84.9076,34.6907l-50.2167,50.2167,70.2753,20.0586-20.0586-70.2753Z"/>
</svg>