<?xml version="1.0" encoding="UTF-8"?>
<svg id="commercial" xmlns="http://www.w3.org/2000/svg" viewBox="0 0 576 576">
  <defs>
    <style>
      .cls-1 {
        fill: #a6bd3a;
      }

      .cls-1, .cls-2 {
        stroke-width: 0px;
      }

      .cls-3 {
        stroke-width: 7.92px;
      }

      .cls-3, .cls-4, .cls-5 {
        stroke: #231f20;
      }

      .cls-3, .cls-6, .cls-5 {
        fill: none;
        stroke-linecap: round;
        stroke-linejoin: round;
      }

      .cls-4 {
        fill: #fff;
        stroke-miterlimit: 10;
        stroke-width: 15px;
      }

      .cls-2 {
        fill: #32baec;
      }

      .cls-6 {
        stroke: #a6bd3a;
        stroke-width: 6px;
      }

      .cls-5 {
        stroke-width: 8px;
      }
    </style>
  </defs>
  <circle class="cls-4" cx="288" cy="288" r="266.71"/>
  <g>
    <g>
      <path class="cls-1" d="m195.8,139.12l-41.33,33.98c-9.6,9.6-8.75,8.08-16.99,18-8.6,10.35-4.56,32.2,15.59,32.77,17.61.5,22.63-5.61,29.52-13.25l49.63-71.5-29.58,42.62s-13.62,35.8,17.57,41.47c24.37,4.43,35.47-25.05,35.47-25.05l11.83-59.03s-9.72,48.51-11.83,59.03c10.65,38.29,55.67,34.66,62.39-2.87-2.46-13.77-10.01-56.16-10.01-56.16l10.01,56.16s12.84,32.35,37.21,27.92c31.19-5.67,17.57-41.47,17.57-41.47l-30.69-42.62,50.73,71.5c6.89,7.64,11.9,13.75,29.52,13.25,20.16-.57,24.19-22.43,15.59-32.77-8.24-9.92-7.38-8.4-16.99-18l-41.33-33.98h-183.88Z"/>
      <path class="cls-5" d="m194.32,131.86l-41.5,34.11c-9.64,9.64-8.78,8.12-17.06,18.08s-4.58,32.33,15.66,32.9c17.69.5,22.72-5.63,29.63-13.31l49.83-71.78-29.7,42.79s-13.68,35.94,17.64,41.64c24.47,4.45,35.61-25.16,35.61-25.16l11.88-59.27s-9.76,48.7-11.88,59.27c10.69,38.44,55.9,34.8,62.64-2.88-2.47-13.83-10.05-56.39-10.05-56.39l10.05,56.39s12.89,32.49,37.36,28.04c31.31-5.69,17.64-41.64,17.64-41.64l-30.81-42.79,50.94,71.78c6.91,7.68,11.95,13.81,29.63,13.31,20.24-.57,24.29-22.52,15.66-32.9-8.27-9.96-7.41-8.43-17.06-18.08l-41.5-34.11h-184.62Z"/>
    </g>
    <rect class="cls-6" x="257.3" y="269.47" width="58.35" height="129.86"/>
    <polyline class="cls-5" points="150.11 228.64 150.11 399.33 130.06 399.33 130.06 399.33 442.89 399.33 442.89 399.33 423.91 399.33 423.91 228.64"/>
    <path class="cls-2" d="m379.3,344.84v-67.23c0-.35-.28-.63-.63-.63h-37.8c-.49,0-.79.52-.55.95l37.8,67.23c.32.57,1.19.34,1.19-.31Z"/>
    <polyline class="cls-5" points="388.39 339.76 388.39 269.47 348.87 269.47"/>
    <path class="cls-2" d="m233.19,276.97h-36.34c-.65,0-1.18.53-1.18,1.18v64.62c0,1.21,1.61,1.63,2.2.58l36.34-64.62c.44-.78-.13-1.75-1.03-1.75Z"/>
    <polyline class="cls-5" points="226.29 269.47 186.77 269.47 186.77 339.76"/>
    <line class="cls-3" x1="297.27" y1="333.27" x2="299.85" y2="333.27"/>
  </g>
</svg>