<?xml version="1.0" encoding="UTF-8"?>
<svg id="hotels-spa" xmlns="http://www.w3.org/2000/svg" viewBox="0 0 576 576">
  <defs>
    <style>
      .cls-1 {
        stroke: #fff;
        stroke-width: 5px;
      }

      .cls-1, .cls-2 {
        stroke-miterlimit: 10;
      }

      .cls-1, .cls-3, .cls-4, .cls-5 {
        fill: none;
      }

      .cls-2 {
        fill: #fff;
        stroke-width: 15px;
      }

      .cls-2, .cls-3, .cls-5 {
        stroke: #231f20;
      }

      .cls-3, .cls-4 {
        stroke-width: 6px;
      }

      .cls-3, .cls-4, .cls-5 {
        stroke-linecap: round;
        stroke-linejoin: round;
      }

      .cls-6 {
        fill: #32baec;
        stroke-width: 0px;
      }

      .cls-4 {
        stroke: #a6bd3a;
      }

      .cls-5 {
        stroke-width: 8px;
      }
    </style>
  </defs>
  <circle class="cls-2" cx="288" cy="288" r="266.71"/>
  <g>
    <path class="cls-5" d="m201.59,410.76v-243.59c0-9.56,7.75-17.31,17.31-17.31h138.2c9.56,0,17.31,7.75,17.31,17.31v243.59"/>
    <polyline class="cls-5" points="374.41 410.76 374.41 241.68 445.76 241.68 445.76 446.95"/>
    <polyline class="cls-5" points="130.24 446.95 130.24 241.68 201.59 241.68 201.59 410.76"/>
    <path class="cls-4" d="m271.78,341.25h29.92c9.97,0,18.06,8.09,18.06,18.06v87.68h-66.04v-87.68c0-9.97,8.09-18.06,18.06-18.06Z"/>
    <line class="cls-4" x1="286.74" y1="446.95" x2="286.74" y2="341.25"/>
    <line class="cls-5" x1="105.02" y1="446.95" x2="470.98" y2="446.95"/>
    <rect class="cls-4" x="149.86" y="261.72" width="32.1" height="16.74"/>
    <polyline class="cls-3" points="232.02 244.75 232.02 203.13 281.52 203.13"/>
    <polyline class="cls-3" points="297.23 203.13 346.73 203.13 346.73 244.75"/>
    <polyline class="cls-6" points="239.24 245.75 239.24 209.81 283.52 209.81"/>
    <polyline class="cls-6" points="295.23 209.81 339 209.81 339 245.75"/>
    <polyline class="cls-6" points="339 259.48 339 295.42 294.71 295.42"/>
    <polyline class="cls-6" points="283.01 295.42 239.24 295.42 239.24 259.48"/>
    <polyline class="cls-3" points="281.52 303.34 232.02 303.34 232.02 261.72"/>
    <polyline class="cls-3" points="346.73 261.72 346.73 303.34 297.23 303.34"/>
    <rect class="cls-4" x="394.03" y="261.72" width="32.1" height="16.74"/>
    <rect class="cls-4" x="149.86" y="308.02" width="32.1" height="16.74"/>
    <rect class="cls-4" x="394.03" y="308.02" width="32.1" height="16.74"/>
    <rect class="cls-4" x="149.86" y="352.74" width="32.1" height="16.74"/>
    <rect class="cls-4" x="394.03" y="352.74" width="32.1" height="16.74"/>
    <g>
      <path class="cls-1" d="m307.9,118.98c-1.81.84-3.47,1.88-5,3.05.42-1.88.65-3.83.65-5.82,0-16.15-15.57-29.24-15.57-29.24,0,0-15.57,13.09-15.57,29.24,0,1.99.24,3.94.65,5.82-1.53-1.17-3.19-2.21-5-3.05-14.64-6.82-33.08,1.76-33.08,1.76,0,0,5.28,19.65,19.92,26.47,14.64,6.82,33.08-1.76,33.08-1.76,0,0,18.45,8.58,33.08,1.76,14.64-6.82,19.92-26.47,19.92-26.47,0,0-18.45-8.58-33.08-1.76Z"/>
      <path class="cls-6" d="m307.96,120.19c-3.32,1.44-6.16,3.58-8.54,6,1.05-2.92,1.74-6.08,1.74-9.39,0-14.55-13.17-26.35-13.17-26.35,0,0-13.17,11.8-13.17,26.35,0,3.67.84,7.17,2.09,10.34-2.57-2.85-5.72-5.44-9.52-7.09-13.4-5.82-29.75,2.1-29.75,2.1,0,0,5.36,17.37,18.76,23.19,13.4,5.82,31.6-2.19,31.6-2.19,0,0,17.47,8.26,30.97,2.41,13.5-5.85,18.95-23.28,18.95-23.28,0,0-16.44-7.94-29.94-2.08Z"/>
      <path class="cls-1" d="m303.24,116.02c0,16.04-15.47,29.05-15.47,29.05,0,0-15.47-13-15.47-29.05s15.47-29.05,15.47-29.05c0,0,15.47,13,15.47,29.05Z"/>
    </g>
  </g>
</svg>