<?xml version="1.0" encoding="UTF-8"?>
<svg id="Layer_7" data-name="Layer 7" xmlns="http://www.w3.org/2000/svg" viewBox="0 0 576 576">
  <defs>
    <style>
      .cls-1 {
        fill: #fff;
      }

      .cls-1, .cls-2 {
        stroke-width: 5.61px;
      }

      .cls-1, .cls-2, .cls-3 {
        stroke: #010101;
      }

      .cls-1, .cls-2, .cls-4, .cls-5, .cls-6, .cls-7, .cls-8 {
        stroke-miterlimit: 10;
      }

      .cls-2, .cls-9, .cls-10, .cls-3, .cls-4, .cls-5, .cls-6 {
        fill: none;
      }

      .cls-9 {
        stroke-width: 8.53px;
      }

      .cls-9, .cls-10, .cls-3 {
        stroke-linecap: round;
        stroke-linejoin: round;
      }

      .cls-9, .cls-10, .cls-4, .cls-6 {
        stroke: #231f20;
      }

      .cls-11 {
        fill: #010101;
      }

      .cls-11, .cls-12 {
        stroke-width: 0px;
      }

      .cls-10 {
        stroke-width: 5.12px;
      }

      .cls-12 {
        fill: #a6bc39;
      }

      .cls-3 {
        stroke-width: 9.34px;
      }

      .cls-4 {
        stroke-width: 1.51px;
      }

      .cls-5 {
        stroke: #a6bc39;
        stroke-width: 4.4px;
      }

      .cls-6, .cls-8 {
        stroke-width: 1.87px;
      }

      .cls-7 {
        stroke-width: 1.49px;
      }

      .cls-7, .cls-8 {
        fill: #2fbaed;
        stroke: #2fbaed;
      }
    </style>
  </defs>
  <g>
    <rect class="cls-1" x="155.67" y="42.45" width="264.66" height="491.1" rx="10.97" ry="10.97"/>
    <line class="cls-2" x1="155.67" y1="88.03" x2="420.33" y2="88.03"/>
    <line class="cls-2" x1="155.67" y1="470.11" x2="420.33" y2="470.11"/>
    <line class="cls-3" x1="308.51" y1="64.4" x2="267.49" y2="64.4"/>
    <circle class="cls-11" cx="288" cy="505.67" r="12.77"/>
  </g>
  <g>
    <rect class="cls-7" x="170.6" y="107.7" width="72.85" height="20.14"/>
    <rect class="cls-4" x="172.73" y="103.94" width="74.14" height="20.14"/>
    <rect class="cls-8" x="170.6" y="141.58" width="231.06" height="20.14"/>
    <rect class="cls-6" x="173.88" y="137.79" width="231.06" height="20.14"/>
    <g>
      <line class="cls-5" x1="257.44" y1="104.37" x2="404.95" y2="104.37"/>
      <line class="cls-5" x1="257.44" y1="114.22" x2="376.62" y2="114.22"/>
      <line class="cls-5" x1="257.44" y1="124.07" x2="342.4" y2="124.07"/>
    </g>
  </g>
  <g>
    <path class="cls-12" d="m319.42,396.05c0,12.44-10.55,22.51-23.58,22.51-13.03,0-23.58-10.07-23.58-22.51"/>
    <path class="cls-12" d="m316.45,218.84c25.28,7.17,43.79,30.13,43.79,57.72v52.9c0,9.36,3.21,18.4,9.13,25.66l11.04,13.58c4.33,5.29.55,13.23-6.3,13.23h-148.39c-6.85,0-10.6-7.95-6.3-13.23l11.07-13.58c5.92-7.25,9.13-16.3,9.13-25.66v-52.01c0-27.68,18.41-51.28,43.78-58.62,0-9.13,7.4-16.53,16.53-16.53s16.53,7.4,16.53,16.53Z"/>
    <path class="cls-9" d="m303.27,223.65c25.28,7.17,43.79,30.13,43.79,57.72v52.9c0,9.36,3.21,18.4,9.13,25.66l11.04,13.58c4.33,5.29.55,13.23-6.3,13.23h-148.39c-6.85,0-10.6-7.95-6.3-13.23l11.07-13.58c5.92-7.25,9.13-16.3,9.13-25.66v-52.01c0-27.68,18.41-51.28,43.78-58.62,0-9.13,7.4-16.53,16.53-16.53s16.53,7.4,16.53,16.53Z"/>
    <path class="cls-9" d="m307.65,398.03c0,11.04-9.36,19.97-20.92,19.97-11.56,0-20.92-8.93-20.92-19.97"/>
    <path class="cls-10" d="m344.23,207.13c15.46,9.32,26.29,25.34,28.86,43.76"/>
    <path class="cls-10" d="m338.64,218.68c10.63,8.19,18.42,19.84,21.83,33.13"/>
    <path class="cls-10" d="m201.6,250.43c2.57-18.42,13.4-34.44,28.86-43.76"/>
    <path class="cls-10" d="m214.23,251.35c3.41-13.29,11.2-24.95,21.83-33.13"/>
  </g>
</svg>