<?xml version="1.0" encoding="UTF-8"?>
<svg id="Layer_4" data-name="Layer 4" xmlns="http://www.w3.org/2000/svg" viewBox="0 0 576 576">
  <defs>
    <style>
      .cls-1, .cls-2, .cls-3, .cls-4, .cls-5, .cls-6, .cls-7, .cls-8 {
        stroke-miterlimit: 10;
      }

      .cls-1, .cls-2, .cls-5, .cls-6, .cls-9 {
        stroke: #231f20;
      }

      .cls-1, .cls-4, .cls-5, .cls-9 {
        fill: none;
      }

      .cls-1, .cls-10, .cls-9, .cls-8 {
        stroke-width: 3.28px;
      }

      .cls-2, .cls-3, .cls-5 {
        stroke-width: 6.55px;
      }

      .cls-2, .cls-11, .cls-6, .cls-7 {
        fill: #fff;
      }

      .cls-3 {
        stroke: #2fbaed;
      }

      .cls-3, .cls-12 {
        fill: #231f20;
      }

      .cls-11, .cls-12 {
        stroke-width: 0px;
      }

      .cls-4, .cls-7 {
        stroke-width: 6.61px;
      }

      .cls-4, .cls-7, .cls-10, .cls-8 {
        stroke: #a6bc39;
      }

      .cls-6 {
        stroke-width: 13.1px;
      }

      .cls-10 {
        stroke-linecap: round;
      }

      .cls-10, .cls-9 {
        stroke-linejoin: round;
      }

      .cls-10, .cls-8 {
        fill: #a6bc39;
      }
    </style>
  </defs>
  <g>
    <polygon class="cls-6" points="47.3 272.82 166.35 184.73 285.4 96.65 404.45 184.73 523.5 272.82 523.5 275.09 523.5 485.09 47.3 485.09 47.3 275.09 47.3 272.82"/>
    <g>
      <rect class="cls-2" x="118.3" y="132.17" width="338.11" height="284.09"/>
      <g>
        <path class="cls-8" d="m174.28,320.12c.97,8.76-5.12,15.96-13.93,15.96s-14.6-7.18-13.87-15.96c.74-8.79,13.87-24.4,13.87-24.4,0,0,12.94,15.5,13.93,24.4Z"/>
        <path class="cls-1" d="m169.89,318.66c.97,8.76-5.12,15.96-13.93,15.96s-14.6-7.18-13.87-15.96c.74-8.79,13.87-24.4,13.87-24.4,0,0,12.94,15.5,13.93,24.4Z"/>
      </g>
      <g>
        <rect class="cls-3" x="190.41" y="323.08" width="152" height="31.21"/>
        <line class="cls-5" x1="190.41" y1="372.63" x2="342.41" y2="372.63"/>
        <line class="cls-5" x1="190.41" y1="387.59" x2="313.22" y2="387.59"/>
        <line class="cls-5" x1="190.41" y1="402.54" x2="277.96" y2="402.54"/>
      </g>
      <g>
        <g>
          <polygon class="cls-10" points="168.47 189.78 170.51 154.81 152.51 205.54 164.59 200.03 162.33 234.91 180.34 184.19 168.47 189.78"/>
          <polygon class="cls-9" points="164.71 187.14 166.76 152.17 148.76 202.89 160.83 197.39 158.58 232.27 176.58 181.54 164.71 187.14"/>
        </g>
        <g>
          <rect class="cls-3" x="190.41" y="195.18" width="152" height="31.21"/>
          <line class="cls-5" x1="190.41" y1="244.73" x2="342.41" y2="244.73"/>
          <line class="cls-5" x1="190.41" y1="259.69" x2="313.22" y2="259.69"/>
          <line class="cls-5" x1="190.41" y1="274.64" x2="277.96" y2="274.64"/>
        </g>
        <path class="cls-12" d="m416.36,215.28c-1.39-1.64-3.06-2.85-4.99-3.63-1.92-.82-4.42-1.64-7.48-2.49-.04,0-.11-.04-.14-.04v-13.22c1.82.21,3.35.86,4.56,1.85,1.64,1.35,2.53,3.14,2.67,5.38h7.13c-.21-4.17-1.78-7.45-4.7-9.83-2.53-2.07-5.77-3.28-9.66-3.53v-3.81c0-1-.82-1.82-1.82-1.82s-1.82.82-1.82,1.82v3.81c-2.35.18-4.49.68-6.41,1.53-2.39,1.07-4.24,2.49-5.52,4.35-1.32,1.82-1.96,3.81-1.96,6.02,0,2.74.71,4.99,2.14,6.66,1.43,1.71,3.14,2.99,5.17,3.85,1.75.75,3.96,1.5,6.59,2.21v13.29c-1.75-.25-3.21-.86-4.42-1.78-1.78-1.35-2.78-3.1-2.99-5.24h-7.34c.14,2.6.96,4.92,2.49,6.91,1.5,2.03,3.56,3.6,6.16,4.7,1.85.78,3.88,1.32,6.09,1.53v3.88c0,1,.82,1.82,1.82,1.82s1.82-.82,1.82-1.82v-3.78c2.71-.07,5.17-.61,7.27-1.57,2.39-1.07,4.24-2.53,5.52-4.42,1.32-1.89,1.96-3.99,1.96-6.34-.04-2.6-.75-4.7-2.14-6.31Zm-18.24-7.95c-1.39-.57-2.53-1.28-3.42-2.21-.93-.89-1.39-2.07-1.39-3.46,0-1.78.78-3.21,2.28-4.31,1.18-.86,2.67-1.39,4.53-1.53v12.22c-.75-.25-1.43-.5-2-.71Zm11.08,18.81c-1.39,1.03-3.21,1.64-5.45,1.75v-12.51c2.28.68,4.06,1.32,5.31,2.03,1.64.93,2.49,2.32,2.49,4.17s-.78,3.35-2.35,4.56Z"/>
      </g>
      <path class="cls-12" d="m416.36,344.34c-1.39-1.64-3.06-2.85-4.99-3.63-1.92-.82-4.42-1.64-7.48-2.49-.04,0-.11-.04-.14-.04v-13.22c1.82.21,3.35.86,4.56,1.85,1.64,1.35,2.53,3.14,2.67,5.38h7.13c-.21-4.17-1.78-7.45-4.7-9.83-2.53-2.07-5.77-3.28-9.66-3.53v-3.81c0-1-.82-1.82-1.82-1.82s-1.82.82-1.82,1.82v3.81c-2.35.18-4.49.68-6.41,1.53-2.39,1.07-4.24,2.49-5.52,4.35-1.32,1.82-1.96,3.81-1.96,6.02,0,2.74.71,4.99,2.14,6.66,1.43,1.71,3.14,2.99,5.17,3.85,1.75.75,3.96,1.5,6.59,2.21v13.29c-1.75-.25-3.21-.86-4.42-1.78-1.78-1.35-2.78-3.1-2.99-5.24h-7.34c.14,2.6.96,4.92,2.49,6.91,1.5,2.03,3.56,3.6,6.16,4.7,1.85.78,3.88,1.32,6.09,1.53v3.88c0,1,.82,1.82,1.82,1.82s1.82-.82,1.82-1.82v-3.78c2.71-.07,5.17-.61,7.27-1.57,2.39-1.07,4.24-2.53,5.52-4.42,1.32-1.89,1.96-3.99,1.96-6.34-.04-2.6-.75-4.7-2.14-6.31Zm-18.24-7.95c-1.39-.57-2.53-1.28-3.42-2.21-.93-.89-1.39-2.07-1.39-3.46,0-1.78.78-3.21,2.28-4.31,1.18-.86,2.67-1.39,4.53-1.53v12.22c-.75-.25-1.43-.5-2-.71Zm11.08,18.81c-1.39,1.03-3.21,1.64-5.45,1.75v-12.51c2.28.68,4.06,1.32,5.31,2.03,1.64.93,2.49,2.32,2.49,4.17s-.78,3.35-2.35,4.56Z"/>
    </g>
    <polygon class="cls-11" points="517.23 481.02 54.27 481.02 54.27 274.21 285.75 366.37 517.23 280.94 517.23 481.02"/>
    <path class="cls-12" d="m57.6,273.91c51.43,20.07,137.21,53.06,184.69,72.17,0,0,88.56-.8,88.56-.8l-1.04.18c30.92-11.64,61.97-22.9,93.21-33.65,31.23-10.8,62.55-21.33,94.1-31.19,0,0,.22.62.22.62-30.56,12.61-61.37,24.54-92.28,36.22-31.07,11.79-62.32,23.06-93.71,33.94-.28.19-88.69-.93-89.06-.8-23.44-9.08-69.57-28.58-92.93-38.03,0,0-92-38.06-92-38.06,0,0,.24-.61.24-.61h0Z"/>
    <g>
      <polyline class="cls-11" points="517.23 477.91 287.36 318.11 54.27 477.91"/>
      <path class="cls-12" d="m517.05,478.18c-57.79-39.23-173.62-118.43-231.19-157.9,0,0,2.99.01,2.99.01-55.52,39.01-118.5,82.67-175.01,119.57-19.68,12.95-39.45,25.76-59.38,38.33,0,0-.37-.54-.37-.54,18.91-14.06,37.99-27.88,57.16-41.57,55.22-39.76,119.33-83.11,176.15-121.16,57.06,40.98,174.58,121.77,229.65,163.27h0Z"/>
    </g>
  </g>
  <g>
    <circle class="cls-7" cx="456.41" cy="139.43" r="61.03"/>
    <path class="cls-4" d="m447.07,148.06l39.62-37.77c2.29-2.18,5.95-2.1,8.14.19l2.38,2.49c2.18,2.29,2.1,5.95-.19,8.14l-50.44,48.09c-1.38,1.32-3.58,1.27-4.9-.12l-26.03-25.93c-2.18-2.29-2.1-5.95.19-8.14l2.49-2.38c2.29-2.18,5.95-2.1,8.14.19l15.72,15.1c1.32,1.38,3.51,1.44,4.9.12Z"/>
  </g>
</svg>