<?xml version="1.0" encoding="UTF-8"?>
<svg id="Layer_5" data-name="Layer 5" xmlns="http://www.w3.org/2000/svg" viewBox="0 0 576 576">
  <defs>
    <style>
      .cls-1 {
        stroke-linecap: square;
        stroke-linejoin: round;
        stroke-width: 6.65px;
      }

      .cls-1, .cls-2, .cls-3 {
        fill: none;
      }

      .cls-1, .cls-4, .cls-5 {
        stroke: #231f20;
      }

      .cls-2 {
        stroke-dasharray: 0 0 28.4 14.2;
      }

      .cls-2, .cls-3 {
        stroke: #a6bc39;
        stroke-linecap: round;
        stroke-linejoin: bevel;
        stroke-width: 7.24px;
      }

      .cls-4, .cls-5 {
        stroke-miterlimit: 10;
        stroke-width: 6.77px;
      }

      .cls-4, .cls-6 {
        fill: #2fbaed;
      }

      .cls-5 {
        fill: #a6bc39;
      }

      .cls-7 {
        fill: #231f20;
      }

      .cls-7, .cls-6 {
        stroke-width: 0px;
      }
    </style>
  </defs>
  <path class="cls-7" d="m212.65,505.26h-48.25v-179.03c0-4.32,5.49-6.16,8.09-2.72l39.24,51.77c.59.78.91,1.74.91,2.72v127.26Z"/>
  <path class="cls-6" d="m470.41,507.21h-44.33V162.56c0-3.97,5.04-5.66,7.44-2.5l36.05,47.57c.55.72.84,1.6.84,2.5v297.08Z"/>
  <path class="cls-7" d="m337.89,505.63h47.57s0-218.03,0-218.03c0-4.26-5.41-6.07-7.98-2.68l-38.69,51.04c-.59.77-.9,1.71-.9,2.68v166.99Z"/>
  <path class="cls-7" d="m249.44,505.26h51.33s0-234.4,0-234.4c0-4.59-5.84-6.55-8.61-2.89l-41.74,55.08c-.63.83-.97,1.85-.97,2.89v179.33Z"/>
  <g>
    <line class="cls-3" x1="164.4" y1="311.92" x2="164.4" y2="297.43"/>
    <path class="cls-2" d="m164.4,283.23v-37.59c0-4.32,5.49-6.16,8.09-2.72l39.24,51.77c.59.78.91,1.74.91,2.72v46.6"/>
    <line class="cls-3" x1="212.65" y1="351.12" x2="212.65" y2="365.6"/>
  </g>
  <line class="cls-1" x1="98.35" y1="505.63" x2="490.6" y2="505.63"/>
  <line class="cls-1" x1="112.18" y1="69.12" x2="112.18" y2="517.84"/>
  <g>
    <path class="cls-7" d="m436.37,131.06c-24.1,23.33-52.71,50.82-76.99,73.95-31.59-3.36-64.64-6.72-96.21-9.94,0,0,3.16-.55,3.16-.55-5.75,3.06-11.6,5.89-17.48,8.69-11.81,5.52-23.74,10.79-35.88,15.57-6.07,2.42-12.21,4.7-18.46,6.75,0,0-.48-.94-.48-.94,21.37-15.02,44.04-28.07,67.36-39.78,0,0,1.57-.76,1.57-.76,0,0,1.58.21,1.58.21,22.66,3.32,47.75,7.48,70.57,10.69,7.85,1.15,15.69,2.32,23.53,3.52,0,0-2.57.81-2.57.81,17.63-15.46,41.92-36.46,59.63-51.82,0,0,19.96-17.19,19.96-17.19,0,0,.71.78.71.78h0Z"/>
    <circle class="cls-4" cx="263.81" cy="190.63" r="11.29"/>
    <circle class="cls-4" cx="436.01" cy="130.67" r="11.29"/>
    <circle class="cls-5" cx="194.26" cy="225.06" r="11.29"/>
    <circle class="cls-5" cx="358.08" cy="201.93" r="11.29"/>
  </g>
  <g>
    <path class="cls-7" d="m196.6,117.51c-1.37-1.62-3.02-2.81-4.92-3.59-1.9-.81-4.36-1.62-7.38-2.46-.04,0-.11-.04-.14-.04v-13.05c1.79.21,3.31.84,4.5,1.83,1.62,1.34,2.5,3.09,2.64,5.31h7.03c-.21-4.11-1.76-7.35-4.64-9.71-2.5-2.04-5.7-3.24-9.53-3.48v-3.76c0-.98-.81-1.79-1.79-1.79s-1.79.81-1.79,1.79v3.76c-2.32.18-4.43.67-6.33,1.51-2.36,1.05-4.18,2.46-5.45,4.29-1.3,1.79-1.93,3.76-1.93,5.94,0,2.71.7,4.92,2.11,6.58,1.41,1.69,3.09,2.95,5.1,3.8,1.72.74,3.9,1.48,6.51,2.18v13.12c-1.72-.25-3.17-.84-4.36-1.76-1.76-1.34-2.74-3.06-2.95-5.17h-7.24c.14,2.57.95,4.85,2.46,6.82,1.48,2,3.52,3.55,6.08,4.64,1.83.77,3.83,1.3,6.01,1.51v3.83c0,.98.81,1.79,1.79,1.79s1.79-.81,1.79-1.79v-3.73c2.67-.07,5.1-.6,7.17-1.55,2.36-1.05,4.18-2.5,5.45-4.36,1.3-1.86,1.93-3.94,1.93-6.26-.04-2.57-.74-4.64-2.11-6.22Zm-18.01-7.84c-1.37-.56-2.5-1.27-3.38-2.18-.91-.88-1.37-2.04-1.37-3.41,0-1.76.77-3.16,2.25-4.26,1.16-.84,2.64-1.37,4.47-1.51v12.06c-.74-.25-1.41-.49-1.97-.7Zm10.94,18.57c-1.37,1.02-3.17,1.62-5.38,1.72v-12.34c2.25.67,4.01,1.3,5.24,2,1.62.91,2.46,2.29,2.46,4.11s-.77,3.31-2.32,4.5Z"/>
    <g>
      <path class="cls-7" d="m229.7,114.1c0,1.44-1.16,2.62-2.62,2.62s-2.62-1.18-2.62-2.62c0-22.93-18.65-41.58-41.57-41.58-7.06,0-13.9,1.75-20.01,5.11l8.92,4.59c-7.57.24-17.53,3.07-24.84,6.11,3.56-7.08,7.12-16.79,7.9-24.33l4.17,9.8c7.21-4.26,15.4-6.51,23.86-6.51,25.81,0,46.8,20.99,46.8,46.81Z"/>
      <path class="cls-7" d="m218.98,139.86c-3.56,7.08-7.12,16.79-7.9,24.33l-4.17-9.8c-7.19,4.26-15.38,6.51-23.84,6.51-25.82,0-46.81-20.99-46.81-46.8,0-1.45,1.16-2.62,2.62-2.62s2.62,1.16,2.62,2.62c0,22.92,18.65,41.57,41.58,41.57,7.05,0,13.9-1.75,20-5.11l-8.92-4.59c7.57-.24,17.53-3.07,24.84-6.11Z"/>
    </g>
  </g>
</svg>