<?xml version="1.0" encoding="UTF-8"?>
<svg id="Layer_10" data-name="Layer 10" xmlns="http://www.w3.org/2000/svg" viewBox="0 0 576 576">
  <defs>
    <style>
      .cls-1 {
        fill: #fff;
      }

      .cls-1, .cls-2 {
        stroke-width: 5.61px;
      }

      .cls-1, .cls-2, .cls-3, .cls-4, .cls-5, .cls-6, .cls-7, .cls-8, .cls-9, .cls-10 {
        stroke-miterlimit: 10;
      }

      .cls-1, .cls-2, .cls-11 {
        stroke: #010101;
      }

      .cls-2, .cls-12, .cls-4, .cls-5, .cls-6, .cls-11, .cls-7, .cls-8 {
        fill: none;
      }

      .cls-12, .cls-6, .cls-7, .cls-8 {
        stroke: #231f20;
      }

      .cls-12, .cls-11, .cls-13 {
        stroke-linejoin: round;
      }

      .cls-12, .cls-13 {
        stroke-width: 2.43px;
      }

      .cls-14 {
        fill: #010101;
      }

      .cls-14, .cls-15 {
        stroke-width: 0px;
      }

      .cls-3, .cls-4, .cls-5, .cls-13 {
        stroke: #a6bc39;
      }

      .cls-3, .cls-6 {
        stroke-width: 3.25px;
      }

      .cls-3, .cls-13 {
        fill: #a6bc39;
      }

      .cls-4, .cls-7, .cls-9 {
        stroke-width: 3.74px;
      }

      .cls-5 {
        stroke-width: 7.2px;
      }

      .cls-11 {
        stroke-width: 9.34px;
      }

      .cls-11, .cls-13 {
        stroke-linecap: round;
      }

      .cls-15, .cls-9 {
        fill: #231f20;
      }

      .cls-8, .cls-10 {
        stroke-width: 1.87px;
      }

      .cls-9, .cls-10 {
        stroke: #2fbaed;
      }

      .cls-10 {
        fill: #2fbaed;
      }
    </style>
  </defs>
  <g>
    <rect class="cls-1" x="128.94" y="42.45" width="264.66" height="491.1" rx="10.97" ry="10.97"/>
    <line class="cls-2" x1="128.94" y1="88.03" x2="393.6" y2="88.03"/>
    <line class="cls-2" x1="128.94" y1="470.11" x2="393.6" y2="470.11"/>
    <line class="cls-11" x1="281.78" y1="64.4" x2="240.76" y2="64.4"/>
    <circle class="cls-14" cx="261.27" cy="505.67" r="12.77"/>
  </g>
  <g>
    <rect class="cls-10" x="143.88" y="107.7" width="114.12" height="20.14"/>
    <rect class="cls-8" x="147.16" y="103.94" width="114.12" height="20.14"/>
    <rect class="cls-10" x="143.88" y="141.58" width="231.06" height="20.14"/>
    <rect class="cls-8" x="147.16" y="137.79" width="231.06" height="20.14"/>
    <g>
      <line class="cls-4" x1="271.92" y1="104.37" x2="378.22" y2="104.37"/>
      <line class="cls-4" x1="271.92" y1="114.22" x2="357.81" y2="114.22"/>
      <line class="cls-4" x1="271.92" y1="124.07" x2="333.15" y2="124.07"/>
    </g>
  </g>
  <g>
    <rect class="cls-9" x="212.15" y="201.64" width="118.17" height="20.56"/>
    <line class="cls-7" x1="212.15" y1="234.28" x2="330.33" y2="234.28"/>
    <line class="cls-7" x1="212.15" y1="244.14" x2="307.64" y2="244.14"/>
    <line class="cls-7" x1="212.15" y1="253.99" x2="280.22" y2="253.99"/>
  </g>
  <g>
    <rect class="cls-9" x="212.15" y="293.06" width="118.17" height="20.56"/>
    <line class="cls-7" x1="212.15" y1="325.71" x2="330.33" y2="325.71"/>
    <line class="cls-7" x1="212.15" y1="335.56" x2="307.64" y2="335.56"/>
    <line class="cls-7" x1="212.15" y1="345.41" x2="280.22" y2="345.41"/>
  </g>
  <g>
    <rect class="cls-9" x="182.06" y="388.42" width="148.27" height="20.56"/>
    <line class="cls-7" x1="182.06" y1="421.07" x2="330.33" y2="421.07"/>
    <line class="cls-7" x1="182.06" y1="430.93" x2="301.86" y2="430.93"/>
    <line class="cls-7" x1="182.06" y1="440.78" x2="267.46" y2="440.78"/>
  </g>
  <path class="cls-15" d="m364.62,212.69c-.92-1.08-2.02-1.88-3.29-2.39-1.27-.54-2.91-1.08-4.93-1.64-.02,0-.07-.02-.09-.02v-8.71c1.2.14,2.21.56,3.01,1.22,1.08.89,1.67,2.07,1.76,3.55h4.7c-.14-2.75-1.17-4.91-3.1-6.48-1.67-1.36-3.8-2.16-6.36-2.32v-2.51c0-.66-.54-1.2-1.2-1.2s-1.2.54-1.2,1.2v2.51c-1.55.12-2.96.45-4.23,1.01-1.57.7-2.79,1.64-3.64,2.86-.87,1.2-1.29,2.51-1.29,3.97,0,1.81.47,3.29,1.41,4.39.94,1.13,2.07,1.97,3.4,2.54,1.15.49,2.61.99,4.34,1.46v8.76c-1.15-.16-2.11-.56-2.91-1.17-1.17-.89-1.83-2.04-1.97-3.45h-4.84c.09,1.71.63,3.24,1.64,4.55.99,1.34,2.35,2.37,4.06,3.1,1.22.52,2.56.87,4.01,1.01v2.56c0,.66.54,1.2,1.2,1.2s1.2-.54,1.2-1.2v-2.49c1.78-.05,3.4-.4,4.79-1.03,1.57-.7,2.79-1.67,3.64-2.91.87-1.24,1.29-2.63,1.29-4.18-.02-1.71-.49-3.1-1.41-4.16Zm-12.02-5.24c-.92-.38-1.67-.85-2.25-1.46-.61-.59-.92-1.36-.92-2.28,0-1.17.52-2.11,1.5-2.84.77-.56,1.76-.92,2.98-1.01v8.05c-.49-.16-.94-.33-1.31-.47Zm7.3,12.4c-.92.68-2.11,1.08-3.59,1.15v-8.24c1.5.45,2.68.87,3.5,1.34,1.08.61,1.64,1.53,1.64,2.75s-.52,2.21-1.55,3.01Z"/>
  <path class="cls-15" d="m364.62,306.65c-.92-1.08-2.02-1.88-3.29-2.39-1.27-.54-2.91-1.08-4.93-1.64-.02,0-.07-.02-.09-.02v-8.71c1.2.14,2.21.56,3.01,1.22,1.08.89,1.67,2.07,1.76,3.55h4.7c-.14-2.75-1.17-4.91-3.1-6.48-1.67-1.36-3.8-2.16-6.36-2.32v-2.51c0-.66-.54-1.2-1.2-1.2s-1.2.54-1.2,1.2v2.51c-1.55.12-2.96.45-4.23,1.01-1.57.7-2.79,1.64-3.64,2.86-.87,1.2-1.29,2.51-1.29,3.97,0,1.81.47,3.29,1.41,4.39.94,1.13,2.07,1.97,3.4,2.54,1.15.49,2.61.99,4.34,1.46v8.76c-1.15-.16-2.11-.56-2.91-1.17-1.17-.89-1.83-2.04-1.97-3.45h-4.84c.09,1.71.63,3.24,1.64,4.55.99,1.34,2.35,2.37,4.06,3.1,1.22.52,2.56.87,4.01,1.01v2.56c0,.66.54,1.2,1.2,1.2s1.2-.54,1.2-1.2v-2.49c1.78-.05,3.4-.4,4.79-1.03,1.57-.7,2.79-1.67,3.64-2.91.87-1.24,1.29-2.63,1.29-4.18-.02-1.71-.49-3.1-1.41-4.16Zm-12.02-5.24c-.92-.38-1.67-.85-2.25-1.46-.61-.59-.92-1.36-.92-2.28,0-1.17.52-2.11,1.5-2.84.77-.56,1.76-.92,2.98-1.01v8.05c-.49-.16-.94-.33-1.31-.47Zm7.3,12.4c-.92.68-2.11,1.08-3.59,1.15v-8.24c1.5.45,2.68.87,3.5,1.34,1.08.61,1.64,1.53,1.64,2.75s-.52,2.21-1.55,3.01Z"/>
  <path class="cls-15" d="m364.62,401.57c-.92-1.08-2.02-1.88-3.29-2.39-1.27-.54-2.91-1.08-4.93-1.64-.02,0-.07-.02-.09-.02v-8.71c1.2.14,2.21.56,3.01,1.22,1.08.89,1.67,2.07,1.76,3.55h4.7c-.14-2.75-1.17-4.91-3.1-6.48-1.67-1.36-3.8-2.16-6.36-2.32v-2.51c0-.66-.54-1.2-1.2-1.2s-1.2.54-1.2,1.2v2.51c-1.55.12-2.96.45-4.23,1.01-1.57.7-2.79,1.64-3.64,2.86-.87,1.2-1.29,2.51-1.29,3.97,0,1.81.47,3.29,1.41,4.39.94,1.13,2.07,1.97,3.4,2.54,1.15.49,2.61.99,4.34,1.46v8.76c-1.15-.16-2.11-.56-2.91-1.17-1.17-.89-1.83-2.04-1.97-3.45h-4.84c.09,1.71.63,3.24,1.64,4.55.99,1.34,2.35,2.37,4.06,3.1,1.22.52,2.56.87,4.01,1.01v2.56c0,.66.54,1.2,1.2,1.2s1.2-.54,1.2-1.2v-2.49c1.78-.05,3.4-.4,4.79-1.03,1.57-.7,2.79-1.67,3.64-2.91.87-1.24,1.29-2.63,1.29-4.18-.02-1.71-.49-3.1-1.41-4.16Zm-12.02-5.24c-.92-.38-1.67-.85-2.25-1.46-.61-.59-.92-1.36-.92-2.28,0-1.17.52-2.11,1.5-2.84.77-.56,1.76-.92,2.98-1.01v8.05c-.49-.16-.94-.33-1.31-.47Zm7.3,12.4c-.92.68-2.11,1.08-3.59,1.15v-8.24c1.5.45,2.68.87,3.5,1.34,1.08.61,1.64,1.53,1.64,2.75s-.52,2.21-1.55,3.01Z"/>
  <g>
    <polygon class="cls-13" points="169.3 207.98 170.82 182.06 157.48 219.65 166.43 215.57 164.76 241.42 178.1 203.83 169.3 207.98"/>
    <polygon class="cls-12" points="166.52 206.02 168.04 180.1 154.7 217.69 163.65 213.61 161.98 239.46 175.32 201.87 166.52 206.02"/>
  </g>
  <g>
    <path class="cls-3" d="m182.34,308.85c.96,8.69-5.07,15.83-13.82,15.83s-14.49-7.12-13.76-15.83c.73-8.72,13.76-24.21,13.76-24.21,0,0,12.84,15.38,13.82,24.21Z"/>
    <path class="cls-6" d="m177.99,307.4c.96,8.69-5.07,15.83-13.82,15.83s-14.49-7.12-13.76-15.83c.73-8.72,13.76-24.21,13.76-24.21,0,0,12.84,15.38,13.82,24.21Z"/>
  </g>
  <path class="cls-5" d="m447.2,211.49l43.78-41.74c2.53-2.41,6.58-2.32,8.99.21l2.63,2.76c2.41,2.53,2.32,6.58-.21,8.99l-55.74,53.14c-1.53,1.46-3.95,1.4-5.41-.13l-28.77-28.65c-2.41-2.53-2.32-6.58.21-8.99l2.76-2.63c2.53-2.41,6.58-2.32,8.99.21l17.37,16.69c1.46,1.53,3.88,1.59,5.41.13Z"/>
  <path class="cls-5" d="m447.2,301.48l43.78-41.74c2.53-2.41,6.58-2.32,8.99.21l2.63,2.76c2.41,2.53,2.32,6.58-.21,8.99l-55.74,53.14c-1.53,1.46-3.95,1.4-5.41-.13l-28.77-28.65c-2.41-2.53-2.32-6.58.21-8.99l2.76-2.63c2.53-2.41,6.58-2.32,8.99.21l17.37,16.69c1.46,1.53,3.88,1.59,5.41.13Z"/>
  <path class="cls-5" d="m447.2,391.48l43.78-41.74c2.53-2.41,6.58-2.32,8.99.21l2.63,2.76c2.41,2.53,2.32,6.58-.21,8.99l-55.74,53.14c-1.53,1.46-3.95,1.4-5.41-.13l-28.77-28.65c-2.41-2.53-2.32-6.58.21-8.99l2.76-2.63c2.53-2.41,6.58-2.32,8.99.21l17.37,16.69c1.46,1.53,3.88,1.59,5.41.13Z"/>
</svg>