<?xml version="1.0" encoding="UTF-8"?>
<svg id="Layer_9" data-name="Layer 9" xmlns="http://www.w3.org/2000/svg" viewBox="0 0 576 576">
  <defs>
    <style>
      .cls-1 {
        stroke-width: 3.29px;
      }

      .cls-1, .cls-2, .cls-3, .cls-4, .cls-5, .cls-6, .cls-7, .cls-8, .cls-9, .cls-10, .cls-11, .cls-12, .cls-13 {
        fill: none;
      }

      .cls-1, .cls-2, .cls-3, .cls-4, .cls-6, .cls-9, .cls-10, .cls-11, .cls-13, .cls-14, .cls-15 {
        stroke-miterlimit: 10;
      }

      .cls-1, .cls-2, .cls-3, .cls-4, .cls-6, .cls-9, .cls-11, .cls-12, .cls-14, .cls-15 {
        stroke: #231f20;
      }

      .cls-2 {
        stroke-width: 1.46px;
      }

      .cls-3 {
        stroke-width: 1.64px;
      }

      .cls-16, .cls-5, .cls-7 {
        stroke: #a6bc39;
      }

      .cls-16, .cls-5, .cls-7, .cls-8, .cls-9, .cls-12, .cls-17 {
        stroke-width: 1.48px;
      }

      .cls-16, .cls-5, .cls-7, .cls-8, .cls-12, .cls-17 {
        stroke-linecap: round;
        stroke-linejoin: round;
      }

      .cls-16, .cls-18 {
        fill: #a6bc39;
      }

      .cls-4 {
        stroke-width: 4.14px;
      }

      .cls-6 {
        stroke-width: 1.82px;
      }

      .cls-7 {
        stroke-dasharray: 0 0 5.93 2.96;
      }

      .cls-18, .cls-19, .cls-20, .cls-21 {
        stroke-width: 0px;
      }

      .cls-19, .cls-14, .cls-15 {
        fill: #fff;
      }

      .cls-8, .cls-17 {
        stroke: #2fbaed;
      }

      .cls-20 {
        fill: #231f20;
      }

      .cls-10 {
        stroke: #f1f2f2;
        stroke-width: 8.28px;
      }

      .cls-11, .cls-15 {
        stroke-width: 8.61px;
      }

      .cls-21, .cls-17 {
        fill: #2fbaed;
      }

      .cls-13 {
        stroke: #808285;
        stroke-width: 1.5px;
      }

      .cls-14 {
        stroke-width: 2.83px;
      }
    </style>
  </defs>
  <g>
    <rect class="cls-15" x="63.03" y="130.86" width="449.95" height="275.67" rx="13.35" ry="13.35"/>
    <path class="cls-20" d="m63.03,360.72c62.64-1.11,161.57-2.35,224.97-3.01,73.95-1.48,151.31-1.65,224.97,3.01,0,0,0,.86,0,.86-18.75,1.23-37.5,2-56.24,2.6-53.87,2.04-114.55,1.43-168.73.42-36.96-.41-132.92-1.5-168.73-2.12,0,0-56.24-.9-56.24-.9,0,0,0-.86,0-.86h0Z"/>
    <polygon class="cls-15" points="377.79 502.49 198.21 502.49 240.37 406.53 335.63 406.53 377.79 502.49"/>
    <line class="cls-11" x1="158.08" y1="502.49" x2="417.92" y2="502.49"/>
  </g>
  <path class="cls-14" d="m102.25,74.05h371.43c11.71,0,21.22,9.51,21.22,21.22v215.57c0,10.03-8.14,18.17-18.17,18.17H99.21c-10.03,0-18.17-8.14-18.17-18.17V95.26c0-11.71,9.51-21.22,21.22-21.22Z" transform="translate(-.58 .84) rotate(-.17)"/>
  <path class="cls-20" d="m101.45,74.05h371.82c11.6,0,21.02,9.42,21.02,21.02v14.84H80.43v-14.84c0-11.6,9.42-21.02,21.02-21.02Z" transform="translate(-.27 .84) rotate(-.17)"/>
  <line class="cls-4" x1="81.11" y1="111.19" x2="494.97" y2="109.99"/>
  <line class="cls-10" x1="111.27" y1="94.39" x2="121.71" y2="94.36"/>
  <line class="cls-10" x1="134.21" y1="94.33" x2="144.65" y2="94.3"/>
  <line class="cls-10" x1="157.15" y1="94.26" x2="167.59" y2="94.23"/>
  <line class="cls-10" x1="215.68" y1="94.09" x2="457.73" y2="93.39"/>
  <g>
    <g>
      <polygon class="cls-18" points="210.51 298.15 206.84 298.15 206.84 191.93 190.27 182.46 190.27 298.15 186.61 298.15 186.61 176.15 210.51 189.8 210.51 298.15"/>
      <polygon class="cls-20" points="164.54 298.15 164.54 188.94 184.16 177.38 184.16 298.15 164.54 298.15"/>
      <polygon class="cls-19" points="175.93 298.15 175.93 214.27 158.29 204.19 158.29 298.15 175.93 298.15"/>
      <polygon class="cls-21" points="179.06 298.15 175.4 298.15 175.4 214.35 158.82 204.88 158.82 298.15 155.16 298.15 155.16 198.56 179.06 212.22 179.06 298.15"/>
      <polygon class="cls-20" points="133.09 298.15 133.09 211.35 152.71 199.79 152.71 298.15 133.09 298.15"/>
      <polygon class="cls-19" points="234.09 298.15 234.09 226.56 215.45 215.91 215.45 298.15 234.09 298.15"/>
      <polygon class="cls-18" points="236.72 298.15 233.06 298.15 233.06 241.99 216.49 232.53 216.49 298.15 212.82 298.15 212.82 226.21 236.72 239.86 236.72 298.15"/>
      <polygon class="cls-20" points="190.27 298.15 189.95 238.62 210.32 226.31 210.32 298.15 190.27 298.15"/>
    </g>
    <path class="cls-6" d="m122.11,131.76h125.74c3.14,0,5.69,2.55,5.69,5.69v160.7H116.42v-160.7c0-3.14,2.55-5.69,5.69-5.69Z"/>
    <line class="cls-3" x1="116.42" y1="144.28" x2="253.54" y2="144.28"/>
    <line class="cls-1" x1="127.47" y1="138.51" x2="130.48" y2="138.51"/>
    <line class="cls-1" x1="136.35" y1="138.51" x2="139.8" y2="138.51"/>
    <line class="cls-1" x1="145.55" y1="138.51" x2="148.81" y2="138.51"/>
    <line class="cls-1" x1="162.04" y1="138.51" x2="240.48" y2="138.51"/>
  </g>
  <g>
    <g>
      <polyline class="cls-8" points="310.41 142.75 316.75 145.71 323.08 142.75 329.43 145.71 335.76 142.75 342.11 145.71 348.44 142.75 354.79 145.71 361.13 142.75 367.47 145.71 373.81 142.75 380.15 145.71 386.5 142.75 392.84 145.71 399.18 142.75 405.52 145.71 411.86 142.75 418.2 145.71 424.55 142.75 430.89 145.71 437.23 142.75 443.58 145.71 449.93 142.75 456.28 145.71"/>
      <line class="cls-2" x1="355.3" y1="150.67" x2="456.28" y2="150.67"/>
      <line class="cls-2" x1="355.3" y1="157.37" x2="456.28" y2="157.37"/>
      <line class="cls-2" x1="355.3" y1="164.06" x2="456.28" y2="164.06"/>
      <line class="cls-2" x1="355.3" y1="170.75" x2="456.28" y2="170.75"/>
      <line class="cls-2" x1="355.3" y1="177.45" x2="456.28" y2="177.45"/>
    </g>
    <rect class="cls-17" x="313.37" y="151.93" width="35.86" height="27.9"/>
    <rect class="cls-12" x="310.41" y="149.24" width="35.86" height="26.78"/>
  </g>
  <g>
    <g>
      <line class="cls-9" x1="459.23" y1="209.34" x2="354.59" y2="209.34"/>
      <line class="cls-9" x1="459.25" y1="215.99" x2="354.62" y2="215.99"/>
      <line class="cls-9" x1="459.25" y1="222.68" x2="354.62" y2="222.68"/>
      <line class="cls-9" x1="459.25" y1="229.38" x2="354.62" y2="229.38"/>
      <line class="cls-9" x1="459.25" y1="237.19" x2="354.62" y2="237.19"/>
      <line class="cls-7" x1="459.25" y1="204.67" x2="313.37" y2="204.67"/>
    </g>
    <rect class="cls-16" x="310.41" y="212.26" width="35.86" height="27.9" transform="translate(656.67 452.42) rotate(-180)"/>
    <rect class="cls-12" x="313.37" y="209.29" width="35.86" height="27.9" transform="translate(662.61 446.49) rotate(-180)"/>
  </g>
  <g>
    <g>
      <line class="cls-9" x1="459.23" y1="268.63" x2="354.59" y2="268.63"/>
      <line class="cls-9" x1="459.25" y1="275.28" x2="354.62" y2="275.28"/>
      <line class="cls-9" x1="459.25" y1="281.97" x2="354.62" y2="281.97"/>
      <line class="cls-9" x1="459.25" y1="288.67" x2="354.62" y2="288.67"/>
      <line class="cls-9" x1="459.25" y1="296.48" x2="354.62" y2="296.48"/>
      <polyline class="cls-5" points="459.25 265.44 452.91 262.48 446.57 265.44 440.23 262.48 433.89 265.44 427.55 262.48 421.21 265.44 414.87 262.48 408.53 265.44 402.19 262.48 395.84 265.44 389.5 262.48 383.16 265.44 376.82 262.48 370.48 265.44 364.14 262.48 357.8 265.44 351.45 262.48 345.11 265.44 338.76 262.48 332.42 265.44 326.08 262.48 319.72 265.44 313.37 262.48"/>
    </g>
    <rect class="cls-16" x="310.41" y="271.55" width="35.86" height="27.9" transform="translate(656.67 571) rotate(-180)"/>
    <rect class="cls-12" x="313.37" y="268.58" width="35.86" height="27.9" transform="translate(662.61 565.07) rotate(-180)"/>
  </g>
  <polyline class="cls-13" points="296.3 161.48 155.16 161.48 155.16 192.19"/>
  <line class="cls-13" x1="213.86" y1="219.02" x2="296.3" y2="219.02"/>
  <line class="cls-13" x1="240.48" y1="282.53" x2="296.3" y2="282.53"/>
</svg>