<?xml version="1.0" encoding="UTF-8"?>
<svg id="Layer_2" data-name="Layer 2" xmlns="http://www.w3.org/2000/svg" viewBox="0 0 576 576">
  <defs>
    <style>
      .cls-1 {
        stroke-width: 4.11px;
      }

      .cls-1, .cls-2, .cls-3, .cls-4, .cls-5, .cls-6, .cls-7, .cls-8, .cls-9, .cls-10, .cls-11, .cls-12 {
        fill: none;
      }

      .cls-1, .cls-2, .cls-3, .cls-5, .cls-6, .cls-7, .cls-9, .cls-13, .cls-10, .cls-12 {
        stroke: #231f20;
      }

      .cls-1, .cls-3, .cls-4, .cls-5, .cls-7, .cls-13, .cls-10, .cls-12 {
        stroke-miterlimit: 10;
      }

      .cls-2, .cls-14, .cls-6, .cls-15, .cls-8, .cls-9, .cls-11 {
        stroke-linecap: round;
        stroke-linejoin: round;
      }

      .cls-2, .cls-14, .cls-15, .cls-8, .cls-11, .cls-12 {
        stroke-width: 1.58px;
      }

      .cls-16 {
        fill: #58595b;
      }

      .cls-16, .cls-17, .cls-18, .cls-19, .cls-20 {
        stroke-width: 0px;
      }

      .cls-3, .cls-13 {
        stroke-width: 8.54px;
      }

      .cls-4 {
        stroke: #f1f2f2;
        stroke-width: 8.21px;
      }

      .cls-14, .cls-17 {
        fill: #a6bc39;
      }

      .cls-14, .cls-11 {
        stroke: #a6bc39;
      }

      .cls-18, .cls-13 {
        fill: #fff;
      }

      .cls-19 {
        fill: #231f20;
      }

      .cls-5 {
        stroke-width: 2.81px;
      }

      .cls-6 {
        stroke-width: 2.17px;
      }

      .cls-15, .cls-8 {
        stroke: #2fbaed;
      }

      .cls-15, .cls-20 {
        fill: #2fbaed;
      }

      .cls-7 {
        stroke-width: 1.21px;
      }

      .cls-9 {
        stroke-width: 1.73px;
      }

      .cls-10 {
        stroke-width: 2.42px;
      }

      .cls-11 {
        stroke-dasharray: 0 0 6.32 3.16;
      }
    </style>
  </defs>
  <g>
    <rect class="cls-13" x="64.85" y="132.13" width="446.31" height="273.43" rx="13.24" ry="13.24"/>
    <path class="cls-19" d="m64.85,360.13c62.13-1.1,160.27-2.33,223.15-2.99,73.35-1.46,150.09-1.63,223.15,2.99,0,0,0,.85,0,.85-18.6,1.22-37.19,1.98-55.79,2.58-53.44,2.02-113.63,1.42-167.37.41-36.67-.41-131.84-1.49-167.37-2.1,0,0-55.79-.89-55.79-.89,0,0,0-.85,0-.85h0Z"/>
    <polygon class="cls-13" points="377.07 500.76 198.93 500.76 240.76 405.57 335.24 405.57 377.07 500.76"/>
    <line class="cls-3" x1="159.13" y1="500.76" x2="416.87" y2="500.76"/>
  </g>
  <g>
    <path class="cls-18" d="m104.09,75.78h368.42c11.62,0,21.05,9.43,21.05,21.05v213.83c0,9.95-8.08,18.03-18.03,18.03H101.08c-9.95,0-18.03-8.08-18.03-18.03V96.82c0-11.62,9.43-21.05,21.05-21.05Z" transform="translate(-.59 .84) rotate(-.17)"/>
    <path class="cls-19" d="m102.96,75.78h368.81c11.51,0,20.85,9.34,20.85,20.85v14.72H82.11v-14.72c0-11.51,9.34-20.85,20.85-20.85Z" transform="translate(-.27 .84) rotate(-.17)"/>
    <path class="cls-5" d="m103.75,75.78h368.42c11.62,0,21.05,9.43,21.05,21.05v213.83c0,9.95-8.08,18.03-18.03,18.03H100.73c-9.95,0-18.03-8.08-18.03-18.03V96.82c0-11.62,9.43-21.05,21.05-21.05Z" transform="translate(-.59 .84) rotate(-.17)"/>
    <line class="cls-1" x1="82.79" y1="112.62" x2="493.3" y2="111.43"/>
    <line class="cls-4" x1="112.7" y1="95.96" x2="123.05" y2="95.93"/>
    <line class="cls-4" x1="135.45" y1="95.9" x2="145.81" y2="95.87"/>
    <line class="cls-4" x1="158.21" y1="95.83" x2="168.56" y2="95.8"/>
    <line class="cls-4" x1="216.27" y1="95.66" x2="456.36" y2="94.96"/>
    <g>
      <g>
        <polygon class="cls-17" points="317.87 262.53 315.17 262.53 315.17 201.91 302.96 194.93 302.96 262.53 300.26 262.53 300.26 190.28 317.87 200.34 317.87 262.53"/>
        <polygon class="cls-19" points="284 262.53 284 199.7 298.45 191.19 298.45 262.53 284 262.53"/>
        <polygon class="cls-18" points="292.39 262.53 292.39 218.37 279.39 210.95 279.39 262.53 292.39 262.53"/>
        <polygon class="cls-20" points="294.7 262.53 292 262.53 292 218.43 279.78 211.45 279.78 262.53 277.09 262.53 277.09 206.8 294.7 216.86 294.7 262.53"/>
        <polygon class="cls-19" points="260.83 262.53 260.83 216.22 275.28 207.71 275.28 262.53 260.83 262.53"/>
        <polygon class="cls-18" points="335.25 262.53 335.25 227.43 321.51 219.58 321.51 262.53 335.25 262.53"/>
        <polygon class="cls-17" points="337.18 262.53 334.49 262.53 334.49 227.12 322.27 220.14 322.27 262.53 319.57 262.53 319.57 215.49 337.18 225.55 337.18 262.53"/>
        <polygon class="cls-19" points="302.96 262.53 302.72 224.63 317.73 215.56 317.73 262.53 302.96 262.53"/>
      </g>
      <path class="cls-7" d="m249.55,175.5h93.47c2.09,0,3.78,1.69,3.78,3.78v83.56h-101.03v-83.56c0-2.09,1.69-3.78,3.78-3.78Z"/>
      <line class="cls-7" x1="245.78" y1="184.73" x2="346.81" y2="184.73"/>
      <line class="cls-10" x1="253.92" y1="180.47" x2="256.14" y2="180.47"/>
      <line class="cls-10" x1="260.46" y1="180.47" x2="263.01" y2="180.47"/>
      <line class="cls-10" x1="267.24" y1="180.47" x2="269.65" y2="180.47"/>
      <line class="cls-10" x1="279.39" y1="180.47" x2="337.18" y2="180.47"/>
    </g>
    <g>
      <g>
        <polyline class="cls-8" points="365.4 173.97 369.85 177.13 374.29 173.97 378.74 177.13 383.19 173.97 387.64 177.13 392.09 173.97 396.54 177.13 400.99 173.97 405.44 177.13 409.89 173.97 414.34 177.13 418.78 173.97 423.23 177.13 427.68 173.97 432.13 177.13 436.58 173.97 441.04 177.13 445.49 173.97 449.94 177.13 454.39 173.97 458.84 177.13 463.3 173.97 467.76 177.13"/>
        <line class="cls-12" x1="365.4" y1="180.89" x2="423.82" y2="180.89"/>
        <line class="cls-12" x1="365.4" y1="188.03" x2="423.82" y2="188.03"/>
        <line class="cls-12" x1="365.4" y1="195.16" x2="423.82" y2="195.16"/>
        <line class="cls-12" x1="365.4" y1="202.29" x2="423.82" y2="202.29"/>
        <line class="cls-12" x1="365.4" y1="209.42" x2="423.82" y2="209.42"/>
      </g>
      <rect class="cls-15" x="432.72" y="183.75" width="38.21" height="29.72"/>
      <rect class="cls-2" x="429.55" y="180.89" width="38.21" height="28.53"/>
    </g>
    <g>
      <g>
        <line class="cls-12" x1="365.42" y1="230.11" x2="423.85" y2="230.11"/>
        <line class="cls-12" x1="365.4" y1="237.19" x2="423.82" y2="237.19"/>
        <line class="cls-12" x1="365.4" y1="244.32" x2="423.82" y2="244.32"/>
        <line class="cls-12" x1="365.4" y1="251.45" x2="423.82" y2="251.45"/>
        <line class="cls-12" x1="365.4" y1="259.78" x2="423.82" y2="259.78"/>
        <line class="cls-11" x1="365.4" y1="225.13" x2="467.76" y2="225.13"/>
      </g>
      <rect class="cls-14" x="432.72" y="233.22" width="38.21" height="29.72"/>
      <rect class="cls-2" x="429.55" y="230.06" width="38.21" height="29.72"/>
    </g>
    <g>
      <g>
        <path class="cls-17" d="m161.85,222.51l48.87-16.87c1.87,5.43,2.83,11.13,2.83,16.87,0,28.36-23.34,51.69-51.69,51.69-16.15,0-31.39-7.56-41.16-20.42l41.16-31.28Z"/>
        <path class="cls-20" d="m151.02,212.09l-41.16,31.28c-6.83-8.99-10.53-19.98-10.53-31.28,0-28.36,23.34-51.69,51.69-51.69,1.9,0,3.8.1,5.68.31l-5.68,51.38Z"/>
        <path class="cls-16" d="m164.22,208.33l5.33-51.42c9.36.97,18.29,4.48,25.8,10.15,7.52,5.67,13.34,13.28,16.85,22.02l-47.98,19.25Z"/>
      </g>
      <g>
        <g>
          <path class="cls-6" d="m160.5,217.13l48.87-16.87c1.87,5.43,2.83,11.13,2.83,16.87,0,28.36-23.34,51.69-51.69,51.69-16.15,0-31.39-7.56-41.16-20.42l41.16-31.28Z"/>
          <path class="cls-6" d="m156.17,213.21l-41.16,31.28c-6.83-8.99-10.53-19.98-10.53-31.28,0-28.36,23.34-51.69,51.69-51.69,1.9,0,3.8.1,5.68.31l-5.68,51.38Z"/>
          <path class="cls-6" d="m160.5,213.21l5.33-51.42c9.36.97,18.29,4.48,25.8,10.15,7.52,5.67,13.34,13.28,16.85,22.02l-47.98,19.25Z"/>
        </g>
        <g>
          <path class="cls-9" d="m160.5,217.13l48.87-16.87c1.87,5.43,2.83,11.13,2.83,16.87,0,28.36-23.34,51.69-51.69,51.69-16.15,0-31.39-7.56-41.16-20.42l41.16-31.28Z"/>
          <path class="cls-9" d="m156.17,213.21l-41.16,31.28c-6.83-8.99-10.53-19.98-10.53-31.28,0-28.36,23.34-51.69,51.69-51.69,1.9,0,3.8.1,5.68.31l-5.68,51.38Z"/>
          <path class="cls-9" d="m160.5,213.21l5.33-51.42c9.36.97,18.29,4.48,25.8,10.15,7.52,5.67,13.34,13.28,16.85,22.02l-47.98,19.25Z"/>
        </g>
      </g>
    </g>
  </g>
</svg>