<?xml version="1.0" encoding="UTF-8"?>
<svg id="Layer_1" data-name="Layer 1" xmlns="http://www.w3.org/2000/svg" viewBox="0 0 576 576">
  <defs>
    <style>
      .cls-1 {
        stroke-width: 5.23px;
      }

      .cls-1, .cls-2, .cls-3, .cls-4, .cls-5, .cls-6, .cls-7, .cls-8, .cls-9, .cls-10, .cls-11, .cls-12 {
        stroke-miterlimit: 10;
      }

      .cls-1, .cls-2, .cls-3, .cls-4, .cls-6, .cls-7, .cls-13, .cls-8, .cls-10, .cls-12, .cls-14 {
        stroke: #231f20;
      }

      .cls-1, .cls-4, .cls-15 {
        fill: #fff;
      }

      .cls-2 {
        stroke-width: 1.73px;
      }

      .cls-2, .cls-3, .cls-5, .cls-6, .cls-7, .cls-13, .cls-8, .cls-9, .cls-10, .cls-12, .cls-14 {
        fill: none;
      }

      .cls-3 {
        stroke-width: 1.74px;
      }

      .cls-4 {
        stroke-width: 5.29px;
      }

      .cls-5 {
        stroke: #f1f2f2;
        stroke-width: 8.36px;
      }

      .cls-6 {
        stroke-width: 4.18px;
      }

      .cls-16 {
        fill: #a6bc39;
      }

      .cls-16, .cls-15, .cls-17 {
        stroke-width: 0px;
      }

      .cls-7, .cls-11, .cls-14 {
        stroke-width: 3.49px;
      }

      .cls-13 {
        stroke-width: 2px;
      }

      .cls-13, .cls-14 {
        stroke-linecap: round;
        stroke-linejoin: round;
      }

      .cls-17 {
        fill: #231f20;
      }

      .cls-8 {
        stroke-width: 2.86px;
      }

      .cls-9 {
        stroke: #a6bc39;
        stroke-width: 2.97px;
      }

      .cls-10 {
        stroke-width: 4.29px;
      }

      .cls-11 {
        fill: #2fbaed;
        stroke: #2fbaed;
      }

      .cls-12 {
        stroke-width: 2.14px;
      }
    </style>
  </defs>
  <g>
    <path class="cls-15" d="m139.48,160.97h375.08c11.82,0,21.43,9.6,21.43,21.43v217.69c0,10.13-8.22,18.35-18.35,18.35H136.41c-10.13,0-18.35-8.22-18.35-18.35v-217.69c0-11.82,9.6-21.43,21.43-21.43Z" transform="translate(-.84 .95) rotate(-.17)"/>
    <path class="cls-17" d="m138.32,160.97h375.47c11.71,0,21.22,9.51,21.22,21.22v14.99H117.1v-14.99c0-11.71,9.51-21.22,21.22-21.22Z" transform="translate(-.52 .95) rotate(-.17)"/>
    <path class="cls-8" d="m139.13,160.97h375.08c11.82,0,21.43,9.6,21.43,21.43v217.69c0,10.13-8.22,18.35-18.35,18.35H136.06c-10.13,0-18.35-8.22-18.35-18.35v-217.69c0-11.82,9.6-21.43,21.43-21.43Z" transform="translate(-.84 .95) rotate(-.17)"/>
    <line class="cls-6" x1="117.79" y1="198.48" x2="535.71" y2="197.26"/>
    <line class="cls-5" x1="148.24" y1="181.51" x2="158.78" y2="181.48"/>
    <line class="cls-5" x1="171.4" y1="181.45" x2="181.94" y2="181.42"/>
    <line class="cls-5" x1="194.57" y1="181.38" x2="205.11" y2="181.35"/>
    <line class="cls-5" x1="253.68" y1="181.21" x2="498.1" y2="180.5"/>
    <g>
      <rect class="cls-11" x="161.14" y="240.9" width="133.28" height="38.39"/>
      <rect class="cls-7" x="168.12" y="233.92" width="133.28" height="38.39"/>
      <line class="cls-14" x1="168.12" y1="286.02" x2="301.41" y2="286.02"/>
      <line class="cls-14" x1="168.12" y1="294.02" x2="275.82" y2="294.02"/>
      <line class="cls-14" x1="168.12" y1="302.02" x2="244.89" y2="302.02"/>
      <g>
        <g>
          <line class="cls-9" x1="239.07" y1="353.15" x2="252.7" y2="335.31"/>
          <line class="cls-9" x1="244.06" y1="314.59" x2="252.7" y2="335.31"/>
          <polygon class="cls-9" points="274.96 338.19 266.33 317.47 244.06 314.59 230.43 332.43 239.07 353.15 261.33 356.03 274.96 338.19"/>
          <line class="cls-9" x1="252.7" y1="335.31" x2="274.96" y2="338.19"/>
        </g>
        <g>
          <line class="cls-9" x1="203.2" y1="368.22" x2="216.83" y2="350.38"/>
          <line class="cls-9" x1="208.2" y1="329.65" x2="216.83" y2="350.38"/>
          <polygon class="cls-9" points="239.1 353.26 230.46 332.54 208.2 329.65 194.57 347.5 203.2 368.22 225.47 371.1 239.1 353.26"/>
          <line class="cls-9" x1="216.83" y1="350.38" x2="239.1" y2="353.26"/>
        </g>
        <g>
          <line class="cls-9" x1="234.05" y1="391.68" x2="247.68" y2="373.84"/>
          <line class="cls-9" x1="239.04" y1="353.11" x2="247.68" y2="373.84"/>
          <polygon class="cls-9" points="269.94 376.72 261.31 356 239.04 353.11 225.41 370.95 234.05 391.68 256.31 394.56 269.94 376.72"/>
          <line class="cls-9" x1="247.68" y1="373.84" x2="269.94" y2="376.72"/>
        </g>
      </g>
      <g>
        <polygon class="cls-16" points="440.94 388.07 436.16 388.07 436.16 280.69 414.53 268.34 414.53 388.07 409.75 388.07 409.75 260.1 440.94 277.91 440.94 388.07"/>
        <polygon class="cls-17" points="380.95 388.07 380.95 276.79 406.55 261.7 406.55 388.07 380.95 388.07"/>
        <polygon class="cls-15" points="395.82 388.07 395.82 309.85 372.79 296.7 372.79 388.07 395.82 388.07"/>
        <polygon class="cls-16" points="399.9 388.07 395.12 388.07 395.12 309.95 373.49 297.59 373.49 388.07 368.71 388.07 368.71 289.35 399.9 307.17 399.9 388.07"/>
        <polygon class="cls-17" points="339.91 388.07 339.91 306.05 365.51 290.96 365.51 388.07 339.91 388.07"/>
        <polygon class="cls-15" points="471.73 388.07 471.73 325.89 447.4 312 447.4 388.07 471.73 388.07"/>
        <polygon class="cls-16" points="475.16 388.07 470.38 388.07 470.38 325.34 448.75 312.99 448.75 388.07 443.97 388.07 443.97 304.75 475.16 322.56 475.16 388.07"/>
        <polygon class="cls-17" points="414.53 388.07 414.11 320.94 440.7 304.87 440.7 388.07 414.53 388.07"/>
      </g>
      <path class="cls-12" d="m319.94,233.92h165.57c3.69,0,6.69,3,6.69,6.69v148h-178.96v-148c0-3.69,3-6.69,6.69-6.69Z"/>
      <line class="cls-12" x1="313.25" y1="250.26" x2="492.2" y2="250.26"/>
      <line class="cls-10" x1="327.67" y1="242.72" x2="331.6" y2="242.72"/>
      <line class="cls-10" x1="339.26" y1="242.72" x2="343.77" y2="242.72"/>
      <line class="cls-10" x1="351.27" y1="242.72" x2="355.53" y2="242.72"/>
      <line class="cls-10" x1="372.79" y1="242.72" x2="475.16" y2="242.72"/>
    </g>
  </g>
  <g>
    <path class="cls-4" d="m112.65,432.46l-55.68,54.97c-6.33,6.25-16.53,6.29-22.66.08h0c-6.13-6.21-5.96-16.4.37-22.65l55.68-54.97"/>
    <circle class="cls-1" cx="140.95" cy="382.24" r="57.29"/>
    <circle class="cls-2" cx="140.95" cy="382.24" r="44.14"/>
    <line class="cls-3" x1="76.8" y1="423.29" x2="99.08" y2="445.86"/>
    <path class="cls-13" d="m171.99,367.81c-1.01-3.78-2.99-7.37-5.94-10.36-2.95-2.99-6.5-5.01-10.26-6.07"/>
  </g>
</svg>