<?xml version="1.0" encoding="UTF-8"?>
<svg id="Layer_6" data-name="Layer 6" xmlns="http://www.w3.org/2000/svg" viewBox="0 0 576 576">
  <defs>
    <style>
      .cls-1 {
        fill: #fff;
      }

      .cls-1, .cls-2, .cls-3, .cls-4, .cls-5, .cls-6, .cls-7 {
        stroke-miterlimit: 10;
      }

      .cls-1, .cls-3 {
        stroke-width: 5.48px;
      }

      .cls-1, .cls-3, .cls-8 {
        stroke: #010101;
      }

      .cls-2 {
        stroke-width: 1.46px;
      }

      .cls-2, .cls-7 {
        fill: #2fbaed;
        stroke: #2fbaed;
      }

      .cls-9 {
        fill: #010101;
      }

      .cls-9, .cls-10 {
        stroke-width: 0px;
      }

      .cls-3, .cls-8, .cls-11, .cls-4, .cls-5, .cls-12, .cls-6 {
        fill: none;
      }

      .cls-8 {
        stroke-width: 9.14px;
      }

      .cls-8, .cls-11, .cls-13, .cls-12 {
        stroke-linejoin: round;
      }

      .cls-8, .cls-13, .cls-12 {
        stroke-linecap: round;
      }

      .cls-11, .cls-5, .cls-12, .cls-6 {
        stroke: #231f20;
      }

      .cls-11, .cls-13 {
        stroke-width: 3.85px;
      }

      .cls-4 {
        stroke-width: 4.31px;
      }

      .cls-4, .cls-13 {
        stroke: #a6bc39;
      }

      .cls-5 {
        stroke-width: 1.47px;
      }

      .cls-13 {
        fill: #a6bc39;
      }

      .cls-12 {
        stroke-width: 7.05px;
      }

      .cls-6, .cls-7 {
        stroke-width: 1.83px;
      }
    </style>
  </defs>
  <g>
    <rect class="cls-1" x="158.51" y="47.73" width="258.98" height="480.55" rx="10.74" ry="10.74"/>
    <line class="cls-3" x1="158.51" y1="92.33" x2="417.49" y2="92.33"/>
    <line class="cls-3" x1="158.51" y1="466.2" x2="417.49" y2="466.2"/>
    <line class="cls-8" x1="308.07" y1="69.21" x2="267.93" y2="69.21"/>
    <circle class="cls-9" cx="288" cy="500.99" r="12.5"/>
  </g>
  <g>
    <rect class="cls-2" x="173.12" y="111.58" width="71.29" height="19.7"/>
    <rect class="cls-5" x="175.21" y="107.89" width="72.54" height="19.7"/>
    <rect class="cls-7" x="173.12" y="144.72" width="226.1" height="19.7"/>
    <rect class="cls-6" x="176.33" y="141.02" width="226.1" height="19.7"/>
    <g>
      <line class="cls-4" x1="258.1" y1="108.31" x2="402.43" y2="108.31"/>
      <line class="cls-4" x1="258.1" y1="117.95" x2="374.72" y2="117.95"/>
      <line class="cls-4" x1="258.1" y1="127.59" x2="341.23" y2="127.59"/>
    </g>
  </g>
  <g>
    <g>
      <polygon class="cls-13" points="294.47 309.9 296.97 267.17 274.97 329.15 289.73 322.43 286.98 365.05 308.97 303.07 294.47 309.9"/>
      <polygon class="cls-11" points="289.88 306.67 292.38 263.94 270.39 325.92 285.14 319.19 282.39 361.81 304.39 299.83 289.88 306.67"/>
    </g>
    <path class="cls-12" d="m382.82,333.04c-2.48,12.39-7.36,23.92-14.14,34.08h0l16.87,16.89-26.81,26.81-16.89-16.87h0c-10.16,6.78-21.69,11.66-34.08,14.14h0v23.85h-37.92v-23.85h0c-12.4-2.48-23.93-7.36-34.1-14.14h0l-16.87,16.87-26.81-26.81,16.86-16.87h0c-6.77-10.16-11.64-21.71-14.12-34.1h-23.85v-37.92h23.85c2.48-12.39,7.36-23.93,14.14-34.1h0l-16.87-16.87,26.81-26.81,16.87,16.87h0c10.16-6.78,21.69-11.66,34.1-14.14h0v-23.85h37.92v23.85h0c12.39,2.48,23.92,7.36,34.08,14.14h0l16.89-16.87,26.81,26.81-16.87,16.87h0c6.77,10.16,11.64,21.71,14.14,34.1h23.85v37.92h-23.85"/>
    <g>
      <path class="cls-10" d="m288.69,240.22c-16.98,0-33.37,5.83-46.49,16.46l-5.39-10.51c-.26,7.96-3.25,18.41-6.45,26.1,7.44-3.74,17.65-7.46,25.57-8.28l-10.51-4.48c12.27-9.73,27.51-15.05,43.27-15.05,38.4,0,69.63,31.24,69.63,69.64,0,1.17.95,2.11,2.11,2.11s2.11-.95,2.11-2.11c0-40.73-33.14-73.86-73.86-73.86Z"/>
      <path class="cls-10" d="m347.29,355.9c-7.44,3.74-17.65,7.46-25.57,8.28l10.52,4.48c-12.27,9.73-27.51,15.05-43.27,15.05-38.4,0-69.63-31.24-69.63-69.64,0-1.17-.95-2.11-2.11-2.11s-2.11.95-2.11,2.11c0,40.73,33.14,73.86,73.86,73.86,16.98,0,33.37-5.83,46.49-16.46l5.39,10.51c.26-7.96,3.25-18.41,6.45-26.1Z"/>
    </g>
  </g>
</svg>