<?xml version="1.0" encoding="UTF-8"?>
<svg id="Layer_8" data-name="Layer 8" xmlns="http://www.w3.org/2000/svg" viewBox="0 0 576 576">
  <defs>
    <style>
      .cls-1 {
        stroke-width: 3.08px;
      }

      .cls-1, .cls-2, .cls-3, .cls-4, .cls-5, .cls-6, .cls-7, .cls-8 {
        fill: none;
      }

      .cls-1, .cls-2, .cls-3, .cls-5, .cls-6, .cls-7, .cls-9, .cls-8 {
        stroke: #231f20;
      }

      .cls-1, .cls-2, .cls-4, .cls-5, .cls-6, .cls-7, .cls-9 {
        stroke-miterlimit: 10;
      }

      .cls-2 {
        stroke-width: 4.95px;
      }

      .cls-3 {
        stroke-width: 4.5px;
      }

      .cls-3, .cls-10 {
        stroke-linecap: round;
      }

      .cls-3, .cls-10, .cls-8 {
        stroke-linejoin: round;
      }

      .cls-11, .cls-12, .cls-13, .cls-14, .cls-15 {
        stroke-width: 0px;
      }

      .cls-4 {
        stroke: #f1f2f2;
        stroke-width: 5.71px;
      }

      .cls-5 {
        stroke-width: 6.16px;
      }

      .cls-12, .cls-10 {
        fill: #a6bc39;
      }

      .cls-13, .cls-9 {
        fill: #fff;
      }

      .cls-10 {
        stroke: #a6bc39;
      }

      .cls-10, .cls-8 {
        stroke-width: 2.46px;
      }

      .cls-6, .cls-9 {
        stroke-width: 3.82px;
      }

      .cls-14 {
        fill: #231f20;
      }

      .cls-7 {
        stroke-width: 2.85px;
      }

      .cls-15 {
        fill: #2fbaed;
      }
    </style>
  </defs>
  <g>
    <path class="cls-9" d="m44.16,72.35h237.76c5.31,0,9.61,4.31,9.61,9.61v212.54H34.54V81.96c0-5.31,4.31-9.61,9.61-9.61Z"/>
    <g>
      <polygon class="cls-12" points="217.92 293.71 211.06 293.71 211.06 139.51 179.99 121.77 179.99 293.71 173.13 293.71 173.13 109.93 217.92 135.52 217.92 293.71"/>
      <polygon class="cls-14" points="131.77 293.71 131.77 133.9 168.54 112.24 168.54 293.71 131.77 293.71"/>
      <polygon class="cls-13" points="153.12 293.71 153.12 181.39 120.05 162.5 120.05 293.71 153.12 293.71"/>
      <polygon class="cls-15" points="158.98 293.71 152.12 293.71 152.12 181.53 121.05 163.78 121.05 293.71 114.19 293.71 114.19 151.95 158.98 177.53 158.98 293.71"/>
      <polygon class="cls-14" points="72.83 293.71 72.83 175.92 109.59 154.26 109.59 293.71 72.83 293.71"/>
      <polygon class="cls-13" points="262.13 293.71 262.13 204.42 227.19 184.46 227.19 293.71 262.13 293.71"/>
      <polygon class="cls-12" points="267.06 293.71 260.2 293.71 260.2 203.63 229.13 185.88 229.13 293.71 222.27 293.71 222.27 174.05 267.06 199.64 267.06 293.71"/>
      <polygon class="cls-14" points="179.99 293.71 179.39 197.3 217.57 174.23 217.57 293.71 179.99 293.71"/>
    </g>
    <line class="cls-1" x1="34.54" y1="95.81" x2="291.53" y2="95.81"/>
    <line class="cls-5" x1="55.25" y1="84.98" x2="60.9" y2="84.98"/>
    <line class="cls-5" x1="71.9" y1="84.98" x2="78.38" y2="84.98"/>
    <line class="cls-5" x1="89.14" y1="84.98" x2="95.26" y2="84.98"/>
    <line class="cls-5" x1="120.05" y1="84.98" x2="267.06" y2="84.98"/>
  </g>
  <g>
    <g>
      <g>
        <path class="cls-13" d="m328.32,294.69h209.31c8.07,0,14.62,6.55,14.62,14.62v182.92c0,6.91-5.61,12.53-12.53,12.53h-213.51c-6.91,0-12.53-5.61-12.53-12.53v-182.92c0-8.07,6.55-14.62,14.62-14.62Z" transform="translate(-1.16 1.26) rotate(-.17)"/>
        <path class="cls-14" d="m327.56,294.69h209.58c7.99,0,14.48,6.49,14.48,14.48v15.06h-238.55v-15.06c0-7.99,6.49-14.48,14.48-14.48Z" transform="translate(-.9 1.26) rotate(-.17)"/>
        <path class="cls-6" d="m328.12,294.69h209.31c8.07,0,14.62,6.55,14.62,14.62v182.92c0,6.91-5.61,12.53-12.53,12.53h-213.51c-6.91,0-12.53-5.61-12.53-12.53v-182.92c0-8.07,6.55-14.62,14.62-14.62Z" transform="translate(-1.16 1.26) rotate(-.17)"/>
        <line class="cls-7" x1="313.48" y1="325.14" x2="552.04" y2="324.45"/>
        <line class="cls-4" x1="391.04" y1="311.15" x2="530.56" y2="310.75"/>
      </g>
      <line class="cls-4" x1="330.85" y1="311.33" x2="336.87" y2="311.31"/>
      <line class="cls-4" x1="344.07" y1="311.29" x2="350.09" y2="311.27"/>
      <line class="cls-4" x1="357.3" y1="311.25" x2="363.32" y2="311.23"/>
    </g>
    <g>
      <g>
        <polygon class="cls-10" points="433.75 411.74 435.34 384.46 421.3 424.03 430.72 419.74 428.96 446.95 443.01 407.38 433.75 411.74"/>
        <polygon class="cls-8" points="430.82 409.68 432.41 382.39 418.37 421.97 427.79 417.67 426.03 444.88 440.08 405.31 430.82 409.68"/>
      </g>
      <path class="cls-3" d="m490.16,426.51c-1.58,7.91-4.7,15.27-9.03,21.76h0l10.77,10.78-17.12,17.12-10.78-10.77h0c-6.49,4.33-13.85,7.44-21.76,9.03h0v15.23h-24.21v-15.23h0c-7.92-1.58-15.28-4.7-21.77-9.03h0l-10.77,10.77-17.12-17.12,10.76-10.77h0c-4.32-6.49-7.43-13.86-9.02-21.77h-15.23v-24.21h15.23c1.58-7.91,4.7-15.28,9.03-21.77h0l-10.77-10.77,17.12-17.12,10.77,10.77h0c6.49-4.33,13.85-7.44,21.77-9.03h0v-15.23h24.21v15.23h0c7.91,1.58,15.27,4.7,21.76,9.03h0l10.78-10.77,17.12,17.12-10.77,10.77h0c4.32,6.49,7.43,13.86,9.03,21.77h15.23v24.21h-15.23"/>
      <g>
        <path class="cls-11" d="m430.05,367.25c-10.84,0-21.31,3.72-29.68,10.51l-3.44-6.71c-.17,5.08-2.07,11.76-4.12,16.66,4.75-2.39,11.27-4.76,16.33-5.29l-6.71-2.86c7.83-6.21,17.56-9.61,27.63-9.61,24.51,0,44.46,19.94,44.46,44.46,0,.75.6,1.35,1.35,1.35s1.35-.6,1.35-1.35c0-26-21.16-47.16-47.16-47.16Z"/>
        <path class="cls-11" d="m467.47,441.11c-4.75,2.39-11.27,4.76-16.33,5.29l6.71,2.86c-7.83,6.21-17.56,9.61-27.63,9.61-24.51,0-44.46-19.94-44.46-44.46,0-.75-.6-1.35-1.35-1.35s-1.35.6-1.35,1.35c0,26,21.16,47.16,47.16,47.16,10.84,0,21.31-3.72,29.68-10.51l3.44,6.71c.17-5.08,2.07-11.76,4.12-16.66Z"/>
      </g>
    </g>
  </g>
  <g>
    <polyline class="cls-2" points="432.14 269.05 431.88 181.8 340.79 182.06"/>
    <polygon class="cls-14" points="452.33 252.59 448.7 249.22 432.14 267.15 415.47 249.32 411.85 252.71 432.16 274.41 452.33 252.59"/>
  </g>
  <g>
    <polyline class="cls-2" points="151.34 328.07 151.34 415.32 242.44 415.32"/>
    <polygon class="cls-14" points="131.1 344.47 134.72 347.85 151.33 329.97 167.95 347.85 171.58 344.47 151.33 322.7 131.1 344.47"/>
  </g>
</svg>