<?xml version="1.0" encoding="UTF-8"?>
<svg id="logo" xmlns="http://www.w3.org/2000/svg" viewBox="0 0 720 360">
  <defs>
    <style>
      .cls-1 {
        fill: #2050a0;
        stroke-width: 0px;
      }
    </style>
  </defs>
  <g>
    <path class="cls-1" d="m299.29,181.9c-.16-3.16-.41-6.19-.76-9.08,4.1,1.25,7.25,2.07,9.43,2.46,2.19.39,4.36.59,6.5.59,2.03,0,3.98-.25,5.86-.76,1.64-.47,3.07-1.07,4.28-1.82,1.02-.62,1.85-1.33,2.52-2.11.86-1.05,1.6-2.33,2.23-3.81.66-1.48,1.11-3.21,1.35-5.16.35-2.82.72-8.46,1.11-16.95l.64-20.82.41-21.81,5.63.06,5.87-.06c-.83,12.2-1.44,22.93-1.83,32.19l-.89,22.22c-.2,5.51-.64,9.72-1.35,12.64-.7,2.91-2.06,5.4-4.07,7.47-2.01,2.07-4.69,3.71-8.02,4.93s-7.13,1.82-11.39,1.82c-5.11,0-10.95-.67-17.51-1.99Z"/>
    <path class="cls-1" d="m401.95,101.33c5.78,0,11.27.84,16.46,2.52,5.19,1.68,9.78,4.45,13.74,8.32,3.96,3.87,6.79,8.2,8.47,13.01,1.68,4.8,2.52,10.02,2.52,15.64,0,6.02-.94,11.8-2.81,17.34s-4.77,10.25-8.67,14.12c-3.91,3.87-8.71,6.77-14.41,8.7-5.7,1.93-11.7,2.9-17.99,2.9s-11.71-.88-17.2-2.64c-5.49-1.76-10.17-4.46-14.03-8.12s-6.66-7.95-8.38-12.89c-1.72-4.94-2.58-10.19-2.58-15.73,0-6.09,1.03-11.94,3.11-17.55,2.07-5.61,5.13-10.34,9.17-14.21s8.93-6.74,14.65-8.61c5.72-1.88,11.71-2.81,17.96-2.81Zm-.64,7.85c-4.69,0-9.12.75-13.3,2.25-4.18,1.5-7.82,3.91-10.93,7.23-3.11,3.32-5.41,7.22-6.91,11.71-1.5,4.49-2.26,9.17-2.26,14.05,0,4.53.74,8.87,2.23,13.03,1.48,4.16,3.67,7.62,6.56,10.39,2.89,2.77,6.37,4.83,10.43,6.18,4.06,1.35,8.3,2.02,12.71,2.02s8.86-.72,12.98-2.17c4.12-1.45,7.68-3.74,10.66-6.88s5.21-6.94,6.65-11.39c1.44-4.45,2.17-9.11,2.17-13.99,0-4.61-.65-9-1.96-13.2-1.31-4.19-3.4-7.78-6.27-10.74s-6.28-5.12-10.22-6.47c-3.95-1.35-8.12-2.02-12.54-2.02Z"/>
    <path class="cls-1" d="m458.77,102.62l5.81.06,5.69-.06-2.64,44.71-.18,5.45v1.11c0,5.43.8,9.64,2.4,12.63s4.15,5.3,7.65,6.94c3.5,1.64,7.92,2.46,13.27,2.46,3.59,0,6.92-.47,9.96-1.41,2.54-.82,4.7-1.91,6.47-3.28s3.25-3.05,4.42-5.04c1.09-1.91,1.88-4.08,2.34-6.5.55-3.05,1.03-8.36,1.46-15.94l1.05-18.87c.31-6.95.52-14.38.64-22.27l6.04.06,5.46-.06-1.71,27.6-1.06,22.85c-.35,5.31-.92,9.43-1.7,12.36-.59,2.07-1.44,4.02-2.58,5.86-1.02,1.64-2.27,3.11-3.75,4.39-1.76,1.56-3.89,2.95-6.39,4.16-2.66,1.25-5.47,2.19-8.44,2.81-4.26.82-8.67,1.23-13.24,1.23s-8.61-.45-12.48-1.35c-3.36-.78-6.44-1.97-9.26-3.57-2.81-1.6-5.06-3.42-6.74-5.45-1.41-1.64-2.52-3.71-3.34-6.21-.94-2.81-1.41-5.92-1.41-9.32,0-3.63.14-7.79.44-12.48s.66-11.76,1.11-21.21c.44-9.45.67-16.68.67-21.68Z"/>
    <path class="cls-1" d="m542.75,182.6c.9-10.08,1.66-22.39,2.31-36.94.64-14.55,1.04-28.9,1.2-43.04,2.7.04,4.75.06,6.16.06l5.46-.06-1.87,37.12-1.4,35.01,11.13.06c8.28,0,14.11-.03,17.49-.09s6.65-.19,9.81-.38c-.23,2.48-.43,5.23-.59,8.26-8.87-.08-16.7-.12-23.5-.12l-26.19.12Z"/>
    <path class="cls-1" d="m602.05,182.6l1.47-22.03,1.65-41.19.18-8.96c.04-2.27.06-4.86.06-7.79,8.82.04,17.86.06,27.12.06l18.68-.06h5.97c-.27,2.71-.45,5.45-.53,8.2l-5.21-.29c-1.29-.08-3.51-.14-6.65-.18-3.14-.04-6.26-.06-9.35-.06-9.22,0-15.64.06-19.28.18l-1.06,27.42c6.02.12,11.41.18,16.17.18,5.2,0,12.01-.08,20.45-.23-.27,2.73-.45,5.43-.53,8.09l-20.16-.18c-3.95,0-9.44.08-16.47.23l-1.06,28.95,6.1.06c11.06,0,18.4-.04,22.01-.12s7.85-.25,12.69-.53c-.27,2.89-.45,5.64-.53,8.26-9.41-.08-17.36-.12-23.85-.12l-27.89.12Z"/>
    <path class="cls-1" d="m298.53,297.6l1.25-10.84,3.67-43.65,1.78-25.49c2.96.04,5.53.06,7.71.06,2.03,0,4.48-.02,7.36-.06l1.35,5.1c.39,1.37.88,2.97,1.46,4.8s1.6,4.9,3.05,9.2l7.2,20.8,8.96,27.89,11.65-27.89,13.29-30.47c.47-1.09.93-2.26,1.38-3.49.45-1.23,1.16-3.21,2.14-5.95,2.54.04,5.17.06,7.91.06,2.19,0,4.69-.02,7.5-.06l-.74,27.95-.31,18.34c-.04,1.72-.06,3.44-.06,5.16l.06,13.42v7.56c0,.86.04,3.38.12,7.56-2.58-.08-4.3-.12-5.16-.12-1.21,0-2.99.04-5.33.12l.35-7.44.88-42.19c.12-4.73.18-9.98.18-15.76l-.06-4.8-25.7,61.7-3.4,8.5c-2.54-.08-4.33-.12-5.34-.12-1.21,0-3.09.04-5.64.12l-6.96-22.09-7.19-21.74-7.13-20.98c-.31-.94-.84-2.62-1.58-5.04l-.72,6.86-3.58,50.39c-.08,1.68-.15,3.36-.21,5.04s-.13,4.2-.21,7.56l-4.91-.12c-.78,0-2.46.04-5.03.12Z"/>
    <path class="cls-1" d="m458.26,262.09c1.97.08,3.5.12,4.6.12s2.63-.04,4.48-.12c-.04,4.06-.56,7.98-1.55,11.77s-2.45,7.32-4.37,10.6c2.26,2.27,4.6,4.51,7,6.74s4.66,4.36,6.77,6.39c-2.77-.08-4.86-.12-6.27-.12-1.76,0-3.75.04-5.98.12l-8.5-7.97c-1.37,1.17-2.55,2.13-3.54,2.87s-2.24,1.52-3.72,2.34c-1.49.82-3.13,1.52-4.92,2.11-1.8.59-3.85,1.05-6.15,1.41-2.31.35-4.67.53-7.09.53-5.51,0-10.43-.9-14.77-2.7-4.34-1.8-7.65-4.41-9.93-7.85s-3.43-7.25-3.43-11.43c0-2.07.3-4.13.91-6.18.61-2.05,1.68-4.1,3.22-6.15,1.54-2.05,3.54-3.99,5.98-5.83,2.44-1.84,5.81-3.96,10.11-6.39-2.81-4.06-4.73-7.45-5.74-10.17-1.02-2.71-1.52-5.28-1.52-7.71s.54-4.69,1.61-7.03c1.07-2.34,2.67-4.4,4.78-6.18s4.54-3.05,7.29-3.81,5.63-1.14,8.64-1.14c2.03,0,4.17.19,6.42.56,2.25.37,4.91,1.04,8,2.02,0,3.88.04,6.67.12,8.38-2.38-1.37-4.51-2.31-6.39-2.84s-3.77-.79-5.68-.79c-2.81,0-5.35.52-7.62,1.55-2.27,1.04-4,2.55-5.21,4.54-1.21,1.99-1.82,4.08-1.82,6.27,0,1.45.22,2.93.67,4.46.45,1.53,1.32,3.38,2.61,5.57,1.84,3.17,4.49,6.84,7.97,11.02,2.93,3.52,6.17,7.06,9.73,10.62,1.37,1.41,4.75,4.71,10.14,9.91.65-1.4,1.1-2.49,1.35-3.25.25-.76.52-1.86.81-3.28.29-1.42.51-2.85.66-4.27.15-1.42.27-2.99.34-4.71Zm-9.14,21.56c-4.88-4.65-9.1-8.86-12.66-12.63-3.55-3.77-7.19-7.88-10.9-12.33-3.29,1.99-5.84,3.67-7.65,5.03-1.8,1.37-3.28,2.83-4.44,4.39-1.16,1.56-1.93,3.03-2.32,4.42s-.59,2.78-.59,4.18c0,2.85.82,5.42,2.46,7.72,1.64,2.3,3.97,4.07,6.98,5.29s6.44,1.84,10.27,1.84c2.23,0,4.39-.22,6.48-.67,2.09-.45,3.91-1.04,5.46-1.78,1.54-.74,2.78-1.5,3.7-2.3.92-.79,1.99-1.85,3.2-3.17Z"/>
    <path class="cls-1" d="m507.99,297.6l-3.17-10.2-25-69.79c2.68.04,4.73.06,6.13.06l5.49-.06,1.82,6.33c.43,1.37.88,2.73,1.35,4.1l20.86,60.94,29.86-60.7c.66-1.37,1.32-2.76,1.96-4.19.64-1.43,1.59-3.58,2.84-6.47,2.81.04,4.84.06,6.09.06l5.8-.06c-3.67,6.64-8.35,15.59-14.05,26.84l-15.17,29.77c-4.41,8.59-8.22,16.39-11.42,23.38-2.77-.08-4.95-.12-6.55-.12s-3.88.04-6.85.12Z"/>
  </g>
  <g>
    <path class="cls-1" d="m218.95,185.54c1.05,1.47,2.54,2.6,4.47,3.39,1.92.79,4.12,1.18,6.57,1.18,1.43,0,2.81-.14,4.15-.43,1.34-.28,2.5-.66,3.49-1.13.99-.47,1.77-.96,2.36-1.47.59-.51,1.27-1.19,2.05-2.03-3.12-2.97-5.82-5.67-8.09-8.08-2.27-2.41-4.6-5.04-6.97-7.89-2.11,1.27-3.74,2.35-4.89,3.22-1.16.87-2.1,1.81-2.84,2.81-.74,1-1.24,1.94-1.49,2.82-.25.89-.37,1.78-.37,2.67,0,1.82.52,3.47,1.58,4.94Z"/>
    <path class="cls-1" d="m62.87,43.45l-.06,87.13h62.43s.92,94.24.92,107.08c0,19.8-13.53,32.79-13.53,32.79,12.38,1.83,33.71-11.47,36.23-30.73V106.74h-63.52v-40.13h104.1v171.29c.46,75.82-105.48,79.8-126.63,5.81,2.81,71.92,63.35,72.84,63.35,72.84h152.03V43.45H62.87Zm142.06,73.77l.8-6.93,2.35-27.92,1.14-16.3c1.89.02,3.54.04,4.93.04,1.3,0,2.86-.01,4.71-.04l.86,3.26c.25.87.56,1.9.93,3.07.37,1.17,1.02,3.14,1.95,5.88l4.61,13.3,5.73,17.84,7.45-17.84,8.5-19.49c.3-.7.59-1.44.88-2.23.29-.79.74-2.05,1.37-3.8,1.62.02,3.31.04,5.06.04,1.4,0,3-.01,4.8-.04l-.47,17.88-.2,11.73c-.02,1.1-.04,2.2-.04,3.3l.04,8.58v4.83c0,.55.03,2.16.08,4.83-1.65-.05-2.75-.07-3.3-.07-.77,0-1.91.02-3.41.07l.22-4.76.56-26.98c.07-3.02.11-6.38.11-10.08l-.04-3.07-16.44,39.46-2.17,5.43c-1.63-.05-2.77-.07-3.42-.07-.78,0-1.98.02-3.61.07l-4.45-14.13-4.6-13.9-4.56-13.42c-.2-.6-.54-1.67-1.01-3.22l-.46,4.38-2.29,32.23c-.05,1.07-.09,2.15-.13,3.22-.04,1.07-.08,2.69-.13,4.83l-3.14-.07c-.5,0-1.57.02-3.21.07Zm15.51,41.32c-.65-1.74-.97-3.38-.97-4.93s.34-3,1.03-4.5c.69-1.5,1.71-2.82,3.05-3.95,1.35-1.14,2.9-1.95,4.67-2.44,1.76-.49,3.6-.73,5.53-.73,1.3,0,2.67.12,4.1.36s3.14.67,5.12,1.29c0,2.48.02,4.27.07,5.36-1.52-.87-2.89-1.48-4.08-1.82-1.2-.34-2.41-.51-3.64-.51-1.8,0-3.42.33-4.87.99-1.45.66-2.56,1.63-3.34,2.91-.77,1.28-1.16,2.61-1.16,4.01,0,.93.14,1.88.43,2.85.29.97.84,2.16,1.67,3.56,1.17,2.03,2.87,4.38,5.1,7.05,1.87,2.25,3.95,4.51,6.22,6.79.87.9,3.04,3.01,6.48,6.34.42-.9.71-1.59.86-2.08.16-.49.33-1.19.52-2.1.18-.91.32-1.82.42-2.73.1-.91.17-1.91.22-3.01,1.26.05,2.24.07,2.94.07s1.68-.02,2.87-.07c-.03,2.6-.36,5.11-.99,7.53s-1.57,4.68-2.79,6.78c1.45,1.45,2.94,2.89,4.48,4.31,1.54,1.43,2.98,2.79,4.33,4.09-1.77-.05-3.11-.07-4.01-.07-1.12,0-2.4.02-3.82.07l-5.43-5.1c-.87.75-1.63,1.36-2.27,1.84-.64.47-1.43.97-2.38,1.5-.95.52-2,.97-3.15,1.35-1.15.37-2.46.67-3.93.9-1.47.22-2.99.34-4.53.34-3.52,0-6.67-.57-9.44-1.72-2.77-1.15-4.89-2.82-6.35-5.02-1.46-2.2-2.19-4.63-2.19-7.31,0-1.32.19-2.64.58-3.95s1.07-2.62,2.06-3.93c.99-1.31,2.26-2.55,3.82-3.73,1.56-1.17,3.72-2.54,6.46-4.08-1.8-2.6-3.02-4.77-3.67-6.5Zm32.59,78.19l-9.7,19.04c-2.82,5.5-5.26,10.48-7.3,14.95-1.77-.05-3.17-.07-4.19-.07s-2.48.02-4.38.07l-2.03-6.52-15.99-44.63c1.72.02,3.02.04,3.92.04l3.51-.04,1.16,4.05c.27.87.56,1.75.86,2.62l13.34,38.97,19.1-38.82c.42-.87.84-1.77,1.25-2.68.41-.91,1.02-2.29,1.82-4.14,1.8.02,3.1.04,3.9.04l3.71-.04c-2.35,4.25-5.34,9.97-8.99,17.16Z"/>
  </g>
</svg>