<?xml version="1.0" encoding="UTF-8"?>
<svg id="logo" xmlns="http://www.w3.org/2000/svg" viewBox="0 0 720 333.1656">
  <defs>
    <style>
      .cls-1 {
        fill: #2050a0;
      }
    </style>
  </defs>
  <g>
    <path class="cls-1" d="M286.5458,168.88c-.1879-3.8286-.4963-7.4917-.9217-10.9894,4.963,1.5125,8.7667,2.5051,11.4148,2.9778,2.6469.4727,5.2702.709,7.8698.709,2.4567,0,4.8212-.3072,7.0899-.9241,1.9852-.5672,3.7104-1.2998,5.1756-2.2002,1.2289-.7563,2.244-1.6071,3.0487-2.5547,1.0387-1.2762,1.9379-2.8147,2.6942-4.6132.8035-1.7961,1.3471-3.8782,1.6307-6.2439.4254-3.4079.8721-10.2426,1.3412-20.5064l.774-25.1882.4916-26.3934,6.8134.0709,7.0994-.0709c-1.002,14.7565-1.7429,27.7405-2.2203,38.9497l-1.0729,26.8921c-.2375,6.6693-.7799,11.7669-1.6295,15.2906-.8508,3.5237-2.4921,6.5393-4.924,9.0444-2.433,2.5075-5.6696,4.495-9.7085,5.9603s-8.632,2.2002-13.7805,2.2002c-6.1883,0-13.2511-.8059-21.1859-2.4106Z"/>
    <path class="cls-1" d="M410.7614,71.3935c6.9942,0,13.6363,1.0162,19.9227,3.0487,6.2852,2.0324,11.8284,5.3883,16.6259,10.0677,4.7963,4.6794,8.2125,9.9259,10.2449,15.7396,2.0313,5.8137,3.0487,12.1238,3.0487,18.9301,0,7.279-1.1344,14.2744-3.4032,20.9862s-5.7677,12.4074-10.4931,17.0867c-4.7266,4.6794-10.5404,8.1889-17.4412,10.5285-6.902,2.3397-14.1562,3.5095-21.7661,3.5095-7.2317,0-14.1692-1.0635-20.8089-3.1905-6.6409-2.127-12.301-5.4002-16.9804-9.8196s-8.0589-9.6187-10.1386-15.5978c-2.0809-5.9792-3.1196-12.3247-3.1196-19.0365,0-7.3735,1.2514-14.4516,3.7577-21.2343,2.5051-6.7827,6.2037-12.5137,11.0957-17.1931s10.8003-8.1534,17.7248-10.4222c6.9233-2.2688,14.168-3.4032,21.7306-3.4032ZM409.9815,80.894c-5.6719,0-11.0367.9099-16.0941,2.7273-5.0587,1.8197-9.4651,4.7337-13.2227,8.749-3.7577,4.0129-6.5476,8.7372-8.3661,14.1657-1.8197,5.4309-2.7296,11.0981-2.7296,17.0017,0,5.4782.8969,10.7318,2.6942,15.7609,1.7961,5.0291,4.4418,9.2216,7.9407,12.5752,3.4977,3.3512,7.7032,5.8445,12.6201,7.4728,4.9157,1.6283,10.0429,2.4437,15.3851,2.4437,5.4829,0,10.7164-.8744,15.7042-2.6209,4.9866-1.7488,9.2878-4.521,12.9037-8.3236s6.2982-8.3945,8.0471-13.7781c1.7477-5.3836,2.6233-11.0272,2.6233-16.9308,0-5.5727-.7917-10.8949-2.3751-15.9736-1.5846-5.074-4.1122-9.4083-7.5862-12.9982s-7.598-6.199-12.3719-7.8273c-4.7751-1.6283-9.8314-2.4437-15.1725-2.4437Z"/>
    <path class="cls-1" d="M479.5124,72.9533l7.0308.0709,6.8867-.0709-3.194,54.0962-.2127,6.5936v1.3471c0,6.57.969,11.6629,2.9069,15.2788s5.022,6.4164,9.2524,8.4016c4.2315,1.9852,9.5844,2.9778,16.0599,2.9778,4.3497,0,8.3673-.5672,12.0541-1.7016,3.0723-.9926,5.6826-2.316,7.8344-3.9704s3.9361-3.6868,5.3541-6.0973c1.3223-2.316,2.2688-4.9393,2.836-7.8698.6617-3.6868,1.2502-10.115,1.7666-19.2846l1.2667-22.8296c.3746-8.4134.6322-17.394.774-26.9417l7.3144.0709,6.6031-.0709-2.0667,33.3936-1.2833,27.6507c-.4254,6.4282-1.1108,11.4148-2.0561,14.9598-.709,2.5051-1.7477,4.8684-3.1184,7.0899-1.2301,1.9852-2.7414,3.7577-4.5364,5.3174-2.127,1.8906-4.703,3.5686-7.7268,5.0339-3.2141,1.5125-6.6161,2.6469-10.2071,3.4032-5.152.9926-10.4907,1.4889-16.0209,1.4889-5.3872,0-10.4198-.5436-15.098-1.6307-4.0637-.9453-7.7977-2.3869-11.1997-4.3249-3.4032-1.9379-6.1198-4.1358-8.1511-6.5936-1.7016-1.9852-3.0487-4.4903-4.0401-7.5153-1.1344-3.4032-1.7016-7.1608-1.7016-11.273,0-4.3958.1749-9.4296.527-15.1016s.7976-14.2271,1.3376-25.6655c.5377-11.4384.8083-20.1827.8083-26.2327Z"/>
    <path class="cls-1" d="M581.1324,169.7308c1.0836-12.1947,2.0124-27.0954,2.7911-44.702.7775-17.6067,1.2596-34.9652,1.4487-52.0755,3.2649.0473,5.7476.0709,7.4515.0709l6.6007-.0709-2.2652,44.9123-1.6992,42.3647,13.4697.0709c10.0181,0,17.0726-.0354,21.1599-.1063s8.0459-.2245,11.8745-.4608c-.2836,2.9967-.5211,6.3289-.709,9.9968-10.7306-.0969-20.2063-.1442-28.4306-.1442l-31.692.1442Z"/>
    <path class="cls-1" d="M652.8825,169.7308l1.7831-26.6581,1.9982-49.8422.2151-10.8476c.0461-2.7414.0709-5.8846.0709-9.4296,10.6763.0473,21.6148.0709,32.8122.0709l22.6086-.0709h7.2282c-.3309,3.285-.5436,6.5936-.6381,9.9259l-6.31-.3545c-1.5598-.0945-4.2433-.1654-8.0471-.2127-3.8049-.0473-7.5756-.0709-11.3084-.0709-11.156,0-18.9301.0709-23.3259.2127l-1.2856,33.1809c7.2802.1418,13.8041.2127,19.5718.2127,6.2888,0,14.5379-.0945,24.7498-.2836-.3309,3.3086-.5436,6.57-.6381,9.7841l-24.3988-.2127c-4.7751,0-11.4183.0945-19.9286.2836l-1.2868,35.0243,7.3771.0709c13.3834,0,22.2624-.0473,26.6369-.1418,4.3745-.0945,9.4934-.3072,15.358-.6381-.3309,3.4977-.5436,6.83-.6381,9.9968-11.3912-.0945-21.011-.1418-28.856-.1418l-33.7481.1418Z"/>
    <path class="cls-1" d="M285.6241,308.8825l1.5066-13.1164,4.4466-52.82,2.153-30.8412c3.5828.0473,6.6941.0709,9.3351.0709,2.4508,0,5.4203-.0236,8.9097-.0709l1.6295,6.1682c.4727,1.6543,1.0623,3.5922,1.7713,5.8137s1.9379,5.9319,3.6868,11.1312l8.7159,25.1693,10.8429,33.7481,14.0971-33.7481,16.08-36.8676c.5672-1.3235,1.1214-2.7296,1.665-4.2185.5424-1.4889,1.4038-3.8876,2.5855-7.1963,3.0699.0473,6.2592.0709,9.5679.0709,2.6457,0,5.6696-.0236,9.0727-.0709l-.8933,33.819-.3805,22.1915c-.0473,2.0797-.0709,4.1594-.0709,6.2391l.0709,16.2359v9.146c0,1.0399.0461,4.0885.1418,9.146-3.1208-.0945-5.2016-.1418-6.2403-.1418-1.4653,0-3.617.0473-6.453.1418l.4266-9.0042,1.0647-51.0475c.1418-5.7192.2127-12.0765.2127-19.0719l-.0709-5.8137-31.1,74.657-4.1086,10.2804c-3.0794-.0945-5.2336-.1418-6.466-.1418-1.4688,0-3.7435.0473-6.8217.1418l-8.4157-26.729-8.6982-26.3036-8.6284-25.382c-.3769-1.1344-1.0139-3.1668-1.9096-6.0973l-.8662,8.2952-4.3308,60.9734c-.0957,2.0324-.1808,4.0649-.2529,6.0973s-.1572,5.0811-.2517,9.146l-5.9414-.1418c-.943,0-2.9707.0473-6.082.1418Z"/>
    <path class="cls-1" d="M478.8956,265.9176c2.3787.0945,4.2339.1418,5.5656.1418,1.379,0,3.1869-.0473,5.4238-.1418-.0473,4.9133-.6735,9.6612-1.8788,14.2437s-2.9671,8.86-5.282,12.828c2.7403,2.7438,5.5656,5.4616,8.4725,8.1581s5.6365,5.2749,8.1889,7.7351c-3.3571-.0945-5.8846-.1418-7.5862-.1418-2.127,0-4.5376.0473-7.2317.1418l-10.2804-9.6423c-1.6555,1.418-3.0841,2.576-4.2894,3.4741s-2.706,1.8434-4.5021,2.836c-1.7973.9926-3.7825,1.8434-5.9555,2.5524-2.1742.709-4.6557,1.2762-7.4444,1.7016-2.7899.4254-5.6483.6381-8.5788.6381-6.6645,0-12.6201-1.0895-17.8666-3.2614-5.2465-2.1742-9.2524-5.3411-12.0174-9.5005s-4.1476-8.7679-4.1476-13.8254c0-2.5051.3651-4.9984,1.0989-7.4799.7326-2.4815,2.0313-4.963,3.8995-7.4444,1.867-2.4815,4.2776-4.833,7.2317-7.0545,2.953-2.2215,7.0297-4.7975,12.2301-7.728-3.4032-4.9157-5.7192-9.016-6.9481-12.301-1.2301-3.285-1.8434-6.3928-1.8434-9.3233,0-2.836.6487-5.6719,1.9497-8.5079,1.2998-2.836,3.2259-5.3293,5.7783-7.4799s5.4947-3.6868,8.827-4.6085,6.817-1.3825,10.4576-1.3825c2.4567,0,5.0445.2245,7.7635.6735,2.7178.449,5.9437,1.2644,9.6778,2.446,0,4.6935.0461,8.0731.1418,10.1386-2.8832-1.6543-5.4592-2.8005-7.728-3.4386s-4.5624-.9571-6.8772-.9571c-3.4032,0-6.4767.6263-9.2169,1.8812-2.7414,1.2526-4.846,3.0865-6.31,5.4994-1.4653,2.4129-2.1979,4.9417-2.1979,7.591,0,1.7512.2718,3.5473.8153,5.3931.5424,1.8457,1.5952,4.0909,3.155,6.7402,2.2215,3.8333,5.4344,8.2787,9.6423,13.3385,3.545,4.2587,7.4681,8.5386,11.7693,12.8446,1.6543,1.7039,5.7428,5.7003,12.2656,11.9914.7893-1.6992,1.3341-3.0109,1.6354-3.9302.3013-.9217.6263-2.2451.9749-3.968.3474-1.7229.6145-3.4457.8012-5.1709.1843-1.7229.3238-3.623.4171-5.7003ZM467.8353,292.0085c-5.9095-5.6247-11.0142-10.7176-15.3142-15.2788-4.3012-4.5612-8.697-9.536-13.1873-14.9243-3.9857,2.4058-7.071,4.4359-9.2535,6.0855-2.1825,1.652-3.9739,3.4221-5.3742,5.308-1.4003,1.8883-2.3373,3.6679-2.8112,5.3434s-.7114,3.363-.7114,5.0598c0,3.4457.9938,6.5605,2.9825,9.3422,1.9875,2.784,4.8046,4.9204,8.4488,6.4069s7.7883,2.2286,12.4275,2.2286c2.6977,0,5.3127-.2694,7.845-.8083,2.5323-.5412,4.7337-1.2573,6.6043-2.1482,1.8694-.891,3.3606-1.8174,4.4726-2.7793,1.1131-.9619,2.4035-2.2404,3.8711-3.8357Z"/>
    <path class="cls-1" d="M539.0702,308.8825l-3.8345-12.3365-30.2492-84.4411c3.2484.0473,5.7204.0709,7.4172.0709l6.6385-.0709,2.205,7.6571c.5199,1.6543,1.0659,3.3086,1.6354,4.963l25.2461,73.7353,36.1279-73.4517c.8012-1.6543,1.5929-3.3441,2.3728-5.0693.7787-1.7252,1.9237-4.3367,3.4351-7.8344,3.4032.0473,5.861.0709,7.3747.0709l7.019-.0709c-4.4407,8.0353-10.1091,18.8592-17.0064,32.4719l-18.3511,36.0168c-5.3375,10.3986-9.9436,19.8282-13.8171,28.2888-3.3524-.0945-5.9945-.1418-7.9289-.1418-1.9367,0-4.6971.0473-8.2846.1418Z"/>
  </g>
  <g>
    <path class="cls-1" d="M189.3255,173.29c1.2697,1.7816,3.072,3.1459,5.4037,4.0983,2.3276.9501,4.9804,1.4245,7.9466,1.4245,1.727,0,3.397-.1719,5.0182-.5176,1.6174-.3439,3.0268-.8032,4.2247-1.3719,1.1941-.5704,2.1462-1.1639,2.8605-1.7778.7102-.6159,1.5341-1.4339,2.475-2.4543-3.7786-3.5975-7.0436-6.8548-9.7944-9.772-2.7509-2.9172-5.5623-6.0988-8.4344-9.5451-2.5506,1.5379-4.5231,2.8377-5.9174,3.8921-1.3982,1.0561-2.5429,2.1881-3.4386,3.3952-.8954,1.2074-1.4963,2.3468-1.7988,3.4179-.3022,1.0712-.4532,2.15-.4532,3.2366,0,2.2032.6345,4.1943,1.9081,5.9742Z"/>
    <path class="cls-1" d="M.4725,1.358l-.0712,105.4332h75.5388s1.1102,114.0341,1.1102,129.5717c0,23.9536-16.3701,39.6761-16.3701,39.6761,14.9825,2.2194,40.786-13.8729,43.8379-37.179V77.9358H27.6629V29.381h125.965v207.2593c.5548,91.7452-127.6297,96.5545-153.2267,7.0288,3.4005,87.0286,76.6489,88.1385,76.6489,88.1385h183.953V1.358H.4725ZM172.3625,90.6167l.9636-8.3889,2.8419-33.782,1.379-19.7251c2.29.0301,4.2814.0455,5.9706.0455,1.5681,0,3.4649-.0154,5.6982-.0455l1.0428,3.945c.3025,1.0582.6765,2.2974,1.13,3.7184.4535,1.4206,1.2396,3.794,2.358,7.1192l5.5774,16.0974,6.934,21.5844,9.0163-21.5844,10.2819-23.5793c.3628-.8464.7179-1.7459,1.0656-2.698.3477-.9524.8992-2.4865,1.6552-4.6025,1.9613.0301,4.0017.0455,6.1177.0455,1.6927,0,3.6277-.0154,5.8043-.0455l-.5707,21.6296-.2458,14.1929c-.0301,1.3302-.0452,2.6605-.0452,3.9904l.0452,10.3841v5.8495c0,.665.0304,2.615.091,5.8495-1.9952-.0606-3.3255-.0907-3.9904-.0907-.9371,0-2.3125.0301-4.1263.0907l.2718-5.7588.6803-32.6485c.0907-3.6578.1362-7.7236.1362-12.1976l-.0455-3.7184-19.8914,47.7483-2.6262,6.575c-1.9686-.0606-3.3479-.0907-4.134-.0907-.9409,0-2.3955.0301-4.3644.0907l-5.3807-17.095-5.5662-16.8229-5.5171-16.2336c-.2416-.7255-.6499-2.0254-1.2204-3.8998l-.5557,5.3053-2.7698,38.9967c-.0603,1.2998-.1134,2.5999-.1625,3.8998-.0452,1.2998-.0981,3.2496-.1586,5.8495l-3.8014-.0907c-.6009,0-1.9007.0301-3.8885.0907ZM191.1355,140.6096c-.7858-2.101-1.179-4.0885-1.179-5.9629,0-1.8138.4156-3.6277,1.2469-5.4415.8313-1.8135,2.0632-3.4082,3.6956-4.7836,1.6325-1.3757,3.5142-2.358,5.6457-2.9476,2.1311-.5894,4.3606-.8842,6.6885-.8842,1.5719,0,3.2268.1436,4.965.4307s3.8017.8088,6.1898,1.5645c0,3.0023.0301,5.1638.0904,6.4843-1.844-1.0582-3.4915-1.7911-4.9423-2.1991-1.4511-.4083-2.9175-.6124-4.3987-.6124-2.1766,0-4.1414.4006-5.8947,1.2035-1.7536.8012-3.0986,1.9745-4.0359,3.5163-.9371,1.5435-1.4056,3.1627-1.4056,4.8554,0,1.1205.1737,2.2694.5214,3.4501.3477,1.179,1.0204,2.6168,2.018,4.3116,1.4209,2.4505,3.4764,5.2941,6.1671,8.5307,2.267,2.7225,4.7762,5.4601,7.5271,8.2131,1.0582,1.0901,3.6729,3.6463,7.8447,7.6707.5025-1.0883.854-1.9252,1.0467-2.5149.1926-.5873.4006-1.4339.6236-2.5373.2189-1.1016.3929-2.2029.5102-3.3063.117-1.1016.2077-2.3163.2682-3.6466,1.519.0606,2.7054.0907,3.5594.0907.8806,0,2.0369-.0301,3.469-.0907-.0304,3.1441-.4307,6.1801-1.2017,9.1106s-1.8969,5.6663-3.3784,8.2036c1.7536,1.7553,3.5597,3.4936,5.4188,5.2185,1.8593,1.7249,3.6049,3.3745,5.2374,4.9464-2.1462-.0606-3.7636-.0907-4.8519-.0907-1.3604,0-2.9021.0301-4.625.0907l-6.5753-6.1671c-1.0579.9069-1.9725,1.6478-2.7432,2.2221-.771.5743-1.7305,1.179-2.8794,1.8138-1.1489.6345-2.4186,1.1787-3.8091,1.6325-1.3905.4532-2.9775.8159-4.7612,1.0883-1.7837.2718-3.6126.408-5.4867.408-4.2625,0-8.0716-.6954-11.4269-2.0859-3.3556-1.3905-5.9177-3.4159-7.6861-6.0761-1.7683-2.6605-2.6528-5.6078-2.6528-8.8423,0-1.6023.2346-3.197.7031-4.7839s1.2998-3.1742,2.4939-4.7612c1.1941-1.5873,2.7358-3.0912,4.6253-4.5119,1.8892-1.4209,4.4965-3.0685,7.822-4.9429-2.1766-3.1438-3.6578-5.7662-4.4439-7.8672ZM230.5667,235.222l-11.7368,23.0352c-3.412,6.6507-6.3597,12.6815-8.8346,18.0926-2.1465-.0606-3.8354-.0907-5.0711-.0907-1.2396,0-3.0041.0301-5.298.0907l-2.4522-7.8899-19.3472-54.0061c2.0782.0301,3.6578.0455,4.7423.0455l4.2475-.0455,1.4094,4.8974c.3323,1.0582.68,2.116,1.0467,3.1739l16.1467,47.159,23.107-46.9776c.5102-1.0579,1.0165-2.1385,1.5152-3.2419.499-1.1037,1.2319-2.7736,2.1994-5.0108,2.1766.0301,3.7485.0455,4.7157.0455l4.4894-.0455c-2.8416,5.139-6.4657,12.0617-10.8792,20.7682Z"/>
  </g>
</svg>