<?xml version="1.0" encoding="UTF-8"?>
<svg xmlns="http://www.w3.org/2000/svg" version="1.1" viewBox="0 0 865.3 300.3">
  <defs>
    <style>
      .cls-1 {
        fill: #2050a0;
      }
    </style>
  </defs>
  <!-- Generator: Adobe Illustrator 28.7.1, SVG Export Plug-In . SVG Version: 1.2.0 Build 142)  -->
  <g>
    <g id="logo">
      <g>
        <path class="cls-1" d="M266.2,151.9c-.2-3.5-.4-6.8-.8-9.9,4.5,1.4,7.9,2.3,10.3,2.7,2.4.4,4.8.6,7.1.6s4.4-.3,6.4-.8c1.8-.5,3.4-1.2,4.7-2,1.1-.7,2-1.5,2.8-2.3.9-1.2,1.8-2.5,2.4-4.2.7-1.6,1.2-3.5,1.5-5.6.4-3.1.8-9.3,1.2-18.5l.7-22.8.4-23.9h6.2c0,0,6.4,0,6.4,0-.9,13.3-1.6,25.1-2,35.2l-1,24.3c-.2,6-.7,10.6-1.5,13.8-.8,3.2-2.3,5.9-4.5,8.2-2.2,2.3-5.1,4.1-8.8,5.4-3.7,1.3-7.8,2-12.5,2s-12-.7-19.2-2.2h0Z"/>
        <path class="cls-1" d="M378.5,63.7c6.3,0,12.3.9,18,2.8,5.7,1.8,10.7,4.9,15,9.1,4.3,4.2,7.4,9,9.3,14.2,1.8,5.3,2.8,11,2.8,17.1s-1,12.9-3.1,19c-2.1,6.1-5.2,11.2-9.5,15.5-4.3,4.2-9.5,7.4-15.8,9.5-6.2,2.1-12.8,3.2-19.7,3.2s-12.8-1-18.8-2.9c-6-1.9-11.1-4.9-15.4-8.9-4.2-4-7.3-8.7-9.2-14.1-1.9-5.4-2.8-11.1-2.8-17.2s1.1-13.1,3.4-19.2c2.3-6.1,5.6-11.3,10-15.5s9.8-7.4,16-9.4c6.3-2.1,12.8-3.1,19.6-3.1h0ZM377.8,72.3c-5.1,0-10,.8-14.6,2.5-4.6,1.6-8.6,4.3-12,7.9s-5.9,7.9-7.6,12.8c-1.6,4.9-2.5,10-2.5,15.4s.8,9.7,2.4,14.3c1.6,4.5,4,8.3,7.2,11.4,3.2,3,7,5.3,11.4,6.8,4.4,1.5,9.1,2.2,13.9,2.2s9.7-.8,14.2-2.4c4.5-1.6,8.4-4.1,11.7-7.5,3.3-3.4,5.7-7.6,7.3-12.5,1.6-4.9,2.4-10,2.4-15.3s-.7-9.9-2.1-14.4c-1.4-4.6-3.7-8.5-6.9-11.8-3.1-3.2-6.9-5.6-11.2-7.1-4.3-1.5-8.9-2.2-13.7-2.2h0Z"/>
        <path class="cls-1" d="M440.7,65.1h6.4c0,0,6.2,0,6.2,0l-2.9,48.9-.2,6v1.2c0,5.9.9,10.5,2.6,13.8s4.5,5.8,8.4,7.6c3.8,1.8,8.7,2.7,14.5,2.7s7.6-.5,10.9-1.5c2.8-.9,5.1-2.1,7.1-3.6,1.9-1.5,3.6-3.3,4.8-5.5,1.2-2.1,2.1-4.5,2.6-7.1.6-3.3,1.1-9.1,1.6-17.4l1.1-20.6c.3-7.6.6-15.7.7-24.4h6.6c0,0,6,0,6,0l-1.9,30.2-1.2,25c-.4,5.8-1,10.3-1.9,13.5-.6,2.3-1.6,4.4-2.8,6.4-1.1,1.8-2.5,3.4-4.1,4.8-1.9,1.7-4.3,3.2-7,4.6-2.9,1.4-6,2.4-9.2,3.1-4.7.9-9.5,1.3-14.5,1.3s-9.4-.5-13.7-1.5c-3.7-.9-7.1-2.2-10.1-3.9-3.1-1.8-5.5-3.7-7.4-6-1.5-1.8-2.8-4.1-3.7-6.8-1-3.1-1.5-6.5-1.5-10.2s.2-8.5.5-13.7.7-12.9,1.2-23.2c.5-10.3.7-18.2.7-23.7h0Z"/>
        <path class="cls-1" d="M532.6,152.6c1-11,1.8-24.5,2.5-40.4.7-15.9,1.1-31.6,1.3-47.1,3,0,5.2,0,6.7,0h6c0,0-2,40.5-2,40.5l-1.5,38.3h12.2c9.1,0,15.4,0,19.1,0s7.3-.2,10.7-.4c-.3,2.7-.5,5.7-.6,9-9.7,0-18.3-.1-25.7-.1h-28.7q0,.1,0,.1Z"/>
        <path class="cls-1" d="M597.5,152.6l1.6-24.1,1.8-45.1.2-9.8c0-2.5,0-5.3,0-8.5,9.7,0,19.5,0,29.7,0h20.4c0,0,6.5,0,6.5,0-.3,3-.5,6-.6,9l-5.7-.3c-1.4,0-3.8-.1-7.3-.2-3.4,0-6.9,0-10.2,0-10.1,0-17.1,0-21.1.2l-1.2,30c6.6.1,12.5.2,17.7.2s13.1,0,22.4-.3c-.3,3-.5,5.9-.6,8.8l-22.1-.2c-4.3,0-10.3,0-18,.3l-1.2,31.7h6.7c12.1,0,20.1,0,24.1,0,4,0,8.6-.3,13.9-.6-.3,3.2-.5,6.2-.6,9-10.3,0-19-.1-26.1-.1h-30.5c0,.1,0,.1,0,.1Z"/>
        <path class="cls-1" d="M265.2,278.5l11.7-22.1,29.7-58.1,3.5-7.3h7.4c2.3,0,4.8,0,7.5,0l11.1,31.4,20.5,56.1h-6.1c-1.2-.1-3.4,0-6.9,0-1.2-4.1-3.1-10-5.7-17.8-2.7-7.8-4.9-14.1-6.8-18.9h-35l-9.3,19.2-8.2,17.6h-6.6c-1.1-.1-3.4,0-6.9,0h0ZM299.9,233.3h28.8l-11.9-33.9-16.9,33.9Z"/>
        <path class="cls-1" d="M368.2,278.5l1.3-17.8,2.2-52.1.3-10.1c0-3.2,0-5.7,0-7.5,3.2,0,5.9,0,8,0s4.2,0,7.4,0l7,11.3,42.4,63.9,2.7-75.2h5.7c0,0,5.6,0,5.6,0l-1.4,22.4-1.7,39.6-.8,25.5c-2.5,0-5-.1-7.4-.1s-4.8,0-7.7.1l-5.9-9.4-43.4-65.1c-.2,2.4-.3,6.2-.5,11.3l-1.8,45.3-.4,17.9c-2.8,0-4.6-.1-5.6-.1s-2.7,0-5.9.1h0Z"/>
        <path class="cls-1" d="M455.7,278.5l11.7-22.1,29.7-58.1,3.5-7.3h7.4c2.3,0,4.8,0,7.5,0l11.1,31.4,20.5,56.1h-6.1c-1.2-.1-3.4,0-6.9,0-1.2-4.1-3.1-10-5.7-17.8-2.7-7.8-4.9-14.1-6.8-18.9h-35l-9.3,19.2-8.2,17.6h-6.6c-1.1-.1-3.4,0-6.9,0h0ZM490.4,233.3h28.8l-11.9-33.9-16.9,33.9h0Z"/>
        <path class="cls-1" d="M558.4,278.5c1-11,1.8-24.5,2.5-40.4.7-15.9,1.1-31.6,1.3-47.1,3,0,5.2,0,6.7,0h6c0,0-2,40.5-2,40.5l-1.5,38.3h12.2c9.1,0,15.4,0,19.1,0s7.3-.2,10.7-.4c-.3,2.7-.5,5.7-.6,9-9.7,0-18.3-.1-25.7-.1h-28.7q0,.1,0,.1Z"/>
        <path class="cls-1" d="M640.4,278.5c1.1-12.7,2-25.4,2.6-38.3l-28.2-49.2h6.8c1.4,0,3.5,0,6.5,0,2,4.3,5.1,10.1,9.4,17.6,4.2,7.5,8.2,14.8,12,22.1l22.3-34.8,2.9-4.9c2.8,0,5.1,0,6.8,0h6.4c0,0-25.6,37.8-25.6,37.8l-8,12.1-1.3,29.2v8.3c-3.2,0-5.3-.1-6.4-.1s-3.3,0-6.3.1h0Z"/>
        <path class="cls-1" d="M711,278.5l1.3-19.6,1.7-40.6.6-18.8c-10.5,0-19.6.2-27.5.6.3-3.4.4-6.4.4-9,10.9,0,22.6,0,35.1,0h20.5c0,0,10.9,0,10.9,0-.3,3.8-.4,6.8-.4,9-6.6-.4-14-.6-22-.6h-5.3l-1.3,28.4-1.3,40v10.7h-6.2c-.6-.1-2.7,0-6.5,0h0Z"/>
        <path class="cls-1" d="M761.6,278.5l1-14.7,1.3-30.7.9-30.3c0-1.8,0-3.5,0-5.3v-6.5c0,0,6.5,0,6.5,0h6.2c-.8,10.6-1.3,21.8-1.7,33.4-.7,18.6-1.2,36.6-1.5,54h-6c-.8-.1-3,0-6.8,0h0Z"/>
        <path class="cls-1" d="M782.8,278.5l14.7-18.3,20.9-27.1-17.2-26-10.9-16.1c2.9,0,5.4,0,7.5,0s4.1,0,6.8,0c3.4,5.7,7.3,11.8,11.7,18.1,4.4,6.3,7.6,11.1,9.7,14.5l20.7-25.9c.6-.9,1.3-1.7,1.9-2.6.6-.9,1.6-2.3,2.9-4.1,2.5,0,4.7,0,6.8,0h6.7c-3.4,4.4-8.3,10.7-14.7,18.7-6.4,8-12.4,15.8-18.1,23.3,3.4,5.5,7.4,11.6,11.8,18.4l18,27.1c-3.3,0-5.6-.1-6.9-.1-2,0-4.5,0-7.3.1l-3.2-5.5c-.9-1.5-1.9-3.2-3.2-5.2l-16.4-25.6-15.7,19.9c-5,6.3-9.2,11.7-12.5,16.4-3.1,0-5.3-.1-6.8-.1s-3.9,0-7,.1h0Z"/>
      </g>
      <g>
        <polygon class="cls-1" points="185.8 97.9 183.4 102.6 189.6 102.6 187.1 95.2 185.8 97.9"/>
        <polygon class="cls-1" points="185.8 32.1 183.4 36.8 189.6 36.8 187.1 29.4 185.8 32.1"/>
        <path class="cls-1" d="M1.2.8v95.3c0,0,68.2,0,68.2,0,0,0,1,103.1,1,117.2,0,21.7-14.8,35.9-14.8,35.9,13.5,2,36.9-12.5,39.6-33.6V70H25.8V26.1h113.9v187.4c.5,83-115.4,87.3-138.6,6.4,3.1,78.7,69.3,79.7,69.3,79.7h166.3V.8H1.2ZM196.5,278.2c-1.3,0-2.2,0-2.7,0-.9,0-1.9,0-3,0-.6-1-1.4-2.3-2.4-3.8-1-1.5-1.8-2.7-2.4-3.7-.6.8-1.5,2-2.7,3.5-1.2,1.5-2.2,2.8-3.1,4-1.2,0-2.1,0-2.7,0s-1.6,0-2.8,0l1.2-1.5c.4-.5,1-1.3,1.9-2.4l4.4-5.6,1.4-1.9-2-3.2-4.8-7.4c1,0,2.1,0,3,0s1.7,0,2.7,0c.6,1.3,1.2,2.6,2,3.9.7,1.4,1.3,2.5,1.7,3.3.7-.9,1.6-2.1,2.8-3.6,1.2-1.5,2.2-2.7,2.9-3.7.9,0,1.8,0,2.7,0s1.5,0,2.7,0c-.9,1.1-2.1,2.7-3.6,4.6s-3.1,3.9-4.5,5.8c1.5,2.5,3.9,6.3,7.3,11.5h0ZM187.3,143.2c2.6,0,4.3,0,5.1,0s1.6,0,2.4,0c0,1-.2,2.2-.3,3.5-2.8,0-5.2,0-7.2,0h-5.1s-3,0-3,0c.3-3.2.6-6.8.8-10.8.2-4,.3-7.7.3-11.2,1.1,0,2,0,2.7,0s1.3,0,2.4,0c-.1,1.9-.3,4.1-.4,6.6l-.3,6.4c0,1.8-.2,3.7-.2,5.5h2.8s0,0,0,0ZM179.3,157.6c.6,0,1.5,0,2.6,0,.5,1.1,1.2,2.5,2.1,4.2.9,1.7,1.7,3.3,2.4,4.7l4.8-7.7c.2-.3.4-.7.7-1.2,1,0,2,0,2.8,0s1.3,0,2.6,0l-8.8,13-.2,4.1c0,1.2-.1,2.8-.1,4.8-1.1,0-2,0-2.5,0s-1.4,0-2.5,0c.1-1.2.3-2.7.4-4.7s.2-3.4.2-4.6l-7.2-12.7c1.2,0,2.1,0,2.8,0h0ZM184.3,223.3h2.7c.2,0,1,0,2.5,0-.4,5.6-.7,12.9-.8,21.9h-2.4c-.4,0-1.3,0-2.8,0,.3-3.7.5-7.5.6-11.3.2-3.9.2-6.8.2-8.9v-1.7s0,0,0,0ZM189.2,193.8l-.2,2.9-.5,11.3v1.9c0,.8,0,1.6,0,2.4h-2.4c-.3,0-1.1,0-2.6,0l.4-4.7.4-7,.2-6.9h-2.2s-1,0-1,0h-3.7c0-1.4.1-2.6.1-3.4,3.1,0,6.3,0,9.7,0h5.8s3.1,0,3.1,0c-.1,1.5-.2,2.7-.2,3.5-1.9,0-3.8-.1-5.6-.1h-1.2,0ZM195.9,113.7c-.6,0-1.5,0-2.8,0-.3-1-.7-2.2-1.2-3.9-.6-1.6-1-2.9-1.4-3.9h-8.5c-1.3,2.5-2.5,5.1-3.7,7.8h-2.6c-.5,0-1.4,0-2.8,0,1.1-2,2.4-4.4,3.9-7.3l4.2-8.1c1.3-2.5,2.4-4.7,3.3-6.5,1.4,0,2.4,0,3,0,1,0,2,0,3,0l2.3,6.6,5,13.6.7,1.8h-2.4s0,0,0,0ZM175.3,80.8c.2-1.9.4-4.1.5-6.5l.4-7.9c.1-2.8.2-5.4.2-7.6,1.2,0,2.3,0,3.2,0s1.6,0,2.8,0c1.2,2.1,2.9,4.9,5,8.3,2.1,3.4,3.9,6.2,5.2,8.4l.6-14.9c0-.4,0-.9,0-1.8,1,0,1.8,0,2.3,0s1,0,2.3,0l-.4,5.9-.5,10.1-.2,5.9c-1.1,0-2.1,0-2.8,0s-1.6,0-3,0c-.5-1-.9-1.7-1.2-2.1-.4-.7-1.4-2.2-2.8-4.4-.9-1.5-2.1-3.3-3.5-5.6-1-1.7-1.9-3.1-2.7-4.4,0,1.7-.2,5-.4,9.7,0,1.9-.1,4.2-.2,6.8-1,0-1.7,0-2.2,0s-1.1,0-2.4,0h0ZM195.9,47.9c-.6,0-1.5,0-2.8,0-.3-1-.7-2.2-1.2-3.9-.6-1.6-1-2.9-1.4-3.9h-8.5c-1.3,2.5-2.5,5.1-3.7,7.8h-2.6c-.5,0-1.4,0-2.8,0,1.1-2,2.4-4.4,3.9-7.3l4.2-8.1c1.3-2.5,2.4-4.7,3.3-6.5,1.4,0,2.4,0,3,0,1,0,2,0,3,0l2.3,6.6,5,13.6.7,1.8h-2.4s0,0,0,0Z"/>
      </g>
    </g>
  </g>
</svg>