<?xml version="1.0" encoding="UTF-8"?>
<svg id="logo" xmlns="http://www.w3.org/2000/svg" viewBox="0 0 1080 241.828">
  <defs>
    <style>
      .cls-1 {
        fill: #fac539;
      }
    </style>
  </defs>
  <g>
    <path class="cls-1" d="M141.5129,112.1156C109.0862,84.4927,69.4533,56.2693,110.8876,1.6242c0,0-68.5567,38.0312-59.4868,75.2872,9.9082,38.1317,66.7192,70.033,71.797,97.656,5.4045,25.8214-2.1018,36.3298-34.5286,65.1539,0,0,96.68-21.6179,96.0795-73.2607,0,0,4.5038-20.1169-43.2358-54.345Z"/>
    <path class="cls-1" d="M70.4291,144.167c-24.7885-23.1528-51.4176-48.5652-36.7054-78.8151-16.9226,10.9701-18.6601,35.062-15.7349,53.1748,9.6549,52.4375,63.2492,50.411,64.8819,100.5524,0,0,38.6757-24.6955-12.4416-74.9122Z"/>
    <path class="cls-1" d="M38.6778,190.1802c-28.7035-20.8225-23.2692-35.4296-23.6445-47.9274-31.1508,34.5664-1.5763,56.3344,7.8815,62.3394,11.6347,7.731,33.1024,15.6128,49.1407,33.0522.2503-13.8366-.3503-25.246-33.3776-47.4643Z"/>
  </g>
  <g>
    <polygon class="cls-1" points="302.6723 178.6836 275.4618 78.5097 258.1145 78.5097 229.5424 179.0232 203.6901 78.5097 187.1939 78.5097 220.3575 197.2197 237.5354 197.0499 266.1073 101.6408 293.6586 197.0499 311.0059 197.0499 345.3616 78.5097 328.6942 78.5097 302.6723 178.6836"/>
    <path class="cls-1" d="M426.1436,108.1043c-6.8026-3.8551-14.626-5.7857-23.47-5.7857-9.0708,0-17.0914,1.9586-24.0652,5.8682-6.9723,3.9137-12.3873,9.4982-16.2419,16.7542-3.8546,7.256-5.7819,15.7019-5.7819,25.3386s1.9826,18.1133,5.9531,25.4252c3.9671,7.3146,9.4392,12.9544,16.4115,16.9233,6.9738,3.969,14.8821,5.9514,23.7244,5.9514,11.1104,0,20.4094-2.8062,27.892-8.4187,7.4842-5.6125,12.472-12.8957,14.9668-21.8538h-16.6674c-1.8148,5.2176-4.9602,9.3837-9.4392,12.5015-4.4791,3.1206-10.062,4.6775-16.7521,4.6775-8.1624,0-15.1088-2.5778-20.8334-7.7401-5.7265-5.1556-8.8718-12.3283-9.4392-21.5115h74.4913c.3408-3.287.5104-6.4049.5104-9.3564,0-8.5012-1.8443-16.1275-5.5259-22.8747-3.6868-6.7438-8.9288-12.0446-15.7331-15.899ZM372.572,143.6463c.7907-8.8435,3.9376-15.7572,9.4392-20.747,5.4982-4.9892,12.1589-7.4844,19.9822-7.4844,5.4428,0,10.4013,1.1075,14.8821,3.3184,4.4775,2.2082,8.0189,5.4392,10.6296,9.6919,2.6071,4.2526,3.9117,9.3291,3.9117,15.2212h-58.8447Z"/>
    <path class="cls-1" d="M540.7725,108.2735c-6.692-3.969-14.2299-5.9548-22.6207-5.9548-7.8233,0-14.7954,1.7608-20.9182,5.2728-6.1227,3.5161-10.7731,8.0525-13.9461,13.6056v-49.9986h-15.4772v125.8514h15.4772v-17.1756c3.0621,5.4427,7.6244,9.9197,13.6917,13.4351,6.0639,3.5155,13.1207,5.2701,21.1725,5.2701,8.275,0,15.7885-2.0384,22.5358-6.1212,6.7438-4.0828,12.0448-9.8058,15.9011-17.1763,3.8529-7.3699,5.7819-15.7606,5.7819-25.1722,0-9.5221-1.9291-17.8855-5.7819-25.0856-3.8563-7.1973-9.1278-12.7818-15.8162-16.7508ZM542.3034,168.7325c-2.8356,5.2728-6.6625,9.297-11.4807,12.076-4.82,2.7783-10.1191,4.1654-15.9011,4.1654-5.6711,0-10.915-1.3871-15.7331-4.1654-4.82-2.779-8.6729-6.8031-11.5639-12.076-2.8908-5.2735-4.3372-11.422-4.3372-18.4529,0-6.9136,1.4464-13.0103,4.3372-18.2838,2.891-5.2694,6.7438-9.2936,11.5639-12.0719,4.8182-2.7783,10.062-4.1695,15.7331-4.1695,5.7819,0,11.081,1.3632,15.9011,4.0828,4.8182,2.7196,8.6451,6.692,11.4807,11.9062,2.8321,5.2142,4.2508,11.3388,4.2508,18.3663,0,7.1421-1.4186,13.3492-4.2508,18.6227Z"/>
    <path class="cls-1" d="M642.4743,137.2693c-4.7612-2.097-11.0551-4.2213-18.8785-6.3769-6.4618-1.8133-11.4791-3.4289-15.0517-4.8473-3.5707-1.4157-6.5759-3.4882-9.0135-6.2078-2.4395-2.7196-3.6556-6.2351-3.6556-10.543,0-6.01,2.0397-10.6882,6.1226-14.0312,4.0813-3.3457,9.3528-5.0171,15.8163-5.0171,6.915,0,12.4703,1.7301,16.6674,5.1869,4.1937,3.4602,6.5744,7.4565,7.1434,11.9894h17.0065c-.9082-9.1832-4.9048-16.5537-11.9892-22.1102-7.0882-5.5538-16.1866-8.3321-27.297-8.3321-7.7127,0-14.5413,1.3598-20.4943,4.0794-5.9533,2.723-10.5742,6.5781-13.8613,11.5673-3.2889,4.9892-4.9307,10.7128-4.9307,17.1763,0,7.3699,1.6713,13.238,5.0173,17.6019,3.3424,4.3665,7.3683,7.5703,12.0741,9.6087,4.7039,2.0411,10.9702,4.0828,18.7936,6.1239,6.3476,1.6994,11.3942,3.2911,15.1364,4.7614,3.7403,1.4744,6.8579,3.6293,9.3526,6.4635,2.493,2.8342,3.7422,6.5222,3.7422,11.0551,0,5.7816-2.1263,10.515-6.3771,14.2003-4.2525,3.6853-10.0637,5.5259-17.432,5.5259-7.7127,0-13.5794-1.8965-17.6034-5.695-4.0259-3.7998-6.3217-8.4739-6.8874-14.0312h-16.4979c.1125,6.4635,1.9272,12.1585,5.4428,17.0931,3.5138,4.9305,8.3595,8.7849,14.5411,11.5639,6.1781,2.7783,13.1814,4.166,21.0048,4.166,8.1624,0,15.2471-1.5849,21.259-4.7614,6.0068-3.1731,10.543-7.3146,13.6053-12.4149,3.0604-5.1037,4.5916-10.5464,4.5916-16.328,0-7.4844-1.7006-13.4051-5.102-17.7717-3.4012-4.3631-7.4825-7.5949-12.2453-9.6953Z"/>
    <polygon class="cls-1" points="717.9846 179.3614 688.7309 103.8517 671.5549 103.8517 709.1405 196.0297 690.7725 240.928 706.76 240.928 762.8832 103.8517 746.8957 103.8517 717.9846 179.3614"/>
    <path class="cls-1" d="M823.7677,102.1488c-6.351,0-12.1606,1.3046-17.4339,3.9137-5.2715,2.6091-9.4375,6.2903-12.4997,11.0551v-13.266h-15.4772v93.1982h15.4772v-51.5317c0-9.7505,2.4083-17.1763,7.2282-22.28,4.8183-5.1037,11.3095-7.6535,19.4736-7.6535,8.0482,0,14.3975,2.4673,19.0479,7.3978,4.647,4.9339,6.9723,12.048,6.9723,21.3458v52.7217h15.3076v-54.9326c0-12.9271-3.5155-22.8167-10.5448-29.6778-7.0309-6.8577-16.2158-10.2906-27.5512-10.2906Z"/>
    <path class="cls-1" d="M926.8293,115.4148c6.8026,0,12.5015,1.6442,17.0931,4.9312,4.5916,3.2904,7.6796,7.7681,9.2679,13.4351h16.6674c-2.3805-9.861-7.287-17.5698-14.7107-23.127-7.4271-5.5538-16.8664-8.3355-28.3177-8.3355-8.8441,0-16.695,1.9858-23.5548,5.9548-6.8615,3.969-12.2177,9.5535-16.0724,16.7508-3.8546,7.2-5.7818,15.6187-5.7818,25.2554,0,9.754,1.9272,18.2552,5.7818,25.5111,3.8547,7.256,9.2109,12.8684,16.0724,16.8374,6.8598,3.969,14.7107,5.9514,23.5548,5.9514,11.2248,0,20.5791-2.8615,28.0616-8.5878,7.4842-5.7236,12.472-13.3499,14.9668-22.8754h-16.6674c-1.7006,5.8962-4.8199,10.4325-9.3528,13.6056-4.5362,3.1758-10.2056,4.7641-17.0082,4.7641-8.8441,0-15.9858-3.062-21.4286-9.1866-5.4427-6.1212-8.1642-14.7956-8.1642-26.0199,0-11.111,2.7215-19.6989,8.1642-25.7641,5.4428-6.066,12.5846-9.1006,21.4286-9.1006Z"/>
    <path class="cls-1" d="M1072.6651,124.941c-4.1401-7.256-9.7783-12.8405-16.9218-16.7542-7.1434-3.9096-15.1364-5.8682-23.9805-5.8682s-16.8369,1.9586-23.9803,5.8682c-7.1417,3.9137-12.7835,9.5262-16.9218,16.8374-4.1401,7.3146-6.2075,15.7333-6.2075,25.2554,0,9.6394,2.0119,18.1133,6.0378,25.4252,4.0225,7.3146,9.5794,12.9544,16.6674,16.9233,7.0846,3.969,14.9929,5.9514,23.7244,5.9514,8.8441,0,16.8925-1.9824,24.1499-5.9514,7.256-3.969,13.0101-9.6087,17.2626-16.9233,4.2525-7.3119,6.3771-15.7858,6.3771-25.4252s-2.0692-18.0826-6.2075-25.3386ZM1058.5494,169.3272c-3.005,5.2183-6.9462,9.1279-11.8198,11.7371-4.877,2.6091-10.0932,3.9096-15.6467,3.9096-5.5569,0-10.6589-1.2732-15.3059-3.8264-4.6504-2.5505-8.3631-6.4328-11.1398-11.6505-2.7801-5.2108-4.1677-11.6191-4.1677-19.2174,0-7.481,1.4169-13.8307,4.2525-19.0483,2.8321-5.2142,6.6037-9.0966,11.3095-11.6498,4.7041-2.5505,9.8909-3.8271,15.562-3.8271,5.5535,0,10.7143,1.2766,15.4771,3.8271,4.7612,2.5532,8.6141,6.4356,11.5639,11.6498,2.9479,5.2176,4.4219,11.5673,4.4219,19.0483s-1.5034,13.8334-4.5068,19.0476Z"/>
  </g>
</svg>