<?xml version="1.0" encoding="UTF-8"?>
<svg id="logo" xmlns="http://www.w3.org/2000/svg" viewBox="0 0 1080 288">
  <defs>
    <style>
      .cls-1 {
        fill: #fac539;
        stroke-width: 0px;
      }
    </style>
  </defs>
  <g>
    <path class="cls-1" d="m177.31,142.75c-29.51-25.14-65.59-50.83-27.87-100.57,0,0-62.4,34.61-54.14,68.52,9.02,34.71,60.73,63.74,65.35,88.88,4.92,23.5-1.91,33.07-31.43,59.3,0,0,88-19.68,87.45-66.68,0,0,4.1-18.31-39.35-49.46Z"/>
    <path class="cls-1" d="m112.61,171.92c-22.56-21.07-46.8-44.2-33.41-71.74-15.4,9.98-16.98,31.91-14.32,48.4,8.79,47.73,57.57,45.88,59.05,91.52,0,0,35.2-22.48-11.32-68.18Z"/>
    <path class="cls-1" d="m83.71,213.8c-26.13-18.95-21.18-32.25-21.52-43.62-28.35,31.46-1.43,51.27,7.17,56.74,10.59,7.04,30.13,14.21,44.73,30.08.23-12.59-.32-22.98-30.38-43.2Z"/>
  </g>
  <g>
    <polygon class="cls-1" points="323.99 203.34 299.23 112.16 283.44 112.16 257.43 203.65 233.9 112.16 218.89 112.16 249.07 220.21 264.71 220.05 290.71 133.21 315.79 220.05 331.58 220.05 362.85 112.16 347.68 112.16 323.99 203.34"/>
    <path class="cls-1" d="m436.37,139.1c-6.19-3.51-13.31-5.27-21.36-5.27s-15.56,1.78-21.9,5.34c-6.35,3.56-11.27,8.65-14.78,15.25-3.51,6.6-5.26,14.29-5.26,23.06s1.8,16.49,5.42,23.14c3.61,6.66,8.59,11.79,14.94,15.4,6.35,3.61,13.55,5.42,21.59,5.42,10.11,0,18.58-2.55,25.39-7.66,6.81-5.11,11.35-11.74,13.62-19.89h-15.17c-1.65,4.75-4.51,8.54-8.59,11.38-4.08,2.84-9.16,4.26-15.25,4.26-7.43,0-13.75-2.35-18.96-7.04-5.21-4.69-8.07-11.22-8.59-19.58h67.8c.31-2.99.46-5.83.46-8.52,0-7.74-1.68-14.68-5.03-20.82-3.36-6.14-8.13-10.96-14.32-14.47Zm-48.76,32.35c.72-8.05,3.58-14.34,8.59-18.88,5-4.54,11.07-6.81,18.19-6.81,4.95,0,9.47,1.01,13.55,3.02,4.08,2.01,7.3,4.95,9.67,8.82,2.37,3.87,3.56,8.49,3.56,13.85h-53.56Z"/>
    <path class="cls-1" d="m540.7,139.25c-6.09-3.61-12.95-5.42-20.59-5.42-7.12,0-13.47,1.6-19.04,4.8-5.57,3.2-9.81,7.33-12.69,12.38v-45.51h-14.09v114.55h14.09v-15.63c2.79,4.95,6.94,9.03,12.46,12.23,5.52,3.2,11.94,4.8,19.27,4.8s14.37-1.86,20.51-5.57c6.14-3.72,10.96-8.92,14.47-15.63,3.51-6.71,5.26-14.34,5.26-22.91s-1.76-16.28-5.26-22.83c-3.51-6.55-8.31-11.63-14.4-15.25Zm1.39,55.03c-2.58,4.8-6.06,8.46-10.45,10.99-4.39,2.53-9.21,3.79-14.47,3.79s-9.93-1.26-14.32-3.79c-4.39-2.53-7.89-6.19-10.53-10.99-2.63-4.8-3.95-10.4-3.95-16.8s1.32-11.84,3.95-16.64c2.63-4.8,6.14-8.46,10.53-10.99,4.39-2.53,9.16-3.79,14.32-3.79s10.09,1.24,14.47,3.72c4.39,2.48,7.87,6.09,10.45,10.84,2.58,4.75,3.87,10.32,3.87,16.72s-1.29,12.15-3.87,16.95Z"/>
    <path class="cls-1" d="m633.27,165.64c-4.33-1.91-10.06-3.84-17.18-5.8-5.88-1.65-10.45-3.12-13.7-4.41-3.25-1.29-5.99-3.17-8.2-5.65-2.22-2.48-3.33-5.67-3.33-9.6,0-5.47,1.86-9.73,5.57-12.77,3.71-3.05,8.51-4.57,14.4-4.57,6.29,0,11.35,1.57,15.17,4.72,3.82,3.15,5.98,6.79,6.5,10.91h15.48c-.83-8.36-4.46-15.07-10.91-20.12-6.45-5.05-14.73-7.58-24.84-7.58-7.02,0-13.24,1.24-18.65,3.71-5.42,2.48-9.62,5.99-12.62,10.53-2.99,4.54-4.49,9.75-4.49,15.63,0,6.71,1.52,12.05,4.57,16.02,3.04,3.97,6.71,6.89,10.99,8.75,4.28,1.86,9.98,3.72,17.11,5.57,5.78,1.55,10.37,3,13.78,4.33,3.4,1.34,6.24,3.3,8.51,5.88,2.27,2.58,3.41,5.94,3.41,10.06,0,5.26-1.94,9.57-5.8,12.92-3.87,3.35-9.16,5.03-15.87,5.03s-12.36-1.73-16.02-5.18c-3.66-3.46-5.75-7.71-6.27-12.77h-15.02c.1,5.88,1.75,11.07,4.95,15.56,3.2,4.49,7.61,8,13.23,10.53,5.62,2.53,12,3.79,19.12,3.79s13.88-1.44,19.35-4.33c5.47-2.89,9.6-6.66,12.38-11.3,2.79-4.65,4.18-9.6,4.18-14.86,0-6.81-1.55-12.2-4.64-16.18-3.1-3.97-6.81-6.91-11.15-8.82Z"/>
    <polygon class="cls-1" points="702 203.95 675.37 135.23 659.74 135.23 693.95 219.12 677.23 259.99 691.78 259.99 742.86 135.23 728.31 135.23 702 203.95"/>
    <path class="cls-1" d="m798.28,133.68c-5.78,0-11.07,1.19-15.87,3.56-4.8,2.37-8.59,5.73-11.38,10.06v-12.07h-14.09v84.83h14.09v-46.9c0-8.87,2.19-15.63,6.58-20.28,4.39-4.65,10.29-6.97,17.72-6.97s13.1,2.25,17.34,6.73c4.23,4.49,6.35,10.97,6.35,19.43v47.99h13.93v-50c0-11.77-3.2-20.77-9.6-27.01-6.4-6.24-14.76-9.37-25.08-9.37Z"/>
    <path class="cls-1" d="m892.08,145.75c6.19,0,11.38,1.5,15.56,4.49,4.18,2.99,6.99,7.07,8.44,12.23h15.17c-2.17-8.98-6.63-15.99-13.39-21.05-6.76-5.05-15.35-7.59-25.77-7.59-8.05,0-15.2,1.81-21.44,5.42-6.25,3.61-11.12,8.7-14.63,15.25-3.51,6.55-5.26,14.22-5.26,22.99s1.75,16.62,5.26,23.22c3.51,6.6,8.38,11.71,14.63,15.32,6.24,3.61,13.39,5.42,21.44,5.42,10.22,0,18.73-2.6,25.54-7.82,6.81-5.21,11.35-12.15,13.62-20.82h-15.17c-1.55,5.37-4.39,9.5-8.51,12.38-4.13,2.89-9.29,4.34-15.48,4.34-8.05,0-14.55-2.79-19.5-8.36-4.95-5.57-7.43-13.47-7.43-23.68s2.48-17.93,7.43-23.45c4.95-5.52,11.45-8.28,19.5-8.28Z"/>
    <path class="cls-1" d="m1024.82,154.42c-3.77-6.6-8.9-11.69-15.4-15.25-6.5-3.56-13.78-5.34-21.83-5.34s-15.32,1.78-21.83,5.34c-6.5,3.56-11.64,8.67-15.4,15.32-3.77,6.66-5.65,14.32-5.65,22.99s1.83,16.49,5.5,23.14c3.66,6.66,8.72,11.79,15.17,15.4,6.45,3.61,13.65,5.42,21.59,5.42s15.38-1.8,21.98-5.42c6.6-3.61,11.84-8.75,15.71-15.4,3.87-6.66,5.8-14.37,5.8-23.14s-1.88-16.46-5.65-23.06Zm-12.85,40.4c-2.74,4.75-6.32,8.31-10.76,10.68-4.44,2.37-9.19,3.56-14.24,3.56s-9.7-1.16-13.93-3.48c-4.23-2.32-7.61-5.85-10.14-10.6-2.53-4.74-3.79-10.58-3.79-17.49s1.29-12.59,3.87-17.34c2.58-4.75,6.01-8.28,10.29-10.6,4.28-2.32,9-3.48,14.16-3.48s9.75,1.16,14.09,3.48c4.33,2.32,7.84,5.86,10.53,10.6,2.68,4.75,4.02,10.53,4.02,17.34s-1.37,12.59-4.1,17.34Z"/>
  </g>
</svg>