<?xml version="1.0" encoding="UTF-8"?>
<svg id="logo_fr" xmlns="http://www.w3.org/2000/svg" viewBox="0 0 648 576">
  <defs>
    <style>
      .cls-1 {
        fill: #3b3b3b;
        stroke-width: 0px;
      }
    </style>
  </defs>
  <g>
    <path class="cls-1" d="M453.03,180.14c-8.26-13.52-15.12-27.72-16.84-31.37-.15-.32-.61-.3-.72.04-1.26,3.85-6.32,18.96-12.35,33.41-.11.27.1.56.39.54l9.6-.67c-1.9,40.75-24.37,79.89-59.44,101.14-50.05,30.94-119.26,25.03-155.6-23.89-26.89-34.75-27.13-86.04-.63-121.1,35.1-48.9,107.92-58.68,155.52-22.32,23.5,17.42,39.38,44.81,41.92,74.06.18,1.61,2.56,1.42,2.48-.21-2.34-30.04-18.44-58.33-42.43-76.45-49.06-38.13-124.53-28.32-161.35,22.06-28.21,36.65-28.28,90.7-.3,127.52,32.93,45.15,93.26,56.96,143.85,36.83,48.77-18.54,82.3-66.49,84.65-118.24l10.96-.76c.29-.02.46-.34.31-.59Z"/>
    <path class="cls-1" d="M263.23,226.59v52.67c-14.28-7.59-26.32-18.85-34.85-32.52v-20.15h34.85Z"/>
    <path class="cls-1" d="M302.89,204.6v85.29c-12.41-.43-24.18-3.35-34.86-8.25v-77.04h34.86Z"/>
    <path class="cls-1" d="M342.55,177.89v104.58c-10.71,4.63-22.49,7.27-34.86,7.46v-112.04h34.86Z"/>
    <path class="cls-1" d="M382.21,148.7v100.94c-8.78,12.96-20.78,23.54-34.87,30.61v-131.54h34.87Z"/>
  </g>
  <g>
    <g>
      <path class="cls-1" d="M55.13,326.82h15.57v110.96h-15.57v-110.96ZM62.69,326.82h63.72v14.8h-63.72v-14.8ZM62.69,375.28h55.33v14.8h-55.33v-14.8ZM62.69,422.98h63.72v14.8h-63.72v-14.8Z"/>
      <path class="cls-1" d="M135.29,358.57h15.57v79.21h-15.57v-79.21ZM183.37,389.78c0-5.6-1.45-9.92-4.35-12.97s-6.97-4.58-12.21-4.58-9.02,1.35-11.79,4.04c-2.77,2.7-4.16,6.49-4.16,11.37l-1.6-15.26c2.44-4.78,5.63-8.47,9.58-11.07,3.94-2.59,8.3-3.89,13.09-3.89,8.6,0,15.25,2.81,19.96,8.43,4.7,5.62,7.06,13.57,7.06,23.85v48.08h-15.57v-48Z"/>
      <path class="cls-1" d="M224.53,434.81c-5.19-2.75-9.15-6.78-11.87-12.1-2.72-5.32-4.08-11.74-4.08-19.27v-8.93c0-7.83,1.31-14.52,3.93-20.07,2.62-5.54,6.42-9.77,11.41-12.67,4.99-2.9,10.99-4.35,18.01-4.35,6.61,0,12.26,1.65,16.94,4.96,4.68,3.31,8.25,8.09,10.72,14.35,2.47,6.26,3.7,13.76,3.7,22.51v5.19h-53.42v-12.52h38.61c-.46-6.46-2.13-11.49-5-15.07-2.88-3.59-6.73-5.38-11.56-5.38-5.9,0-10.47,1.93-13.7,5.8-3.23,3.87-4.85,9.34-4.85,16.41v10.07c0,6.56,1.73,11.6,5.19,15.11,3.46,3.51,8.37,5.27,14.73,5.27,3.15,0,6.28-.64,9.39-1.91,3.1-1.27,5.88-3.05,8.32-5.34l10.23,10.23c-3.92,3.77-8.32,6.68-13.2,8.74-4.88,2.06-9.79,3.09-14.73,3.09-7.33,0-13.58-1.37-18.77-4.12Z"/>
      <path class="cls-1" d="M282.94,358.57h15.57v79.21h-15.57v-79.21ZM321.33,373.53c-2.09-.86-4.5-1.3-7.25-1.3-4.94,0-8.76,1.36-11.49,4.08s-4.08,6.5-4.08,11.33l-1.6-15.26c2.44-4.73,5.6-8.41,9.46-11.03,3.87-2.62,8.14-3.93,12.82-3.93,3.61,0,6.88.52,9.81,1.56,2.92,1.04,5.48,2.58,7.67,4.62l-10.15,13.74c-1.37-1.68-3.1-2.95-5.19-3.82Z"/>
    </g>
    <g>
      <path class="cls-1" d="M402.33,340.26l-48.31,82.72h49.83v14.8h-68.99v-13.43l48.69-82.72h-47.31v-14.8h66.09v13.43Z"/>
      <path class="cls-1" d="M414.65,432.86c-4.83-4.04-7.25-10.19-7.25-18.43s2.21-13.71,6.64-17.63c4.43-3.92,11.12-5.88,20.07-5.88h22.51l1.07,12.52h-23.5c-4.07,0-7.11.9-9.12,2.71-2.01,1.81-3.01,4.57-3.01,8.28,0,4.02,1.34,7,4.01,8.93,2.67,1.93,6.73,2.9,12.17,2.9,5.95,0,10.39-.64,13.32-1.91,2.92-1.27,4.39-3.25,4.39-5.95l1.6,11.14c-1.37,2.14-3.07,3.89-5.07,5.27-2.01,1.37-4.34,2.4-6.98,3.09-2.65.69-5.62,1.03-8.93,1.03-9.77,0-17.07-2.02-21.9-6.07ZM455.93,387.57c0-5.19-1.39-9.22-4.16-12.1-2.77-2.87-6.7-4.31-11.79-4.31-3.16,0-6.25.48-9.27,1.45-3.03.97-5.71,2.32-8.05,4.04l-11.37-7.78c3-3.61,6.96-6.42,11.87-8.43,4.91-2.01,10.37-3.01,16.37-3.01,6.56,0,12.18,1.16,16.87,3.47,4.68,2.32,8.24,5.67,10.68,10.07,2.44,4.4,3.66,9.71,3.66,15.91v50.9h-14.8v-50.21Z"/>
      <path class="cls-1" d="M482.67,358.57h15.57v79.21h-15.57v-79.21ZM529.99,389.78c0-5.6-1.37-9.92-4.12-12.97-2.75-3.05-6.64-4.58-11.68-4.58s-9.02,1.35-11.79,4.04c-2.77,2.7-4.16,6.49-4.16,11.37l-1.6-15.26c2.44-4.78,5.63-8.47,9.58-11.07,3.94-2.59,8.3-3.89,13.09-3.89,5.54,0,10.28,1.26,14.19,3.78,3.92,2.52,6.91,6.19,8.97,11.03,2.06,4.83,3.09,10.66,3.09,17.48v48.08h-15.57v-48ZM577.3,389.78c0-5.6-1.45-9.92-4.35-12.97-2.9-3.05-6.97-4.58-12.21-4.58-4.83,0-8.57,1.48-11.22,4.43-2.65,2.95-3.97,7.12-3.97,12.52l-3.13-15.26c2.49-5.24,5.79-9.3,9.88-12.17,4.09-2.87,8.61-4.31,13.55-4.31,5.7,0,10.57,1.26,14.61,3.78,4.04,2.52,7.12,6.19,9.23,11.03,2.11,4.83,3.17,10.66,3.17,17.48v48.08h-15.57v-48Z"/>
    </g>
  </g>
  <g>
    <path class="cls-1" d="M55.13,455.22h4.25v30.32h-4.25v-30.32ZM58.01,481.49h6.86c2.24,0,3.97-.58,5.2-1.74,1.23-1.16,1.85-2.8,1.85-4.91v-8.93c0-2.11-.62-3.75-1.85-4.91-1.23-1.16-2.96-1.74-5.2-1.74h-6.86v-4.05h6.74c2.43,0,4.51.42,6.23,1.27,1.72.85,3.04,2.09,3.94,3.71.9,1.63,1.36,3.59,1.36,5.88v8.59c0,2.29-.45,4.25-1.36,5.88-.9,1.63-2.22,2.86-3.95,3.71-1.73.85-3.81,1.27-6.25,1.27h-6.71v-4.05Z"/>
    <path class="cls-1" d="M82.74,455.22h4.25v4.25h-4.25v-4.25ZM82.74,463.89h4.25v21.65h-4.25v-21.65Z"/>
    <path class="cls-1" d="M106.2,463.89h4.44l-8.13,21.65h-3.21l-8.13-21.65h4.44l5.3,15.45,5.3-15.45Z"/>
    <path class="cls-1" d="M111.58,481.08h4.46v4.46h-4.46v-4.46Z"/>
    <path class="cls-1" d="M136.26,484.88c-1.12-.69-1.97-1.69-2.55-3.01-.58-1.32-.88-2.91-.88-4.75v-4.78c0-1.86.28-3.45.85-4.78.57-1.32,1.4-2.33,2.49-3.01,1.09-.69,2.4-1.03,3.93-1.03,1.28,0,2.45.33,3.51,1s1.92,1.61,2.58,2.82l-.44,4.42c0-.92-.17-1.7-.5-2.36-.33-.65-.82-1.15-1.45-1.49-.63-.34-1.4-.51-2.3-.51-1.4,0-2.49.44-3.26,1.31s-1.16,2.11-1.16,3.69v4.71c0,1.57.39,2.78,1.16,3.64s1.86,1.28,3.26,1.28c.9,0,1.67-.18,2.3-.53.63-.35,1.12-.87,1.45-1.53s.5-1.47.5-2.4l.29,4.57c-.43,1.07-1.14,1.97-2.12,2.69s-2.19,1.08-3.62,1.08c-1.58,0-2.94-.34-4.06-1.03ZM145.76,455.22h4.25v30.32h-4.25v-30.32Z"/>
    <path class="cls-1" d="M160.21,484.73c-1.42-.75-2.5-1.85-3.24-3.31-.74-1.45-1.12-3.21-1.12-5.27v-2.44c0-2.14.36-3.97,1.07-5.48.72-1.51,1.75-2.67,3.12-3.46,1.36-.79,3-1.19,4.92-1.19,1.81,0,3.35.45,4.63,1.36,1.28.9,2.26,2.21,2.93,3.92.67,1.71,1.01,3.76,1.01,6.15v1.42h-14.6v-3.42h10.55c-.13-1.77-.58-3.14-1.37-4.12-.79-.98-1.84-1.47-3.16-1.47-1.61,0-2.86.53-3.74,1.58-.88,1.06-1.32,2.55-1.32,4.48v2.75c0,1.79.47,3.17,1.42,4.13.95.96,2.29,1.44,4.02,1.44.86,0,1.72-.17,2.56-.52.85-.35,1.61-.83,2.27-1.46l2.79,2.79c-1.07,1.03-2.27,1.82-3.61,2.39-1.33.56-2.68.84-4.02.84-2,0-3.71-.38-5.13-1.13Z"/>
    <path class="cls-1" d="M195.73,484.53c-1.59-.88-2.8-2.17-3.64-3.86s-1.25-3.72-1.25-6.1v-19.35h4.25v19.5c0,2.21.56,3.92,1.67,5.13,1.11,1.21,2.68,1.81,4.71,1.81s3.62-.6,4.74-1.81c1.12-1.21,1.68-2.92,1.68-5.13v-19.5h4.25v19.35c0,2.38-.42,4.41-1.25,6.1-.83,1.69-2.05,2.98-3.65,3.86-1.6.88-3.52,1.32-5.78,1.32s-4.15-.44-5.74-1.32Z"/>
    <path class="cls-1" d="M222.8,484.45c-1.59-.93-2.83-2.25-3.7-3.96s-1.31-3.69-1.31-5.94v-8.32c0-2.25.44-4.23,1.31-5.94s2.11-3.03,3.7-3.97c1.59-.94,3.44-1.41,5.54-1.41,1.74,0,3.34.37,4.8,1.12,1.46.74,2.68,1.8,3.66,3.16.98,1.36,1.64,2.94,1.99,4.73h-4.36c-.26-.95-.71-1.79-1.32-2.53-.62-.74-1.35-1.32-2.18-1.72-.83-.4-1.7-.6-2.59-.6-1.24,0-2.32.3-3.25.9-.93.6-1.65,1.44-2.17,2.51-.51,1.08-.77,2.33-.77,3.76v8.32c0,1.42.26,2.67.77,3.75.51,1.08,1.24,1.92,2.17,2.51.93.59,2.02.89,3.25.89.9,0,1.77-.19,2.6-.56.83-.38,1.55-.93,2.17-1.67.62-.74,1.06-1.61,1.32-2.63h4.36c-.35,1.79-1.02,3.37-2,4.73-.99,1.36-2.21,2.42-3.67,3.16-1.46.74-3.05,1.12-4.78,1.12-2.1,0-3.94-.47-5.54-1.4Z"/>
    <path class="cls-1" d="M242.74,463.89h9.76v3.84h-9.76v-3.84ZM246.2,484.19c-.81-.97-1.22-2.39-1.22-4.29v-22.31h4.25v22.35c0,.53.1.94.31,1.22.21.29.51.43.92.43h2.04v4.05h-2.46c-1.75,0-3.03-.48-3.85-1.45Z"/>
    <path class="cls-1" d="M258.34,463.89h4.25v21.65h-4.25v-21.65ZM268.83,467.98c-.57-.24-1.23-.35-1.98-.35-1.35,0-2.39.37-3.14,1.12s-1.12,1.78-1.12,3.1l-.44-4.17c.67-1.29,1.53-2.3,2.59-3.01,1.06-.72,2.22-1.07,3.5-1.07.99,0,1.88.14,2.68.43.8.29,1.5.71,2.1,1.26l-2.77,3.75c-.38-.46-.85-.81-1.42-1.04Z"/>
    <path class="cls-1" d="M276.57,455.22h4.25v4.25h-4.25v-4.25ZM276.57,463.89h4.25v21.65h-4.25v-21.65Z"/>
    <path class="cls-1" d="M294.92,468.21l7.61-12.99h4.78l-10.03,16.41-8.13,13.91h-4.78l10.55-17.33ZM295.11,472.21l-.65-1.04-9.84-15.95h4.78l7.32,12.34.69,1.13,10.36,16.85h-4.78l-7.88-13.32Z"/>
  </g>
</svg>