<?xml version="1.0" encoding="UTF-8"?>
<svg id="logo_en" xmlns="http://www.w3.org/2000/svg" viewBox="0 0 864 306">
  <defs>
    <style>
      .cls-1 {
        fill: #fff;
        stroke-width: 0px;
      }
    </style>
  </defs>
  <g>
    <path class="cls-1" d="M293.55,134.93c-7.66-12.53-14.01-25.69-15.61-29.06-.14-.3-.57-.27-.67.04-1.17,3.57-5.85,17.57-11.45,30.95-.1.25.09.52.36.5l8.89-.62c-1.76,37.76-22.58,74.02-55.07,93.71-46.37,28.66-110.5,23.19-144.17-22.14-24.91-32.2-25.14-79.72-.58-112.21,32.53-45.31,99.99-54.37,144.1-20.68,21.77,16.14,36.49,41.52,38.84,68.62.16,1.49,2.37,1.31,2.29-.2-2.17-27.84-17.09-54.05-39.32-70.83-45.46-35.33-115.38-26.24-149.5,20.44-26.14,33.95-26.2,84.04-.27,118.16,30.51,41.83,86.41,52.77,133.28,34.13,45.19-17.18,76.25-61.6,78.43-109.55l10.16-.7c.27-.02.43-.32.28-.55Z"/>
    <path class="cls-1" d="M117.7,177.97v48.8c-13.23-7.03-24.39-17.47-32.29-30.13v-18.67h32.29Z"/>
    <path class="cls-1" d="M154.44,157.59v79.02c-11.49-.4-22.41-3.11-32.3-7.64v-71.38h32.3Z"/>
    <path class="cls-1" d="M191.19,132.84v96.9c-9.93,4.29-20.84,6.74-32.3,6.91v-103.81h32.3Z"/>
    <path class="cls-1" d="M227.94,105.79v93.52c-8.14,12.01-19.26,21.81-32.31,28.36v-121.88h32.31Z"/>
  </g>
  <g>
    <path class="cls-1" d="M309.78,84.7h14.42v102.81h-14.42v-102.81ZM316.78,84.7h59.04v13.72h-59.04v-13.72ZM316.78,129.6h51.26v13.72h-51.26v-13.72ZM316.78,173.79h59.04v13.72h-59.04v-13.72Z"/>
    <path class="cls-1" d="M384.05,114.11h14.42v73.39h-14.42v-73.39ZM428.6,143.03c0-5.18-1.34-9.19-4.03-12.02s-6.46-4.24-11.31-4.24-8.36,1.25-10.92,3.75c-2.57,2.5-3.85,6.01-3.85,10.54l-1.48-14.14c2.26-4.43,5.22-7.85,8.87-10.25,3.65-2.4,7.69-3.61,12.13-3.61,7.97,0,14.13,2.61,18.49,7.81,4.36,5.21,6.54,12.58,6.54,22.1v44.55h-14.42v-44.48Z"/>
    <path class="cls-1" d="M466.74,184.75c-4.81-2.55-8.47-6.28-11-11.21-2.52-4.92-3.78-10.88-3.78-17.85v-8.27c0-7.26,1.21-13.46,3.64-18.6,2.43-5.14,5.95-9.05,10.57-11.74,4.62-2.69,10.18-4.03,16.69-4.03,6.13,0,11.36,1.53,15.7,4.6,4.34,3.06,7.65,7.5,9.93,13.29,2.29,5.8,3.43,12.75,3.43,20.86v4.81h-49.5v-11.6h35.78c-.42-5.99-1.97-10.64-4.63-13.96-2.66-3.32-6.23-4.98-10.71-4.98-5.47,0-9.7,1.79-12.69,5.37-2.99,3.58-4.49,8.65-4.49,15.2v9.33c0,6.08,1.6,10.75,4.81,14,3.2,3.25,7.75,4.88,13.65,4.88,2.92,0,5.82-.59,8.7-1.77,2.87-1.18,5.44-2.83,7.71-4.95l9.47,9.47c-3.63,3.49-7.71,6.19-12.23,8.1s-9.08,2.86-13.65,2.86c-6.79,0-12.59-1.27-17.39-3.82Z"/>
    <path class="cls-1" d="M520.86,114.11h14.42v73.39h-14.42v-73.39ZM556.42,127.97c-1.93-.8-4.17-1.2-6.72-1.2-4.57,0-8.12,1.26-10.64,3.78-2.52,2.52-3.78,6.02-3.78,10.5l-1.48-14.14c2.26-4.38,5.18-7.79,8.77-10.22,3.58-2.43,7.54-3.64,11.88-3.64,3.35,0,6.37.48,9.09,1.45,2.71.97,5.08,2.39,7.11,4.28l-9.4,12.73c-1.27-1.56-2.88-2.73-4.81-3.54Z"/>
    <path class="cls-1" d="M631.47,97.14l-44.76,76.65h46.17v13.72h-63.92v-12.44l45.11-76.65h-43.84v-13.72h61.23v12.44Z"/>
    <path class="cls-1" d="M642.89,182.95c-4.48-3.75-6.72-9.44-6.72-17.08s2.05-12.7,6.15-16.33c4.1-3.63,10.3-5.44,18.6-5.44h20.86l.99,11.6h-21.78c-3.77,0-6.59.84-8.45,2.51-1.86,1.67-2.79,4.23-2.79,7.67,0,3.72,1.24,6.48,3.71,8.27,2.47,1.79,6.23,2.69,11.28,2.69,5.52,0,9.63-.59,12.34-1.77,2.71-1.18,4.07-3.02,4.07-5.52l1.48,10.32c-1.27,1.98-2.84,3.61-4.7,4.88-1.86,1.27-4.02,2.23-6.47,2.86-2.45.64-5.21.95-8.27.95-9.05,0-15.82-1.87-20.29-5.62ZM681.14,140.98c0-4.81-1.29-8.54-3.85-11.21-2.57-2.66-6.21-3.99-10.92-3.99-2.92,0-5.79.45-8.59,1.34-2.81.9-5.29,2.15-7.46,3.75l-10.54-7.21c2.78-3.35,6.45-5.95,11-7.81,4.55-1.86,9.6-2.79,15.17-2.79,6.08,0,11.29,1.07,15.63,3.22,4.34,2.15,7.64,5.26,9.9,9.33,2.26,4.08,3.39,8.99,3.39,14.74v47.16h-13.72v-46.53Z"/>
    <path class="cls-1" d="M705.91,114.11h14.42v73.39h-14.42v-73.39ZM749.75,143.03c0-5.18-1.27-9.19-3.82-12.02s-6.15-4.24-10.82-4.24-8.36,1.25-10.92,3.75c-2.57,2.5-3.85,6.01-3.85,10.54l-1.48-14.14c2.26-4.43,5.22-7.85,8.87-10.25,3.65-2.4,7.69-3.61,12.13-3.61,5.14,0,9.52,1.17,13.15,3.5,3.63,2.33,6.4,5.74,8.31,10.22,1.91,4.48,2.86,9.88,2.86,16.19v44.55h-14.42v-44.48ZM793.59,143.03c0-5.18-1.34-9.19-4.03-12.02-2.69-2.83-6.46-4.24-11.31-4.24-4.48,0-7.94,1.37-10.39,4.1-2.45,2.73-3.68,6.6-3.68,11.6l-2.9-14.14c2.31-4.85,5.36-8.61,9.16-11.28,3.79-2.66,7.98-3.99,12.55-3.99,5.28,0,9.79,1.17,13.54,3.5,3.75,2.33,6.6,5.74,8.56,10.22,1.96,4.48,2.93,9.88,2.93,16.19v44.55h-14.42v-44.48Z"/>
  </g>
  <g>
    <path class="cls-1" d="M309.86,202.55h3.94v28.09h-3.94v-28.09ZM312.53,226.9h6.36c2.07,0,3.68-.54,4.82-1.61,1.14-1.08,1.71-2.59,1.71-4.55v-8.27c0-1.96-.57-3.47-1.71-4.55-1.14-1.08-2.75-1.61-4.82-1.61h-6.36v-3.75h6.24c2.25,0,4.18.39,5.78,1.18,1.6.79,2.81,1.93,3.65,3.44.84,1.51,1.26,3.32,1.26,5.45v7.96c0,2.13-.42,3.94-1.26,5.45-.84,1.51-2.06,2.65-3.66,3.44-1.6.79-3.53,1.18-5.79,1.18h-6.22v-3.75Z"/>
    <path class="cls-1" d="M335.44,202.55h3.94v3.94h-3.94v-3.94ZM335.44,210.59h3.94v20.06h-3.94v-20.06Z"/>
    <path class="cls-1" d="M357.18,210.59h4.12l-7.54,20.06h-2.98l-7.54-20.06h4.12l4.91,14.32,4.91-14.32Z"/>
    <path class="cls-1" d="M362.16,226.51h4.13v4.13h-4.13v-4.13Z"/>
    <path class="cls-1" d="M385.66,229.91c-1.24-.68-2.18-1.68-2.83-2.99-.65-1.31-.98-2.88-.98-4.72v-3.27c0-1.82.33-3.37.98-4.67.65-1.29,1.59-2.28,2.83-2.96s2.72-1.01,4.46-1.01,3.23.34,4.46,1.01,2.18,1.66,2.83,2.96c.65,1.29.98,2.85.98,4.67v3.32c0,1.83-.33,3.39-.98,4.69-.65,1.29-1.59,2.28-2.83,2.97-1.24.68-2.72,1.02-4.46,1.02s-3.23-.34-4.46-1.02ZM393.32,225.89c.75-.86,1.13-2.07,1.13-3.63v-3.32c0-1.56-.38-2.76-1.13-3.61s-1.82-1.28-3.2-1.28-2.44.43-3.2,1.28-1.13,2.05-1.13,3.61v3.32c0,1.56.38,2.77,1.13,3.63.75.86,1.82,1.29,3.2,1.29s2.44-.43,3.2-1.29Z"/>
    <path class="cls-1" d="M402.45,210.59h10.03v3.36h-10.03v-3.36ZM404.57,207.87c0-1.78.41-3.11,1.23-3.99.82-.88,2.08-1.32,3.78-1.32h2.9v3.75h-2.82c-.37,0-.66.14-.85.43-.19.28-.29.65-.29,1.1v22.82h-3.94v-22.78Z"/>
    <path class="cls-1" d="M431.69,229.71c-1.48-.82-2.6-2.01-3.37-3.57s-1.16-3.45-1.16-5.65v-17.93h3.94v18.07c0,2.05.51,3.63,1.55,4.75,1.03,1.12,2.49,1.68,4.37,1.68s3.36-.56,4.4-1.68c1.04-1.12,1.56-2.7,1.56-4.75v-18.07h3.94v17.93c0,2.2-.39,4.09-1.16,5.65s-1.9,2.76-3.38,3.57c-1.48.82-3.27,1.23-5.35,1.23s-3.85-.41-5.32-1.23Z"/>
    <path class="cls-1" d="M456.77,229.64c-1.48-.86-2.62-2.09-3.43-3.67s-1.22-3.42-1.22-5.51v-7.71c0-2.09.41-3.92,1.22-5.51s1.95-2.81,3.43-3.68c1.47-.87,3.18-1.3,5.13-1.3,1.61,0,3.09.34,4.44,1.03,1.35.69,2.48,1.66,3.39,2.93.91,1.26,1.52,2.72,1.85,4.39h-4.04c-.24-.88-.65-1.66-1.23-2.35-.57-.69-1.25-1.22-2.02-1.59-.77-.37-1.57-.56-2.4-.56-1.15,0-2.15.28-3.01.83-.86.55-1.53,1.33-2.01,2.33-.48,1-.71,2.16-.71,3.49v7.71c0,1.31.24,2.47.71,3.48.48,1,1.15,1.78,2.01,2.33.86.55,1.87.82,3.01.82.84,0,1.64-.17,2.41-.52.77-.35,1.44-.86,2.01-1.55.57-.68.98-1.49,1.23-2.43h4.04c-.32,1.66-.94,3.12-1.85,4.39-.91,1.26-2.05,2.24-3.4,2.93-1.35.69-2.83,1.03-4.42,1.03-1.95,0-3.66-.43-5.13-1.29Z"/>
    <path class="cls-1" d="M475.25,210.59h9.04v3.56h-9.04v-3.56ZM478.44,229.4c-.75-.9-1.13-2.22-1.13-3.97v-20.67h3.94v20.71c0,.49.1.87.29,1.13.19.26.48.4.85.4h1.89v3.75h-2.28c-1.62,0-2.81-.45-3.56-1.34Z"/>
    <path class="cls-1" d="M489.7,210.59h3.94v20.06h-3.94v-20.06ZM499.42,214.38c-.53-.22-1.14-.33-1.84-.33-1.25,0-2.22.34-2.91,1.03s-1.03,1.65-1.03,2.87l-.41-3.86c.62-1.2,1.42-2.13,2.4-2.79.98-.66,2.06-1,3.25-1,.91,0,1.74.13,2.48.4.74.26,1.39.65,1.94,1.17l-2.57,3.48c-.35-.43-.79-.75-1.31-.97Z"/>
    <path class="cls-1" d="M506.59,202.55h3.94v3.94h-3.94v-3.94ZM506.59,210.59h3.94v20.06h-3.94v-20.06Z"/>
    <path class="cls-1" d="M523.59,214.59l7.05-12.04h4.42l-9.29,15.21-7.54,12.89h-4.42l9.78-16.06ZM523.76,218.3l-.6-.97-9.12-14.78h4.42l6.78,11.44.64,1.04,9.6,15.61h-4.42l-7.3-12.35Z"/>
  </g>
</svg>