<?xml version="1.0" encoding="UTF-8"?>
<svg xmlns="http://www.w3.org/2000/svg" viewBox="0 0 864 306">
  <defs>
    <style>
      .cls-1 {
        fill: #a6bd39;
      }

      .cls-1, .cls-2, .cls-3 {
        stroke-width: 0px;
      }

      .cls-2 {
        fill: #3b3b3b;
      }

      .cls-4 {
        fill: none;
        stroke: #231f20;
        stroke-miterlimit: 10;
        stroke-width: 4px;
      }

      .cls-3 {
        fill: #2fbaed;
      }
    </style>
  </defs>
  <g id="logo_fr">
    <g>
      <g>
        <path class="cls-2" d="M296.4,135.03c-7.61-12.46-13.93-25.54-15.52-28.9-.14-.3-.57-.27-.67.04-1.17,3.55-5.82,17.47-11.38,30.78-.1.25.09.52.36.5l8.84-.61c-1.75,37.55-22.46,73.61-54.76,93.18-46.11,28.5-109.88,23.06-143.36-22.01-24.77-32.02-25-79.27-.58-111.58,32.34-45.06,99.43-54.06,143.29-20.57,21.65,16.05,36.29,41.29,38.63,68.23.16,1.48,2.36,1.31,2.28-.2-2.16-27.68-16.99-53.75-39.1-70.43-45.21-35.13-114.74-26.09-148.67,20.33-25.99,33.76-26.05,83.57-.27,117.5,30.34,41.6,85.93,52.48,132.53,33.94,44.94-17.08,75.82-61.26,77.99-108.94l10.1-.7c.27-.02.42-.32.28-.55Z"/>
        <path class="cls-3" d="M121.53,177.83v48.53c-13.16-6.99-24.25-17.37-32.11-29.96v-18.57h32.11Z"/>
        <path class="cls-3" d="M158.07,157.57v78.58c-11.43-.4-22.28-3.09-32.12-7.6v-70.98h32.12Z"/>
        <path class="cls-1" d="M194.61,132.96v96.36c-9.87,4.27-20.72,6.7-32.12,6.87v-103.23h32.12Z"/>
        <path class="cls-1" d="M231.15,106.06v93c-8.09,11.94-19.15,21.69-32.13,28.2v-121.2h32.13Z"/>
      </g>
      <g>
        <path class="cls-3" d="M312.34,83.82h14.34v102.23h-14.34v-102.23ZM319.3,83.82h58.71v13.64h-58.71v-13.64ZM319.3,128.46h50.98v13.64h-50.98v-13.64ZM319.3,172.41h58.71v13.64h-58.71v-13.64Z"/>
        <path class="cls-3" d="M386.19,113.07h14.34v72.98h-14.34v-72.98ZM430.49,141.82c0-5.16-1.34-9.14-4.01-11.95s-6.42-4.22-11.25-4.22-8.31,1.24-10.86,3.73c-2.56,2.49-3.83,5.98-3.83,10.48l-1.48-14.06c2.25-4.41,5.19-7.8,8.82-10.2,3.63-2.39,7.65-3.59,12.06-3.59,7.92,0,14.05,2.59,18.39,7.77,4.33,5.18,6.5,12.5,6.5,21.97v44.3h-14.34v-44.23Z"/>
        <path class="cls-3" d="M468.42,183.31c-4.78-2.53-8.43-6.25-10.93-11.14-2.51-4.9-3.76-10.82-3.76-17.75v-8.23c0-7.22,1.21-13.38,3.62-18.49,2.41-5.11,5.92-9,10.51-11.67,4.59-2.67,10.12-4.01,16.59-4.01,6.09,0,11.3,1.52,15.61,4.57,4.31,3.05,7.6,7.45,9.88,13.22,2.27,5.77,3.41,12.68,3.41,20.74v4.78h-49.22v-11.53h35.58c-.42-5.95-1.96-10.58-4.61-13.89-2.65-3.3-6.2-4.96-10.65-4.96-5.44,0-9.65,1.78-12.62,5.34-2.98,3.56-4.46,8.6-4.46,15.12v9.28c0,6.05,1.59,10.69,4.78,13.92,3.19,3.23,7.71,4.85,13.57,4.85,2.91,0,5.79-.59,8.65-1.76,2.86-1.17,5.41-2.81,7.66-4.92l9.42,9.42c-3.61,3.47-7.66,6.15-12.16,8.05s-9.02,2.85-13.57,2.85c-6.75,0-12.52-1.27-17.3-3.8Z"/>
        <path class="cls-3" d="M522.23,113.07h14.34v72.98h-14.34v-72.98ZM557.6,126.85c-1.92-.8-4.15-1.2-6.68-1.2-4.55,0-8.08,1.25-10.58,3.76s-3.76,5.99-3.76,10.44l-1.48-14.06c2.25-4.36,5.16-7.75,8.72-10.16,3.56-2.41,7.5-3.62,11.81-3.62,3.33,0,6.34.48,9.04,1.44,2.69.96,5.05,2.38,7.07,4.25l-9.35,12.66c-1.27-1.55-2.86-2.72-4.78-3.52Z"/>
        <path class="cls-1" d="M632.23,96.19l-44.51,76.22h45.91v13.64h-63.56v-12.38l44.86-76.22h-43.59v-13.64h60.89v12.38Z"/>
        <path class="cls-1" d="M643.58,181.52c-4.45-3.73-6.68-9.39-6.68-16.98s2.04-12.63,6.12-16.24c4.08-3.61,10.24-5.41,18.49-5.41h20.74l.98,11.53h-21.66c-3.75,0-6.55.83-8.4,2.5-1.85,1.66-2.78,4.21-2.78,7.63,0,3.7,1.23,6.45,3.69,8.23,2.46,1.78,6.2,2.67,11.21,2.67,5.48,0,9.57-.59,12.27-1.76,2.69-1.17,4.04-3,4.04-5.48l1.48,10.27c-1.27,1.97-2.82,3.59-4.68,4.85-1.85,1.27-4,2.21-6.43,2.85-2.44.63-5.18.95-8.23.95-9,0-15.73-1.86-20.18-5.59ZM681.62,139.79c0-4.78-1.28-8.5-3.83-11.14-2.56-2.65-6.18-3.97-10.86-3.97-2.91,0-5.75.45-8.54,1.34-2.79.89-5.26,2.13-7.42,3.73l-10.48-7.17c2.77-3.33,6.41-5.92,10.93-7.77,4.52-1.85,9.55-2.78,15.08-2.78,6.05,0,11.23,1.07,15.54,3.2,4.31,2.13,7.59,5.23,9.84,9.28,2.25,4.06,3.38,8.94,3.38,14.66v46.9h-13.64v-46.27Z"/>
        <path class="cls-1" d="M706.26,113.07h14.34v72.98h-14.34v-72.98ZM749.85,141.82c0-5.16-1.27-9.14-3.8-11.95s-6.12-4.22-10.76-4.22-8.31,1.24-10.86,3.73c-2.56,2.49-3.83,5.98-3.83,10.48l-1.48-14.06c2.25-4.41,5.19-7.8,8.82-10.2,3.63-2.39,7.65-3.59,12.06-3.59,5.11,0,9.47,1.16,13.08,3.48,3.61,2.32,6.36,5.71,8.26,10.16,1.9,4.45,2.85,9.82,2.85,16.1v44.3h-14.34v-44.23ZM793.44,141.82c0-5.16-1.34-9.14-4.01-11.95s-6.42-4.22-11.25-4.22c-4.45,0-7.9,1.36-10.34,4.08-2.44,2.72-3.66,6.56-3.66,11.53l-2.88-14.06c2.3-4.83,5.33-8.57,9.11-11.21,3.77-2.65,7.93-3.97,12.48-3.97,5.25,0,9.74,1.16,13.46,3.48s6.56,5.71,8.51,10.16c1.94,4.45,2.92,9.82,2.92,16.1v44.3h-14.34v-44.23Z"/>
      </g>
      <g>
        <path class="cls-2" d="M312.62,202.16h3.92v27.94h-3.92v-27.94ZM315.27,226.37h6.32c2.06,0,3.66-.53,4.79-1.6,1.13-1.07,1.7-2.58,1.7-4.52v-8.22c0-1.95-.57-3.45-1.7-4.52-1.13-1.07-2.73-1.6-4.79-1.6h-6.32v-3.73h6.21c2.24,0,4.16.39,5.74,1.17,1.59.78,2.8,1.92,3.63,3.42.83,1.5,1.25,3.3,1.25,5.42v7.92c0,2.11-.42,3.92-1.25,5.42-.83,1.5-2.05,2.64-3.64,3.42-1.59.78-3.51,1.17-5.75,1.17h-6.19v-3.73Z"/>
        <path class="cls-2" d="M338.06,202.16h3.92v3.92h-3.92v-3.92ZM338.06,210.15h3.92v19.94h-3.92v-19.94Z"/>
        <path class="cls-2" d="M359.68,210.15h4.09l-7.49,19.94h-2.96l-7.49-19.94h4.09l4.88,14.24,4.88-14.24Z"/>
        <path class="cls-2" d="M364.63,225.99h4.11v4.11h-4.11v-4.11Z"/>
        <path class="cls-2" d="M387.37,229.49c-1.03-.63-1.82-1.56-2.35-2.78-.54-1.22-.81-2.68-.81-4.38v-4.4c0-1.72.26-3.18.79-4.4.52-1.22,1.29-2.14,2.3-2.78,1.01-.63,2.21-.95,3.62-.95,1.18,0,2.26.31,3.24.92.98.61,1.77,1.48,2.37,2.59l-.4,4.07c0-.85-.15-1.57-.46-2.17-.31-.6-.75-1.06-1.34-1.37-.58-.31-1.29-.47-2.12-.47-1.29,0-2.3.4-3.01,1.21s-1.07,1.94-1.07,3.4v4.34c0,1.45.36,2.56,1.07,3.35s1.71,1.18,3.01,1.18c.83,0,1.54-.16,2.12-.49.58-.33,1.03-.8,1.34-1.41s.46-1.35.46-2.21l.27,4.21c-.4.99-1.05,1.81-1.95,2.48s-2.01,1-3.33,1c-1.46,0-2.71-.32-3.74-.95ZM396.12,202.16h3.92v27.94h-3.92v-27.94Z"/>
        <path class="cls-2" d="M409.44,229.35c-1.31-.69-2.3-1.71-2.99-3.05-.69-1.34-1.03-2.96-1.03-4.85v-2.25c0-1.97.33-3.66.99-5.05.66-1.4,1.62-2.46,2.87-3.19,1.26-.73,2.77-1.1,4.53-1.1,1.66,0,3.09.42,4.27,1.25,1.18.83,2.08,2.04,2.7,3.61.62,1.58.93,3.47.93,5.67v1.31h-13.45v-3.15h9.72c-.12-1.63-.54-2.89-1.26-3.79-.72-.9-1.69-1.35-2.91-1.35-1.49,0-2.64.49-3.45,1.46-.81.97-1.22,2.35-1.22,4.13v2.54c0,1.65.44,2.92,1.31,3.8.87.88,2.11,1.33,3.71,1.33.79,0,1.58-.16,2.36-.48.78-.32,1.48-.77,2.09-1.34l2.57,2.57c-.99.95-2.09,1.68-3.32,2.2-1.23.52-2.47.78-3.71.78-1.84,0-3.42-.35-4.73-1.04Z"/>
        <path class="cls-2" d="M442.17,229.16c-1.47-.81-2.58-2-3.35-3.55s-1.15-3.43-1.15-5.62v-17.83h3.92v17.96c0,2.04.51,3.61,1.54,4.73,1.02,1.11,2.47,1.67,4.34,1.67s3.34-.56,4.37-1.67c1.03-1.11,1.55-2.69,1.55-4.73v-17.96h3.92v17.83c0,2.19-.38,4.06-1.15,5.62s-1.89,2.74-3.36,3.55c-1.47.81-3.25,1.22-5.32,1.22s-3.83-.41-5.29-1.22Z"/>
        <path class="cls-2" d="M467.1,229.1c-1.47-.86-2.6-2.08-3.41-3.65s-1.21-3.4-1.21-5.48v-7.67c0-2.08.4-3.9,1.21-5.48s1.94-2.8,3.41-3.66c1.47-.86,3.17-1.3,5.1-1.3,1.6,0,3.07.34,4.42,1.03,1.34.69,2.47,1.66,3.37,2.91.9,1.26,1.51,2.71,1.83,4.36h-4.02c-.24-.87-.65-1.65-1.22-2.33-.57-.68-1.24-1.21-2.01-1.59-.77-.37-1.56-.56-2.38-.56-1.14,0-2.14.28-3,.83-.86.55-1.52,1.32-2,2.32-.47.99-.71,2.15-.71,3.47v7.67c0,1.31.24,2.46.71,3.46.47,1,1.14,1.77,2,2.32.86.54,1.86.82,3,.82.83,0,1.63-.17,2.39-.52.76-.35,1.43-.86,2-1.54.57-.68.98-1.49,1.22-2.42h4.02c-.32,1.65-.94,3.11-1.84,4.36-.91,1.26-2.04,2.23-3.38,2.91-1.34.69-2.81,1.03-4.4,1.03-1.93,0-3.63-.43-5.1-1.29Z"/>
        <path class="cls-2" d="M485.48,210.15h8.99v3.54h-8.99v-3.54ZM488.66,228.86c-.75-.89-1.12-2.21-1.12-3.95v-20.56h3.92v20.6c0,.49.1.86.29,1.12.19.26.47.39.85.39h1.88v3.73h-2.27c-1.61,0-2.8-.44-3.54-1.34Z"/>
        <path class="cls-2" d="M499.85,210.15h3.92v19.94h-3.92v-19.94ZM509.52,213.92c-.53-.22-1.13-.33-1.83-.33-1.24,0-2.21.34-2.89,1.03s-1.03,1.64-1.03,2.85l-.4-3.84c.61-1.19,1.41-2.12,2.38-2.78.97-.66,2.05-.99,3.23-.99.91,0,1.73.13,2.47.39.74.26,1.38.65,1.93,1.16l-2.56,3.46c-.35-.42-.78-.74-1.31-.96Z"/>
        <path class="cls-2" d="M516.65,202.16h3.92v3.92h-3.92v-3.92ZM516.65,210.15h3.92v19.94h-3.92v-19.94Z"/>
        <path class="cls-2" d="M533.55,214.13l7.01-11.97h4.4l-9.24,15.12-7.49,12.82h-4.4l9.72-15.97ZM533.73,217.82l-.6-.96-9.07-14.7h4.4l6.74,11.37.63,1.04,9.55,15.52h-4.4l-7.26-12.28Z"/>
      </g>
    </g>
  </g>
  <g id="_--text_outside" data-name="--text outside">
    <polyline class="cls-4" points="2.97 -827.74 -396.92 -827.74 -396.92 529.3 2.97 529.3"/>
  </g>
</svg>