<?xml version="1.0" encoding="UTF-8"?>
<svg id="logo_en" xmlns="http://www.w3.org/2000/svg" viewBox="0 0 648 576">
  <defs>
    <style>
      .cls-1 {
        fill: #3b3b3b;
        stroke-width: 0px;
      }
    </style>
  </defs>
  <g>
    <path class="cls-1" d="M452.2,169.66c-8.28-13.55-15.14-27.77-16.87-31.42-.15-.32-.61-.3-.73.04-1.27,3.86-6.33,18.99-12.38,33.46-.11.27.1.56.39.54l9.62-.67c-1.9,40.82-24.42,80.03-59.54,101.31-50.13,30.99-119.47,25.07-155.87-23.93-26.93-34.81-27.18-86.19-.63-121.31,35.17-48.99,108.11-58.78,155.8-22.36,23.54,17.45,39.45,44.89,42,74.19.18,1.61,2.57,1.42,2.48-.21-2.34-30.1-18.47-58.44-42.51-76.58-49.15-38.2-124.75-28.37-161.64,22.1-28.26,36.71-28.33,90.86-.3,127.75,32.99,45.23,93.43,57.06,144.1,36.9,48.86-18.57,82.44-66.6,84.8-118.45l10.98-.76c.29-.02.46-.34.31-.6Z"/>
    <g>
      <path class="cls-1" d="M262.07,216.19v52.76c-14.31-7.6-26.37-18.89-34.91-32.57v-20.19h34.91Z"/>
      <path class="cls-1" d="M301.8,194.16v85.44c-12.43-.43-24.22-3.36-34.92-8.26v-77.17h34.92Z"/>
      <path class="cls-1" d="M341.52,167.41v104.77c-10.73,4.64-22.53,7.28-34.92,7.47v-112.24h34.92Z"/>
      <path class="cls-1" d="M381.25,138.16v101.11c-8.8,12.98-20.82,23.58-34.93,30.66v-131.78h34.93Z"/>
    </g>
  </g>
  <g>
    <path class="cls-1" d="M53.6,316.6h15.6v111.16h-15.6v-111.16ZM61.17,316.6h63.83v14.83h-63.83v-14.83ZM61.17,365.15h55.42v14.83h-55.42v-14.83ZM61.17,412.93h63.83v14.83h-63.83v-14.83Z"/>
    <path class="cls-1" d="M133.9,348.4h15.6v79.35h-15.6v-79.35ZM182.06,379.67c0-5.61-1.45-9.94-4.36-13s-6.98-4.59-12.23-4.59-9.03,1.35-11.81,4.05c-2.78,2.7-4.17,6.5-4.17,11.39l-1.61-15.29c2.45-4.79,5.64-8.49,9.59-11.08,3.95-2.6,8.32-3.9,13.11-3.9,8.61,0,15.28,2.82,19.99,8.45,4.71,5.63,7.07,13.6,7.07,23.89v48.16h-15.6v-48.09Z"/>
    <path class="cls-1" d="M223.3,424.77c-5.2-2.75-9.16-6.79-11.89-12.12-2.73-5.32-4.09-11.76-4.09-19.3v-8.94c0-7.85,1.31-14.55,3.94-20.11,2.62-5.55,6.43-9.79,11.43-12.69,4.99-2.91,11.01-4.36,18.04-4.36,6.62,0,12.28,1.66,16.97,4.97,4.69,3.31,8.27,8.1,10.74,14.37,2.47,6.27,3.71,13.79,3.71,22.55v5.2h-53.51v-12.54h38.68c-.46-6.47-2.13-11.51-5.01-15.1-2.88-3.59-6.74-5.39-11.58-5.39-5.91,0-10.49,1.94-13.72,5.81-3.24,3.87-4.85,9.35-4.85,16.44v10.09c0,6.57,1.73,11.62,5.2,15.14,3.47,3.52,8.38,5.27,14.75,5.27,3.16,0,6.29-.64,9.4-1.91,3.11-1.27,5.89-3.06,8.33-5.35l10.24,10.24c-3.93,3.77-8.33,6.69-13.23,8.75-4.89,2.06-9.81,3.1-14.75,3.1-7.34,0-13.61-1.38-18.81-4.13Z"/>
    <path class="cls-1" d="M281.81,348.4h15.6v79.35h-15.6v-79.35ZM320.26,363.39c-2.09-.87-4.51-1.3-7.26-1.3-4.94,0-8.78,1.36-11.51,4.09-2.73,2.73-4.09,6.51-4.09,11.35l-1.61-15.29c2.45-4.74,5.61-8.42,9.48-11.05,3.87-2.62,8.15-3.94,12.84-3.94,3.62,0,6.89.52,9.82,1.57,2.93,1.05,5.49,2.59,7.68,4.63l-10.17,13.76c-1.38-1.68-3.11-2.95-5.2-3.82Z"/>
    <g>
      <path class="cls-1" d="M401.41,330.06l-48.39,82.87h49.92v14.83h-69.11v-13.45l48.77-82.87h-47.4v-14.83h66.2v13.45Z"/>
      <path class="cls-1" d="M413.74,422.83c-4.84-4.05-7.26-10.21-7.26-18.46s2.22-13.73,6.65-17.66c4.43-3.92,11.13-5.89,20.11-5.89h22.55l1.07,12.54h-23.55c-4.08,0-7.12.91-9.14,2.71-2.01,1.81-3.02,4.58-3.02,8.29,0,4.03,1.34,7.01,4.01,8.94,2.68,1.94,6.74,2.91,12.19,2.91,5.96,0,10.41-.64,13.34-1.91,2.93-1.27,4.4-3.26,4.4-5.96l1.61,11.16c-1.38,2.14-3.07,3.9-5.08,5.27-2.01,1.38-4.35,2.41-6.99,3.1-2.65.69-5.63,1.03-8.94,1.03-9.79,0-17.1-2.03-21.94-6.08ZM455.1,377.45c0-5.2-1.39-9.24-4.17-12.12-2.78-2.88-6.72-4.32-11.81-4.32-3.16,0-6.26.49-9.29,1.45-3.03.97-5.72,2.32-8.07,4.05l-11.39-7.8c3.01-3.62,6.97-6.43,11.89-8.45,4.92-2.01,10.38-3.02,16.4-3.02,6.57,0,12.21,1.16,16.89,3.48,4.69,2.32,8.26,5.68,10.7,10.09,2.45,4.41,3.67,9.72,3.67,15.94v50.99h-14.83v-50.3Z"/>
      <path class="cls-1" d="M481.89,348.4h15.6v79.35h-15.6v-79.35ZM529.29,379.67c0-5.61-1.38-9.94-4.13-13-2.75-3.06-6.65-4.59-11.7-4.59s-9.03,1.35-11.81,4.05c-2.78,2.7-4.17,6.5-4.17,11.39l-1.61-15.29c2.45-4.79,5.64-8.49,9.59-11.08,3.95-2.6,8.32-3.9,13.11-3.9,5.55,0,10.29,1.26,14.22,3.78,3.92,2.52,6.92,6.21,8.98,11.05,2.06,4.84,3.1,10.68,3.1,17.51v48.16h-15.6v-48.09ZM576.68,379.67c0-5.61-1.45-9.94-4.36-13s-6.98-4.59-12.23-4.59c-4.84,0-8.59,1.48-11.24,4.43-2.65,2.96-3.98,7.14-3.98,12.54l-3.13-15.29c2.5-5.25,5.8-9.31,9.9-12.19,4.1-2.88,8.63-4.32,13.57-4.32,5.71,0,10.59,1.26,14.64,3.78,4.05,2.52,7.13,6.21,9.25,11.05,2.11,4.84,3.17,10.68,3.17,17.51v48.16h-15.6v-48.09Z"/>
    </g>
  </g>
  <g>
    <path class="cls-1" d="M53.6,444.57h4.26v30.37h-4.26v-30.37ZM56.48,470.89h6.87c2.24,0,3.98-.58,5.21-1.74,1.23-1.16,1.85-2.8,1.85-4.92v-8.94c0-2.12-.62-3.76-1.85-4.92-1.23-1.16-2.97-1.74-5.21-1.74h-6.87v-4.05h6.75c2.44,0,4.52.43,6.25,1.27,1.73.85,3.04,2.09,3.95,3.72.91,1.63,1.36,3.59,1.36,5.89v8.61c0,2.3-.45,4.26-1.36,5.89-.91,1.63-2.22,2.87-3.96,3.72-1.73.85-3.82,1.27-6.26,1.27h-6.73v-4.05Z"/>
    <path class="cls-1" d="M81.26,444.57h4.26v4.26h-4.26v-4.26ZM81.26,453.26h4.26v21.68h-4.26v-21.68Z"/>
    <path class="cls-1" d="M104.76,453.26h4.45l-8.15,21.68h-3.22l-8.15-21.68h4.45l5.31,15.48,5.31-15.48Z"/>
    <path class="cls-1" d="M110.15,470.48h4.47v4.47h-4.47v-4.47Z"/>
    <path class="cls-1" d="M135.55,474.15c-1.34-.74-2.36-1.81-3.06-3.23-.7-1.41-1.05-3.12-1.05-5.11v-3.53c0-1.96.35-3.65,1.05-5.04.7-1.4,1.72-2.46,3.06-3.2s2.95-1.1,4.83-1.1,3.49.37,4.83,1.1,2.36,1.8,3.06,3.2c.7,1.4,1.05,3.08,1.05,5.04v3.59c0,1.98-.35,3.67-1.05,5.07-.7,1.4-1.72,2.47-3.06,3.21-1.34.74-2.95,1.11-4.83,1.11s-3.49-.37-4.83-1.11ZM143.83,469.81c.81-.93,1.22-2.24,1.22-3.93v-3.59c0-1.68-.41-2.99-1.22-3.91s-1.97-1.38-3.46-1.38-2.64.46-3.46,1.38-1.22,2.22-1.22,3.91v3.59c0,1.69.41,2.99,1.22,3.93.81.93,1.97,1.4,3.46,1.4s2.64-.47,3.46-1.4Z"/>
    <path class="cls-1" d="M153.7,453.26h10.84v3.63h-10.84v-3.63ZM156,450.32c0-1.92.44-3.36,1.33-4.31.88-.95,2.25-1.43,4.08-1.43h3.13v4.05h-3.05c-.4,0-.71.15-.92.46-.21.31-.31.7-.31,1.19v24.67h-4.26v-24.63Z"/>
    <path class="cls-1" d="M185.32,473.93c-1.59-.88-2.81-2.17-3.65-3.86-.84-1.69-1.25-3.73-1.25-6.11v-19.39h4.26v19.53c0,2.21.56,3.93,1.67,5.14,1.11,1.21,2.69,1.82,4.72,1.82s3.63-.61,4.75-1.82c1.12-1.21,1.68-2.92,1.68-5.14v-19.53h4.26v19.39c0,2.38-.42,4.42-1.25,6.11-.84,1.69-2.05,2.98-3.66,3.86-1.6.88-3.53,1.33-5.79,1.33s-4.16-.44-5.76-1.33Z"/>
    <path class="cls-1" d="M212.43,473.86c-1.59-.93-2.83-2.26-3.71-3.97s-1.32-3.7-1.32-5.95v-8.33c0-2.26.44-4.24,1.32-5.95s2.11-3.04,3.71-3.98c1.59-.94,3.44-1.41,5.55-1.41,1.74,0,3.34.37,4.8,1.12,1.46.75,2.68,1.8,3.67,3.16.98,1.37,1.65,2.95,1.99,4.74h-4.37c-.26-.95-.71-1.79-1.33-2.54-.62-.74-1.35-1.32-2.18-1.72-.84-.4-1.7-.61-2.59-.61-1.24,0-2.33.3-3.26.9-.93.6-1.66,1.44-2.17,2.52-.52,1.08-.77,2.34-.77,3.77v8.33c0,1.42.26,2.67.77,3.76.51,1.09,1.24,1.93,2.17,2.52.93.59,2.02.89,3.26.89.91,0,1.77-.19,2.6-.56.83-.38,1.55-.93,2.17-1.67.62-.74,1.06-1.62,1.33-2.63h4.37c-.35,1.8-1.02,3.38-2.01,4.74-.99,1.37-2.21,2.42-3.68,3.16-1.46.75-3.06,1.12-4.78,1.12-2.1,0-3.95-.47-5.55-1.4Z"/>
    <path class="cls-1" d="M232.41,453.26h9.78v3.84h-9.78v-3.84ZM235.87,473.6c-.81-.97-1.22-2.4-1.22-4.29v-22.35h4.26v22.39c0,.53.1.94.31,1.22.21.29.51.43.92.43h2.05v4.05h-2.46c-1.75,0-3.04-.48-3.85-1.45Z"/>
    <path class="cls-1" d="M248.04,453.26h4.26v21.68h-4.26v-21.68ZM258.54,457.36c-.57-.24-1.23-.36-1.98-.36-1.35,0-2.4.37-3.14,1.12s-1.12,1.78-1.12,3.1l-.44-4.18c.67-1.3,1.53-2.3,2.59-3.02,1.06-.72,2.23-1.08,3.51-1.08.99,0,1.88.14,2.68.43.8.29,1.5.71,2.1,1.26l-2.78,3.76c-.38-.46-.85-.81-1.42-1.04Z"/>
    <path class="cls-1" d="M266.29,444.57h4.26v4.26h-4.26v-4.26ZM266.29,453.26h4.26v21.68h-4.26v-21.68Z"/>
    <path class="cls-1" d="M284.68,457.59l7.62-13.01h4.78l-10.05,16.44-8.15,13.93h-4.78l10.57-17.36ZM284.87,461.6l-.65-1.04-9.86-15.98h4.78l7.33,12.37.69,1.13,10.38,16.88h-4.78l-7.9-13.35Z"/>
  </g>
</svg>