<?xml version="1.0" encoding="UTF-8"?>
<svg id="Layer_1" data-name="Layer 1" xmlns="http://www.w3.org/2000/svg" xmlns:xlink="http://www.w3.org/1999/xlink" viewBox="0 0 1150 342.36">
  <defs>
    <style>
      .cls-1 {
        fill: #be202e;
      }

      .cls-1, .cls-2, .cls-3, .cls-4, .cls-5, .cls-6, .cls-7, .cls-8, .cls-9, .cls-10 {
        stroke-width: 0px;
      }

      .cls-2 {
        fill: #367cc0;
      }

      .cls-3 {
        fill: #14416f;
      }

      .cls-4 {
        fill: url(#radial-gradient-2);
      }

      .cls-5 {
        fill: url(#radial-gradient-5);
      }

      .cls-6 {
        fill: url(#radial-gradient);
      }

      .cls-7 {
        fill: url(#radial-gradient-3);
      }

      .cls-8 {
        fill: #12426d;
      }

      .cls-9 {
        fill: #1d76bb;
      }

      .cls-10 {
        fill: url(#radial-gradient-4);
      }
    </style>
    <radialGradient id="radial-gradient" cx="2686.09" cy="514.78" fx="2686.09" fy="514.78" r="4.89" gradientTransform="translate(-80153.75 15488.65) scale(29.92 -29.92)" gradientUnits="userSpaceOnUse">
      <stop offset="0" stop-color="#fff"/>
      <stop offset="1" stop-color="#231f20"/>
    </radialGradient>
    <radialGradient id="radial-gradient-2" cx="2640.77" cy="511.58" fx="2640.77" fy="511.58" r="4.89" gradientTransform="translate(-53348.22 10634.44) scale(20.26 -20.26)" xlink:href="#radial-gradient"/>
    <radialGradient id="radial-gradient-3" cx="2716.01" cy="510.52" fx="2716.01" fy="510.52" r="4.89" gradientTransform="translate(-121500.69 23047.52) scale(44.82 -44.82)" xlink:href="#radial-gradient"/>
    <radialGradient id="radial-gradient-4" cx="2716" cy="510.5" fx="2716" fy="510.5" r="4.89" gradientTransform="translate(-121502.24 23047.91) scale(44.82 -44.82)" xlink:href="#radial-gradient"/>
    <radialGradient id="radial-gradient-5" cx="2679.98" cy="513.56" fx="2679.98" fy="513.56" r="4.89" gradientTransform="translate(-75689.71 14685.45) scale(28.31 -28.31)" xlink:href="#radial-gradient"/>
  </defs>
  <path class="cls-1" d="m451.19,129.96v89.7c0,13.99,2.51,23.75,7.57,29.3,5.06,5.54,13.77,8.32,26.13,8.32s21.07-2.73,26.13-8.27c5.01-5.5,7.52-15.27,7.52-29.34v-89.7h31.5v90.54c0,10.6-.7,19.05-2.11,25.39-1.36,6.29-3.61,11.3-6.64,14.96-5.98,7.08-13.51,12.27-22.61,15.62-9.06,3.3-20.33,4.97-33.79,4.97s-24.72-1.67-33.88-4.97c-9.15-3.35-16.72-8.54-22.66-15.62-2.99-3.61-5.19-8.44-6.55-14.56-1.37-6.12-2.02-14.7-2.02-25.78v-90.54h31.41"/>
  <path class="cls-1" d="m642.39,155.56c-13.07,0-22.44,4.14-28.2,12.45-5.72,8.27-8.62,21.91-8.62,40.87,0,16.41,2.77,28.03,8.27,34.76,5.5,6.68,15.05,10.07,28.55,10.07h51.78v26.09h-53.32c-11.74,0-20.98-1.01-27.72-2.99-6.73-2.02-13.07-5.41-18.96-10.16-7.66-6.12-13.42-14.08-17.29-23.89-3.83-9.81-5.76-21.56-5.76-35.24,0-26.48,5.76-46.02,17.25-58.64,11.48-12.58,29.3-18.92,53.41-18.92h52.4v25.6h-51.78"/>
  <path class="cls-8" d="m703.45,169.82h20.45v-39.86h29.08v39.86h30.66v21.91h-30.66v44.48c0,8.14,1.37,13.77,4.18,16.94,2.77,3.17,7.61,4.75,14.56,4.75h11.92v21.91h-26.48c-10.73,0-18.96-2.95-24.68-8.93-5.72-5.94-8.58-14.43-8.58-25.51v-53.63h-20.45v-21.91"/>
  <path class="cls-8" d="m800.76,169.82h48.83c11.39,0,19.4,2.07,23.98,6.2,4.62,4.09,6.91,11.26,6.91,21.56v18.35h-27.72v-14.17c0-4.31-.79-7.17-2.29-8.62-1.54-1.45-5.01-2.2-10.47-2.2h-10.21v88.87h-29.04v-109.98"/>
  <polyline class="cls-1" points="929.4 149.58 898.91 165.02 898.91 129.96 929.4 129.96 929.4 149.58"/>
  <polyline class="cls-8" points="929.4 279.8 898.91 279.8 898.91 177.52 929.4 162.12 929.4 279.8"/>
  <polyline class="cls-8" points="991.16 204.88 940.48 129.96 977.4 129.96 1008.28 177.25 1038.94 129.96 1075.32 129.96 1027.15 202.77 1078.8 279.8 1041.1 279.8 1009.6 227.63 976.17 279.8 938.77 279.8 991.16 204.88"/>
  <path class="cls-2" d="m354.23,224.11c-3.74,8.75-8.18,16.98-13.24,24.64,3.17,2.81,4.27,4.79,3.52,5.94,8.05-13.2,8.93-14.56,13.42-24.77q5.9-15.44,7.88-23.49l.75-3.17c.26-1.14-.92-2.95-3.69-5.45-2.02,8.84-4.88,17.64-8.62,26.31"/>
  <path class="cls-9" d="m159.07,308.92c.31.62.75,1.05,1.27,1.27.66.27,1.54.62,2.2.88,1.98.79,2.55,1.01,5.1,1.89-2.99-.93-5.85-2.24-8.58-4.05"/>
  <path class="cls-8" d="m365.8,206.42q-4.58,15.75-7.88,23.49c-6.86,14.39-7.43,15.58-13.42,24.77-1.45,2.15-9.81,1.27-23.58-2.29-2.29,7.74-4.84,16.54-10.34,25.87-1.89-15.36-8.89-31.41-40.25-72.42,37.09-8.89,62.3-17.82,81.48-37.09-2.38,8.93-5.06,19.05-11.39,32.07,16.1,4.31,25.52,5.33,26.13,2.42l-.75,3.17"/>
  <path class="cls-1" d="m259.9,182.49q-14.74-85.17-15.57-105.1c5.63,5.98,10.51,11.17,20.02,20.28,11.35-34.67,16.94-60.01,13.68-66.26,17.86,11.79,26.13,40.52,24.81,76.5,7.61-3.61,9.42-4.57,15.75-9.33-5.23,24.28-16.85,46.81-58.69,83.9"/>
  <path class="cls-3" d="m270.86,27.9c1.1.39,2.6.92,3.65,1.36.79.31,1.54.53,2.29.92l.48.18.75,1.05c-2.11-1.14-4.93-2.68-7.17-3.52"/>
  <path class="cls-8" d="m130.83,211.17c4.71-7.21,9.55-14.69,18.83-26.18-36.65-17.46-65.42-33.35-75.49-42.37l-.31-.31.04-.17c-1.58-2.82-3.21-5.76-2.55-8.58l.57-2.2c1.98-6.38,4.79-14.78,7.21-20.98,3.12-6.47,7.52-14.92,11.13-21.16,1.76.79,3.52,1.58,5.32,2.33l.09-.18.35.31c9.63,8.67,36.6,23.67,71.22,40.34.13-9.28.26-20.81,1.85-32.78,14.56,26.88,29.56,48.17,66.91,95.11-35.06,5.63-70.39,9.46-105.19,16.81"/>
  <path class="cls-8" d="m226.6,289.26c-20.55,19.88-41.66,29.03-58.95,23.71-2.6-.93-3.04-1.05-5.1-1.89-.66-.27-1.54-.62-2.2-.88,4.18,1.76,14.03-10.95,26.84-33.52-9.72.74-17.38,1.27-25.74,2.2,27.01-22.22,57.28-39.99,85.08-61.11,4.22,39.64,4.09,63.61-8.4,84.51-2.51-3.12-5.63-6.99-11.53-13.02"/>
  <path class="cls-2" d="m270.86,27.9c2.24.84,5.06,2.37,7.17,3.52l-.75-1.05-.48-.18c-.75-.4-1.5-.62-2.29-.92-1.05-.44-2.55-.97-3.65-1.36"/>
  <path class="cls-6" d="m277.51,39.67s0-8.68-8.16-10.22c-8.17-1.53-35.74,7.15-53.1,42.38-17.36,35.23,30.12-48.51,61.26-32.16Z"/>
  <path class="cls-4" d="m160.08,306.71s-22.98-16.85-12.76-49.02c0,0,6.13,53.61,27.57,32.68,0,0-7.15,16.34-14.81,16.34Z"/>
  <polygon class="cls-7" points="344.27 198.98 347.34 192.09 361.5 198.6 358.82 202.43 344.27 198.98"/>
  <polygon class="cls-10" points="283.38 197.83 327.04 184.42 283.38 168.34 258.89 185.82 253.52 158.77 224.02 148.81 220.58 162.98 279.93 198.98 283.38 197.83"/>
  <path class="cls-5" d="m97.75,90.22l64.33,37.27,2.04-3.06s-57.19-32.17-66.38-34.21Z"/>
</svg>